/* XPM */
static char *result[] = {
/* columns rows colors chars-per-pixel */
"60 70 84 1 ",
"  c #313B55",
". c #3B434F",
"X c #3B4256",
"o c #36415F",
"O c #374363",
"+ c #3A4665",
"@ c #3E4864",
"# c #3D4C6C",
"$ c #515453",
"% c #5B5E53",
"& c #686447",
"* c #454866",
"= c #444D6D",
"- c #4B4C6C",
"; c #524A66",
": c #524C6E",
"> c #5E4D6A",
", c #585D62",
"< c #424F70",
"1 c #425273",
"2 c #4B5574",
"3 c #495779",
"4 c #4C5A7B",
"5 c #5E5073",
"6 c #545C7D",
"7 c #6A4D6F",
"8 c #684E71",
"9 c #6B5074",
"0 c #755277",
"q c #7B5171",
"w c #86577C",
"e c #8B577D",
"r c #8F597E",
"t c #7F806C",
"y c #A79143",
"u c #576286",
"i c #5B6383",
"p c #5A6588",
"a c #646481",
"s c #646A87",
"d c #626B8B",
"f c #6D718D",
"g c #73748F",
"h c #667093",
"j c #697393",
"k c #6C7598",
"l c #6D799D",
"z c #737591",
"x c #777995",
"c c #7A7A96",
"v c #727A9D",
"b c #7F7F9D",
"n c #777EA1",
"m c #7A7FA1",
"M c #945A83",
"N c #7B81A4",
"B c #7F8EA9",
"V c #8686A5",
"C c #8188AD",
"Z c #8C8FAD",
"A c #878DB1",
"S c #8A8FB2",
"D c #8E94B4",
"F c #8E92B8",
"G c #9296BA",
"H c #979BC1",
"J c #9A9EC2",
"K c #9EA2C6",
"L c #A2A6C7",
"P c #A3A5CB",
"I c #A6A9CD",
"U c #A8A9CF",
"Y c #ACADD4",
"T c #ADB0D6",
"R c #AFB2D8",
"E c #B2B4DB",
"W c #B5B8DE",
"Q c #B7B9E1",
"! c #BABBE3",
"~ c #BBC0E6",
"^ c #BEC1E9",
"/ c #C1C5EC",
"( c #C1C8EC",
") c None",
/* pixels */
"))))))))))))))))))))))))))))))))))))))))))))))))))))))))))))",
"))))))))))))))))))))))))))))))))))))))))))))))))))))))))))))",
"))))))))))))))))))))))))))))))))))))))))))))))))))))))))))))",
"))))))))))))))))))))))))))))))))))))))))))))))))))))))))))))",
"))))))))))))))))))))))))))))))))))))))))))))))))))))))))))))",
"))))))))))))))))))))))))))))))))))))))))))))))))))))))))))))",
"))))))))))))))))))))))))))))))))))))))))))))))))))))))))))))",
"))))))))))))))))))))))))))))))))))))))))))))))))))))))))))))",
"))))))))))))))))))))))))))))))))))))))))))))))))))))))))))))",
"))))))))))))))))))))))))))))))))))))))))))))))))))))))))))))",
"))))))))))))))))))))))))))))))))))))))))))))))))))))))))))))",
"))))))))))))))))))))))))))))))))))))))))))))))))))))))))))))",
"))))))))))))))))))))))))))))))))))))))))))))))))))))))))))))",
"))))))))))))))))))))))))))))))))))))))))))))))))))))))))))))",
"))))))))))))))))))))))))))))))))))))))))))))))))))))))))))))",
"))))))))))))))))))))))))))))))))))))))))))))))))))))))))))))",
"))))))))))))))))))))))))))))))))))))))))))))))))))))))))))))",
"))))))))))))))))))))))))))))))))))))))))))))))))))))))))))))",
"))))))))))))))))))))))))))))))))))))))))))))))))))))))))))))",
"))))))))))))))))))))))))))))))))))))))))))))))))))))))))))))",
"))))))))))))))))))))))))))))))))))))))))))))))))))))))))))))",
"))))))))))))))))))))))))))))))))))))))))))))))))))))))))))))",
"))))))))))))))))))))))))))))))))))))))))))))))))))))))))))))",
"))))))))))))))))))))))))))))))))))))))))))))))))))))))))))))",
"))))))))))))))))))))))))))))))))))))))))))))))))))))))))))))",
"))))))))))))))))))))))))))))))))))))))))))))))))))))))))))))",
"))))))))))))))))))))))))))))))))))))))))))))))))))))))))))))",
"))))))))))))))))))))))))))))))79:<<)+@))))))))))))))))))))))",
")))))))))))))))))))))))))))))))eMM5#=++#))))))))))))))))))))",
"))))))))))))))))))))))))))))))))MMM9<+<#*)))))))))))))))))))",
"))))))))))))))))))))))))))))))))eM88<1<<1=))))))))))))))))))",
"))))))))))))))))))))))))))))))))qMM1111<oo=)))))))))))))))))",
"))))))))))))))))))))))))))))))))>88#111#Oo#)))))))))))))))))",
"))))))))))))))))))))))))))))))));<111111#X+=))))))))))))))))",
")))))))))))))))))))))))))))))))))<11111##%&#))))))))))))))))",
")))))))))))))))))))))))))))))))))=1111###$y.))))))))))))))))",
")))))))))))))))))))))))))))))))))#####3N4oy3))))))))))))))))",
"))))))))))))))))))))))))))))))))1#u#1#lRIjAYV)))))))))))))))",
"))))))))))))))))))))))))))))))##114##33G^^W!V)))))))))))))))",
"))))))))))))))))))))-<2=1114##3111##3#11NTGJ)))))RI)))))))))",
"))))))E!I6)))))))))=1111###3#3111#3311111j611=))E!R!E)))))))",
")))))))EA31-)))))))11111u#4#3#1114hlu11111##11<6!W!EREEIW)))",
"))))))))-11111=222*111114###1111##uNDa=11111#11v!EEGYEEY!W))",
")))))))))311111111#1111###4311114uSS))))11111##C!WEiGYYRYT))",
")))))))))))1111111#11111##1#1111hNc)))))))3#111H!!EFTQ!I!Q))",
")))))))))))))dppdlN111111=13116zxf))))))))))111K!W!!T!!)T)))",
"))))))))))))))LR!QI#1111112upgxxf)))))))))))))1K!TPYLKK)))))",
"))))))))))))))))RQI31111112ccxgf)))))))))))))))))))RYC))))))",
"))))))))))))))))))))1111111szf)IIEI)))))))))))))))))J)))))))",
")))))))))))))))))))))1111111)))EEY/())))))))))))))))))))))))",
")))))))))))))))))))))))31111)))WE//E))))))))))))))))))))))))",
")))))))))))))))))))))))))111))Y!///)))))))))))))))))))))))))",
")))))))))))))))))))))))))4112I!///L)))))))))))))))))))))))))",
"))))))))))))))))))))))))))11jQ!^/E))))))))))))))))))))))))))",
"))))))))))))))))))))))))))34K!!!Q)))))))))))))))))))))))))))",
"))))))))))))))))))))))))))NP!Q!!I)))))))))))))))))))))))))))",
"))))))))))))))))))))))))))Y!!!Q)))))))))))))))))))))))))))))",
")))))))))))))))))))))))))))TE)))))))))))))))))))))))))))))))",
"))))))))))))))))))))))))))))))))))))))))))))))))))))))))))))",
"))))))))))))))))))))))))))))))))))))))))))))))))))))))))))))",
"))))))))))))))))))))))))))))))))))))))))))))))))))))))))))))",
"))))))))))))))))))))))))))))))))))))))))))))))))))))))))))))",
"))))))))))))))))))))))))))))))))))))))))))))))))))))))))))))",
"))))))))))))))))))))))))))))))))))))))))))))))))))))))))))))",
"))))))))))))))))))))))))))))))))))))))))))))))))))))))))))))",
"))))))))))))))))))))))))))))))))))))))))))))))))))))))))))))",
"))))))))))))))))))))))))))))))))))))))))))))))))))))))))))))",
"))))))))))))))))))))))))))))))))))))))))))))))))))))))))))))",
"))))))))))))))))))))))))))))))))))))))))))))))))))))))))))))",
"))))))))))))))))))))))))))))))))))))))))))))))))))))))))))))"
};
