/* XPM */
static char *result[] = {
/* columns rows colors chars-per-pixel */
"60 70 79 1 ",
"  c #333D59",
". c #384057",
"X c #374360",
"o c #3A4564",
"O c #3E4C6D",
"+ c #3F4E70",
"@ c #444D46",
"# c #404756",
"$ c #535758",
"% c #545A5F",
"& c #635E47",
"* c #424D6D",
"= c #484C6D",
"- c #504D68",
"; c #5E4D6F",
": c #414F71",
"> c #425173",
", c #4A5575",
"< c #465578",
"1 c #495678",
"2 c #4E5B7B",
"3 c #525D7E",
"4 c #684D6D",
"5 c #604F73",
"6 c #724E72",
"7 c #6B5074",
"8 c #735277",
"9 c #5B617F",
"0 c #83557A",
"q c #A7933F",
"w c #989677",
"e c #515E81",
"r c #5A6383",
"t c #596389",
"y c #666481",
"u c #686980",
"i c #626788",
"p c #636A8B",
"a c #6A6D8A",
"s c #6E728E",
"d c #72748F",
"f c #646E93",
"g c #697296",
"h c #6C769A",
"j c #6D799F",
"k c #747693",
"l c #777995",
"z c #7B7B95",
"x c #747C9E",
"c c #7B7C9A",
"v c #767BA0",
"b c #8E5980",
"n c #935A83",
"m c #7B83A6",
"M c #7E85A9",
"N c #8086AB",
"B c #8389AD",
"V c #8B8AAB",
"C c #898EB2",
"Z c #8C92B4",
"A c #9296BB",
"S c #9893B9",
"D c #9A9ABE",
"F c #8BA2BA",
"G c #979CC1",
"H c #9D9DC2",
"J c #9FA1C5",
"K c #A4A6CB",
"L c #A6A9CF",
"P c #A9AACF",
"I c #ACAED4",
"U c #AEB0D6",
"Y c #AFB8D5",
"T c #AFB1D8",
"R c #B3B4DB",
"E c #B5B9DD",
"W c #B7B9E0",
"Q c #BABBE3",
"! c None",
/* pixels */
"!!!!!!!!!!!!!!!!!!!!!!!!!!!!!!!!!!!!!!!!!!!!!!!!!!!!!!!!!!!!",
"!!!!!!!!!!!!!!!!!!!!!!!!!!!!!!!!!!!!!!!!!!!!!!!!!!!!!!!!!!!!",
"!!!!!!!!!!!!!!!!!!!!!!!!!!!!!!!!!!!!!!!!!!!!!!!!!!!!!!!!!!!!",
"!!!!!!!!!!!!!!!!!!!!!!!!!!!!!!!!!!!!!!!!!!!!!!!!!!!!!!!!!!!!",
"!!!!!!!!!!!!!!!!!!!!!!!!!!!!!!!!!!!!!!!!!!!!!!!!!!!!!!!!!!!!",
"!!!!!!!!!!!!!!!!!!!!!!!!!!!!!!!!!!!!!!!!!!!!!!!!!!!!!!!!!!!!",
"!!!!!!!!!!!!!!!!!!!!!!!!!!!!!!!!!!!!!!!!!!!!!!!!!!!!!!!!!!!!",
"!!!!!!!!!!!!!!!!!!!!!!!!!!!!!!!!!!!!!!!!!!!!!!!!!!!!!!!!!!!!",
"!!!!!!!!!!!!!!!!!!!!!!!!!!!!!!!!!!!!!!!!!!!!!!!!!!!!!!!!!!!!",
"!!!!!!!!!!!!!!!!!!!!!!!!!!!!!!!!!!!!!!!!!!!!!!!!!!!!!!!!!!!!",
"!!!!!!!!!!!!!!!!!!!!!!!!!!!!!!!!!!!!!!!!!!!!!!!!!!!!!!!!!!!!",
"!!!!!!!!!!!!!!!!!!!!!!!!!!!!!!!!!!!!!!!!!!!!!!!!!!!!!!!!!!!!",
"!!!!!!!!!!!!!!!!!!!!!!!!!!!!!!!!!!!!!!!!!!!!!!!!!!!!!!!!!!!!",
"!!!!!!!!!!!!!!!!!!!!!!!!!!!!!!!!!!!!!!!!!!!!!!!!!!!!!!!!!!!!",
"!!!!!!!!!!!!!!!!!!!!!!!!!!!!!!!!!!!!!!!!!!!!!!!!!!!!!!!!!!!!",
"!!!!!!!!!!!!!!!!!!!!!!!!!!!!!!!!!!!!!!!!!!!!!!!!!!!!!!!!!!!!",
"!!!!!!!!!!!!!!!!!!!!!!!!!!!!!!!!!!!!!!!!!!!!!!!!!!!!!!!!!!!!",
"!!!!!!!!!!!!!!!!!!!!!!!!!!!!!!!!!!!!!!!!!!!!!!!!!!!!!!!!!!!!",
"!!!!!!!!!!!!!!!!!!!!!!!!!!!!!!!!!!!!!!!!!!!!!!!!!!!!!!!!!!!!",
"!!!!!!!!!!!!!!!!!!!!!!!!!!!!!!!!!!!!!!!!!!!!!!!!!!!!!!!!!!!!",
"!!!!!!!!!!!!!!!!!!!!!!!!!!!!!!!!!!!!!!!!!!!!!!!!!!!!!!!!!!!!",
"!!!!!!!!!!!!!!!!!!!!!!!!!!!!!!!!!!!!!!!!!!!!!!!!!!!!!!!!!!!!",
"!!!!!!!!!!!!!!!!!!!!!!!!!!!!!!!!!!!!!!!!!!!!!!!!!!!!!!!!!!!!",
"!!!!!!!!!!!!!!!!!!!!!!!!!!!!!!!!!!!!!!!!!!!!!!!!!!!!!!!!!!!!",
"!!!!!!!!!!!!!!!!!!!!!!!!!!!!!!!!!!!!!!!!!!!!!!!!!!!!!!!!!!!!",
"!!!!!!!!!!!!!!!!!!!!!!!!!!!!!!!!!!!!!!!!!!!!!!!!!!!!!!!!!!!!",
"!!!!!!!!!!!!!!!!!!!!!!!!!!!!!!!!!!!!!!!!!!!!!!!!!!!!!!!!!!!!",
"!!!!!!!!!!!!!!!!!!!!!!!!!!!!!!!!!!!!!!!!!!!!!!!!!!!!!!!!!!!!",
"!!!!!!!!!!!!!!!!!!!!!!!!!!!!!!>>*OOO!*!!!!!!!!!!!!!!!!!!!!!!",
"!!!!!!!!!!!!!!!!!!!!!!!!!!!!40085:ooOOo*!!!!!!!!!!!!!!!!!!!!",
"!!!!!!!!!!!!!!!!!!!!!!!!!!!!!0nnbb::>:*o!!!!!!!!!!!!!!!!!!!!",
"!!!!!!!!!!!!!!!!!!!!!!!!!!!!!!nn6;+>>>oo*!!!!!!!!!!!!!!!!!!!",
"!!!!!!!!!!!!!!!!!!!!!!!!!!!!!!0n0=>>>>X >!!!!!!!!!!!!!!!!!!!",
"!!!!!!!!!!!!!!!!!!!!!!!!!!!!!!!78>>>>>:.o>!!!!!!!!!!!!!!!!!!",
"!!!!!!!!!!!!!!!!!!!!!!!!!!!!!!O+>>>>>>>$&=!!!!!!!!!!!!!!!!!!",
"!!!!!!!!!!!!!!!!!!!!!!!!!!!!!1++:>>>>+>%q#!!!!!!!!!!!!!!!!!!",
"!!!!!!!!!!!!!!!!!!!!!!!!SHHDZMf2>>+++r,*w@!!!!!!!!!!!!!!!!!!",
"!!!!!!!!!!!!!!!!!!!=!!!!!VxgmMZMg3>+eIZ,VL9!!!!!!!!!!!!!!!!!",
"!!!!!!!!!!!!!!!!!*>>::*!!XO*><emAmt1>NEYIQu!!!!!!!!!!!!!!!!!",
"!!!!!!!REx:>:==!*>>>>:>::>>>>++<fZMr>>mYHIp!!!!PUK!!!!!!!!!!",
"!!!!!!RRH>>>>>>O<>>>>>>>>>>>>>++OhBMe>>pr<>O!!TQIWR!!!!!!!!!",
"!!!!!!!!!!=:>>+++>+<>>>>>>>>>><+<gBmj>>>+O>>:pQQEERIERT!!!!!",
"!!!!!!!!!!!!-:+>>+++>>>>>>>>>+<plcLRGe>>>>O+>hQIRHIRQEQ!!!!!",
"!!!!!!!!!!!!!A1>><<+>+<>>>>>9pzzlJQQW!>>>>>+:BQQI3DIIII!!!!!",
"!!!!!!!!!!!!Eg>>>>>9r9923yplzzlcUQWI!!!!O:>>+LQWIARWWUQ!!!!!",
"!!!!!!!!!!!EZ+>>>>3zmzzlzzzzzl9!QQR!!!!!!!+>+IQEWQRWE!R!!!!!",
"!!!!!!!QP!WQ3>>>>>!ddmzzzzzls!!!QW!!!!!!!!!!OLWRKTKR!!!!!!!!",
"!!!!!!RQQQQI>>>>>!!!!adddaa!!!!!Q!!!!!!!!!!!!!!!!EI!!!!!!!!!",
"!!!!!!KQQQQJ>>>>>!!!!!!!!!!!!!!!!!!!!!!!!!!!!!!!!!!!!!!!!!!!",
"!!!!!!!RQQWR>>><!!!!!!!!!!!!!!!!!!!!!!!!!!!!!!!!!!!!!!!!!!!!",
"!!!!!!KQQQQL!2!!!!!!!!!!!!!!!!!!!!!!!!!!!!!!!!!!!!!!!!!!!!!!",
"!!!!!!!RIEU!!!!!!!!!!!!!!!!!!!!!!!!!!!!!!!!!!!!!!!!!!!!!!!!!",
"!!!!!!!!!!!!!!!!!!!!!!!!!!!!!!!!!!!!!!!!!!!!!!!!!!!!!!!!!!!!",
"!!!!!!!!!!!!!!!!!!!!!!!!!!!!!!!!!!!!!!!!!!!!!!!!!!!!!!!!!!!!",
"!!!!!!!!!!!!!!!!!!!!!!!!!!!!!!!!!!!!!!!!!!!!!!!!!!!!!!!!!!!!",
"!!!!!!!!!!!!!!!!!!!!!!!!!!!!!!!!!!!!!!!!!!!!!!!!!!!!!!!!!!!!",
"!!!!!!!!!!!!!!!!!!!!!!!!!!!!!!!!!!!!!!!!!!!!!!!!!!!!!!!!!!!!",
"!!!!!!!!!!!!!!!!!!!!!!!!!!!!!!!!!!!!!!!!!!!!!!!!!!!!!!!!!!!!",
"!!!!!!!!!!!!!!!!!!!!!!!!!!!!!!!!!!!!!!!!!!!!!!!!!!!!!!!!!!!!",
"!!!!!!!!!!!!!!!!!!!!!!!!!!!!!!!!!!!!!!!!!!!!!!!!!!!!!!!!!!!!",
"!!!!!!!!!!!!!!!!!!!!!!!!!!!!!!!!!!!!!!!!!!!!!!!!!!!!!!!!!!!!",
"!!!!!!!!!!!!!!!!!!!!!!!!!!!!!!!!!!!!!!!!!!!!!!!!!!!!!!!!!!!!",
"!!!!!!!!!!!!!!!!!!!!!!!!!!!!!!!!!!!!!!!!!!!!!!!!!!!!!!!!!!!!",
"!!!!!!!!!!!!!!!!!!!!!!!!!!!!!!!!!!!!!!!!!!!!!!!!!!!!!!!!!!!!",
"!!!!!!!!!!!!!!!!!!!!!!!!!!!!!!!!!!!!!!!!!!!!!!!!!!!!!!!!!!!!",
"!!!!!!!!!!!!!!!!!!!!!!!!!!!!!!!!!!!!!!!!!!!!!!!!!!!!!!!!!!!!",
"!!!!!!!!!!!!!!!!!!!!!!!!!!!!!!!!!!!!!!!!!!!!!!!!!!!!!!!!!!!!",
"!!!!!!!!!!!!!!!!!!!!!!!!!!!!!!!!!!!!!!!!!!!!!!!!!!!!!!!!!!!!",
"!!!!!!!!!!!!!!!!!!!!!!!!!!!!!!!!!!!!!!!!!!!!!!!!!!!!!!!!!!!!",
"!!!!!!!!!FFFFFFFFFFF!!!!!!!!!!!!!!!!!!!!!!!!!!!!!!!!!!!!!!!!"
};
