/* XPM */
static char *result[] = {
/* columns rows colors chars-per-pixel */
"60 70 83 1 ",
"  c #22202E",
". c #615A3D",
"X c #2F3851",
"o c #36405E",
"O c #3E405E",
"+ c #3B4665",
"@ c #3C4965",
"# c #3A4768",
"$ c #3E4C6D",
"% c #3F4F70",
"& c #605C49",
"* c #757145",
"= c #474965",
"- c #424C6D",
"; c #4C4B6C",
": c #54496A",
"> c #404F70",
", c #4C4F70",
"< c #425273",
"1 c #4B5675",
"2 c #4A5779",
"3 c #4F5B7C",
"4 c #575275",
"5 c #515B7C",
"6 c #625172",
"7 c #7A5276",
"8 c #775679",
"9 c #7E557A",
"0 c #787669",
"q c #825579",
"w c #88577D",
"e c #978943",
"r c #535F81",
"t c #566284",
"y c #5C6484",
"u c #5C6789",
"i c #5C698C",
"p c #656A85",
"a c #636A8B",
"s c #686D8A",
"d c #6E718D",
"f c #71738E",
"g c #6D7393",
"h c #747693",
"j c #777894",
"k c #7B7B96",
"l c #717798",
"z c #747C9C",
"x c #7A7A99",
"c c #747DA0",
"v c #797EA1",
"b c #945A83",
"n c #7B82A5",
"m c #7F85A9",
"M c #82859D",
"N c #8186AA",
"B c #8289AD",
"V c #8A8AAA",
"C c #8B8FB3",
"Z c #8F94B8",
"A c #9399B7",
"S c #9096B8",
"D c #9398BD",
"F c #9B9EBF",
"G c #9DA1C4",
"H c #A2A1C3",
"J c #A3A6CB",
"K c #A5A9CE",
"L c #A8A9CD",
"P c #A7ABD1",
"I c #ABADD4",
"U c #ADB1D5",
"Y c #AFB2D9",
"T c #B0B1D7",
"R c #B3B4DB",
"E c #B5BADE",
"W c #B7B9E0",
"Q c #BABBE3",
"! c #BDC0E7",
"~ c #BEC4E9",
"^ c #C2C7ED",
"/ c #C2C8EE",
"( c None",
/* pixels */
"((((((((((((((((((((((((((((((((((((((((((((((((((((((((((((",
"((((((((((((((((((((((((((((((((((((((((((((((((((((((((((((",
"((((((((((((((((((((((((((((((((((((((((((((((((((((((((((((",
"((((((((((((((((((((((((((((((((((((((((((((((((((((((((((((",
"((((((((((((((((((((((((((((((((((((((((((((((((((((((((((((",
"((((((((((((((((((((((((((((((((((((((((((((((((((((((((((((",
"((((((((((((((((((((((((((((((((((((((((((((((((((((((((((((",
"((((((((((((((((((((((((((((((((((((((((((((((((((((((((((((",
"((((((((((((((((((((((((((((((((((((((((((((((((((((((((((((",
"((((((((((((((((((((((((((((((((((((((((((((((((((((((((((((",
"((((((((((((((((((((((((((((((((((((((((((((((((((((((((((((",
"((((((((((((((((((((((((((((((((((((((((((((((((((((((((((((",
"((((((((((((((((((((((((((((((((((((((((((((((((((((((((((((",
"((((((((((((((((((((((((((((((((((((((((((((((((((((((((((((",
"((((((((((((((((((((((((((((((((((((((((((((((((((((((((((((",
"((((((((((((((((((((((((((((((((((((((((((((((((((((((((((((",
"((((((((((((((((((((((((((((((((((((((((((((((((((((((((((((",
"((((((((((((((((((((((((((((((((((((((((((((((((((((((((((((",
"((((((((((((((((((((((((((((((((((((((((((((((((((((((((((((",
"((((((((((((((((((((((((((((((((((((((((((((((((((((((((((((",
"((((((((((((((((((((((((((((((((((((((((((((((((((((((((((((",
"((((((((((((((((((((((((((((((((((((((((((((((((((((((((((((",
"((((((((((((((((((((((((((((((((((((((((((((((((((((((((((((",
"((((((((((((((((((((((((((((((((((((((((((((((((((((((((((((",
"((((((((((((((((((((((((((((((((((((((((((((((((((((((((((((",
"((((((((((((((((((((((((((((((((((((((((((((((((((((((((((((",
"((((((((((((((((((((((((((((((((((((((((((((((((((((((((((((",
"((((((((((((((((((((((((((((((;-((++((((((((((((((((((((((((",
"((((((((((((((((((((((((((((((bq6-=++--(((((((((((((((((((((",
"((((((((((((((((((((((((((((((qbbw,-+$-=((((((((((((((((((((",
"(((((((((((((((((((((((((((((((bb79>><-;((((((((((((((((((((",
"(((((((((((((((((((((((((((((((qb:-<<<<#-(((((((((((((((((((",
"(((((((((((((((((((((((((((((((8w7<<<<#+@;((((((((((((((((((",
"((((((((((((((((((((((((((((((((4,<<<<%+X-((((((((((((((((((",
"(((((((((((((((((((((((((((((((-%<<<<<%%.=((((((((((((((((((",
"(((((((((((((((((((((((((-(((((;<%<<<%<%e&((((((((((((((((((",
"(((((((((((((((((((((((<<<$((((->%%%%<1@0*X(((((((((((((((((",
"((((((((((((((((((((%%<<<<-((-<<<<<%%nG1pMJ(((((((((((((((((",
"(((((((((((((((((($<<<<<<<$%<<<<<<<<<lUUFLR ((((((((((((((((",
"((((((((((((((((((<<%$<<<<$<<<<<<<<<<<lEEWI(((((((((((((((((",
"(((((((QRg<<((((Wg-%%<<<<<<<<<<%$%<<<<<uvu<;(((QRWR(((((((((",
"((((((((B><<<<(WWIr<<<<<<%<<<<<<<yst<<<<<$<<<(RWQIIRW(((((((",
"((((((((((<<<<5SWQl<<<<<$%<<%<3skkjxu<<<%<$%<2QRQLIRRRQR((((",
"(((((((((((%<iBSRWWDc5<%<<<1thkkkh((((<<<<<%-tQQIxCIUIRR((((",
"(((((((((((((CBiBRQQQVkkhhjkkkkkd(((((((<<<<<mQWQcJQQRRI((((",
"(((((((((((((((>rIQWWLkkkkkkkkks((((((((((<<<mQWQQIQWAWR((((",
"(((((((((((((((((RQQWTkkkkkkkhp(((((((((((((<NQRTTKIR(((((((",
"((((((((((((((((TWQWRRkkkkkhd((((!((((((((((((GG(TI(((((((((",
"((((((((((((((((PQQUYGpppy5(((((Y!UY(((((((((((((JJ(((((((((",
"(((((((((((((((((KJYJ((-<<<1(((KWWYW((((((((((((((((((((((((",
"((((((((((((((((((((((((<<<<(((YQYQ(((((((((((((((((((((((((",
"(((((((((((((((((((((((((<<<((PQW!^(((((((((((((((((((((((((",
"(((((((((((((((((((((((((<<<(GQQQ//(((((((((((((((((((((((((",
"((((((((((((((((((((((((((<<cWQ!^~((((((((((((((((((((((((((",
"((((((((((((((((((((((((((<nWQW!/(((((((((((((((((((((((((((",
"((((((((((((((((((((((((((LQEY!!((((((((((((((((((((((((((((",
"((((((((((((((((((((((((((RIRQR(((((((((((((((((((((((((((((",
"(((((((((((((((((((((((((((RW(((((((((((((((((((((((((((((((",
"((((((((((((((((((((((((((((((((((((((((((((((((((((((((((((",
"((((((((((((((((((((((((((((((((((((((((((((((((((((((((((((",
"((((((((((((((((((((((((((((((((((((((((((((((((((((((((((((",
"((((((((((((((((((((((((((((((((((((((((((((((((((((((((((((",
"((((((((((((((((((((((((((((((((((((((((((((((((((((((((((((",
"((((((((((((((((((((((((((((((((((((((((((((((((((((((((((((",
"((((((((((((((((((((((((((((((((((((((((((((((((((((((((((((",
"((((((((((((((((((((((((((((((((((((((((((((((((((((((((((((",
"((((((((((((((((((((((((((((((((((((((((((((((((((((((((((((",
"((((((((((((((((((((((((((((((((((((((((((((((((((((((((((((",
"((((((((((((((((((((((((((((((((((((((((((((((((((((((((((((",
"(((((((((((((((((((((((((((((((((((((((((((((((((((((((((((("
};
