/* XPM */
static char *result[] = {
/* columns rows colors chars-per-pixel */
"60 70 91 1 ",
"  c #32373F",
". c #2D354E",
"X c #323B56",
"o c #37405C",
"O c #374262",
"+ c #394463",
"@ c #3E4C6D",
"# c #3F4E70",
"$ c #4C4766",
"% c #434C6D",
"& c #4A4C6C",
"* c #42506F",
"= c #58516B",
"- c #414F70",
"; c #484E70",
": c #524E70",
"> c #425273",
", c #495475",
"< c #4B5679",
"1 c #4B597B",
"2 c #535570",
"3 c #525B7B",
"4 c #634B6B",
"5 c #644F74",
"6 c #6E4F74",
"7 c #635172",
"8 c #605A78",
"9 c #7D5177",
"0 c #7C7A6C",
"q c #83536F",
"w c #84557B",
"e c #8C5679",
"r c #90597F",
"t c #525F82",
"y c #556282",
"u c #5B6383",
"i c #5B668A",
"p c #5E698C",
"a c #646785",
"s c #616C8D",
"d c #6A6E89",
"f c #6C718B",
"g c #72738E",
"h c #616B92",
"j c #6B7394",
"k c #6D7699",
"l c #747691",
"z c #777993",
"x c #7B7B95",
"c c #70779B",
"v c #747B9E",
"b c #7D7D99",
"n c #747CA1",
"m c #8F5780",
"M c #8F5980",
"N c #945A83",
"B c #7E809B",
"V c #7B84A7",
"C c #7D85A8",
"Z c #7F89AB",
"A c #8787A5",
"S c #8A83A2",
"D c #888AA5",
"F c #848CAF",
"G c #8A8AA8",
"H c #8C8EB0",
"J c #8C91B4",
"K c #8F95BB",
"L c #9092B2",
"P c #9497BB",
"I c #9599BC",
"U c #9A99BA",
"Y c #A09EC2",
"T c #9DA0C6",
"R c #9EA3C8",
"E c #A1A1C4",
"W c #A3A6CB",
"Q c #AAA6CD",
"! c #A6AACD",
"~ c #A8A9CF",
"^ c #A7AAD0",
"/ c #ACADD3",
"( c #B1AFD5",
") c #AEB1D7",
"_ c #AFB1D8",
"` c #B3B4DC",
"' c #B5B9DD",
"] c #B7B9E0",
"[ c #BABBE3",
"{ c #BAC2E3",
"} c None",
/* pixels */
"}}}}}}}}}}}}}}}}}}}}}}}}}}}}}}}}}}}}}}}}}}}}}}}}}}}}}}}}}}}}",
"}}}}}}}}}}}}}}}}}}}}}}}}}}}}}}}}}}}}}}}}}}}}}}}}}}}}}}}}}}}}",
"}}}}}}}}}}}}}}}}}}}}}}}}}}}}}}}}}}}}}}}}}}}}}}}}}}}}}}}}}}}}",
"}}}}}}}}}}}}}}}}}}}}}}}}}}}}}}}}}}}}}}}}}}}}}}}}}}}}}}}}}}}}",
"}}}}}}}}}}}}}}}}}}}}}}}}}}}}}}}}}}}}}}}}}}}}}}}}}}}}}}}}}}}}",
"}}}}}}}}}}}}}}}}}}}}}}}}}}}}}}}}}}}}}}}}}}}}}}}}}}}}}}}}}}}}",
"}}}}}}}}}}}}}}}}}}}}}}}}}}}}}}}}}}}}}}}}}}}}}}}}}}}}}}}}}}}}",
"}}}}}}}}}}}}}}}}}}}}}}}}}}}}}}}}}}}}}}}}}}}}}}}}}}}}}}}}}}}}",
"}}}}}}}}}}}}}}}}}}}}}}}}}}}}}}}}}}}}}}}}}}}}}}}}}}}}}}}}}}}}",
"}}}}}}}}}}}}}}}}}}}}}}}}}}}}}}}}}}}}}}}}}}}}}}}}}}}}}}}}}}}}",
"}}}}}}}}}}}}}}}}}}}}}}}}}}}}}}}}}}}}}}}}}}}}}}}}}}}}}}}}}}}}",
"}}}}}}}}}}}}}}}}}}}}}}}}}}}}}}}}}}}}}}}}}}}}}}}}}}}}}}}}}}}}",
"}}}}}}}}}}}}}}}}}}}}}}}}}}}}}}}}}}}}}}}}}}}}}}}}}}}}}}}}}}}}",
"}}}}}}}}}}}}}}}}}}}}}}}}}}}}}}}}}}}}}}}}}}}}}}}}}}}}}}}}}}}}",
"}}}}}}}}}}}}}}}}}}}}}}}}}}}}}}}}}}}}}}}}}}}}}}}}}}}}}}}}}}}}",
"}}}}}}}}}}}}}}}}}}}}}}}}}}}}}}}}}}}}}}}}}}}}}}}}}}}}}}}}}}}}",
"}}}}}}}}}}}}}}}}}}}}}}}}}}}}}}}}}}}}}}}}}}}}}}}}}}}}}}}}}}}}",
"}}}}}}}}}}}}}}}}}}}}}}}}}}}}}}}}}}}}}}}}}}}}}}}}}}}}}}}}}}}}",
"}}}}}}}}}}}}}}}}}}}}}}}}}}}}}}}}}}}}}}}}}}}}}}}}}}}}}}}}}}}}",
"}}}}}}}}}}}}}}}}}}}}}}}}}}}}}}}}}}}}}}}}}}}}}}}}}}}}}}}}}}}}",
"}}}}}}}}}}}}}}}}}}}}}}}}}}}}}}}}}}}}}}}}}}}}}}}}}}}}}}}}}}}}",
"}}}}}}}}}}}}}}}}}}}}}}}}}}}}}}}}}}}}}}}}}}}}}}}}}}}}}}}}}}}}",
"}}}}}}}}}}}}}}}}}}}}}}}}}}}}}}}}}}}}}}}}}}}}}}}}}}}}}}}}}}}}",
"}}}}}}}}}}}}}}}}}}}}}}}}}}}}}}}}}}}}}}}}}}}}}}}}}}}}}}}}}}}}",
"}}}}}}}}}}}}}}}}}}}}}}}}}}}}}}}}}}}}}}}}}}}}}}}}}}}}}}}}}}}}",
"}}}}}}}}}}}}}}}}}}}}}}}}}}}}}}}}}}}}}}}}}}}}}}}}}}}}}}}}}}}}",
"}}}}}}}}}}}}}}}}}}}}}}}}}}}}}}}}}}}}}}}}}}}}}}}}}}}}}}}}}}}}",
"}}}}}}}}}}}}}}}}}}}}}}}}}}}}}}}}}}}}}}}}}}}}}}}}}}}}}}}}}}}}",
"}}}}}}}}}}}}}}}}}}}}}}}}}}}}}465&%}%+%;}}}}}}}}}}}}}}}}}}}}}",
"}}}}}}}}}}}}}}}}}}}}}}}}}}}}}}eNNw:;+@%8}}}}}}}}}}}}}}}}}}}}",
"}}}}}}}}}}}}}}}}}}}}}}%%}}}}}}}rNMm&>--%=}}}}}}}}}}}}}}}}}}}",
"}}}}}}}}}}}}}}}}}}}}}>>>}}}}}}}qN9&>>>-@@%}}}}}}}}}}}}}}}}}}",
"}}}}}}}}}}}}}}}}}}}}>>##}}}}}}}}eM:>>>>Oo%}}}}}}}}}}}}}}}}}}",
"}}}}}}}}}}}}}}}}}}}}>>>13}}}}}}}}7>>>>>@X+&}}}}}}}}}}}}}}}}}",
"}}}}}}}}}}}}}}}}}}}#>1pcv}}}}}}$%>#>>>>>+.%}}}}}}}}}}}}}}}}}",
"}}}}}}}}}}}}}}}}}}}>yvFCn}}}}}}}%>>>>-#-@o+}}}}}}}}}}}}}}}}}",
"}}}}}}}}}}}}}}}}}}}pZFnVb}}}}}}%####>>,%@0 }}}}}}}}}}}}}}}}}",
"}}}}}}}}}}}}}}}}}}}Jn1,t}}}}}%%>>>>#@>Iv%zDS}}}}}}}}}}}}}}}}",
"}}}}}}}}}}}}}}}}}}}h>>>>}}}H,->>>>>##3)'!U`A}}}}}}}}}}}}}}}}",
"}}}}}}}}}}}}}}}}}}},>@>-,E[[K>>->>>>##f/{'[U}}}}E(}}}}}}}}}}",
"}}}}}}}`}}}}}}}}}}1>>#>tR[[['c>>###>>>>yJki%}}}'[_(Q}}}}}}}}",
"}}}}}}}}[}}}}}}}}1>#>##T[``[`)t>1uu>>>#>>>>>>;U[[`[`Y//}}}}}",
"}}}}}}}}^C>}}}}}},>>>#J`/[')))jzxxBg2>>>>>%#>>R[_/W[)[`]}}}}",
"}}}}}}}}}->@}}}}s>>>>k``[[['))GxxBg}}}*>#>>>@%`[]P}/Q^/]}}}}",
"}}}}}}}}}@>>##@1<>>>1R`[_LBxUWBxzf}}}}}}}>>>>u[[[II][[`_}}}}",
"}}}}}}}}}}>>>>>>>>>>p^[!Bxxxxxxza}}}}}}}}},>>p[[][[`[``'}}}}",
"}}}}}}}}}}}>>>>>#>>>yWRbxxxxxxl}}}}}}}}}}}}}}i[)'W`^]}}}}}}}",
"}}}}}}}}}}}}}>>>>>>>ybxxxxxxzf}}}}}}}}}}}}}}}}}}}~`I}}}}}}}}",
"}}}}}}}}}}}}}}}}}1>>uBBBzBgf}}}}}}}}}}}}}}}}}}}}}}^}}}}}}}}}",
"}}}}}}}}}}}}}}}}}},#<3p33}}}}}}}}}}}}}}}}}}}}}}}}}}}}}}}}}}}",
"}}}}}}}}}}}}}}}}}}},#>>>}}}}}}}}}}}}}}}}}}}}}}}}}}}}}}}}}}}}",
"}}}}}}}}}}}}}}}}}}}>#>#>}}}}}}}}}}}}}}}}}}}}}}}}}}}}}}}}}}}}",
"}}}}}}}}}}}}}}}}}}},>>>>}}}}}}}}}}}}}}}}}}}}}}}}}}}}}}}}}}}}",
"}}}}}}}}}}}}}}}}}}1>><<}}}}}}}}}}}}}}}}}}}}}}}}}}}}}}}}}}}}}",
"}}}}}}}}}}}}}}}}}p>i<V!~)`}}}}}}}}}}}}}}}}}}}}}}}}}}}}}}}}}}",
"}}}}}}}}}}}}}}}W[[_T)[))')}}}}}}}}}}}}}}}}}}}}}}}}}}}}}}}}}}",
"}}}}}}}}}}}}}}}[[[[[[[[[[}}}}}}}}}}}}}}}}}}}}}}}}}}}}}}}}}}}",
"}}}}}}}}}}}}}}}!^)}}}[[[}}}}}}}}}}}}}}}}}}}}}}}}}}}}}}}}}}}}",
"}}}}}}}}}}}}}}}}}}}}}}}}}}}}}}}}}}}}}}}}}}}}}}}}}}}}}}}}}}}}",
"}}}}}}}}}}}}}}}}}}}}}}}}}}}}}}}}}}}}}}}}}}}}}}}}}}}}}}}}}}}}",
"}}}}}}}}}}}}}}}}}}}}}}}}}}}}}}}}}}}}}}}}}}}}}}}}}}}}}}}}}}}}",
"}}}}}}}}}}}}}}}}}}}}}}}}}}}}}}}}}}}}}}}}}}}}}}}}}}}}}}}}}}}}",
"}}}}}}}}}}}}}}}}}}}}}}}}}}}}}}}}}}}}}}}}}}}}}}}}}}}}}}}}}}}}",
"}}}}}}}}}}}}}}}}}}}}}}}}}}}}}}}}}}}}}}}}}}}}}}}}}}}}}}}}}}}}",
"}}}}}}}}}}}}}}}}}}}}}}}}}}}}}}}}}}}}}}}}}}}}}}}}}}}}}}}}}}}}",
"}}}}}}}}}}}}}}}}}}}}}}}}}}}}}}}}}}}}}}}}}}}}}}}}}}}}}}}}}}}}",
"}}}}}}}}}}}}}}}}}}}}}}}}}}}}}}}}}}}}}}}}}}}}}}}}}}}}}}}}}}}}",
"}}}}}}}}}}}}}}}}}}}}}}}}}}}}}}}}}}}}}}}}}}}}}}}}}}}}}}}}}}}}",
"}}}}}}}}}}}}}}}}}}}}}}}}}}}}}}}}}}}}}}}}}}}}}}}}}}}}}}}}}}}}",
"}}}}}}}}}}}}}}}}}}}}}}}}}}}}}}}}}}}}}}}}}}}}}}}}}}}}}}}}}}}}"
};
