/* XPM */
static char *result[] = {
/* columns rows colors chars-per-pixel */
"60 70 84 1 ",
"  c #2F3A53",
". c #323C56",
"X c #333D59",
"o c #37425F",
"O c #38425F",
"+ c #364363",
"@ c #3B4667",
"# c #3E4C6D",
"$ c #3F4F70",
"% c #474351",
"& c #464760",
"* c #464966",
"= c #434D6D",
"- c #4B4D6A",
"; c #4A506F",
": c #414F70",
"> c #5C4F72",
", c #425273",
"< c #4A5575",
"1 c #475578",
"2 c #495779",
"3 c #4C597A",
"4 c #555675",
"5 c #525C7C",
"6 c #6D4E71",
"7 c #675074",
"8 c #6D5173",
"9 c #705771",
"0 c #775378",
"q c #88567A",
"w c #86597F",
"e c #8D587F",
"r c #535F81",
"t c #5C6586",
"y c #586489",
"u c #5E6A8D",
"i c #666C86",
"p c #646B8A",
"a c #6A6D8A",
"s c #6E718D",
"d c #71738F",
"f c #646D91",
"g c #6E7495",
"h c #6C7699",
"j c #737491",
"k c #777894",
"l c #787997",
"z c #727798",
"x c #777FA4",
"c c #8F5980",
"v c #945A83",
"b c #8B6086",
"n c #7B82A3",
"m c #7D84A9",
"M c #8880A0",
"N c #8085A9",
"B c #868CAE",
"V c #8C8CAC",
"C c #958CAE",
"Z c #8A8FB4",
"A c #8C91B6",
"S c #9192B3",
"D c #9698BB",
"F c #989BBB",
"G c #9A9EC3",
"H c #9DA3C6",
"J c #9FA5C9",
"K c #A2A1C5",
"L c #A4A6CB",
"P c #A8A4CB",
"I c #A5A8CD",
"U c #A9AACF",
"Y c #ABADD3",
"T c #B0ADD3",
"R c #AEB0D6",
"E c #AFB1D8",
"W c #B4B0D4",
"Q c #B3B5DC",
"! c #B6B8DF",
"~ c #B7B9E0",
"^ c #B9BBE3",
"/ c #BCC1E4",
"( c #BEC7E9",
") c None",
/* pixels */
"))))))))))))))))))))))))))))))))))))))))))))))))))))))))))))",
"))))))))))))))))))))))))))))))))))))))))))))))))))))))))))))",
"))))))))))))))))))))))))))))))))))))))))))))))))))))))))))))",
"))))))))))))))))))))))))))))))))))))))))))))))))))))))))))))",
"))))))))))))))))))))))))))))))))))))))))))))))))))))))))))))",
"))))))))))))))))))))))))))))))))))))))))))))))))))))))))))))",
"))))))))))))))))))))))))))))))))))))))))))))))))))))))))))))",
"))))))))))))))))))))))))))))))))))))))))))))))))))))))))))))",
"))))))))))))))))))))))))))))))))))))))))))))))))))))))))))))",
"))))))))))))))))))))))))))))))))))))))))))))))))))))))))))))",
"))))))))))))))))))))))))))))))))))))))))))))))))))))))))))))",
"))))))))))))))))))))))))))))))))))))))))))))))))))))))))))))",
"))))))))))))))))))))))))))))))))))))))))))))))))))))))))))))",
"))))))))))))))))))))))))))))))))))))))))))))))))))))))))))))",
"))))))))))))))))))))))))))))))))))))))))))))))))))))))))))))",
"))))))))))))))))))))))))))))))))))))))))))))))))))))))))))))",
"))))))))))))))))))))))))))))))))))))))))))))))))))))))))))))",
"))))))))))))))))))))))))))))))))))))))))))))))))))))))))))))",
"))))))))))))))))))))))))))))))))))))))))))))))))))))))))))))",
"))))))))))))))))))))))))))))))))))))))))))))))))))))))))))))",
"))))))))))))))))))))))))))))))))))))))))))))))))))))))))))))",
"))))))))))))))))))))))))))))))))))))))))))))))))))))))))))))",
"))))))))))))))))))))))))))))))))))))))))))))))))))))))))))))",
"))))))))))))))))))))))))))))))))))))))))))))))))))))))))))))",
"))))))))))))))))))))))))))))))))))))))))))))))))))))))))))))",
"))))))))))))))))))))))))))))))))))))))))))))))))))))))))))))",
"))))))))))))))))))))))))))))))))))))))))))))))))))))))))))))",
"))))))))))))))))))))))))))))))):))))))))))))))))))))))))))))",
")))))))))))))))))))))))))))))808>=;+@@;)))))))))))))))))))))",
"))))))))))))))))))))))))))))))evvc>$=:#4))))))))))))))))))))",
")))))))))))))))))))))))))))))))vv67,,,:@-)))))))))))))))))))",
")))))))))))))))))))))))))))))))qv6,,,,:+@)))))))))))))))))))",
")))))))))))))))))))))))=)))))))9cc,1$$$Xo=))))))))))))))))))",
")))))))))))))))))))))),,<a)))))MLJf$$1$$.#))))))))))))))))))",
")))))))))))))))))))))=,1hB)))))QE^A1$$1$XO))))))))))))))))))",
"))))))))))))))))))))):,uxmt)))W!~~Z$$#@$#.*)))))))))))))))))",
"))))))))))))))))))))),,ry1,=))U!!^g$$rm#34&)))))))))))))))))",
"))))))))))))))))))))),,2,,,:))H^^^2,$zFngVT)))))))))))))))))",
"))))))))))))))))))))=:,,,,,,$<K^^Q2,,2H(/Q^%))))))))))))))))",
"))))))))))))))))))):$,,,$=,,$u!^~H,,,$1BLIF))))QYQR)))))))))",
")))))))^Y)))))))))=,,,,,,##,,Z^^^h$$,,,,52,=)))^^WYQ))))))))",
"))))))))Qz=))))))),,@,,,,,$$1R^^Its,,,,,,,=,,,P!^Q^QULQ)))))",
"))))))))g3,,:32=,,,,,,,,#,,#A^^^Vj)))-,,,,,#$,Y^YKCQYY^Q))))",
"))))))))),,,,,,,,,,,,,,,,,,1!!^Fa)))))),$,,,::^^^ZxQYQYU))))",
")))))))))),,,,,,,,,,,,,,,,,,YQSi))))))))),,,,p^^^LY~^R~E))))",
")))))))))))231,,$##,,,,,,,2plj))))))))))))),,p^Q^^^Q^)KY))))",
"))))))))))))YHH3$$$:,,,,2tjks))))))))))))))))y!YQLYKW)))))))",
")))))))))))Q^Y!1,#,$5upgkkj))))))))))))))))))))))Y^)))))))))",
"))))))))))I^^QI,,,,,)ssss)))))))))))))))))))))))))I)))))))))",
")))))))YQEQ^R~m,,,1)))))))))))))))))))))))))))))))))))))))))",
"))))))))EQQYQQ),,,))))))))))))))))))))))))))))))))))))))))))",
"))))))))QQ~^^)))2)))))))))))))))))))))))))))))))))))))))))))",
"))))))))YQ^^))))))))))))))))))))))))))))))))))))))))))))))))",
"))))))))))))))))))))))))))))))))))))))))))))))))))))))))))))",
"))))))))))))))))))))))))))))))))))))))))))))))))))))))))))))",
"))))))))))))))))))))))))))))))))))))))))))))))))))))))))))))",
"))))))))))))))))))))))))))))))))))))))))))))))))))))))))))))",
"))))))))))))))))))))))))))))))))))))))))))))))))))))))))))))",
"))))))))))))))))))))))))))))))))))))))))))))))))))))))))))))",
"))))))))))))))))))))))))))))))))))))))))))))))))))))))))))))",
"))))))))))))))))))))))))))))))))))))))))))))))))))))))))))))",
"))))))))))))))))))))))))))))))))))))))))))))))))))))))))))))",
"))))))))))))))))))))))))))))))))))))))))))))))))))))))))))))",
"))))))))))))))))))))))))))))))))))))))))))))))))))))))))))))",
"))))))))))))))))))))))))))))))))))))))))))))))))))))))))))))",
"))))))))))))))))))))))))))))))))))))))))))))))))))))))))))))",
"))))))))))))))))))))))))))))))))))))))))))))))))))))))))))))",
"))))))))))))))))))))))))))))))))))))))))))))))))))))))))))))",
"))))))))))))))))))))))))))))))))))))))))))))))))))))))))))))",
"))))))))))))))))))))))))))))))))))))))))))))))))))))))))))))"
};
