/* XPM */
static char *result[] = {
/* columns rows colors chars-per-pixel */
"70 70 202 2 ",
"   c #010101",
".  c #0C0B06",
"X  c #0C0C0C",
"o  c #080604",
"O  c #130F06",
"+  c #110F0B",
"@  c #13110C",
"#  c #1B150A",
"$  c #1E190D",
"%  c #181206",
"&  c #0F0F10",
"*  c #131313",
"=  c #1C1C1C",
"-  c #181817",
";  c #241C0B",
":  c #281F0A",
">  c #251A06",
",  c #241F10",
"<  c #301E05",
"1  c #2C230D",
"2  c #32250C",
"3  c #3A2B0C",
"4  c #362709",
"5  c #3E300F",
"6  c #252111",
"7  c #2B2512",
"8  c #2F2B15",
"9  c #332C14",
"0  c #392D11",
"q  c #3B3419",
"w  c #3A3116",
"e  c #1F1F20",
"r  c #242424",
"t  c gray18",
"y  c #343434",
"u  c #4D0304",
"i  c #412C07",
"p  c #43330E",
"a  c #4A360B",
"s  c #533B08",
"d  c #443414",
"f  c #4C3A14",
"g  c #433A1C",
"h  c #483C1A",
"j  c #533A16",
"k  c #613D07",
"l  c #5D3E3C",
"z  c #49421F",
"x  c #554114",
"c  c #5B4512",
"v  c #5B4618",
"b  c #674709",
"n  c #744C07",
"m  c #765309",
"M  c #624B12",
"N  c #6B5217",
"B  c #745A1F",
"V  c #775916",
"C  c #7F6116",
"Z  c #4D4522",
"A  c #544A22",
"S  c #524622",
"D  c #5B5225",
"F  c #665B28",
"G  c #795D20",
"H  c #624220",
"J  c #6B622C",
"K  c #73652C",
"L  c #7D6627",
"P  c #746A30",
"I  c #7B6D31",
"U  c #786F3B",
"Y  c #7D7234",
"T  c gray33",
"R  c gray29",
"E  c #605D49",
"W  c gray50",
"Q  c #747474",
"!  c #895C07",
"~  c #985F05",
"^  c #8E6106",
"/  c #986805",
"(  c #8E6B1A",
")  c #876617",
"_  c #9A751B",
"`  c #936511",
"'  c #A57206",
"]  c #AB7406",
"[  c #A1720D",
"{  c #B57806",
"}  c #A27C1C",
"|  c #A76A06",
" . c #8B6B25",
".. c #9C7728",
"X. c #837334",
"o. c #8A7D39",
"O. c #877636",
"+. c #917E39",
"@. c #886F2C",
"#. c #A47E2A",
"$. c #C47B05",
"%. c #877E49",
"&. c #BE8104",
"*. c #AA831C",
"=. c #B48A1E",
"-. c #B98E1D",
";. c #BE921E",
":. c #8E813A",
">. c #93843B",
",. c #9C8D3D",
"<. c #98873B",
"1. c #B68C29",
"2. c #A08A3C",
"3. c #B28D2E",
"4. c #C48504",
"5. c #CB8A03",
"6. c #CB8505",
"7. c #D28E04",
"8. c #D88703",
"9. c #DC9503",
"0. c #D89304",
"q. c #C3951F",
"w. c #E58F02",
"e. c #E49B02",
"r. c #E89E01",
"t. c #E69002",
"y. c #C79821",
"u. c #C99A32",
"i. c #D09F20",
"p. c #D4A323",
"a. c #DBA825",
"s. c #D5A335",
"d. c #DDA936",
"f. c #E3AE24",
"g. c #ECB526",
"h. c #EAB427",
"j. c #F6BE27",
"k. c #F8BE27",
"l. c #F5BC28",
"z. c #F8BE28",
"x. c #E4AE38",
"c. c #E6B139",
"v. c #EBB43A",
"b. c #F5BC3C",
"n. c #FABE3D",
"m. c #FCC03D",
"M. c #9D8F40",
"N. c #9F9141",
"B. c #A39543",
"V. c #AA9946",
"C. c #B39B44",
"Z. c #B3A349",
"A. c #BDA348",
"S. c #BDAC4D",
"D. c #9A9578",
"F. c #C4AB4B",
"G. c #C1B14E",
"H. c #CCB04E",
"J. c #D6B44A",
"K. c #C9B752",
"L. c #CCBA53",
"P. c #D4BC53",
"I. c #DBBD53",
"U. c #E1BB47",
"Y. c #D5C256",
"T. c #DFC053",
"R. c #DDCA59",
"E. c #DAC758",
"W. c #FCC442",
"Q. c #FACC4B",
"!. c #FBC846",
"~. c #FAD04E",
"^. c #E3C455",
"/. c #E1CD5B",
"(. c #EDCC59",
"). c #E9CA57",
"_. c #F0CF5A",
"`. c #E6D15D",
"'. c #EDD95F",
"]. c #E9D55E",
"[. c #FAD353",
"{. c #F3D25A",
"}. c #F9D75C",
"|. c #F7DD5D",
" X c #FEDC5E",
".X c #F7D051",
"XX c #F3DE61",
"oX c #EEDA60",
"OX c #F6E162",
"+X c #858585",
"@X c gray60",
"#X c #ACACAC",
"$X c #B6B6B6",
"%X c #B7B5AD",
"&X c #C9C9C9",
"*X c #D5D5D5",
"=X c #DDDDDD",
"-X c #DFE0DE",
";X c #EAEAEA",
":X c #FFFFFF",
">X c gray94",
",X c None",
/* pixels */
",X,X,X,X,X,X,X,X,X,X,X,X,X,X,X,X,X,X,X,X,X,X,X,X,X,X,X,X,X,X,X,X,X,X,X,X,X,X,X,X,X,X,X,X,X,X,X,X,X,X,X,X,X,X,X,X,X,X,X,X,X,X,X,X,X,X,X,X,X,X",
",X,X,X,X,X,X,X,X,X,X,X,X,X,X,X,X,X,X,X,X,X,X,X,X,X,X,X,X,X,X,X,X,X,X,X,X,X,X,X,X,X,X,X,X,X,X,X,X,X,X,X,X,X,X,X,X,X,X,X,X,X,X,X,X,X,X,X,X,X,X",
",X,X,X,X,X,X,X,X,X,X,X,X,X,X,X,X,X,X,X,X,X,X,X,X,X,X,X,X,X,X,X,X,X,X,X,X,X,X,X,X,X,X,X,X,X,X,X,X,X,X,X,X,X,X,X,X,X,X,X,X,X,X,X,X,X,X,X,X,X,X",
",X,X,X,X,X,X,X,X,X,X,X,X,X,X,X,X,X,X,X,X,X,X,X,X,X,X,X,X,X,X,X,X,X,X,X,X,X,X,X,X,X,X,X,X,X,X,X,X,X,X,X,X,X,X,X,X,X,X,X,X,X,X,X,X,X,X,X,X,X,X",
",X,X,X,X,X,X,X,X,X,X,X,X,X,X,X,X,X,X,X,X,X,X,X,X,X,X,X,X,X,X,X,X,X,X,X,X,X,X,X,X,X,X,X,X,X,X,X,X,X,X,X,X,X,X,X,X,X,X,X,X,X,X,X,X,X,X,X,X,X,X",
",X,X,X,X,X,X,X,X,X,X,X,X,X,X,X,X,X,X,X,X,X,X,X,X,X,X,X,X,X,X,X,X,X,X,X,X,X,X,X,X,X,X,X,X,X,X,X,X,X,X,X,X,X,X,X,X,X,X,X,X,X,X,X,X,X,X,X,X,X,X",
",X,X,X,X,X,X,X,X,X,X,X,X,X,X,X,X,X,X,X,X,X,X,X,X,X,X,X,X,X,X,X,X,X,X,X,X,X,X,X,X,X,X,X,X,X,X,X,X,X,X,X,X,X,X,X,X,X,X,X,X,X,X,X,X,X,X,X,X,X,X",
",X,X,X,X,X,X,X,X,X,X,X,X,X,X,X,X,X,X,X,X,X,X,X,X,X,X,X,X,X,X,X,X,X,X,X,X,X,X,X,X,X,X,X,X,X,X,X,X,X,X,X,X,X,X,X,X,X,X,X,X,X,X,X,X,X,X,X,X,X,X",
",X,X,X,X,X,X,X,X,X,X,X,X,X,X,X,X,X,X,X,X,X,X,X,X,X,X,X* * + X & + & & X & & - ,X,X,X,X,X,X,X,X,X,X,X,X,X,X,X,X,X,X,X,X,X,X,X,X,X,X,X,X,X,X,X",
",X,X,X,X,X,X,X,X,X,X,X,X,X,X,X,X,X,X,X,X,X,X,X& + 6 F >.F.I.(.}. X}._.^.H.C.<.L S , & * - ,X,X,X,X,X,X,X,X,X,X,X,X,X,X,X,X,X,X,X,X,X,X,X,X,X",
",X,X,X,X,X,X,X,X,X,X,X,X,X,X,X,X,X,X,Xr * $ w X.P. X X X X X X X XXX X X X XXX X X X^.+.h ; & e ,X,X,X,X,X,X,X,X,X,X,X,X,X,X,X,X,X,X,X,X,X,X",
",X,X,X,X,X,X,X,X,X,X,X,X,X,X,X,X,X* 8 A o.A.P.^.)._.}. X X X X X X X X X X X X X X X XXX XI.C.F w - ,X,X,X,X,X,X,X,X,X,X,X,X,X,X,X,X,X,X,X,X",
",X,X,X,X,X,X,X,X,X,X,X,X,X,X,X. o @ 6 9 7 6 , 6 7 9 q A X.V.I.(.{.}. X XXX X X X X X X XXX X X X(.V.d o r ,X,X,X,X,X,X,X,X,X,X,X,X,X,X,X,X,X",
",X,X,X,X,X,X,X,X,X,X,X,X,X*     9 F :.B.Z.S.G.S.C.B.>.I v 3 O ; h X.C.^._.}.XXXX X X X X X X X X X XXXC.g + ,X,X,X,X,X,X,X,X,X,X,X,X,X,X,X,X",
",X,X,X,X,X,X,X,X,X,X,X,Xo : / 5.( R.OXOXOXOXOXOXOXOXOXOXOX|.~.J.3.G 0 # d O.H.(.{.XX X X X X X X X XXX X XF.g X ,X,X,X,X,X,X,X,X,X,X,X,X,X,X",
",X,X,X,X,X,X,X,X,X,X,XX s e.r.r.4.<.OXOXOXOXOXOXOXOXOXOXOXOXOXOX}.Q.W.x...2 + A C.I.{. X X XXX X X X X X X XXXX.* ,X,X,X,X,X,X,X,X,X,X,X,X,X",
",X,X,X,X,X,X,X,X,X,X,X# &.r.r.r.7.L OXOXOXOXOXOXOXOXOXOXOXOXOXOXOXOX|.~.!.b.u.B d g M.I._. XXX X X X X X X X X}.>.@ ,X,X,X,X,X,X,X,X,X,X,X,X",
",X,X,X,X,X,X,X,X,X,X,X+ ] r.r.r.4.,.OXOXOXOXOXOXOXOXOXOXOXOXOXOXOXOXOXOXOX[.m.m.x.#.@ d C.I._. X XXX X X X X X XXX2.* ,X,X,X,X,X,X,X,X,X,X,X",
",X,X,X,X,X,X,X,X,X,X,Xq O.{ r.7.( /.OXOXOXOXOXOXOXOXOXOXOXOXOXOXOXOXOXOXOXOX|.[.U.n.x.G : X.I.^.}.XX X X X X XXXJ.O.# r ,X,X,X,X,X,X,X,X,X,X",
",X,X,X,X,X,X,X,X,X,X,XZ XXP.M.Z.'.OXOXOXOXOXOXOXOXOXOXOXOXOXOXOXOXOXOXOXOX`.B.X. .#.v.n.s.f 0 H.I.^.^.^.^.F.I 7 : M > ,X,X,X,X,X,X,X,X,X,X,X",
",X,X,X,X,X,X,X,X,X,X,XD OXOXOXOXOXOXOXOXOXOXOXOXOXOXOXOXOXOXOXOXOXOXOX'.G.D M m m b M u.b.x.v S F.I.I.C.F d i C -.-.; ,X,X,X,X,X,X,X,X,X,X,X",
",X,X,X,X,X,X,X,X,X,Xr J OXOXOXOXOXOXOXOXOXOXOXOXOXOXOXOXOXOXOXOXOXOXOX>.j &.e.e.t.r.{ s #.n.v.v j +.S 3 V y.g.l.f.M * ,X,X,X,X,X,X,X,X,X,X,X",
",X,X,X,X,X,X,X,X,X,Xe I OXOXOXOXOXOXOXOXOXOXOXOXOXOXOXOXOXOXOXOXOXOXE.x &.r.r.r.r.r.r.7.c c.n.s.0 % M p.z.h.#._ } O ,X,X,X,X,X,X,X,X,X,X,X,X",
",X,X,X,X,X,X,X,X,X,X- o.OXOXOXOXOXOXOXOXOXOXOXOXOXOXOXOXOXOXOXOXOXOX:./ r.r.r.r.r.r.r.r./  .n.U.d 1.l.l.f.! $.w.b + ,X,X,X,X,X,X,X,X,X,X,X,X",
",X,X,X,X,X,X,X,X,X,X* >.OXOXOXOXOXOXOXOXOXOXOXOXOXOXOXOXOXOXOXOXOXOXJ 5.r.r.r.r.r.r.r.r.&.f m.*.3 f.k.k._ $.w.w.> ,X,X,X,X,X,X,X,X,X,X,X,X,X",
",X,X,X,X,X,X,X,X,X,X= M.OXOXOXXXK.B.U U N.R.OXOXOXOXOXOXOXOXOXOXOXOXN 7.r.r.r.r.r.e.r.r.4.d m.j N k.k.k.V 8.w.~ & ,X,X,X,X,X,X,X,X,X,X,X,X,X",
",X,X,X,X,X,X,X,X,X,X* N.OXOXXX%.%X*X&XT o 9 Z.OXOXOXOXOXOXOXOXOXOXOXK 4.r.r.r.r.r.r.r.r.&.x c.@ 1.k.k.k.} $.t.< ,X,X,X,X,X,X,X,X,X,X,X,X,X,X",
",X,X,X,X,X,X,X,X,X,X= B.OXOX%.-X:X:X:X:XW   . K.OXOXOXOXOXOXoXV.U S 6 b 5.r.r.r.r.r.r.r.! .. .N g.k.k.k.f.` n X ,X,X,X,X,X,X,X,X,X,X,X,X,X,X",
",X,X,X,X,X,X,X,X,X,X= B.OXG.+X:X:X:X:X:X=Xe   w OXOXOXOXOXE.D.=X:X>X@X* o ^ r.r.r.r.r.4.c x.; p.k.j.k.j.k.-.O ,X,X,X,X,X,X,X,X,X,X,X,X,X,X,X",
",X,X,X,X,X,X,X,X,X,X= B.OXP #X:X:X:X:X:X>Xt     Y.OXOXOX].E >X:X:X:X:X+X  o ' r.r.e.[ 2 u.B f k.k.k.j.k.g.c = ,X,X,X,X,X,X,X,X,X,X,X,X,X,X,X",
",X,X,X,X,X,X,X,X,X,X= N.OXS W :X:X:X:X:X*X=     M.OXOXOX:.@X:X:X:X:X:X&Xe   # b m M G s.u.; -.k.j.j.j.j.*.$ ,X,X,X,X,X,X,X,X,X,X,X,X,X,X,X,X",
",X,X,X,X,X,X,X,X,X,X* M.OXS = ;X:X:X:X:XW       M.OXOXOXq $X:X:X:X:X:X*Xy     ,.L.U.n.m.N c j.k.j.j.j.f.; = ,X,X,X,X,X,X,X,X,X,X,X,X,X,X,X,X",
",X,X,X,X,X,X,X,X,X,X= >.OXI   r @X*X&XT X     o ^.XXOXOX6 Q :X:X:X:X:X$XX     B.OX!.m.s.3 p.j.j.j.j.g.m & ,X,X,X,X,X,X,X,X,X,X,X,X,X,X,X,X,X",
",X,X,X,X,X,X,X,X,X,X* :.OXY.o                 A F.j S S.8 & #X:X:X:X;Xy       V.[.m.b.0 ) l.j.j.j.j.;.O ,X,X,X,X,X,X,X,X,X,X,X,X,X,X,X,X,X,X",
",X,X,X,X,X,X,X,X,X,X= o.OXXXF               X S.O.u u Z.D   r +X#X@XR o     @ K.Q.m.#.: p.m.j.j.m.i.x - ,X,X,X,X,X,X,X,X,X,X,X,X,X,X,X,X,X,X",
",X,X,X,X,X,X,X,X,X,Xe P `.R.E.o.7       . S S.OX%.l Z '.S..                 J {.m.c.1 =.l.l.j.j.f.M @ ,X,X,X,X,X,X,X,X,X,X,X,X,X,X,X,X,X,X,X",
",X,X,X,X,X,X,X,X,X,Xr w D S F o.N.Y D J M.`.XXOXI.O.K.XXOXK o             7 R..Xm. .x j.k.j.j.j.-.% ,X,X,X,X,X,X,X,X,X,X,X,X,X,X,X,X,X,X,X,X",
",X,X,X,X,X,X,X,X,X,X,X2 / ] ^ b > Z Y.OXOXOXOXOXOXOXOXXXOXOXN.7       @ D `.|.W.u.% a.k.k.j.j.q.3 ,X,X,X,X,X,X,X,X,X,X,X,X,X,X,X,X,X,X,X,X,X",
",X,X,X,X,X,X,X,X,X,X,Xa r.r.r.9.4.s $ R.OXOXOXOXOXOXOXOXOXOXOXOXK.M.V.'.OXOXQ.c.2 k ^ m.k.k.g.p @ ,X,X,X,X,X,X,X,X,X,X,X,X,X,X,X,X,X,X,X,X,X",
",X,X,X,X,X,X,X,X,X,X,Xi e.r.r.r.e.0.b Z P.OXOXOXOXOXOXOXOXOXOXOXOXOXOXOXOX[.b.L 4 8.' ;.j.l.( * ,X,X,X,X,X,X,X,X,X,X,X,X,X,X,X,X,X,X,X,X,X,X",
",X,X,X,X,X,X,X,X,X,X,X3 e.e.r.r.r.e.7.2 K OXOXOXOXOXOXOXOXOXOXOXOXOXOXOXOX!.u.: $.w.6.) l.;.O ,X,X,X,X,X,X,X,X,X,X,X,X,X,X,X,X,X,X,X,X,X,X,X",
",X,X,X,X,X,X,X,X,X,X,X2 0.r.r.r.r.r.e.^ 5 `.OXOXOXOXOXOXOXOXOXOXOXOXOXXX[.c.6 ! w.w.] *.p.> = ,X,X,X,X,X,X,X,X,X,X,X,X,X,X,X,X,X,X,X,X,X,X,X",
",X,X,X,X,X,X,X,X,X,X,X; 5.r.r.r.r.r.r.7.i S.OXOXOXOXOXOXOXOXOXOXOXOXOX[.m.p 4 { w.$.) f.d = ,X,X,X,X,X,X,X,X,X,X,X,X,X,X,X,X,X,X,X,X,X,X,X,X",
",X,X,X,X,X,X,X,X,X,X,X$ &.e.r.r.r.r.r.9.s B.OXOXOXOXOXOXOXOXOXOXOXOX}.W...4 l.[ N _ h.M * ,X,X,X,X,X,X,X,X,X,X,X,X,X,X,X,X,X,X,X,X,X,X,X,X,X",
",X,X,X,X,X,X,X,X,X,X,X@ { r.r.r.r.r.r.e.s 2.OXOXOXOXOXOX'.R.XXXXOX}.!.*.6 y.j.j.k.l.V + ,X,X,X,X,X,X,X,X,X,X,X,X,X,X,X,X,X,X,X,X,X,X,X,X,X,X",
",X,X,X,X,X,X,X,X,X,X,X* ^ r.r.r.r.r.r.9.3 S.OXOXOXOXOXP.B ( L E.|.W.d.2 ) m.j.j.k.} + ,X,X,X,X,X,X,X,X,X,X,X,X,X,X,X,X,X,X,X,X,X,X,X,X,X,X,X",
",X,X,X,X,X,X,X,X,X,X,X- b r.r.r.r.r.r.] 5 E.OXOXOXOX/.) 9.9.7.V c.v.c V l.j.j.j.q.> ,X,X,X,X,X,X,X,X,X,X,X,X,X,X,X,X,X,X,X,X,X,X,X,X,X,X,X,X",
",X,X,X,X,X,X,X,X,X,X,X,X3 r.r.r.r.r.r.i F OXOXOXOXOXX.9.r.r.r.e...q x g.j.j.m.=.% ,X,X,X,X,X,X,X,X,X,X,X,X,X,X,X,X,X,X,X,X,X,X,X,X,X,X,X,X,X",
",X,X,X,X,X,X,X,X,X,X,X,X% r.r.r.r.r.] 7 S.OXOXOXOXOXI e.r.r.r.r.a 3 ;.j.j.m.p.p - ,X,X,X,X,X,X,X,X,X,X,X,X,X,X,X,X,X,X,X,X,X,X,X,X,X,X,X,X,X",
",X,X,X,X,X,X,X,X,X,X,X,Xo 5.r.r.7.! 1 S.XXOXOXOXOXOXK.[ r.r.e.! 6 i.j.j.j.y.2 - ,X,X,X,X,X,X,X,X,X,X,X,X,X,X,X,X,X,X,X,X,X,X,X,X,X,X,X,X,X,X",
",X,X,X,X,X,X,X,X,X,X,X,XX { 0.] s ; B.OXOXOXOXOXOXOXOX2./ 4.^ % _ j.j.j.g.i * ,X,X,X,X,X,X,X,X,X,X,X,X,X,X,X,X,X,X,X,X,X,X,X,X,X,X,X,X,X,X,X",
",X,X,X,X,X,X,X,X,X,X,X,XX o $ Z <.].OXOXOXOXOXOXOXOXOX}.U.*.; _ j.j.m.i.a - ,X,X,X,X,X,X,X,X,X,X,X,X,X,X,X,X,X,X,X,X,X,X,X,X,X,X,X,X,X,X,X,X",
",X,X,X,X,X,X,X,X,X,X,X,X= F OXOXOXOXOXOXOXOXOXOXOXOX}.m.d.# ) l.j.j.p.3 - ,X,X,X,X,X,X,X,X,X,X,X,X,X,X,X,X,X,X,X,X,X,X,X,X,X,X,X,X,X,X,X,X,X",
",X,X,X,X,X,X,X,X,X,X,X,X,Xq OXOXOXOXOXOXOXOXOXOXOX.XW.x.0 V g.k.j.;.x $ ,X,X,X,X,X,X,X,X,X,X,X,X,X,X,X,X,X,X,X,X,X,X,X,X,X,X,X,X,X,X,X,X,X,X",
",X,X,X,X,X,X,X,X,X,X,X,X,X& OXOXOXOXOXOXOXOXOXXXQ.m.m.f N l.k.k.i.$ * ,X,X,X,X,X,X,X,X,X,X,X,X,X,X,X,X,X,X,X,X,X,X,X,X,X,X,X,X,X,X,X,X,X,X,X",
",X,X,X,X,X,X,X,X,X,X,X,X,X& L.OXOXOXOXOXOXOX|.!.m.c.f a l.k.g.-.1 e ,X,X,X,X,X,X,X,X,X,X,X,X,X,X,X,X,X,X,X,X,X,X,X,X,X,X,X,X,X,X,X,X,X,X,X,X",
",X,X,X,X,X,X,X,X,X,X,X,X,X- >.OXOXOXOXOXOX~.W.n.c.d c l.g.*.f . ,X,X,X,X,X,X,X,X,X,X,X,X,X,X,X,X,X,X,X,X,X,X,X,X,X,X,X,X,X,X,X,X,X,X,X,X,X,X",
",X,X,X,X,X,X,X,X,X,X,X,X,X,XD OXOXOXOX}.!.m.n.x.7 M a.} $ o = ,X,X,X,X,X,X,X,X,X,X,X,X,X,X,X,X,X,X,X,X,X,X,X,X,X,X,X,X,X,X,X,X,X,X,X,X,X,X,X",
",X,X,X,X,X,X,X,X,X,X,X,X,X,X6 OXOX|.Q.W.m.n.d.2 1 c 7 @ ,X,X,X,X,X,X,X,X,X,X,X,X,X,X,X,X,X,X,X,X,X,X,X,X,X,X,X,X,X,X,X,X,X,X,X,X,X,X,X,X,X,X",
",X,X,X,X,X,X,X,X,X,X,X,X,X,XX B.Q.W.m.n.m.1.:   . = ,X,X,X,X,X,X,X,X,X,X,X,X,X,X,X,X,X,X,X,X,X,X,X,X,X,X,X,X,X,X,X,X,X,X,X,X,X,X,X,X,X,X,X,X",
",X,X,X,X,X,X,X,X,X,X,X,X,X,X,X@ L u.x.u. .# & ,X,X,X,X,X,X,X,X,X,X,X,X,X,X,X,X,X,X,X,X,X,X,X,X,X,X,X,X,X,X,X,X,X,X,X,X,X,X,X,X,X,X,X,X,X,X,X",
",X,X,X,X,X,X,X,X,X,X,X,X,X,X,X,X- & * & * ,X,X,X,X,X,X,X,X,X,X,X,X,X,X,X,X,X,X,X,X,X,X,X,X,X,X,X,X,X,X,X,X,X,X,X,X,X,X,X,X,X,X,X,X,X,X,X,X,X",
",X,X,X,X,X,X,X,X,X,X,X,X,X,X,X,X,X,X,X,X,X,X,X,X,X,X,X,X,X,X,X,X,X,X,X,X,X,X,X,X,X,X,X,X,X,X,X,X,X,X,X,X,X,X,X,X,X,X,X,X,X,X,X,X,X,X,X,X,X,X",
",X,X,X,X,X,X,X,X,X,X,X,X,X,X,X,X,X,X,X,X,X,X,X,X,X,X,X,X,X,X,X,X,X,X,X,X,X,X,X,X,X,X,X,X,X,X,X,X,X,X,X,X,X,X,X,X,X,X,X,X,X,X,X,X,X,X,X,X,X,X",
",X,X,X,X,X,X,X,X,X,X,X,X,X,X,X,X,X,X,X,X,X,X,X,X,X,X,X,X,X,X,X,X,X,X,X,X,X,X,X,X,X,X,X,X,X,X,X,X,X,X,X,X,X,X,X,X,X,X,X,X,X,X,X,X,X,X,X,X,X,X",
",X,X,X,X,X,X,X,X,X,X,X,X,X,X,X,X,X,X,X,X,X,X,X,X,X,X,X,X,X,X,X,X,X,X,X,X,X,X,X,X,X,X,X,X,X,X,X,X,X,X,X,X,X,X,X,X,X,X,X,X,X,X,X,X,X,X,X,X,X,X",
",X,X,X,X,X,X,X,X,X,X,X,X,X,X,X,X,X,X,X,X,X,X,X,X,X,X,X,X,X,X,X,X,X,X,X,X,X,X,X,X,X,X,X,X,X,X,X,X,X,X,X,X,X,X,X,X,X,X,X,X,X,X,X,X,X,X,X,X,X,X",
",X,X,X,X,X,X,X,X,X,X,X,X,X,X,X,X,X,X,X,X,X,X,X,X,X,X,X,X,X,X,X,X,X,X,X,X,X,X,X,X,X,X,X,X,X,X,X,X,X,X,X,X,X,X,X,X,X,X,X,X,X,X,X,X,X,X,X,X,X,X",
",X,X,X,X,X,X,X,X,X,X,X,X,X,X,X,X,X,X,X,X,X,X,X,X,X,X,X,X,X,X,X,X,X,X,X,X,X,X,X,X,X,X,X,X,X,X,X,X,X,X,X,X,X,X,X,X,X,X,X,X,X,X,X,X,X,X,X,X,X,X",
",X,X,X,X,X,X,X,X,X,X,X,X,X,X,X,X,X,X,X,X,X,X,X,X,X,X,X,X,X,X,X,X,X,X,X,X,X,X,X,X,X,X,X,X,X,X,X,X,X,X,X,X,X,X,X,X,X,X,X,X,X,X,X,X,X,X,X,X,X,X"
};
