/* XPM */
static char *result[] = {
/* columns rows colors chars-per-pixel */
"60 70 80 1 ",
"  c #301F1D",
". c #352D0D",
"X c #3C2E0C",
"o c #3C320E",
"O c #2D2519",
"+ c #372410",
"@ c #342C13",
"# c #3C2C14",
"$ c #34261B",
"% c #33291B",
"& c #3B2D1A",
"* c #3B3213",
"= c #3E311B",
"- c #3F3919",
"; c #312523",
": c #4E3B07",
"> c #42330D",
", c #4B370A",
"< c #45380F",
"1 c #4C3B0D",
"2 c #533D0C",
"3 c #5A3F0B",
"4 c #412E13",
"5 c #412E1D",
"6 c #443415",
"7 c #4C3615",
"8 c #4C3A14",
"9 c #42331B",
"0 c #4B361C",
"q c #443818",
"w c #4D3B1C",
"e c #543D13",
"r c #543D1B",
"t c #402F23",
"y c #453522",
"u c #463821",
"i c #4C3C22",
"p c #553C23",
"a c #583E23",
"s c #553E29",
"d c #55410C",
"f c #5C430B",
"g c #554113",
"h c #5C4412",
"j c #5E4914",
"k c #554119",
"l c #5B431C",
"z c #644505",
"x c #684706",
"c c #664906",
"v c #6D4B06",
"b c #62460B",
"n c #69470A",
"m c #65490C",
"M c #6C4B0A",
"N c #734D06",
"B c #784E07",
"V c #754F09",
"C c #794E0B",
"Z c #755207",
"A c #785307",
"S c #76500A",
"D c #79510B",
"F c #624612",
"G c #654B11",
"H c #6A4D12",
"J c #744E14",
"K c #784F13",
"L c #745111",
"P c #574225",
"I c #5B4223",
"U c #52412C",
"Y c #5D4529",
"T c #574F36",
"R c #584B35",
"E c #5E564A",
"W c #65564E",
"Q c #68534D",
"! c #75644B",
"~ c None",
/* pixels */
"~~~~~~~~~~~~QW~~~~~~~~~~~~~~~~~~~~~~~~~~~~~~~~~~~~~~~~~~~~~~",
"~~~~~~~~~~~~~~~~~~~~~~~~~~~~~~~~~~~~~~~~~~~~~~~~~~~~~~~~~~~~",
"~~~~~~~~~~~~~~~~~~~~~~~~~~~~~~~~~~~~~~~~~~~~~~~~~~~~~~~~~~~~",
"~~~~~~~~~~~~~~~~~~~~~~~~~~~~~~~~~~~~~~~~~~~~~~~~~~~~~~~~~~~~",
"~~~~~~~~~~~~~~~~~~~~~~~~~~~O%%%y~~~~~~~~~~~~~~~~~~~~~~~~~~~~",
"~~~~~~~~~~~~~~~~~~~~~~~~$;$%9ehll8~~~~~~~~~~~~~~~~~~~~~~~~~~",
"~~~~~~~~~~~~~~~~~~~~~~yspkGSZSSSSDDMF>#~~~~~~~~~~~~~~~~~~~~~",
"~~~~~~~~~~~~~~~~~~~~sieFLZSLJLLDDDCKJmH8.~~~~~~~~~~~~~~~~~~~",
"~~~~~~~~~~~~~~~~~~5srFLSDCSSADSSDVLSSmVSF~~~~~~~~~~~~~~~~~~~",
"~~~~~~~~~~~~~~~~~~aigJVDCDDDCSSCVDVDSnSVDH~~~~~~~~~~~~~~~~~~",
"~~~~~~~~~~~~~~~~~YeqhCSDCVCSCVVVVVVDDbDVVSH~~~~~~~~~~~~~~~~~",
"~~~~~~~~~~~~~~~pYrHgbVSVSVVVVVVVVVVNVbVVVVVH~~~~~~~~~~~~~~~~",
"~~~~~~~~~~~~~~~IkeSghJKVCVVVVVVCVVCVSnDVCVVVl~~~~~~~~~~~~~~~",
"~~~~~~~~~~~~~~pYrDCdFVVVVVVVVBVVVVVVSbVVVVVNL~~~~~~~~~~~~~~~",
"~~~~~~~~~~~~~pI7HDV2fSVCVVVVVVVZVVCBSbNVVCNJDH~~~~~~~~~~~~~~",
"~~~~~~~~~~~~0arFVVVdhSCVVVCVVVVBVVSVVmDNVCCVNDj~~~~~~~~~~~~~",
"~~~~~~~~~~~~rI7JVVVdfVVVVCVVVVVNVVVBCmVVVVVZVVM~~~~~~~~~~~~~",
"~~~~~~~~~~~7IrbVVZNfbVVVVVVSVVVVVVVVVmVVVVVVVVDF~~~~~~~~~~~~",
"~~~~~~~~~~~aIeKVVSVfFVDVZSZBVVVVVVVVHmVVVVVZSVNH~~~~~~~~~~~~",
"~~~~~~~~~~~IrfVVVSVfbLVVBVVZVVNAVVVBJmVVVVSVVVVZe~~~~~~~~~~~",
"~~~~~~~~~~iP7VBVVVVbfSVVVVVVVVVVNNBVSGVVVVVVVNBVM~~~~~~~~~~~",
"~~~~~~~~~~pweVVVVVCbfDVVZBVVVBNAVVVVHMVVVVANVVZVN~~~~~~~~~~~",
"~~~~~~~~~uw6HCVVVVCFbVVVVNANVZVNVAVNNnVVZBVVNZVVSG~~~~~~~~~~",
"~~~~~~~~~9u7CBVVVVBHbVVVVVVVVVVVVBAZMMVVVNVVVVNVNG~~~~~~~~~~",
"~~~~~~~~~9uhVVVVVVVvMBBVVVVVNBVZVVVNMMVSAVVBVZVVZM~~~~~~~~~~",
"~~~~~~~~~q9HNVVVVVZMMVNVVVVVVVVVVVVVvMVVVVNVNVVNNN~~~~~~~~~~",
"~~~~~~~~;=4VNVNVVVVMvVVVVZVVVVVVVNBVMMVVVVNNVVZNNVh~~~~~~~~~",
"~~~~~~~~y=7NVBZVVVVNvVVVVVSVANVVVVZVxcNVVZBVNNVNNNG~~~~~~~~~",
"~~~~~~~~5&hVVVVVVVVNMVVZVAVAVVVZVVVVxNNVNBNNVNNNNNc~~~~~~~~~",
"~~~~~~~~&+GVMnVVVVZMMVVVCSSVVVNBVVVVzMNNNNNNNNNvNvN~~~~~~~~~",
"~~~~~~~;&#MN3>mVVNZMMVVVVZVVVVVVVVNVbMNNNNVNVVNNNMNe~~~~~~~~",
"~~~~~~~%#0NFX@3NVNBMNVVSZCSVVVVZVVNBfMNBNVNNVNNNNvvb~~~~~~~~",
"~~~~~~~$9kMX@obNVNVMvVVVZVBNANVVVVZNfMVVNNNNNZvNNvvn~~~~~~~~",
"~~~~~~~$uhMo*gSNNVVcNVZVVVVZVVVAVVVNfNVVNNNNNVNNvvvb~~~~~~~~",
"~~~~~~~&uFM*@bNNNNVcHZVVVVBVNVVNVVVVfVNNNNNNNNvNvvvm~~~~~~~~",
"~~~~~~~99bm*.bSMNNVnVZVVNNNNVVVNVVVNfZNNNNNNNNvvZvMf~~~~~~~~",
"~~~~~~~9=GM*.bNNVNNxNSNNNBNVNVVBSVVNbNNNNNNvvNNvvvvf~~~~~~~~",
"~~~~~~~6#mM*.fNNNNNzMNNVNNANVVNNNNMNbNNNvNNNNNvvZvvf~~~~~~~~",
"~~~~~~&9#mM6*3NvNNNzNNNBNNVNNANBVNNNbMNNNNNvNvNvcvvf~~~~~~~~",
"~~~~~~5&6Mv2X#zNvBNzNNNNNNNNNVZNVVNNbNNNvNNvZvvvvvcf~~~~~~~~",
"~~~~~~996MvH**zNNNNzMNNNVNNNNNVNNNNNbNNNvNvvNvvvvvvf~~~~~~~~",
"~~~~~~&=0MNN,oMNNNV3NNNVNNNNNNNNVVNNbNMNNNNvvvvvMMcf~~~~~~~~",
"~~~~~~997MMvMNMvvNVbNNNNNNNVNVNBVNZvbMNvNNNvvNvvvvcf~~~~~~~~",
"~~~~~~99qMMNNNNNNNVbMvNNNNVVBNNNVNZMfNNNvvvvvvNvvxMd*~~~~~~~",
"~~~~~~9=qMNNMNNBvNNbNvNNNNNNBNBNNNNMbNNNvNNvvvvvvvx3~~~~~~~~",
"~~~~~~9=0HMNNNNxNNNbNNNvvNNVNNNBVNNMfNvNvvvvvvvvvxne~~~~~~~~",
"~~~~~~&96MMvNNNNNvvbBvvNNNNNNNBBNNNMGNvNvvvvvvvvNcne~~~~~~~~",
"~~~~~~==#MNNNMNNvNvfvvvvvNVNBNNNNNNvfNNvNvvvvvvvxcc8~~~~~~~~",
"~~~~~~&==mvNvvZvvZvdvMvvvvNZNNNNNNNxfNvvNMxvvvMvvnn,~~~~~~~~",
"~~~~~~@=&GvvZvvvvvcdvvNvvZNNNBBNvZNxbvNvxNNNvvxvccn>~~~~~~~~",
"~~~~~~%=&GMvZvvZZvv1MvvvvvvNNNNvvvvxfNNvMNvxvvvccxz6~~~~~~~~",
"~~~~~~==9FMvvvvvvvM8MvvvvxNNNNNNZvvzfvvvvvvvvvvcxzz4~~~~~~~~",
"~~~~~~=9ihvMcvvvvvc,vvvvvNvNNvvNvvvfzMvvMvvvvvnxxx34~~~~~~~~",
"~~~~~~=9PgcMvvvvNvn<nvvvvvNvNvNNvZvffxvvvvvxnvxnxc3~~~~~~~~~",
"~~~~~~=0PrmvvvvvvvM6cNvvvvvNvNvvvvvf3vvvvNvxcvvxxz2~~~~~~~~~",
"~~~~~~=uRTUk8fcvvcc>cvvvvvNNNvNvvvN:3xvxvvxNvxnxxz2~~~~~~~~~",
"~~~~~~~~!!!~~~~-wk8XbMxvvvNvvvNMvvv2fvvccvxvnvcczz1~~~~~~~~~",
"~~~~~~~~~~~~~~~~~~~Ei8edbmMvvvvvNvx:dcvcvxcvxnczzz,~~~~~~~~~",
"~~~~~~~~~~~~~~~~~~~~~~~~8eddfmccvvv:3vvccvcMxxzzzz~~~~~~~~~~",
"~~~~~~~~~~~~~~~~~~~~~~~~~~~~~~~02ge62cvvvxvnxxxzzf~~~~~~~~~~",
"~~~~~~~~~~~~~~~~~~~~~~~~~~~~~~~~~~~~~wegffmnzxzzzf~~~~~~~~~~",
"~~~~~~~~~~~~~~~~~~~~~~~~~~~~~~~~~~~~~~~~~0w8gdbnz3~~~~~~~~~~",
"~~~~~~~~~~~~~~~~~~~~~~~~~~~~~~~~~~~~~~~~~~~~~~qq88~~~~~~~~~~",
"~~~~~~~~~~~~~~~~~~~~~~~~~~~~~~~~~~~~~~~~~~~~~~~~~~~~~~~~~~~~",
"~~~~~~~~~~~~~~~~~~~~~~~~~~~~~~~~~~~~~~~~~~~~~~~~~~~~~~~~~~~~",
"~~~~~~~~~~~~~~~~~~~~~~~~~~~~~~~~~~~~~~~~~~~~~~~~~~~~~~~~~~~~",
"~~~~~~~~~~~~~~~~~~~~~~~~~~~~~~~~~~~~~~~~~~~~~~~~~~~~~~~~~~~~",
"~~~~~~~~~~~~~~~~~~~~~~~~~~~~~~~~~~~~~~~~~~~~~~~~~~~~~~~~~~~~",
"~~~~~~~~~~~~~~~~~~~~~~~~~~~~~~~~~~~~~~~~~~~~~~~~~~~~~~~~~~~~",
"~~~~~~~~~~~~~~~~~~~~~~~~~~~~~~~~~~~~~~~~~~~~~~~~~~~~~~~~~~~~"
};
