/* XPM */
static char *result[] = {
/* columns rows colors chars-per-pixel */
"60 70 184 2 ",
"   c #070204",
".  c #0A0305",
"X  c #0B0608",
"o  c #11090B",
"O  c #1B0E10",
"+  c #1C1215",
"@  c #210F12",
"#  c #201114",
"$  c #261818",
"%  c #2F1D1F",
"&  c #3A2E1F",
"*  c #3F2527",
"=  c #3F2328",
"-  c #372123",
";  c #3F393F",
":  c #452827",
">  c #4E2B29",
",  c #45272C",
"<  c #532D2C",
"1  c #5B2E2E",
"2  c #5B272B",
"3  c #453527",
"4  c #433429",
"5  c #4D332C",
"6  c #4B3C2C",
"7  c #503A2E",
"8  c #4A2F33",
"9  c #452C32",
"0  c #5B2E31",
"q  c #4B3234",
"w  c #4E353A",
"e  c #4A393D",
"r  c #523432",
"t  c #5B3332",
"y  c #533D32",
"u  c #5F3936",
"i  c #55353A",
"p  c #5A363A",
"a  c #55383C",
"s  c #5B3B3D",
"d  c #602F30",
"f  c #633536",
"g  c #623A36",
"h  c #6B3639",
"j  c #643C3A",
"k  c #6C3C3D",
"l  c #733A3D",
"z  c #4E422E",
"x  c #50412F",
"c  c #5B433B",
"v  c #5D4F3C",
"b  c #66413E",
"n  c #6A423E",
"m  c #4D3B43",
"M  c #403C42",
"N  c #523C42",
"B  c #5A3D42",
"V  c #633E41",
"C  c #6B3E41",
"Z  c #733E41",
"A  c #554245",
"S  c #5D4244",
"D  c #55434A",
"F  c #5B444A",
"G  c #59484B",
"H  c #4D4451",
"J  c #5D4C54",
"K  c #5B4F5A",
"L  c #574852",
"P  c #5C5155",
"I  c #5D525C",
"U  c #634344",
"Y  c #6C4543",
"T  c #664B44",
"R  c #6C4945",
"E  c #63464A",
"W  c #6C464A",
"Q  c #654A4D",
"!  c #6B4B4B",
"~  c #724545",
"^  c #714A46",
"/  c #724748",
"(  c #744D4A",
")  c #7A4B4C",
"_  c #7E4349",
"`  c #6D524A",
"'  c #76514D",
"]  c #7A514E",
"[  c #634C52",
"{  c #6B4C51",
"}  c #714F52",
"|  c #7F4F55",
" . c #655055",
".. c #6C5255",
"X. c #63545E",
"o. c #6C545A",
"O. c #6A585E",
"+. c #695B54",
"@. c #755354",
"#. c #7C5452",
"$. c #755A52",
"%. c #7D5A56",
"&. c #73555B",
"*. c #7B5759",
"=. c #75595C",
"-. c #7D5A5B",
";. c #79605A",
":. c #5E5764",
">. c #6B5B63",
",. c #655E6B",
"<. c #685F69",
"1. c #645763",
"2. c #745D63",
"3. c #7C5F60",
"4. c #67636F",
"5. c #6B666B",
"6. c #7B6265",
"7. c #7B656B",
"8. c #6F6772",
"9. c #706976",
"0. c #7D6A71",
"q. c #7B727F",
"w. c #814248",
"e. c #834A4E",
"r. c #864448",
"t. c #854D51",
"y. c #8C4E53",
"u. c #914D52",
"i. c #825554",
"p. c #8B5254",
"a. c #835A57",
"s. c #835459",
"d. c #8B545A",
"f. c #845C59",
"g. c #885E5B",
"h. c #945256",
"j. c #935559",
"k. c #9B555A",
"l. c #955A5E",
"z. c #9C5A5E",
"x. c #A15A5E",
"c. c #85605E",
"v. c #88605E",
"b. c #885D62",
"n. c #9D5D63",
"m. c #905A61",
"M. c #A15D63",
"N. c #846162",
"B. c #8A6564",
"V. c #8C686A",
"C. c #82676B",
"Z. c #9B6166",
"A. c #926B6B",
"S. c #986D6F",
"D. c #916565",
"F. c #856B72",
"G. c #956E70",
"H. c #827077",
"J. c #8F7176",
"K. c #85747E",
"L. c #9A7271",
"P. c #97797D",
"I. c #9D7A7C",
"U. c #A26066",
"Y. c #A26268",
"T. c #A17777",
"R. c #A67E7D",
"E. c #A87E7E",
"W. c #A7807E",
"Q. c #A8807E",
"!. c #7F7C88",
"~. c #8C7A83",
"^. c #A77E80",
"/. c #96848D",
"(. c #878591",
"). c #9A959B",
"_. c #A68282",
"`. c #AA8281",
"'. c #A98689",
"]. c #A79DA7",
"[. c #A89AA5",
"{. c #B6ACB7",
"}. c #BEB3BD",
"|. c None",
/* pixels */
"|.|.|.|.|.|.|.|.|.|.|.|.|.|.|.|.|.|.|.|.|.|.|.|.|.|.|.|.|.|.|.|.|.|.|.|.|.|.|.|.|.|.|.|.|.|.|.|.|.|.|.|.|.|.|.|.|.|.|.|.",
"|.|.|.|.|.|.|.|.|.|.|.|.|.|.|.|.|.|.|.|.|.|.|.|.|.|.|.|.|.|.|.|.|.|.|.|.|.|.|.|.|.|.|.|.|.|.|.|.|.|.|.|.|.|.|.|.|.|.|.|.",
"|.|.|.|.|.|.|.|.|.|.|.|.|.|.|.|.|.|.|.|.|.|.|.|.|.|.|.|.|.|.|.|.|.|.|.|.|.|.|.|.|.|.|.|.|.|.|.|.|.|.|.|.|.|.|.|.|.|.|.|.",
"|.|.|.|.|.|.|.|.|.|.|.|.|.|.|.|.|.|.|.|.|.|.|.|.|.|.|.|.|.|.|.|.|.|.|.|.|.|.|.|.|.|.|.|.|.|.|.|.|.|.|.|.|.|.|.|.|.|.|.|.",
"|.|.|.|.|.|.|.|.|.|.|.|.|.|.|.|.|.|.|.N N m J B |.|.|.|.|.|.|.|.|.|.|.|.|.|.|.|.|.|.|.|.|.|.|.|.|.|.|.|.|.|.|.|.|.|.|.|.",
"|.|.|.|.|.|.|.|.|.|.|.|.|.|.|.|.|.|.9 C Z C 0 V F |.|.|.|.|.|.|.|.|.|.|.|.|.|.|.|.|.|.|.|.|.|.|.|.|.|.|.|.|.|.|.|.|.|.|.",
"|.|.|.|.|.|.|.|.|.|.|.|.|.|.|.|.|.o.m.n.n.n.j.Z V E |.|.|.|.|.|.|.|.|.|.|.|.|.|.|.|.|.|.|.|.|.|.|.|.|.|.|.|.|.|.|.|.|.|.",
"|.|.|.|.|.|.|.|.|.|.|.|.|.|.|.|.o.m.n.M.M.M.M.k.k / E |.|.|.|.|.|.|.|.|.|.|.|.|.|.|.|.|.|.|.|.|.|.|.|.|.|.|.|.|.|.|.|.|.",
"|.|.|.|.|.|.|.|.|.|.|.|.|.|.|.|.{ n.n.M.M.M.M.M.j.h @.F |.|.|.|.|.|.|.|.|.|.|.|.|.|.|.|.|.|.|.|.|.|.|.|.|.|.|.|.|.|.|.|.",
"|.|.|.|.|.|.|.|.|.|.|.|.|.|.|.|.*.n.M.M.M.M.M.M.M.e.~ @.{ |.|.|.|.|.|.|.|.|.|.|.|.|.|.|.|.|.|.|.|.|.|.|.|.|.|.|.|.|.|.|.",
"|.|.|.|.|.|.|.|.|.|.|.|.|.|.|.L #.M.M.M.M.M.M.M.M.n.h a.{ |.|.|.|.|.|.|.|.|.|.|.|.|.|.|.|.|.|.|.|.|.|.|.|.|.|.|.|.|.|.|.",
"|.|.|.|.|.|.|.|.|.|.|.|.|.|.|.F d.M.M.M.M.M.M.M.n.n.h s.@.{ |.|.|.|.|.|.|.|.|.|.|.|.|.|.|.|.|.|.|.|.|.|.|.|.|.|.|.|.|.|.",
"|.|.|.|.|.|.|.|.|.|.|.|.|.|.|.E d.n.M.M.M.M.M.M.M.n.Z ) %.{ |.|.|.|.|.|.|.|.|.|.|.|.|.|.|.|.|.|.|.|.|.|.|.|.|.|.|.|.|.|.",
"|.|.|.|.|.|.|.|.|.|.|.|.|.|.|.E d.M.M.M.n.M.M.M.M.M.y.h a.f.Q |.|.|.|.|.1.X.:.L H I ,.9.!.|.|.|.o. .[ W p w [ |.|.|.|.|.",
"|.|.|.|.|.|.|.|.|.|.|.|.|.|.|.Q d.M.M.M.k.h.M.M.M.M.d.1 a.%.' $.6...S i , B 2.K./.].{.}.}.[.2.W *.@.C Z y.y.p |.|.|.|.|.",
"|.|.|.|.|.|.|.|.|.|.|.|.|.|.|.F d.M.M.M.k.u.M.M.M.M.l.1 a.a.a.R s %.@.( R ( E s q N >.<.F e p W Y _ j.x.x.n.#.|.|.|.|.|.",
"|.|.|.|.|.|.|.|.|.|.|.|.|.|.|.B #.M.M.M.n.r.M.M.U.x.n.1 c.a.a.a.' a.f.i.a.a.] ] ( b q w S ' ^ d l h.x.x.x.x.#.|.|.|.|.|.",
"|.|.|.|.|.|.|.|.|.|.|.|.|.|.|.|.{ Y.M.M.n.w.M.M.U.x.n.1 a.a.a.a.c.v.p.a.a.f.a.a.a.a.] t > g h l.z.h.u.k.x.j.i.|.|.|.|.|.",
"|.|.|.|.|.|.|.|.|.|.|.|.|.|.|.|.V n.M.M.M.y.h.M.U.U.p.n v.f.a.a.a.a.f.f.f.a.a.a.a.a.s.i.R 1 n p.l.M.x.x.z.) |.|.|.|.|.|.",
"|.|.|.|.|.|.|.|.|.|.|.|.|.|.|.|. .s.M.M.M.M.w.d.l.h.l a.a.a.v.a.a.a.f.f.f.f.f.a.%.a.a.a.a.~ n p.h.z.x.x.t.|.|.|.|.|.|.|.",
"|.|.|.|.|.|.|.|.|.|.|.|.|.|.|.|.|.N n.M.M.M.M.e.2 f e.v.v.v.a.a.a.a.a.v.v.f.v.f.a.a.a.a.a.a.) l l.l.M.i.b.|.|.|.|.|.|.|.",
"|.|.|.|.|.|.|.|.|.|.|.|.|.|.|.|.|.|.{ Y.Y.Y.n.) 1 u u g n a.a.a.a.a.f.a.f.f.a.f.a.s.a.a.f.a.i.g h h.s.B.|.|.|.|.|.|.|.|.",
"|.|.|.|.|.|.|.|.|.|.|.|.|.|.|.|.|.|.|.{ m.n.Z } a.v.f.f.n n a.a.a.a.f.f.f.f.f.f.f.a.p.g.f.p.f.a.f f.|.|.|.|.|.|.|.|.|.|.",
"|.|.|.|.|.|.|.|.|.|.|.|.|.|.|.|.|.|.|.|.&.{ V *.' ' a.f.f.] n $.f.f.f.f.f.g.f.a.] i.a.a.a.a.f.p.j B.|.|.|.|.|.|.|.|.|.|.",
"|.|.|.|.|.|.|.|.|.|.|.|.|.|.|.|.|.|.|.|.|.|. .b R R j @.v.a.' n a.a.f.f.f.f.$.n n ( a.a.f.f.g.a.@.` |.|.|.|.|.|.|.|.|.|.",
"|.|.|.|.|.|.|.|.|.|.|.|.|.|.|.|.|.|.|.|.|.5. .g.g.f.] t %.' a.n n a.f.a.f.f.v n n v.a.f.a.a.a.g.i.E |.|.|.|.|.|.|.|.|.|.",
"|.|.|.|.|.|.|.|.|.|.|.|.|.|.|.|.|.|.|.|.>.O.N.c.g.g.v.R ^ ^ ^ a.n a.a.f.v.n n ] < ^ a.f.p.a.) n #.U |.|.|.|.|.|.|.|.|.|.",
"|.|.|.|.|.|.|.|.|.|.|.|.|.|.|.|.|.|.|.>...N.N.N.f.f.g.] n c.n i.a.a.a.a.g.v.v.v.a.] p.p.f.n n n ^ U |.|.|.|.|.|.|.|.|.|.",
"|.|.|.|.|.|.|.|.|.|.|.|.|.|.|.|.|.|.|.[ %.b.N.g.f.a.a.i.g ' ^ i.f.a.a.f.v.g.v.g.v.f.f.f.i.j < ^ ]  .|.|.|.|.|.|.|.|.|.|.",
"|.|.|.|.|.|.|.|.|.|.|.|.|.J [ [ X.|.o.*.f.g.f.g.g.^ i.f.j ] ' i.f.a.f.a.v.g.g.v.g.g.g.f.f.f.^ R R |.|.|.|.|.|.|.|.|.|.|.",
"|.|.|.|.|.|.|.|.|.|.|.1.J &.-.%.*.( U %.f.f.f.g.i.n a.a.^ a.a.a.f.v.v.v.v.v.g.v.v.g.v.p.f.f.i.] R |.|.|.|.|.|.|.|.|.|.|.",
"|.|.|.|.|.|.|.|.K A S *.a.i.a.] ] a.a.a.a.f.f.f.Y ^ f.%.^ f.f.v.g.g.v.v.a.f.v.g.v.f.f.g.f.f.f.#...|.|.|.|.|.|.|.|.|.|.|.",
"|.|.|.|.|.|.|.|.1.F S @.@.W %.U Y i.a.a.f.a.a.@.j a.c.] ) v.g.g.f.v.$.7 % - ( g.f.f.f.f.f.f.a.T |.|.|.|.|.|.|.|.|.|.|.|.",
"|.|.|.|.|.|.|.|.K A Q *.C.[ { 6.....@.=.%.f./ u ] a.v.^ ) p.f.f.v.%.e o     : f.a.R s ] a.a.@.|.|.|.|.|.|.|.|.|.|.|.|.|.",
"|.|.|.|.|.|.|.|.|.X.O.|.|.1.I |.|.|. .[ [ B 0 ) c.a.a.R ) a.a.a.c.$.P X   . q a.U O X q f.] ;.|.|.|.|.|.|.|.|.|.|.|.|.|.",
"|.|.|.|.|.|.|.|.|.|.|.|.|.1.0.|.|.|.|.|.|.[ 2.f.a.a.c.n ] a.f.f.$.C.).M ; e =.! $ . . * ' @.|.|.|.|.|.|.|.|.|.|.|.|.|.|.",
"|.|.|.|.|.|.|.|.|.|.|.|.|.|.|.|.|.|.|.|.|.[ -.a.i.] ] b n ] #.i.*.o.}.].K.Q $. .K + + V f.@.[ |.|.|.|.|.|.|.|.|.|.|.|.|.",
"|.|.|.|.|.|.|.|.|.|.|.|.|.|.|.|.|.|.|.|.|.$.a.a.%.#.] ^ t n b R R B B 7.O.E Q F ~.H.W %.f.U S 6. .0.7.|.|.|.|.|.|.|.|.|.",
"|.|.|.|.|.|.|.|.|.|.|.|.|.|.|.|.|.|.|.|.[ ;.v.a.v.v.c.c.Y g u n Y p B F.=.@ # q 9 S ( ( b 5 { @.U E ..F.|.|.|.|.|.|.|.|.",
"|.|.|.|.|.|.|.|.|.|.|.|.|.|.|.|.|.|.|.J ' v.i.] ) n n ' c.b j g Y @.f.I.'...3.Q : B s u Y ' ! ! E s E Q |.|.|.|.|.|.|.|.",
"|.|.|.|.|.|.|.|.|.|.|.|.|.|.|.|.|.|.,...f.a.@.| i.a.f.L.E.R.n n #.R.B.*.G.V.{ p i r u @.a.%.-.-.[ |.|.|.|.|.|.|.|.|.|.|.",
"|.|.|.|.|.|.|.|.|.|.|.|.|.|.|.|.|.|. .f.a.a.a.a.f.a.v.R.R.W.T.D.k U b.3.W V W @.a.g.a.) b E *.&.>.|.|.|.|.|.|.|.|.|.|.|.",
"|.|.|.|.|.|.|.|.|.|.|.|.|.|.|.|.|.[ %.a.f.a.f.a.f.f.A.R.E.R.E.Q.T.@.J.2.{ 3.;.b.N.N.*.Q 2.|./.J X.|.|.|.|.|.|.|.|.|.|.|.",
"|.|.|.|.|.|.|.|.|.|.|.|.|.|.|.|.[ &.f.a.f.a.f.a.f.a.T.R.R.E.E.Q.L.S.~.3.|.o.>.O.o.{ o.|.|.|.|.|.|.|.|.|.|.|.|.|.|.|.|.|.",
"|.|.|.|.|.|.|.|.|.(.!.|.|.|.|.I ! %.v.a.a.a.a.c.f.v.R.R.R.E.Q.R.g.^.C.F.|.|.|.|.|.|.|.|.|.|.|.|.|.|.|.|.|.|.|.|.|.|.|.|.",
"|.|.|.|.|.|.|.|.|.|.|.4.,.|.|.D ` a.a.a.a.a.a.a.f.A.R.R.R.R.Q.T.G._.7.|.|.|.|.|.|.|.|.|.|.|.|.|.|.|.|.|.|.|.|.|.|.|.|.|.",
"|.|.|.|.|.|.|.|.|.|.|.|.|.,.:.m %.a.a.a.a.a.i.] v.T.R.E.R.E.R.R.^.^.7.|.|.|.|.|.|.|.|.|.|.|.|.|.|.|.|.|.|.|.|.|.|.|.|.|.",
"|.|.|.|.|.|.|.|.|.|.|.|.|.|.8.m =.a.f.a.a.c.a.n v.R.W.R.R.R.R.E._.7.|.|.|.|.|.|.|.|.|.|.|.|.|.|.|.|.|.|.|.|.|.|.|.|.|.|.",
"|.|.|.|.|.|.|.|.|.|.|.|.|.|.|.J =.a.f.f.f.a.v.n v.W.W.R.R.R.R.W.R.=.|.|.|.|.|.|.|.|.|.|.|.|.|.|.|.|.|.|.|.|.|.|.|.|.|.|.",
"|.|.|.|.|.|.|.|.|.|.|.|.|.|.|.K @.a.f.a.a.g.a.' v.W.W.R.^.R.Q.W.=.|.|.|.|.|.|.|.|.|.|.|.|.|.|.|.|.|.|.|.|.|.|.|.|.|.|.|.",
"|.|.|.|.|.|.|.|.|.|.|.|.|.|.|.L ` f.a.f.a.f.f.i.] T.R.R.R.W.W.B.a |.|.|.|.|.|.|.|.|.|.|.|.|.|.|.|.|.|.|.|.|.|.|.|.|.|.|.",
"|.|.|.|.|.|.|.|.|.|.|.|.|.|.|.|.E a.f.f.c.f.f.c.n D.R.R.W.W.S.R U |.|.|.|.|.|.|.|.|.|.|.|.|.|.|.|.|.|.|.|.|.|.|.|.|.|.|.",
"|.|.|.|.|.|.|.|.|.|.|.|.|.|.|.|.D =.g.f.c.a.a.c.' ] W.W.R.L.n ^ *.X.|.|.|.|.|.|.|.|.|.|.|.|.|.|.|.|.|.|.|.|.|.|.|.|.|.|.",
"|.|.|.|.|.|.|.|.|.|.|.|.|.|.|.|.P ..f.f.a.f.a.f.] n W.W.Z.n ] a.-.[ |.|.|.|.|.|.|.|.|.|.|.|.|.|.|.|.|.|.|.|.|.|.|.|.|.|.",
"|.|.|.|.|.|.|.|.|.|.|.|.|.|.|.|.|.G %.f.a.a.f.f.] u ] i.' ] a.a.f.A |.|.|.|.|.|.|.|.|.|.|.|.|.|.|.|.|.|.|.|.|.|.|.|.|.|.",
"|.|.|.|.|.|.|.|.|.|.|.|.|.|.|.|.|.>.Q ;.a.a.f.f.] < n n i.v.a.a.-.N |.|.|.|.|.|.|.|.|.|.|.|.|.|.|.|.|.|.|.|.|.|.|.|.|.|.",
"|.|.|.|.|.|.|.|.|.|.|.|.|.|.|.|.|.|.G -.-.g.f.f.' 1 %.] %.a.g.%.U 2.|.|.|.|.|.|.|.|.|.|.|.|.|.|.|.|.|.|.|.|.|.|.|.|.|.|.",
"|.|.|.|.|.|.|.|.|.|.|.|.|.|.|.|.|.|.|.S =.f.f.f.( > %.R Y n g R |.|.|.|.|.|.|.|.|.|.|.|.|.|.|.|.|.|.|.|.|.|.|.|.|.|.|.|.",
"|.|.|.|.|.|.|.|.|.|.|.|.|.|.|.|.|.|.|.G ..f.f.f.' 7 ' %.#.] R ;.|.|.|.|.|.|.|.|.|.|.|.|.|.|.|.|.|.|.|.|.|.|.|.|.|.|.|.|.",
"|.|.|.|.|.|.|.|.|.|.|.|.|.|.|.|.|.|.|.|.A $.3.f.( $.T %.#.$.c +.|.|.|.|.|.|.|.|.|.|.|.|.|.|.|.|.|.|.|.|.|.|.|.|.|.|.|.|.",
"|.|.|.|.|.|.|.|.|.|.|.|.|.|.|.|.|.|.|.|.|.c a.g.R U c ;.` ! 3 |.|.|.|.|.|.|.|.|.|.|.|.|.|.|.|.|.|.|.|.|.|.|.|.|.|.|.|.|.",
"|.|.|.|.|.|.|.|.|.|.|.|.|.|.|.|.|.|.|.|.|.5 ] g.( q |.z 4 6 |.|.|.|.|.|.|.|.|.|.|.|.|.|.|.|.|.|.|.|.|.|.|.|.|.|.|.|.|.|.",
"|.|.|.|.|.|.|.|.|.|.|.|.|.|.|.|.|.|.|.|.|.T ( a.i.y |.|.|.|.|.|.|.|.|.|.|.|.|.|.|.|.|.|.|.|.|.|.|.|.|.|.|.|.|.|.|.|.|.|.",
"|.|.|.|.|.|.|.|.|.|.|.|.|.|.|.|.|.|.|.|.|.7 %.a.d.#.x 7 |.|.|.|.|.|.|.|.|.|.|.|.|.|.|.|.|.|.|.|.|.|.|.|.|.|.|.|.|.|.|.|.",
"|.|.|.|.|.|.|.|.|.|.|.|.|.|.|.|.|.|.|.|.|.& ` f.g.f.%.` x |.|.|.|.|.|.|.|.|.|.|.|.|.|.|.|.|.|.|.|.|.|.|.|.|.|.|.|.|.|.|.",
"|.|.|.|.|.|.|.|.|.|.|.|.|.|.|.|.|.|.|.|.|.|.6 %.a.-.%.c.T 4 |.|.|.|.|.|.|.|.|.|.|.|.|.|.|.|.|.|.|.|.|.|.|.|.|.|.|.|.|.|.",
"|.|.|.|.|.|.|.|.|.|.|.|.|.|.|.|.|.|.|.|.|.|.|.6 $.$.R ] c & |.|.|.|.|.|.|.|.|.|.|.|.|.|.|.|.|.|.|.|.|.|.|.|.|.|.|.|.|.|.",
"|.|.|.|.|.|.|.|.|.|.|.|.|.|.|.|.|.|.|.|.|.|.|.|.z v z c 3 |.|.|.|.|.|.|.|.|.|.|.|.|.|.|.|.|.|.|.|.|.|.|.|.|.|.|.|.|.|.|.",
"|.|.|.|.|.|.|.|.|.|.|.|.|.|.|.|.|.|.|.|.|.|.|.|.|.|.|.|.|.|.|.|.|.|.|.|.|.|.|.|.|.|.|.|.|.|.|.|.|.|.|.|.|.|.|.|.|.|.|.|.",
"|.|.|.|.|.|.|.|.|.|.|.|.|.|.|.|.|.|.|.|.|.|.|.|.|.|.|.|.|.|.|.|.|.|.|.|.|.|.|.|.|.|.|.|.|.|.|.|.|.|.|.|.|.|.|.|.|.|.|.|."
};
