/* XPM */
static char *result[] = {
/* columns rows colors chars-per-pixel */
"60 70 187 2 ",
"   c #070204",
".  c #0A0305",
"X  c #0E090A",
"o  c #1C0D0E",
"O  c #1D191A",
"+  c #221313",
"@  c #28191C",
"#  c #331C1F",
"$  c #2E2813",
"%  c #3E2E1C",
"&  c #33341C",
"*  c #3A331C",
"=  c #241D21",
"-  c #392629",
";  c #332A2F",
":  c #41341F",
">  c #432020",
",  c #472D2C",
"<  c #4A2B2E",
"1  c #43262B",
"2  c #572D2D",
"3  c #5A2B2C",
"4  c #493824",
"5  c #55312E",
"6  c #5C312F",
"7  c #4D2E31",
"8  c #472B32",
"9  c #532D32",
"0  c #4E3334",
"q  c #4C343A",
"w  c #4F383C",
"e  c #543236",
"r  c #5C3634",
"t  c #543930",
"y  c #5D3A35",
"u  c #563738",
"i  c #553C3C",
"p  c #5C3C3D",
"a  c #643436",
"s  c #603936",
"d  c #643739",
"f  c #6C373B",
"g  c #643C3B",
"h  c #6C3C3D",
"j  c #6C3436",
"k  c #733B3F",
"l  c #4D422C",
"z  c #4C4636",
"x  c #534232",
"c  c #5D4437",
"v  c #594138",
"b  c #5A4D35",
"n  c #64423D",
"m  c #6A413E",
"M  c #68483F",
"N  c #664A3D",
"B  c #67503F",
"V  c #4A3E48",
"C  c #4A3E42",
"Z  c #553D43",
"A  c #5B3D42",
"S  c #633F41",
"D  c #7E3E41",
"F  c #4E404A",
"G  c #564142",
"H  c #5A4146",
"J  c #5B444B",
"K  c #5A4A4B",
"L  c #56564A",
"P  c #5D4A52",
"I  c #5D535E",
"U  c #5C5155",
"Y  c #644345",
"T  c #6C4542",
"R  c #664A46",
"E  c #6D4945",
"W  c #63464B",
"Q  c #6A464B",
"!  c #644A4B",
"~  c #6C4B4C",
"^  c #714343",
"/  c #7C4347",
"(  c #714A46",
")  c #70474D",
"_  c #784549",
"`  c #744C4A",
"'  c #794E4C",
"]  c #645640",
"[  c #685041",
"{  c #6F514E",
"}  c #73534C",
"|  c #7A524E",
" . c #795D4E",
".. c #604751",
"X. c #644D53",
"o. c #6B4D52",
"O. c #724D52",
"+. c #655155",
"@. c #6C5254",
"#. c #65535A",
"$. c #6A555B",
"%. c #675F58",
"&. c #6C5B5D",
"*. c #755354",
"=. c #7C5553",
"-. c #7E5955",
";. c #71565A",
":. c #7D5659",
">. c #735A5C",
",. c #7C5A5B",
"<. c #7C695A",
"1. c #615760",
"2. c #655A64",
"3. c #6C5B63",
"4. c #6D5E69",
"5. c #735D62",
"6. c #7D5D62",
"7. c #6D616A",
"8. c #6B676B",
"9. c #766367",
"0. c #7B6265",
"q. c #77636B",
"w. c #7B656B",
"e. c #6E6772",
"r. c #726670",
"t. c #776872",
"y. c #814044",
"u. c #804549",
"i. c #844A4E",
"p. c #8B494E",
"a. c #8B474B",
"s. c #874E53",
"d. c #894D53",
"f. c #815554",
"g. c #885355",
"h. c #835B56",
"j. c #85565A",
"k. c #8D565B",
"l. c #845C59",
"z. c #895C5C",
"x. c #955357",
"c. c #93555A",
"v. c #9B555A",
"b. c #965A5E",
"n. c #9C595D",
"m. c #A05A5F",
"M. c #87605C",
"N. c #89605C",
"B. c #835F61",
"V. c #945D62",
"C. c #9D5D62",
"Z. c #A25D63",
"A. c #846162",
"S. c #8C6463",
"D. c #8E6867",
"F. c #846B6D",
"G. c #8C6B6B",
"H. c #88666A",
"J. c #906767",
"K. c #946C6B",
"L. c #9B6065",
"P. c #94716F",
"I. c #8B6E72",
"U. c #85727A",
"Y. c #9D7574",
"T. c #967779",
"R. c #9D7878",
"E. c #A26066",
"W. c #A16369",
"Q. c #A17677",
"!. c #A67E7D",
"~. c #A87F7E",
"^. c #A7807E",
"/. c #A8807F",
"(. c #7C7884",
"). c #877A84",
"_. c #9C7E80",
"`. c #83808B",
"'. c #918F9A",
"]. c #938B90",
"[. c #9E929E",
"{. c #A48282",
"}. c #A98181",
"|. c #A39199",
" X c #9B98A3",
".X c #B2AAAF",
"XX c None",
/* pixels */
"XXXXXXXXXXXXXXXXXXXXXXXXXXXXXXXXXXXXXXXXXXXXXXXXXXXXXXXXXXXXXXXXXXXXXXXXXXXXXXXXXXXXXXXXXXXXXXXXXXXXXXXXXXXXXXXXXXXXXXXX",
"XXXXXXXXXXXXXXXXXXXXXXXXXXXXXXXXXXXXXXXXXXXXXXXXXXXXXXXXXXXXXXXXXXXXXXXXXXXXXXXXXXXXXXXXXXXXXXXXXXXXXXXXXXXXXXXXXXXXXXXX",
"XXXXXXXXXXXXXXXXXXXXXXXXXXXXXXXXXXXXXXXXXXXXXXXXXXXXXXXXXXXXXXXXXXXXXXXXXXXXXXXXXXXXXXXXXXXXXXXXXXXXXXXXXXXXXXXXXXXXXXXX",
"XXXXXXXXXXXXXXXXXXXXXXXXXXXXXXXXXXXXXXXXXXXXXXXXXXXXXXXXXXXXXXXXXXXXXXXXXXXXXXXXXXXXXXXXXXXXXXXXXXXXXXXXXXXXXXXXXXXXXXXX",
"XXXXXXXXXXXXXXXXXXXXXXXXXXXXXXXXXXXXXXH 9 9 e J XXXXXXXXXXXXXXXXXXXXXXXXXXXXXXXXXXXXXXXXXXXXXXXXXXXXXXXXXXXXXXXXXXXXXXXX",
"XXXXXXXXXXXXXXXXXXXXXXXXXXXXXXXXXXXXo.L.C.C.k a Z #.XXXXXXXXXXXXXXXXXXXXXXXXXXXXXXXXXXXXXXXXXXXXXXXXXXXXXXXXXXXXXXXXXXXX",
"XXXXXXXXXXXXXXXXXXXXXXXXXXXXXXXXXX;.V.C.C.Z.Z.u.g T $.XXXXXXXXXXXXXXXXXXXXXXXXXXXXXXXXXXXXXXXXXXXXXXXXXXXXXXXXXXXXXXXXXX",
"XXXXXXXXXXXXXXXXXXXXXXXXXXXXXXXX$.V.Z.Z.C.Z.Z.Z.k S S 6.XXXXXXXXXXXXXXXXXXXXXXXXXXXXXXXXXXXXXXXXXXXXXXXXXXXXXXXXXXXXXXXX",
"XXXXXXXXXXXXXXXXXXXXXXXXXXXXXXXXo.C.Z.Z.Z.m.Z.Z.b.f j.A XXXXXXXXXXXXXXXXXXXXXXXXXXXXXXXXXXXXXXXXXXXXXXXXXXXXXXXXXXXXXXXX",
"XXXXXXXXXXXXXXXXXXXXXXXXXXXXXXJ j.C.Z.Z.Z.m.Z.Z.Z.d.) *.o.XXXXXXXXXXXXXXXXXXXXXXXXXXXXXXXXXXXXXXXXXXXXXXXXXXXXXXXXXXXXXX",
"XXXXXXXXXXXXXXXXXXXXXXXXXXXXXXX.k.Z.Z.Z.Z.Z.Z.Z.Z.C.k l.o.5.XXXXXXXXXXXXXXXXXXXXXXXXXXXXXXXXXXXXXXXXXXXXXXXXXXXXXXXXXXXX",
"XXXXXXXXXXXXXXXXXXXXXXXXXXXXXX@.C.Z.Z.Z.Z.Z.Z.Z.Z.Z.S h.*.o.XXXXXXXXXXXXXXXXXXXXXXXXXXXXXXXXXXXXXXXXXXXXXXXXXXXXXXXXXXXX",
"XXXXXXXXXXXXXXXXXXXXXXXXXXXXXXO.L.Z.Z.Z.Z.Z.Z.Z.Z.Z._ | :.~ XXXXXXXXXXXXXXXXXXXXXXXXXXXXXXXXXXXXXXXXXXXXXXXXXXXXXXXXXXXX",
"XXXXXXXXXXXXXXXXXXXXXXXXXXXXXX) L.Z.E.Z.Z.Z.Z.Z.Z.C.c.h h.,.o.XXXXXXXXI V 2.).).XXXXXXXX[.XXXXXX+...W Y e e P XXXXXXXXXX",
"XXXXXXXXXXXXXXXXXXXXXXXXXXXXXX) Z.Z.Z.Z.n.Z.E.Z.C.Z.V.h h.h.*.{ 5.H e 7 9 ~ o.$.5.3.XXXXXXXX5.! *.O.S ^ s.j.A XXXXXXXXXX",
"XXXXXXXXXXXXXXXXXXXXXXXXXXXXXXQ C.Z.Z.Z.x.n.E.Z.Z.Z.n.h -.h.-.E R O.:.f.,.=.E g 7 Z +.4.Z q A ` ^ i.x.m.Z.C.j.6.XXXXXXXX",
"XXXXXXXXXXXXXXXXXXXXXXXXXXXXXX~ V.Z.Z.Z.v.x.Z.Z.m.E.Z.m h.h.h.h.} h.h.h.h.h.h.h.h.` r < , ` M 3 j V.Z.Z.m.C.g.XXXXXXXXXX",
"XXXXXXXXXXXXXXXXXXXXXXXXXXXXXX..k.Z.Z.E.Z./ E.W.E.E.b.h h.h.h.h.h.h.h.h.h.h.h.h.h.h.h.M 5 6 6 g.b.y.a.m.Z.c.l.XXXXXXXXXX",
"XXXXXXXXXXXXXXXXXXXXXXXXXXXXXXF O.C.Z.Z.Z.c.d.Z.E.E.i.| l.h.h.h.h.h.h.h.h.h.h.h.h.h.h.g.| 6 y.D v.Z.x.v.n.` XXXXXXXXXXXX",
"XXXXXXXXXXXXXXXXXXXXXXXXXXXXXXXXS C.Z.E.Z.Z.d./ i.s.k z.l.l.M.h.h.h.h.h.h.M.h.h.h.h.h.h.h.| m x.v.v.m.m.k.XXXXXXXXXXXXXX",
"XXXXXXXXXXXXXXXXXXXXXXXXXXXXXXXXP s.Z.Z.Z.Z.Z.V.a k | z.z.N.M.h.h.h.h.h.h.h.h.z.h.k.h.h.h.g.i.k n.p.C.' XXXXXXXXXXXXXXXX",
"XXXXXXXXXXXXXXXXXXXXXXXXXXXXXXXXXXJ V.C.W.W.C._ 2 a g s g M M.h.h.h.h.h.h.h.h.h.l.h.h.g.h.h.h.M k k.B.XXXXXXXXXXXXXXXXXX",
"XXXXXXXXXXXXXXXXXXXXXXXXXXXXXXXXXXXXo.V.C.W.f ) z.z.z.h.h.M m h.h.h.h.h.h.l.h.h.h.h.h.h.g.h.h.g.h D.XXXXXXXXXXXXXXXXXXXX",
"XXXXXXXXXXXXXXXXXXXXXXXXXXXXXXXXXXXXXXO.6.B.S *.M m | h.M.M.M M h.h.h.h.h.l.h.| | g.h.h.h.h.h.h.T XXXXXXXXXXXXXXXXXXXXXX",
"XXXXXXXXXXXXXXXXXXXXXXXXXXXXXXXXXXXXXXXXXXXX+.` =.| n | h.h.h.( B N.h.h.h.h.m M ( m z.h.g.h.z.h.( XXXXXXXXXXXXXXXXXXXXXX",
"XXXXXXXXXXXXXXXXXXXXXXXXXXXXXXXXXXXXXXXXXX2.$.z.M.M.h.s h.M h.f.N h.M.h.N.h.M m M h.h.h.h.z.g.h.` XXXXXXXXXXXXXXXXXXXXXX",
"XXXXXXXXXXXXXXXXXXXXXXXXXXXXXXXXXXXXXXXX&.5.0.M.M.M.l.T | M ' h.| f.h.h.N.m m m > B g.h.h.h.i.m ` $.XXXXXXXXXXXXXXXXXXXX",
"XXXXXXXXXXXXXXXXXXXXXXXXXXXXXXXXXXXXXX2.$.A.N.l.h.l.l.E ' h.M h.h.( h.M.h.M.h.M.i.' h.z.h.h N M m XXXXXXXXXXXXXXXXXXXXXX",
"XXXXXXXXXXXXXXXXXXXXXXXXXXXX3.XXXXXXXXo.l.A.z.l.h.f.h.| M | m h.M.h.N.h.h.h.h.N.N.h.h.h.h.^ 5 g n XXXXXXXXXXXXXXXXXXXXXX",
"XXXXXXXXXXXXXXXXXXXXXXXX4.X.@.@.$.U.X.,.l.z.l.l.f.M M.| y h.M  .h.N.M.M.N.N.h.N.h.M.N.h.h.l.| s Y XXXXXXXXXXXXXXXXXXXXXX",
"XXXXXXXXXXXXXXXXr.4.3.X.o.,.h.,.,.` Y l.l.l.z.z.` M z.| m M.( h.M.N.N.h.N.N.N.h.h.z.z.h.l.h.| ( ~ XXXXXXXXXXXXXXXXXXXXXX",
"XXXXXXXXXXXXXXXX4.J R *.l.h.l.=.| j.h.h.-.l.l.h.h | l.| _ l.M.h.h.M.N.N.N.N.N.h.M.h.h.h.z.z.l.R XXXXXXXXXXXXXXXXXXXXXXXX",
"XXXXXXXXXXXXXXXX2.J A *.,.O.h.E T h.-.h.h.h.j.T M -.M.( ` l.M.M.M.N.,.R 0 Y l.l.M.l.l.l.l.l.=.R XXXXXXXXXXXXXXXXXXXXXXXX",
"XXXXXXXXXXXXXXXX1.J @.6.XXX.;.0.&.@.;.:.,.=.T Y h.M.M.T ' h.l.M.M. .] @ . + l.l.l.E y ( h. .{ XXXXXXXXXXXXXXXXXXXXXXXXXX",
"XXXXXXXXXXXXXXXXXX4.w.XXXX2.2.XXXXXX$.#.X.i g h.M.h.h.T ` j.l.l.<.R K X . o -.l.~ + . < -.} XXXXXXXXXXXXXXXXXXXXXXXXXXXX",
"XXXXXXXXXXXXXXXXXXXXXXXXXX2.t.XXXXXXXXXXXX#.,.z.h.M.M.( ( h.h.h.| 9.8.O ; i <.! +   . , ` ` 0.XXXXXXXXXXXXXXXXXXXXXXXXXX",
"XXXXXXXXXXXXXXXXXXXXXXXXXXXXXXXXXXXXXXXXXX..,.,.-.-.-.E h | | =.=.$..X].4.o.6.J C = - R l.*.@.XXXXXXXXXXXXXXXXXXXXXXXXXX",
"XXXXXXXXXXXXXXXXXXXXXXXXXXXXXXXXXXXXXXXX3.*.-.f.-.=.| | r ( T E T q H w.$.Q @.Z q.5.O.h.l.R ;.>.J 5.5.XXXXXXXXXXXXXXXXXX",
"XXXXXXXXXXXXXXXXXXXXXXXXXXXXXXXXXXXXXXXX$.<.M.l.l.M.h.-.g r t r e < Y I.H.# @ A 8 Z E E n p @.@.H A Z 5.XXXXXXXXXXXXXXXX",
"XXXXXXXXXXXXXXXXXXXXXXXXXXXXXXXXXXXXXXP *.M.h.| ` ( ( =.K.T ` ` M.P.A.R.{.G.*.A 1 e g n ( *.*.=.R ~ ;.3.XXXXXXXXXXXXXXXX",
"XXXXXXXXXXXXXXXXXXXXXXXXXXXXXXXXXXXX7.o.l.l.=.=.f.h.h.K.^.!.m y h.^.K.B.H.:.e 9 A g g =.B.*.,.,.>.XXXXXXXXXXXXXXXXXXXXXX",
"XXXXXXXXXXXXXXXXXXXXXXXXXXXXXXXXXXXXX.:.h.l.h.h.h.h.z.Q.!.^.!.D.*.` 6.R 9 p _ :.B.B.l.~ Q 5.w.;.3.XXXXXXXXXXXXXXXXXXXXXX",
"XXXXXXXXXXXXXX XXXXXXXXXXXXXXXXXXXP ,.l.M.h.h.h.h.h.N.!.!.!././.~.:.T.6.*.*.6.A.A.B.R 5.XXXX|.#.3.XXXXXXXXXXXXXXXXXXXXXX",
"XXXXXXXXXXXXXXXX'.XXXXXXXXXXXXXXP *.l.l.-.M.l.h.l.l.Y.!./.!././.!.B.{.w.XX3.3.$.$.&.XXXXXXXXXXXXXXXXXXXXXXXXXXXXXXXXXXXX",
"XXXXXXXXXXXXXXXXXX`.(.XXXXXXXXP ~ h.h.h.h.h.M. .l.N.!.^.~.!.~.~.J.R._.5.XXXXXXXXXXXXXXXXXXXXXXXXXXXXXXXXXXXXXXXXXXXXXXXX",
"XXXXXXXXXXXXXXXXXXXXXX8.e.XXXXJ =.l.h.h.h.h.l.l.l.J.^./.~.!.!.!.K.{.I.0.XXXXXXXXXXXXXXXXXXXXXXXXXXXXXXXXXXXXXXXXXXXXXXXX",
"XXXXXXXXXXXXXXXXXXXXXXXXXX2.I J ,.h.h.l.l.h.h.h.S.Q.~.!.!.~.^.!.~.{.0.XXXXXXXXXXXXXXXXXXXXXXXXXXXXXXXXXXXXXXXXXXXXXXXXXX",
"XXXXXXXXXXXXXXXXXXXXXXXXXXXXXXo.h.h.h.h.h.h.h.z.Y.!.!.~.!.!.!.^.~.{.5.XXXXXXXXXXXXXXXXXXXXXXXXXXXXXXXXXXXXXXXXXXXXXXXXXX",
"XXXXXXXXXXXXXXXXXXXXXXXXXXXX1.o.h.l.j.h.O.=.l.K.~.~.~.!.^.!.^.!./.F.XXXXXXXXXXXXXXXXXXXXXXXXXXXXXXXXXXXXXXXXXXXXXXXXXXXX",
"XXXXXXXXXXXXXXXXXXXXXXXXXXXXXX@.,.h.h.h.f.m l.Q.~.~.^.^.^.^.^.^.Q.w.XXXXXXXXXXXXXXXXXXXXXXXXXXXXXXXXXXXXXXXXXXXXXXXXXXXX",
"XXXXXXXXXXXXXXXXXXXXXXXXXXXXXXo.,.h.h.h.h.( l.~.~.!.~.~.^.^.^.^.,.XXXXXXXXXXXXXXXXXXXXXXXXXXXXXXXXXXXXXXXXXXXXXXXXXXXXXX",
"XXXXXXXXXXXXXXXXXXXXXXXXXXXXXX+.*.l.h.h.l.h.` ~.!.!.~.{.^.^.^.;.9.XXXXXXXXXXXXXXXXXXXXXXXXXXXXXXXXXXXXXXXXXXXXXXXXXXXXXX",
"XXXXXXXXXXXXXXXXXXXXXXXXXXXXe.w n h.j.l.l.h.Y !.Q.^.~._.}.!.~ p XXXXXXXXXXXXXXXXXXXXXXXXXXXXXXXXXXXXXXXXXXXXXXXXXXXXXXXX",
"XXXXXXXXXXXXXXXXXXXXXXXXXXXX1.,.n :.h.l.l.l.g R.~.^.~.Q.k.S ` { XXXXXXXXXXXXXXXXXXXXXXXXXXXXXXXXXXXXXXXXXXXXXXXXXXXXXXXX",
"XXXXXXXXXXXXXXXXXXXXXXXXXX4.#.=.=.=.h.l.B.,.u M.S.A.*.Q ` =.,.+.XXXXXXXXXXXXXXXXXXXXXXXXXXXXXXXXXXXXXXXXXXXXXXXXXXXXXXXX",
"XXXXXXXXXXXXXXXXXXXXXXXXXX2.;.( ` j.h.h.,.;.G G R O.=.f.l.h.,.@.XXXXXXXXXXXXXXXXXXXXXXXXXXXXXXXXXXXXXXXXXXXXXXXXXXXXXXXX",
"XXXXXXXXXXXXXXXXXXXXXXXXXX$.,.j.T T *.*.~ P XXXXX.,.h.h.h.-.} +.XXXXXXXXXXXXXXXXXXXXXXXXXXXXXXXXXXXXXXXXXXXXXXXXXXXXXXXX",
"XXXXXXXXXXXXXXXXXXXXXXXX4.@.:.-.=.o.F.9.XXXXXXXX&.K ,.h.h.M.[ XXXXXXXXXXXXXXXXXXXXXXXXXXXXXXXXXXXXXXXXXXXXXXXXXXXXXXXXXX",
"XXXXXXXXXXXXXXXXXXXXXXXXU ,.:.:.,.@.XXXXXXXXXXXXXX+.,.h.h.<.@.XXXXXXXXXXXXXXXXXXXXXXXXXXXXXXXXXXXXXXXXXXXXXXXXXXXXXXXXXX",
"XXXXXXXXXXXXXXXXXXXXXXL %.@.E =.@.{ XXXXXXXXXXXXXX9.{ -.h.| >.XXXXXXXXXXXXXXXXXXXXXXXXXXXXXXXXXXXXXXXXXXXXXXXXXXXXXXXXXX",
"XXXXXXXXXXXXXXXXXXXXXX& z i o.N v x XXXXXXXXXXXXXXXXN -.h.M <.XXXXXXXXXXXXXXXXXXXXXXXXXXXXXXXXXXXXXXXXXXXXXXXXXXXXXXXXXX",
"XXXXXXXXXXXXXXXXXXXXXXXX& l x t XXXXXXXXXXXXXXXXXX4 N h.h.x XXXXXXXXXXXXXXXXXXXXXXXXXXXXXXXXXXXXXXXXXXXXXXXXXXXXXXXXXXXX",
"XXXXXXXXXXXXXXXXXXXXXXXXXXXXXXXXXXXXXXXXXXXXXXXXXX: } l.h.M ] XXXXXXXXXXXXXXXXXXXXXXXXXXXXXXXXXXXXXXXXXXXXXXXXXXXXXXXXXX",
"XXXXXXXXXXXXXXXXXXXXXXXXXXXXXXXXXXXXXXXXXXXXXXXXXXXXb h.l.-.x XXXXXXXXXXXXXXXXXXXXXXXXXXXXXXXXXXXXXXXXXXXXXXXXXXXXXXXXXX",
"XXXXXXXXXXXXXXXXXXXXXXXXXXXXXXXXXXXXXXXXXXXXXXXXXXXX: h.h.g.} M t XXXXXXXXXXXXXXXXXXXXXXXXXXXXXXXXXXXXXXXXXXXXXXXXXXXXXX",
"XXXXXXXXXXXXXXXXXXXXXXXXXXXXXXXXXXXXXXXXXXXXXXXXXXXXXXR  . .( } n * XXXXXXXXXXXXXXXXXXXXXXXXXXXXXXXXXXXXXXXXXXXXXXXXXXXX",
"XXXXXXXXXXXXXXXXXXXXXXXXXXXXXXXXXXXXXXXXXXXXXXXXXXXXXX% B  .} N [ $ XXXXXXXXXXXXXXXXXXXXXXXXXXXXXXXXXXXXXXXXXXXXXXXXXXXX",
"XXXXXXXXXXXXXXXXXXXXXXXXXXXXXXXXXXXXXXXXXXXXXXXXXXXXXXXX* l b l 4 XXXXXXXXXXXXXXXXXXXXXXXXXXXXXXXXXXXXXXXXXXXXXXXXXXXXXX",
"XXXXXXXXXXXXXXXXXXXXXXXXXXXXXXXXXXXXXXXXXXXXXXXXXXXXXXXXXXXXXXXXXXXXXXXXXXXXXXXXXXXXXXXXXXXXXXXXXXXXXXXXXXXXXXXXXXXXXXXX",
"XXXXXXXXXXXXXXXXXXXXXXXXXXXXXXXXXXXXXXXXXXXXXXXXXXXXXXXXXXXXXXXXXXXXXXXXXXXXXXXXXXXXXXXXXXXXXXXXXXXXXXXXXXXXXXXXXXXXXXXX"
};
