/* XPM */
static char *result[] = {
/* columns rows colors chars-per-pixel */
"60 70 192 2 ",
"   c #070204",
".  c #0C0406",
"X  c #0C0709",
"o  c #150B0C",
"O  c #1E1113",
"+  c #231416",
"@  c #2F1E1C",
"#  c #3C1919",
"$  c #32181A",
"%  c #362B1B",
"&  c #3A2B19",
"*  c #3B2627",
"=  c #43201E",
"-  c #45292D",
";  c #4C2B2C",
":  c #522827",
">  c #512C2C",
",  c #5A2C2C",
"<  c #5A2629",
"1  c #443823",
"2  c #493527",
"3  c #54312E",
"4  c #58332F",
"5  c #523D2E",
"6  c #462F33",
"7  c #4B2D33",
"8  c #5C2F30",
"9  c #532C31",
"0  c #4D3336",
"q  c #433038",
"w  c #4E363C",
"e  c #543334",
"r  c #5B3533",
"t  c #553A34",
"y  c #5C3A35",
"u  c #52353A",
"i  c #563B3E",
"p  c #5B3C3D",
"a  c #5C363B",
"s  c #623433",
"d  c #6D3337",
"f  c #613A37",
"g  c #633639",
"h  c #6A3438",
"j  c #633C3A",
"k  c #6C3C3C",
"l  c #723E3F",
"z  c #73373A",
"x  c #53422D",
"c  c #554532",
"v  c #5B4236",
"b  c #53403F",
"n  c #5E493B",
"m  c #66433D",
"M  c #6A423F",
"N  c #634E3D",
"B  c #473A40",
"V  c #4A3B43",
"C  c #5C3D42",
"Z  c #573E43",
"A  c #633E41",
"S  c #7A3D42",
"D  c #743D41",
"F  c #4C424D",
"G  c #5C4347",
"H  c #5C454C",
"J  c #5F484E",
"K  c #534348",
"L  c #4F4950",
"P  c #544851",
"I  c #5D4C54",
"U  c #5E4F58",
"Y  c #5F535C",
"T  c #634345",
"R  c #6C4442",
"E  c #6C4B44",
"W  c #64454B",
"Q  c #6B464A",
"!  c #65494C",
"~  c #6B4C4C",
"^  c #714645",
"/  c #7A4245",
"(  c #724A46",
")  c #744D4B",
"_  c #7B4D4D",
"`  c #7C4548",
"'  c #6E504A",
"]  c #675149",
"[  c #75524D",
"{  c #7A514E",
"}  c #73584E",
"|  c #654D53",
" . c #6B4D52",
".. c #724C51",
"X. c #794D51",
"o. c #655155",
"O. c #6B5255",
"+. c #65535B",
"@. c #6C5359",
"#. c #60595A",
"$. c #6C585E",
"%. c #745354",
"&. c #7C5552",
"*. c #735857",
"=. c #7D5A55",
"-. c #735559",
";. c #7B5558",
":. c #73595C",
">. c #7D5B5B",
",. c #665760",
"<. c #635B64",
"1. c #6C5A62",
"2. c #645D68",
"3. c #6B5E69",
"4. c #745B61",
"5. c #7C5E60",
"6. c #6B636E",
"7. c #7A6166",
"8. c #72606A",
"9. c #7C656B",
"0. c #7E686F",
"q. c #6C6470",
"w. c #7D6E77",
"e. c #716E78",
"r. c #726974",
"t. c #834649",
"y. c #8B494D",
"u. c #844B4E",
"i. c #874E52",
"p. c #904D52",
"a. c #815454",
"s. c #8E5156",
"d. c #835B57",
"f. c #835559",
"g. c #8C5559",
"h. c #845D59",
"j. c #895E5B",
"k. c #925257",
"l. c #95555A",
"z. c #94595E",
"x. c #9A585E",
"c. c #9A5358",
"v. c #A2595F",
"b. c #86605D",
"n. c #88605C",
"m. c #855E60",
"M. c #975F64",
"N. c #9C5D62",
"B. c #A15D63",
"V. c #856262",
"C. c #8B6464",
"Z. c #83676B",
"A. c #88676A",
"S. c #81696E",
"D. c #9E6066",
"F. c #916867",
"G. c #946C6B",
"H. c #97706E",
"J. c #99716F",
"K. c #926F70",
"L. c #8A737A",
"P. c #957374",
"I. c #9C7473",
"U. c #9B7778",
"Y. c #9C7A7A",
"T. c #96797C",
"R. c #A16066",
"E. c #A36368",
"W. c #A67E7D",
"Q. c #A87F7E",
"!. c #A7807F",
"~. c #A9807F",
"^. c #7F7C85",
"/. c #817E88",
"(. c #8E7F89",
"). c #8E7C84",
"_. c #9E7E80",
"`. c #8B8892",
"'. c #948791",
"]. c #988890",
"[. c #9E8F98",
"{. c #958893",
"}. c #92909B",
"|. c #A48282",
" X c #A98180",
".X c #A2939D",
"XX c #9A97A2",
"oX c #A197A2",
"OX c #A89DA8",
"+X c #A69CA7",
"@X c #AEA9AF",
"#X c None",
/* pixels */
"#X#X#X#X#X#X#X#X#X#X#X#X#X#X#X#X#X#X#X#X#X#X#X#X#X#X#X#X#X#X#X#X#X#X#X#X#X#X#X#X#X#X#X#X#X#X#X#X#X#X#X#X#X#X#X#X#X#X#X#X",
"#X#X#X#X#X#X#X#X#X#X#X#X#X#X#X#X#X#X#X#X#X#X#X#X#X#X#X#X#X#X#X#X#X#X#X#X#X#X#X#X#X#X#X#X#X#X#X#X#X#X#X#X#X#X#X#X#X#X#X#X",
"#X#X#X#X#X#X#X#X#X#X#X#X#X#X#X#X#X#X#X#X#X#X#X#X#X#X#X#X#X#X#X#X#X#X#X#X#X#X#X#X#X#X#X#X#X#X#X#X#X#X#X#X#X#X#X#X#X#X#X#X",
"#X#X#X#X#X#X#X#X#X#X#X#X#X#X#X#X#X#X#X#X#X#X#X#X#X#X#X#X#X#X#X#X#X#X#X#X#X#X#X#X#X#X#X#X#X#X#X#X#X#X#X#X#X#X#X#X#X#X#X#X",
"#X#X#X#X#X#X#X#X#X#X#X#X#X#X#X#X#X#X#X7 7 7 C C #X#X#X#X#X#X#X#X#X#X#X#X#X#X#X#X#X#X#X#X#X#X#X#X#X#X#X#X#X#X#X#X#X#X#X#X",
"#X#X#X#X#X#X#X#X#X#X#X#X#X#X#X#X#X3.Q i.s.` < R C +.#X#X#X#X#X#X#X#X#X#X#X#X#X#X#X#X#X#X#X#X#X#X#X#X#X#X#X#X#X#X#X#X#X#X",
"#X#X#X#X#X#X#X#X#X#X#X#X#X#X#X#X#X;.N.N.B.B.x.d A W @.#X#X#X#X#X#X#X#X#X#X#X#X#X#X#X#X#X#X#X#X#X#X#X#X#X#X#X#X#X#X#X#X#X",
"#X#X#X#X#X#X#X#X#X#X#X#X#X#X#X#XQ M.B.B.N.B.B.v.h R A 9.#X#X#X#X#X#X#X#X#X#X#X#X#X#X#X#X#X#X#X#X#X#X#X#X#X#X#X#X#X#X#X#X",
"#X#X#X#X#X#X#X#X#X#X#X#X#X#X#X| f.N.N.B.B.B.B.B.l.h &.C #X#X#X#X#X#X#X#X#X#X#X#X#X#X#X#X#X#X#X#X#X#X#X#X#X#X#X#X#X#X#X#X",
"#X#X#X#X#X#X#X#X#X#X#X#X#X#X#XO.z.B.B.B.B.B.B.B.B.i.Q ;. .#X#X#X#X#X#X#X#X#X#X#X#X#X#X#X#X#X#X#X#X#X#X#X#X#X#X#X#X#X#X#X",
"#X#X#X#X#X#X#X#X#X#X#X#X#X#X#X .N.N.B.B.B.B.B.B.B.N.g f. .@.#X#X#X#X#X#X#X#X#X#X#X#X#X#X#X#X#X#X#X#X#X#X#X#X#X#X#X#X#X#X",
"#X#X#X#X#X#X#X#X#X#X#X#X#X#X#X..B.N.B.B.B.B.B.B.B.B.k d.;.~ #X#X#X#X#X#X#X#X#X#X#X#X#X#X#X#X#X#X#X#X#X#X#X#X#X#X#X#X#X#X",
"#X#X#X#X#X#X#X#X#X#X#X#X#X#X#XX.B.B.B.B.B.B.B.B.B.B.` ( >.;.| #X#X#X#X#X#X#X#X#X#X#X#X#X#X#X#X#X#Xo.o.4.O.| #X#X#X#X#X#X",
"#X#X#X#X#X#X#X#X#X#X#X#X#X#X#XX.R.R.R.B.v.R.B.B.B.N.g.s d.d.%.:.#X#XI B V 1.w.(.{.oX+X+XOX.X5.@.W -. .D ^ R u #X#X#X#X#X",
"#X#X#X#X#X#X#X#X#X#X#X#X#X#X#XX.R.B.B.x.p.B.R.B.B.B.z.< =.d.d.m u ! p A T T C u ; q U w.[.1.W ;...k ` N.N.N.a.@.#X#X#X#X",
"#X#X#X#X#X#X#X#X#X#X#X#X#X#X#X..R.R.B.N.y.B.B.B.B.B.z., d.d.d.&.m &.d.h.d.&._ ) T p I @.w u > r / N.N.N.B.B.s.5.#X#X#X#X",
"#X#X#X#X#X#X#X#X#X#X#X#X#X#X#X .N.B.B.B.k.l.B.B.B.B.N., h.d.d.d.d.d.d.d.d.d.d.d.d.&.M # # f m t.d c.N.B.v.N.a.#X#X#X#X#X",
"#X#X#X#X#X#X#X#X#X#X#X#X#X#X#XH f.B.B.B.N.S E.E.R.B.z.s d.h.d.d.d.d.d.d.d.d.d.d.d.d.d.{ 4 # s k.N.t.y.B.B.g.d.#X#X#X#X#X",
"#X#X#X#X#X#X#X#X#X#X#X#X#X#X#XP Q B.B.B.B.l.S N.R.R./ a.h.d.h.d.d.d.d.j.d.d.d.d.d.d.g.d.d.M z z p.B.y.c.x.X.#X#X#X#X#X#X",
"#X#X#X#X#X#X#X#X#X#X#X#X#X#X#X#XW M.B.B.B.B.k.S D / k j.h.h.d.d.d.d.j.d.d.j.d.d.d.d.d.d.d.d.M z y.N.B.c.f.#X#X#X#X#X#X#X",
"#X#X#X#X#X#X#X#X#X#X#X#X#X#X#X#X#XW D.B.E.B.D.m., , s ( d.n.d.d.d.d.d.d.d.d.d.d.d.g.d.d.d.d.d.M u.B.M.f.#X#X#X#X#X#X#X#X",
"#X#X#X#X#X#X#X#X#X#X#X#X#X#X#X#X#X#XW N.E.E.k.< j [ { R f m d.d.d.d.d.d.n.d.d.d.d.d.d.d.d.s.d.d.z m.C.#X#X#X#X#X#X#X#X#X",
"#X#X#X#X#X#X#X#X#X#X#X#X#X#X#X#X#X#X#X .;.f.g 5.b.=.d.n.d.&.f { d.d.d.d.d.d.n.n.d.d.d.d.j.d.d.d.R #X#X#X#X#X#X#X#X#X#X#X",
"#X#X#X#X#X#X#X#X#X#X#X#X#X#X#X#X#X#X#X#X#X#XW ..M M M d.n.d.{ N =.d.d.d.d.d._ ( M y.d.d.d.d.j.d.{ #X#X#X#X#X#X#X#X#X#X#X",
"#X#X#X#X#X#X#X#X#X#X#X#X#X#X#X#X#X#X#X#X#X#XJ ..d.h.) f d.{ d.{ N j.j.j.d.a.N M ( u.d.d.d.d.d.d.&.~ #X#X#X#X#X#X#X#X#X#X",
"#X#X#X#X#X#X#X#X#X#X#X#X#X#X#X#X#X#X#X#X#X+.4.j.j.b.b.j ( m { d.N d.d.j.d.{ v : 2 a.d.d.d.d.a.u.d.! #X#X#X#X#X#X#X#X#X#X",
"#X#X#X#X#X#X#X#X#X#X#X#X#X#X#X#X#X#X#X#X+.7.V.j.h.n.h.{ M n.m d.j.d.d.d.j.u.d.j.u.[ d.j.j.u._ m ( ! #X#X#X#X#X#X#X#X#X#X",
"#X#X#X#X#X#X#X#X#X#X#X#X#X#X#X#X#X#X#XH -.V.j.h.d.d.h.&.M d.m { j.n.n.j.j.d.d.d.d.j.d.d.d.: = M ) Q #X#X#X#X#X#X#X#X#X#X",
"#X#X#X#X#X#X#X#X#X#X#X#X#X#X+.1.#X#X$...m.j.h.h.d.d.d.d.f { M a.j.n.n.j.n.d.n.n.n.d.d.d.d.d.( > d.! #X#X#X#X#X#X#X#X#X#X",
"#X#X#X#X#X#X#X#X#X#X#X#X3.| @.*.$. .i &.h.h.j.j.a.( n.d.m d.) &.d.j.n.n.d.n.n.n.n.j.n.d.d.h.a.4 [ :.#X#X#X#X#X#X#X#X#X#X",
"#X#X#X#X#X#X#X#X#X#X#X+. .>.d.d.d.f.&.=.h.h.h.j.( M n.a.M d.d.d.n.n.d.n.n.n.d.n.d.j.j.d.h.d.d.{ ~ #X#X#X#X#X#X#X#X#X#X#X",
"#X#X#X#X#X#X#X#X2.G T %.=.h.d.&.^ h.d.d.d.h.h.;.M a.n.) _ n.n.n.d.n.n.d.} =.n.d.g.d.j.j.d.h.h.( 7.#X#X#X#X#X#X#X#X#X#X#X",
"#X#X#X#X#X#X#X#Xr.| T ~ %.X.>.~ m &.d.d.h.h.f.A M b.b.( _ h.h.h.n.n.] * O * b.b.d.d.d.d.d.h.&.*.#X#X#X#X#X#X#X#X#X#X#X#X",
"#X#X#X#X#X#X#X#X6.K G %.>.@.@.O.#Xo.@.*.;...k ( n.d.b.M u.h.h.h.b.} K o   o =.=.=.7 @ y =.{ *.#X#X#X#X#X#X#X#X#X#X#X#X#X",
"#X#X#X#X#X#X#X#X#X2.1.9.#X<.,.1.#X#X1.U | u R h.b.d.b.m { h.h.h.d.~ Y X X + >.=.0 .   @ E [ #X#X#X#X#X#X#X#X#X#X#X#X#X#X",
"#X#X#X#X#X#X#X#X#X#X#X#X#X6.2.#X#X#X#X#X#X! 5.h.d.d.b.^ ( d.h.h.=.] @X<.K ] 5.G +   . e &.) O.#X#X#X#X#X#X#X#X#X#X#X#X#X",
"#X#X#X#X#X#X#X#X#X#X#X#X#X#X#X#X#X#X#X#X#X@.>.h.d.d.=.E M { ) ) ) i ].'.I @.-.G 3.w 0 [ b.%.@.#X#X#X#X#X#X#X#X#X#X#X#X#X",
"#X#X#X#X#X#X#X#X#X#X#X#X#X#X#X#X#X#X#X#Xo.>.h.=.{ &.{ [ f ( y R Q e i w.-.- 6 w H ~ [ %.[ p :.@.O.| 4.#X#X#X#X#X#X#X#X#X",
"#X#X#X#X#X#X#X#X#X#X#X#X#X#X#X#X#X#X#Xo.o.b.d.d.h.h.b.h.^ j j r r j ;._._.6 + 0 u A j e 3 E -.;.~ T Z $.#X#X#X#X#X#X#X#X",
"#X#X#X#X#X#X#X#X#X#X#X#X#X#X#X#X#X#X#X! >.d.d.d.d.{ ( { G.&.E { b.W.h.C._.G.*.0 - ; Q d.h.*.%.;.Q ! ~ o.#X#X#X#X#X#X#X#X",
"#X#X#X#X#X#X#X#X#X#X#X#X#X#X#X#X#X#X| >.d.d.>._ ` { b.G.W.~.d.m y G.P.>.a > e ..5.d.Q X.;.%.>.>.O.#X#X#X#X#X#X#X#X#X#X#X",
"#X#X#X#X#X#X#X#X#X#X#X#X#X#X#X#X#XY :.h.d.d.h.d.d.j.n.W.W.~.~.I.C.~ A.Q Q ;.h.m.m.m.>. .W L.9.:.1.#X#X#X#X#X#X#X#X#X#X#X",
"#X#X#X#XXXXX#X#X#X#X#X#X#X#X#X#XI @.f.h.d.d.d.d.d.d.F.Q.~.~.~.~.W.A.|.Z.Z.O.4.5.5.~ :.#X#X#X).+.,.#X#X#X#X#X#X#X#X#X#X#X",
"#X#X#X#X#X#X}.`.#X#X#X#X#X#X#X+.! d.h.d.d.d.h.h.d.d.I.Q.W.W.~.~.m.I.).0.#X#X+.+.+.#X#X#X#X#X#X#X#X#X#X#X#X#X#X#X#X#X#X#X",
"#X#X#X#X#X#X#X#X/.^.#X#X#X#X#XJ &.d.d.d.d.d.b.=.h.F.W.Q.W.W.W.W.C._.Z.#X#X#X#X#X#X#X#X#X#X#X#X#X#X#X#X#X#X#X#X#X#X#X#X#X",
"#X#X#X#X#X#X#X#X#X#Xe.<.2.#Xq.H =.d.d.d.d.d.d.d.h.I.Q.W.W.W.W.J.U. X7.#X#X#X#X#X#X#X#X#X#X#X#X#X#X#X#X#X#X#X#X#X#X#X#X#X",
"#X#X#X#X#X#X#X#X#X#X#X#X6.2.F  .d.d.d.h.d.[ [ =.G.W.Q.W.W.W.W.W._.P.#X#X#X#X#X#X#X#X#X#X#X#X#X#X#X#X#X#X#X#X#X#X#X#X#X#X",
"#X#X#X#X#X#X#X#X#X#X#X#X#X#X2. .>.d.d.d.d.d.^ M J.Q.W.Q.Q.~.W.~. XZ.#X#X#X#X#X#X#X#X#X#X#X#X#X#X#X#X#X#X#X#X#X#X#X#X#X#X",
"#X#X#X#X#X#X#X#X#X#X#X#X#X#X#X .h.d.d.h.d.d.d.=.[ F.~.~.~.~.W.~.Y.9.#X#X#X#X#X#X#X#X#X#X#X#X#X#X#X#X#X#X#X#X#X#X#X#X#X#X",
"#X#X#X#X#X#X#X#X#X#X#X#X#X#X#XP *.d.d.d.b.d.d.d.{ ( ~.~.W.~.!.W.:.#X#X#X#X#X#X#X#X#X#X#X#X#X#X#X#X#X#X#X#X#X#X#X#X#X#X#X",
"#X#X#X#X#X#X#X#X#X#X#X#X#X#X#X+.G =.d.h.d.d.d.b.{ m W.W.W.!.!.J.:.#X#X#X#X#X#X#X#X#X#X#X#X#X#X#X#X#X#X#X#X#X#X#X#X#X#X#X",
"#X#X#X#X#X#X#X#X#X#X#X#X#X#X#X#X#XZ f.h.d.d.d.d.d.y W.W.!.!.!.*.#X#X#X#X#X#X#X#X#X#X#X#X#X#X#X#X#X#X#X#X#X#X#X#X#X#X#X#X",
"#X#X#X#X#X#X#X#X#X#X#X#X#X#X#X#X#X$.i ) =.d.d.d.( m Y.!.W.W.A.! #X#X#X#X#X#X#X#X#X#X#X#X#X#X#X#X#X#X#X#X#X#X#X#X#X#X#X#X",
"#X#X#X#X#X#X#X#X#X#X#X#X#X#X#X#X#XY 4.>.d.d.{ ^ m H.W.W.J.n.=.! #X#X#X#X#X#X#X#X#X#X#X#X#X#X#X#X#X#X#X#X#X#X#X#X#X#X#X#X",
"#X#X#X#X#X#X#X#X#X#X#X#X#X#X#X#X#X#X@.%.( M f f d.n.C.h.d.d.' O.#X#X#X#X#X#X#X#X#X#X#X#X#X#X#X#X#X#X#X#X#X#X#X#X#X#X#X#X",
"#X#X#X#X#X#X#X#X#X#X#X#X#X#X#X#X#X#XO.5.d.d.a.m =.=.h.d.d.d.o.#X#X#X#X#X#X#X#X#X#X#X#X#X#X#X#X#X#X#X#X#X#X#X#X#X#X#X#X#X",
"#X#X#X#X#X#X#X#X#X#X#X#X#X#X#X#X#X#X+.5.=.b.d.E [ >.d.=.d.=.] #X#X#X#X#X#X#X#X#X#X#X#X#X#X#X#X#X#X#X#X#X#X#X#X#X#X#X#X#X",
"#X#X#X#X#X#X#X#X#X#X#X#X#X#X#X#X#X#XP *.} =.[ m { d.d.d.=.' #X#X#X#X#X#X#X#X#X#X#X#X#X#X#X#X#X#X#X#X#X#X#X#X#X#X#X#X#X#X",
"#X#X#X#X#X#X#X#X#X#X#X#X#X#X#X#X#X#XL :.~ =.E 3 &.d.d.=.[ >.#X#X#X#X#X#X#X#X#X#X#X#X#X#X#X#X#X#X#X#X#X#X#X#X#X#X#X#X#X#X",
"#X#X#X#X#X#X#X#X#X#X#X#X#X#X#X#X#X#X#Xb t y 3 [ d.=.=.E *.#X#X#X#X#X#X#X#X#X#X#X#X#X#X#X#X#X#X#X#X#X#X#X#X#X#X#X#X#X#X#X",
"#X#X#X#X#X#X#X#X#X#X#X#X#X#X#X#X#X#X#X#X#X#Xm >.=.=.N 1 #X#X#X#X#X#X#X#X#X#X#X#X#X#X#X#X#X#X#X#X#X#X#X#X#X#X#X#X#X#X#X#X",
"#X#X#X#X#X#X#X#X#X#X#X#X#X#X#X#X#X#X#X#Xx N d.=.} c #X#X#X#X#X#X#X#X#X#X#X#X#X#X#X#X#X#X#X#X#X#X#X#X#X#X#X#X#X#X#X#X#X#X",
"#X#X#X#X#X#X#X#X#X#X#X#X#X#X#X#X#X#X#X#X5 =.=.h.E n #X#X#X#X#X#X#X#X#X#X#X#X#X#X#X#X#X#X#X#X#X#X#X#X#X#X#X#X#X#X#X#X#X#X",
"#X#X#X#X#X#X#X#X#X#X#X#X#X#X#X#X#X#X#X#X1 ] b.d.&.m c #X#X#X#X#X#X#X#X#X#X#X#X#X#X#X#X#X#X#X#X#X#X#X#X#X#X#X#X#X#X#X#X#X",
"#X#X#X#X#X#X#X#X#X#X#X#X#X#X#X#X#X#X#X#X#X& =.d.d.h.' y #X#X#X#X#X#X#X#X#X#X#X#X#X#X#X#X#X#X#X#X#X#X#X#X#X#X#X#X#X#X#X#X",
"#X#X#X#X#X#X#X#X#X#X#X#X#X#X#X#X#X#X#X#X#X#Xv d.d.{ E m & #X#X#X#X#X#X#X#X#X#X#X#X#X#X#X#X#X#X#X#X#X#X#X#X#X#X#X#X#X#X#X",
"#X#X#X#X#X#X#X#X#X#X#X#X#X#X#X#X#X#X#X#X#X#X1 } d.=.] 5 % #X#X#X#X#X#X#X#X#X#X#X#X#X#X#X#X#X#X#X#X#X#X#X#X#X#X#X#X#X#X#X",
"#X#X#X#X#X#X#X#X#X#X#X#X#X#X#X#X#X#X#X#X#X#X#X1 c n c & #X#X#X#X#X#X#X#X#X#X#X#X#X#X#X#X#X#X#X#X#X#X#X#X#X#X#X#X#X#X#X#X",
"#X#X#X#X#X#X#X#X#X#X#X#X#X#X#X#X#X#X#X#X#X#X#X#X#X#X#X#X#X#X#X#X#X#X#X#X#X#X#X#X#X#X#X#X#X#X#X#X#X#X#X#X#X#X#X#X#X#X#X#X",
"#X#X#X#X#X#X#X#X#X#X#X#X#X#X#X#X#X#X#X#X#X#X#X#X#X#X#X#X#X#X#X#X#X#X#X#X#X#X#X#X#X#X#X#X#X#X#X#X#X#X#X#X#X#X#X#X#X#X#X#X"
};
