/* XPM */
static char *result[] = {
/* columns rows colors chars-per-pixel */
"60 70 196 2 ",
"   c #070204",
".  c #090305",
"X  c #0E090A",
"o  c #110709",
"O  c #190B0C",
"+  c #2B1A1B",
"@  c #221713",
"#  c #38191D",
"$  c #2D251C",
"%  c #362A1C",
"&  c #342223",
"*  c #372E21",
"=  c #3B2B23",
"-  c #322728",
";  c #3D3327",
":  c #3F333C",
">  c #442323",
",  c #4E2C2B",
"<  c #542E2C",
"1  c #59282A",
"2  c #473527",
"3  c #44332C",
"4  c #4A312D",
"5  c #4B3A2D",
"6  c #53312E",
"7  c #58312F",
"8  c #432E34",
"9  c #4C2E32",
"0  c #422F39",
"q  c #4D3336",
"w  c #463A30",
"e  c #5B3533",
"r  c #503F32",
"t  c #5D3A37",
"y  c #563C3A",
"u  c #5C3C3A",
"i  c #632E32",
"p  c #643535",
"a  c #683737",
"s  c #603A37",
"d  c #653539",
"f  c #643D3B",
"g  c #6A3C3B",
"h  c #6B3438",
"j  c #5A4539",
"k  c #65403F",
"l  c #6A413E",
"z  c #4F3940",
"x  c #563C43",
"c  c #5D3E43",
"v  c #723E40",
"b  c #4C424C",
"n  c #5C4344",
"m  c #5E4946",
"M  c #56434A",
"N  c #5D444B",
"B  c #5D494E",
"V  c #554F4C",
"C  c #554650",
"Z  c #5D4C53",
"A  c #554F5A",
"S  c #594E59",
"D  c #5C525D",
"F  c #634444",
"G  c #6C4543",
"H  c #6D4946",
"J  c #62464B",
"K  c #6B464A",
"L  c #654A4C",
"P  c #6B4B4C",
"I  c #714443",
"U  c #7B4345",
"Y  c #724946",
"T  c #7A4549",
"R  c #744D4A",
"E  c #7A4C4B",
"W  c #60514D",
"Q  c #685547",
"!  c #74514E",
"~  c #7A514E",
"^  c #614650",
"/  c #644C53",
"(  c #6C4D52",
")  c #744D51",
"_  c #7F4D55",
"`  c #675156",
"'  c #6C5255",
"]  c #65535B",
"[  c #6C545A",
"{  c #6F5A5F",
"}  c #6B5957",
"|  c #755354",
" . c #7B5552",
".. c #765957",
"X. c #7E5956",
"o. c #75555A",
"O. c #7C555A",
"+. c #755A5C",
"@. c #7D5B5B",
"#. c #665963",
"$. c #6C5B64",
"%. c #6D5E68",
"&. c #645F6A",
"*. c #705660",
"=. c #725C62",
"-. c #7B5E63",
";. c #6C626E",
":. c #6D696B",
">. c #7B6165",
",. c #74636C",
"<. c #7C666A",
"1. c #77696B",
"2. c #7E696E",
"3. c #6C6470",
"4. c #6F6D76",
"5. c #7F6771",
"6. c #736975",
"7. c #7C6C75",
"8. c #776D78",
"9. c #736771",
"0. c #7E707B",
"q. c #824145",
"w. c #84464B",
"e. c #834B4E",
"r. c #89494E",
"t. c #914A4E",
"y. c #854E51",
"u. c #884E51",
"i. c #825554",
"p. c #8E5256",
"a. c #835A57",
"s. c #83555A",
"d. c #845C5A",
"f. c #895E5C",
"g. c #925156",
"h. c #985357",
"j. c #99555A",
"k. c #96585D",
"l. c #9B595E",
"z. c #96565A",
"x. c #A05A5F",
"c. c #86605D",
"v. c #89605E",
"b. c #845E60",
"n. c #8E5D62",
"m. c #955B61",
"M. c #9D5E63",
"N. c #A25E63",
"B. c #856262",
"V. c #8B6463",
"C. c #82666B",
"Z. c #836B6D",
"A. c #8E6969",
"S. c #9C6066",
"D. c #946C6B",
"F. c #976667",
"G. c #93706F",
"H. c #99716F",
"J. c #836C72",
"K. c #8B6F74",
"L. c #807170",
"P. c #8B7479",
"I. c #8F7A7F",
"U. c #88757A",
"Y. c #947071",
"T. c #9B7473",
"R. c #9F7877",
"E. c #947579",
"W. c #9B7678",
"Q. c #957C7D",
"!. c #9E787A",
"~. c #A26166",
"^. c #A36369",
"/. c #A07776",
"(. c #A17877",
"). c #A67E7C",
"_. c #A87F7C",
"`. c #A6807F",
"'. c #A9817F",
"]. c #867B87",
"[. c #837A85",
"{. c #947D82",
"}. c #917E88",
"|. c #A47F80",
" X c #988685",
".X c #8E8C96",
"XX c #9A8B94",
"oX c #968A98",
"OX c #A58181",
"+X c #A98281",
"@X c #AA999F",
"#X c #A3989D",
"$X c #AE9EA4",
"%X c #BCA2A7",
"&X c #AEABB4",
"*X c None",
/* pixels */
"*X*X*X*X*X*X*X*X*X*X*X*X*X*X*X*X*X*X*X*X*X*X*X*X*X*X*X*X*X*X*X*X*X*X*X*X*X*X*X*X*X*X*X*X*X*X*X*X*X*X*X*X*X*X*X*X*X*X*X*X",
"*X*X*X*X*X*X*X*X*X*X*X*X*X*X*X*X*X*X*X*X*X*X*X*X*X*X*X*X*X*X*X*X*X*X*X*X*X*X*X*X*X*X*X*X*X*X*X*X*X*X*X*X*X*X*X*X*X*X*X*X",
"*X*X*X*X*X*X*X*X*X*X*X*X*X*X*X*X*X*X*X*X*X*X*X*X*X*X*X*X*X*X*X*X*X*X*X*X*X*X*X*X*X*X*X*X*X*X*X*X*X*X*X*X*X*X*X*X*X*X*X*X",
"*X*X*X*X*X*X*X*X*X*X*X*X*X*X*X*X*X*X*X*X*X*X*X*X*X*X*X*X*X*X*X*X*X*X*X*X*X*X*X*X*X*X*X*X*X*X*X*X*X*X*X*X*X*X*X*X*X*X*X*X",
"*X*X*X*X*X*X*X*X*X*X*X*X*X*X*X*X*X*X*XC z x ^ / *X*X*X*X*X*X*X*X*X*X*X*X*X*X*X*X*X*X*X*X*X*X*X*X*X*X*X*X*X*X*X*X*X*X*X*X",
"*X*X*X*X*X*X*X*X*X*X*X*X*X*X*X*X*X*X%.( s.T d c B *X*X*X*X*X*X*X*X*X*X*X*X*X*X*X*X*X*X*X*X*X*X*X*X*X*X*X*X*X*X*X*X*X*X*X",
"*X*X*X*X*X*X*X*X*X*X*X*X*X*X*X*X*X=.s.M.M.M.g.d F J *X*X*X*X*X*X*X*X*X*X*X*X*X*X*X*X*X*X*X*X*X*X*X*X*X*X*X*X*X*X*X*X*X*X",
"*X*X*X*X*X*X*X*X*X*X*X*X*X*X*X*X*X) m.N.N.N.N.h.d R N *X*X*X*X*X*X*X*X*X*X*X*X*X*X*X*X*X*X*X*X*X*X*X*X*X*X*X*X*X*X*X*X*X",
"*X*X*X*X*X*X*X*X*X*X*X*X*X*X*X*X[ n.N.N.N.N.~.N.v g K J *X*X*X*X*X*X*X*X*X*X*X*X*X*X*X*X*X*X*X*X*X*X*X*X*X*X*X*X*X*X*X*X",
"*X*X*X*X*X*X*X*X*X*X*X*X*X*X*X*Xo.M.N.N.N.N.N.N.M.h s.J ' *X*X*X*X*X*X*X*X*X*X*X*X*X*X*X*X*X*X*X*X*X*X*X*X*X*X*X*X*X*X*X",
"*X*X*X*X*X*X*X*X*X*X*X*X*X*X*X] s.M.N.N.N.N.N.N.N.w.Y O.J *X*X*X*X*X*X*X*X*X*X*X*X*X*X*X*X*X*X*X*X*X*X*X*X*X*X*X*X*X*X*X",
"*X*X*X*X*X*X*X*X*X*X*X*X*X*X*X[ k.N.N.N.N.N.N.N.N.m.p d.| [ *X*X*X*X*X*X*X*X*X*X*X*X*X*X*X*X*X*X*X*X*X*X*X*X*X*X*X*X*X*X",
"*X*X*X*X*X*X*X*X*X*X*X*X*X*X*Xo.m.N.N.N.N.N.N.N.N.M.i d.@./ *X*X*X*X*X*X*X*X*X*X*X*X*X*X*X*X*X*X*X*X*X*X*X*X*X*X*X*X*X*X",
"*X*X*X*X*X*X*X*X*X*X*X*X*X*X*X( M.N.N.N.N.N.N.N.N.M.g i.a.@.[ *X*X*X*X*X*Xb #.6.].oXoX*X*X*X*X*X*X+.[ =.' / $.*X*X*X*X*X",
"*X*X*X*X*X*X*X*X*X*X*X*X*X*X*X( S.N.N.N.N.N.N.N.N.N.w.I d.a.P *X*X,.Z 0 8 ,.OX{.*X*X*X*X*X*X*XJ./ ) | G v _ ' *X*X*X*X*X",
"*X*X*X*X*X*X*X*X*X*X*X*X*X*X*X( N.N.N.N.j.j.N.N.N.N.u.l d.d.| F | P K K P F n [ ,.[.XX#X}.Z N P | G T u.M.M.f.*X*X*X*X*X",
"*X*X*X*X*X*X*X*X*X*X*X*X*X*X*X( m.N.N.N.M.g.N.N.N.N.p.I d.d.d.~ R X.a.a.i.~ R | [ N =.Z.( Q l 7 1 u.m.N.x.N.s.*X*X*X*X*X",
"*X*X*X*X*X*X*X*X*X*X*X*X*X*X*X^ s.~.N.N.N.w.N.N.N.N.e.E f.d.a.a.a.c.a.a.a.a.d.a.a.a.Y , 6 e l l e.q.q.j.N.j.s.*X*X*X*X*X",
"*X*X*X*X*X*X*X*X*X*X*X*X*X*X*X*X( N.N.N.N.M.u.^.~.~.U f.a.a.f.d.c.c.c.a.a.a.d.a.a.a.a.~ s e l q.j.N.l.t.l.i.*X*X*X*X*X*X",
"*X*X*X*X*X*X*X*X*X*X*X*X*X*X*X*XJ m.N.N.N.N.r.w.l.l.l f.d.a.a.d.a.a.d.d.a.a.a.a.d.a.d.a.a.l l j.j.x.x.x.p.b.*X*X*X*X*X*X",
"*X*X*X*X*X*X*X*X*X*X*X*X*X*X*X*X*X) S.N.N.N.N.u.i 7 i.v.c.a.a.a.c.a.c.a.a.d.a.a.a.a.d.a.a.u.l r.N.h.l.l.s.*X*X*X*X*X*X*X",
"*X*X*X*X*X*X*X*X*X*X*X*X*X*X*X*X*X*.s.^.N.^.M.T p a l l i.a.c.c.c.a.a.a.d.a.d.s.d.a.a.a.a.a.a.a e.g.k.R *X*X*X*X*X*X*X*X",
"*X*X*X*X*X*X*X*X*X*X*X*X*X*X*X*X*X*X5._ M.M.d Y a.a.a.~ k k c.c.c.a.a.d.d.a.d.a.a.d.d.a.a.a.a.i.h p.d.*X*X*X*X*X*X*X*X*X",
"*X*X*X*X*X*X*X*X*X*X*X*X*X*X*X*X*X*X*X-.*.o.K b.X.a.a.c.a.l l ~ a.a.c.a.a.a.d.d.a.a.a.a.a.a.a.a.l d.*X*X*X*X*X*X*X*X*X*X",
"*X*X*X*X*X*X*X*X*X*X*X*X*X*X*X*X*X*X*X*X*X*XJ f c f l X.c.a.! l i.c.c.a.a.a.i.l l ~ i.a.a.a.a.a.! *X*X*X*X*X*X*X*X*X*X*X",
"*X*X*X*X*X*X*X*X*X*X*X*X*X*X*X*X*X*X*X*X*X*Xn  .f.d.Y f X.c.c.R l a.a.v.c.a.~ ~ ~ E ~ a.a.a.v.v.~ | *X*X*X*X*X*X*X*X*X*X",
"*X*X*X*X*X*X*X*X*X*X*X*X*X*X*X*X*X*X*X*X*XZ -.d.f.c.d.R ! R ~ a.Y X.c.a.v.Y 7 > > i.a.a.a.a.e.l  .P *X*X*X*X*X*X*X*X*X*X",
"*X*X*X*X*X*X*X*X*X*X*X*X*X*X*X*X*X*X*X*X[ b.B.b.f.f.c.X.l  .l i.a.a.a.c.c.~ a.~ a l i.a.p.E ~ l R ` *X*X*X*X*X*X*X*X*X*X",
"*X*X*X*X*X*X*X*X*X*X*X*X*X*X*X*X*X*X*X/ +.B.b.f.d.v.f.a.e X.l ~ f.v.c.a.v.a.a.c.a.a.a.a.R s < I Y <.*X*X*X*X*X*X*X*X*X*X",
"*X*X*X*X*X*X*X*X*X*X*X*X0.] ] [ %.*X*.o.b.b.f.f.d.~ d.a.s X.R ! c.a.v.v.a.v.c.a.a.c.v.a.d.d.! t H *X*X*X*X*X*X*X*X*X*X*X",
"*X*X*X*X*X*X*X6.%.$.=.] / ..@.@.o.| P @.d.f.f.f. .f d.a.l v.~ R v.v.a.v.v.c.c.v.a.v.f.a.d.d.~ ~ F *X*X*X*X*X*X*X*X*X*X*X",
"*X*X*X*X*X*X*X*X6.N L  .a.a.d.a.d.d.a.a.d.d.s.b.Y Y d.~ R d.a. .a.v.v.v.v.c.c.a.c.a.f.f.f.c.c. .+.*X*X*X*X*X*X*X*X*X*X*X",
"*X*X*X*X*X*X*X*XD x n ..|  .a.H ~ a.X.a.d.d.d.i.l i.c.! E a.c.a.v.v.c.X.P  .c.d.d.d.d.d.d.d.X.k *X*X*X*X*X*X*X*X*X*X*X*X",
"*X*X*X*X*X*X*X*XS [ o.E.Z.' +.+.' ' X.d.d.s. .f X.d.c.Y E d.c.c.c.a.j $ o + d.d.d.X.! X.d.a.! 1.*X*X*X*X*X*X*X*X*X*X*X*X",
"*X*X*X*X*X*X*X*X*X7.*X*X9.] ,.*X*X] L ` ' P f Y c.a.a.l R a.c.c.a.X.$   . O a.d.X.3 @ q X.! ..*X*X*X*X*X*X*X*X*X*X*X*X*X",
"*X*X*X*X*X*X*X*X*X*X*X*X;.#.*X*X*X*X*X*X] M o.d.a.c.c.l R a.a.d.c.k V X X & @.' &     + H B.*X*X*X*X*X*X*X*X*X*X*X*X*X*X",
"*X*X*X*X*X*X*X*X*X*X*X*X*X*X*X*X*X*X*X*X*XZ @.@.X. .~ k l X.X.a.d.F #X:.} N @.L - . o 4 X.L <.*X*X*X*X*X*X*X*X*X*X*X*X*X",
"*X*X*X*X*X*X*X*X*X*X*X*X*X*X*X*X*X*X*X*X*X' d.b.a.X.a.Q e H l H H m 7.XX$.( ' ` XXZ y  .c.P Z.2.M >.*.*X*X*X*X*X*X*X*X*X",
"*X*X*X*X*X*X*X*X*X*X*X*X*X*X*X*X*X*X*X*X=.+.d.c.c.c.c.i.s Y H ~ | F 8 +./ 8 n M ` L ! X.~ y P J n y x 2.*X*X*X*X*X*X*X*X",
"*X*X*X*X*X*X*X*X*X*X*X*X*X*X*X*X*X*X*X*X` B.d.c.a.c.a.X.X.6 e 7 7 k b.E.OXy q P q K t 7 y H ( | P P [ 7.*X*X*X*X*X*X*X*X",
"*X*X*X*X*X*X*X*X*X*X*X*X*X*X*X*X*X*X*X/ o.b.d.d.a.R ~ v.(.H.l l T.`.@.!.|.D.Y.9 # > K i.d.@.-.| L {.*X*X*X*X*X*X*X*X*X*X",
"*X*X*X*X*X*X*X*X*X*X*X*X*X*X*X*X*X*X;.o.d.d.d.d.v.a.a./.`.'.H.~ ~ A.V.| Y ) K ) ..@.| K P o.>.| ,.*X*X*X*X*X*X*X*X*X*X*X",
"*X*X*X*X*X&X&X*X*X*X*X*X*X*X*X*X*X*X^ a.d.d.d.d.a.a.v.).`.`.`.`.R.R B...K  .b.B.B.B.| [ 2.$X$X] ] *X*X*X*X*X*X*X*X*X*X*X",
"*X*X*X*X*X*X*X*X.X].*X*X*X*X*X*X*XC +.a.d.d.d.d.d.a.D._._.)._.`.|.B. XP.%X[ -.=.o.' =.*X*X*X*X*X*X*X*X*X*X*X*X*X*X*X*X*X",
"*X*X*X*X*X*X*X*X*X*X4.3.*X*X*X*XB P a.d.a.d.d.X.f.d./.`._._._.|./.T.E.2.*X*X#.%.*X*X*X*X*X*X*X*X*X*X*X*X*X*X*X*X*X*X*X*X",
"*X*X*X*X*X*X*X*X*X*X*X;.A *X*X*XB X.a.d.d.d.d.d.d.v.).)._._._.).A.).Z.{.*X*X*X*X*X*X*X*X*X*X*X*X*X*X*X*X*X*X*X*X*X*X*X*X",
"*X*X*X*X*X*X*X*X*X*X*X*X*XA D : ( a.a.a.a.d.d.d.f.H.)._._._._.H.!.OXZ.*X*X*X*X*X*X*X*X*X*X*X*X*X*X*X*X*X*X*X*X*X*X*X*X*X",
"*X*X*X*X*X*X*X*X*X*X*X*X*X*X8.0 | a.a.a.d.d.d.a.v./.).)._._.(.T.|.{.U.*X*X*X*X*X*X*X*X*X*X*X*X*X*X*X*X*X*X*X*X*X*X*X*X*X",
"*X*X*X*X*X*X*X*X*X*X*X*X*X*X*XM O.d.d.a.d.d.a.l H._.).).).).).).|.K.*X*X*X*X*X*X*X*X*X*X*X*X*X*X*X*X*X*X*X*X*X*X*X*X*X*X",
"*X*X*X*X*X*X*X*X*X*X*X*X*X*X*XN d.a.a.d.a.s. .f )._.)._.OX`.).+XV.' ,.=.*X*X*X*X*X*X*X*X*X*X*X*X*X*X*X*X*X*X*X*X*X*X*X*X",
"*X*X*X*X*X*X*X*X*X*X*X*X*X*X*XB @.a.d.a.d.d.R ~ _.)._._.`.`.`.!.G |  .` B *X*X*X*X*X*X*X*X*X*X*X*X*X*X*X*X*X*X*X*X*X*X*X",
"*X*X*X*X*X*X*X*X*X*X*X*X*X*X*X` d.d.a.d.d.d.H A.).).).`.OXOX).d.Y a.a.a.n *X*X*X*X*X*X*X*X*X*X*X*X*X*X*X*X*X*X*X*X*X*X*X",
"*X*X*X*X*X*X*X*X*X*X*X*X*X*X;./ a.a.a.d.d.a.f T.).).|.|.|.|. .K  .a.d.a.L *X*X*X*X*X*X*X*X*X*X*X*X*X*X*X*X*X*X*X*X*X*X*X",
"*X*X*X*X*X*X*X*X*X*X*X*X*X*X3.` a.a.a.a.d.d.G W.).).).|.D.P F  .d.d.a.@.P *X*X*X*X*X*X*X*X*X*X*X*X*X*X*X*X*X*X*X*X*X*X*X",
"*X*X*X*X*X*X*X*X*X*X*X*X*X*X3.[ a.d.s.d.b.@.G ).W.P.C.2.n n R @.d.d.d...Z.*X*X*X*X*X*X*X*X*X*X*X*X*X*X*X*X*X*X*X*X*X*X*X",
"*X*X*X*X*X*X*X*X*X*X*X*X*X*X;.[ @.a.a.d.d.-.P C.{.*X*XU.[ >.c.d.d.d.| J.*X*X*X*X*X*X*X*X*X*X*X*X*X*X*X*X*X*X*X*X*X*X*X*X",
"*X*X*X*X*X*X*X*X*X*X*X*X*X*X;.[ a.a.a.a.@.n L.*X*X*X*X*X=.' c.a.~ l X. X*X*X*X*X*X*X*X*X*X*X*X*X*X*X*X*X*X*X*X*X*X*X*X*X",
"*X*X*X*X*X*X*X*X*X*X*X*X*X*X,.o.a.d.X.@.L  X*X*X*X*X*X*X*X0.] +.X.a...W `.*X*X*X*X*X*X*X*X*X*X*X*X*X*X*X*X*X*X*X*X*X*X*X",
"*X*X*X*X*X*X*X*X*X*X*X*X*X*X%.o.a.a.X.( 1.*X*X*X*X*X*X*X*X*X$.'  .H ..m 1.*X*X*X*X*X*X*X*X*X*X*X*X*X*X*X*X*X*X*X*X*X*X*X",
"*X*X*X*X*X*X*X*X*X*X*X*X*X*X#.@.@.! j Q.*X*X*X*X*X*X*X*X*X*X*X} ' | F m 1.*X*X*X*X*X*X*X*X*X*X*X*X*X*X*X*X*X*X*X*X*X*X*X",
"*X*X*X*X*X*X*X*X*X*X*X*X*Xm ` d.| 5 *X*X*X*X*X*X*X*X*X*X*X*X*X*Xj Q 2 5 *X*X*X*X*X*X*X*X*X*X*X*X*X*X*X*X*X*X*X*X*X*X*X*X",
"*X*X*X*X*X*X*X*X*X*X*X*X2  .b.O.Y *X*X*X*X*X*X*X*X*X*X*X*X*X*X*X*X*X*X*X*X*X*X*X*X*X*X*X*X*X*X*X*X*X*X*X*X*X*X*X*X*X*X*X",
"*X*X*X*X*X*X*X*X*X*X*X*Xy X.O.| *X*X*X*X*X*X*X*X*X*X*X*X*X*X*X*X*X*X*X*X*X*X*X*X*X*X*X*X*X*X*X*X*X*X*X*X*X*X*X*X*X*X*X*X",
"*X*X*X*X*X*X*X*X*X*X*X$ P X.X.R 4 *X*X*X*X*X*X*X*X*X*X*X*X*X*X*X*X*X*X*X*X*X*X*X*X*X*X*X*X*X*X*X*X*X*X*X*X*X*X*X*X*X*X*X",
"*X*X*X*X*X*X*X*X*X*X*X;  .X. .| % *X*X*X*X*X*X*X*X*X*X*X*X*X*X*X*X*X*X*X*X*X*X*X*X*X*X*X*X*X*X*X*X*X*X*X*X*X*X*X*X*X*X*X",
"*X*X*X*X*X*X*X*X*X*X*X3 ! H  .! = *X*X*X*X*X*X*X*X*X*X*X*X*X*X*X*X*X*X*X*X*X*X*X*X*X*X*X*X*X*X*X*X*X*X*X*X*X*X*X*X*X*X*X",
"*X*X*X*X*X*X*X*X*X*X*Xw ! 5 | j % *X*X*X*X*X*X*X*X*X*X*X*X*X*X*X*X*X*X*X*X*X*X*X*X*X*X*X*X*X*X*X*X*X*X*X*X*X*X*X*X*X*X*X",
"*X*X*X*X*X*X*X*X*X*X*X* j j Q % % *X*X*X*X*X*X*X*X*X*X*X*X*X*X*X*X*X*X*X*X*X*X*X*X*X*X*X*X*X*X*X*X*X*X*X*X*X*X*X*X*X*X*X",
"*X*X*X*X*X*X*X*X*X*X*X*X*X*X*X*X*X*X*X*X*X*X*X*X*X*X*X*X*X*X*X*X*X*X*X*X*X*X*X*X*X*X*X*X*X*X*X*X*X*X*X*X*X*X*X*X*X*X*X*X",
"*X*X*X*X*X*X*X*X*X*X*X*X*X*X*X*X*X*X*X*X*X*X*X*X*X*X*X*X*X*X*X*X*X*X*X*X*X*X*X*X*X*X*X*X*X*X*X*X*X*X*X*X*X*X*X*X*X*X*X*X"
};
