/* XPM */
static char *fc317c7e10444e17c9e6631ac34325c8S0DOSLlhOly6xHZm[] = {
/* columns rows colors chars-per-pixel */
"60 70 175 2 ",
"   c None",
".  c #010101",
"X  c #0D0707",
"o  c #140C0C",
"O  c #1E1413",
"+  c #241313",
"@  c #2F1F1C",
"#  c #281414",
"$  c #302727",
"%  c #3C2322",
"&  c #3D2A25",
"*  c #3E3025",
"=  c #402826",
"-  c #482B27",
";  c #432D2B",
":  c #4E2E2B",
">  c #462624",
",  c #532F2C",
"<  c #493B2E",
"1  c #4C322F",
"2  c #54322F",
"3  c #473130",
"4  c #4E3534",
"5  c #553533",
"6  c #5B3532",
"7  c #5E3936",
"8  c #533D3B",
"9  c #5B3C3C",
"0  c #613936",
"q  c #643D3B",
"w  c #6B3F3E",
"e  c #4B412E",
"r  c #4C4132",
"t  c #574736",
"y  c #514834",
"u  c #534C3C",
"i  c #56523B",
"p  c #5B543E",
"a  c #5A5C3F",
"s  c #65413E",
"d  c #69423F",
"f  c #5C623F",
"g  c #5C3F41",
"h  c #613F42",
"j  c #574141",
"k  c #5C4344",
"l  c #5C4B4B",
"z  c #5C4E47",
"x  c #5D5D43",
"c  c #634444",
"v  c #6B4543",
"b  c #674846",
"n  c #6C4946",
"m  c #644B4C",
"M  c #6C4C4C",
"N  c #714544",
"B  c #724947",
"V  c #744D4B",
"C  c #7A4E4D",
"Z  c #605E47",
"A  c #63514F",
"S  c #6B514E",
"D  c #6A5D48",
"F  c #75514E",
"G  c #79524E",
"H  c #6A4E51",
"J  c #714F50",
"K  c #665152",
"L  c #6C5253",
"P  c #6C5658",
"I  c #6E5A5B",
"U  c #735353",
"Y  c #7C5553",
"T  c #7E5854",
"R  c #755759",
"E  c #7C5758",
"W  c #745A5C",
"Q  c #7C5A5A",
"!  c #5E6341",
"~  c #616544",
"^  c #656A43",
"/  c #696E44",
"(  c #64654A",
")  c #68664D",
"_  c #66694A",
"`  c #6A6C4B",
"'  c #716F4F",
"]  c #6B7045",
"[  c #6E724A",
"{  c #71764C",
"}  c #74794E",
"|  c #6E6E51",
" . c #727451",
".. c #777B51",
"X. c #7A7D53",
"o. c #7D7E58",
"O. c #735E61",
"+. c #7A5E60",
"@. c #766264",
"#. c #7B6466",
"$. c #776468",
"%. c #7B6669",
"&. c #776868",
"*. c #7D6B6D",
"=. c #7E6F71",
"-. c #815554",
";. c #895657",
":. c #835956",
">. c #8A5759",
",. c #835B5A",
"<. c #8B5C5C",
"1. c #915B5D",
"2. c #915C5E",
"3. c #915E5F",
"4. c #827F5F",
"5. c #805F60",
"6. c #915F60",
"7. c #846364",
"8. c #8E6262",
"9. c #8A6464",
"0. c #8E6867",
"q. c #806769",
"w. c #836A6D",
"e. c #8E6C6B",
"r. c #916263",
"t. c #916061",
"y. c #916565",
"u. c #916D6D",
"i. c #94706F",
"p. c #826E72",
"a. c #8E6F70",
"s. c #837173",
"d. c #837173",
"f. c #8B7476",
"g. c #877579",
"h. c #8D767A",
"j. c #8B7A7C",
"k. c #947373",
"l. c #997677",
"z. c #987877",
"x. c #937678",
"c. c #997778",
"v. c #927B7D",
"b. c #9C7B7C",
"n. c #7E8256",
"m. c #7F8258",
"M. c #808357",
"N. c #82865A",
"B. c #85885E",
"V. c #878066",
"C. c #888862",
"Z. c #8C8A69",
"A. c #948E76",
"S. c #969077",
"D. c #929078",
"F. c #8E7D82",
"G. c #907F82",
"H. c #928284",
"J. c #988486",
"K. c #988588",
"L. c #9A8C8C",
"P. c #9B8C84",
"I. c #9C9588",
"U. c #989384",
"Y. c #9B8E94",
"T. c #9C9096",
"R. c #A09685",
"E. c #A1958C",
"W. c #A3998B",
"Q. c #A59599",
"!. c #A69897",
"~. c #AE9FA5",
"^. c #B5A6AA",
"/. c #B7ABB1",
"(. c #B8ADB4",
/* pixels */
"                                                                                                                        ",
"                                                                                                                        ",
"                                                                                                                        ",
"                                                                                                                        ",
"                                      K 8 g c P                                                                         ",
"                                    P C E B 6 c m                                                                       ",
"                                  w.<.6.1.1.-.7 b m                                                                     ",
"                                G.U <.1.1.1.1.;.9 G m                                                                   ",
"                                M 6.<.1.1.1.1.1.N v M S                                                                 ",
"                                ,.6.6.1.1.1.1.1.6., T m h.                                                              ",
"                              W <.1.1.1.1.1.1.1.1.v V U m                                                               ",
"                              U 1.1.1.2.1.1.1.1.1.-.q ,.J O.                                                            ",
"                              U r.1.1.2.1.1.1.1.1.>.q -.:.m                                                             ",
"                              W 6.1.2.2.1.1.1.1.1.1.N Y ,.R %.          d.A m p.L.L.!.!.^.        d.L U L k             ",
"                              Q r.1.1.1.1.1.1.1.1.1.V C ,.,.L   j.@.P 3 4 @.H.v.F.            @.H J V n B Y Q           ",
"                              W y.1.1.1.>.>.1.1.1.1.C B ,.,.G 5 V M v M M q 9 W d.F.Y.Q.F.m k U G h B <.1.1.7.          ",
"                              S 8.t.1.1.>.;.6.2.1.1.-.C >.,.,.C F :.:.:.Y G F F b k Q @.t F d , 6 -.1.1.1.1.E           ",
"                              U 9.6.1.1.<.G 0.t.6.1.V C Q >.,.,.,.:.:.:.-.:.:.:.,.:.d - 6 6 6 0 ;.N C >.1.;.a.          ",
"                              P U t.1.1.6.:.-.8.6.6.V -.:.:.:.:.,.,.,.:.-.:.:.:.:.:.:.F q 6 w -.1.1.;.;.<.T             ",
"                                c 8.6.1.6.2.-.V >.-.N ,.,.,.,.,.,.,.,.<.:.:.,.:.:.,.:.-.-.d C ;.1.2.2.>.C               ",
"                                  U 8.6.1.1.6.-.0 q T ,.,.:.,.,.,.,.,.,.,.,.,.:.:.:.,.-.:.-.d -.>.>.1.-.x.              ",
"                                  p.Y 0.r.r.>.q , 6 6 v :.,.,.,.,.,.,.,.,.Q ,.,.:.,.:.-.-.:.-.0 C 1.-.5.                ",
"                                    %.Y 0.<.0 B ,.,.Q B q v :.,.,.,.Q ,.,.,.,.:.<.:.:.:.:.:.:.B N -.7.                  ",
"                                        P c Y ,.:.:.,.,.,.V q Y ,.,.,.,.,.,.<.:.:.:.:.:.:.:.:.:.w k.                    ",
"                                            9 7 9 7 q Y ,.,.Y 7 T ,.Q ,.,.:.F d d N :.-.:.:.:.:.v                       ",
"                                          $.m ,.,.,.Y s :.T :.C B ,.,.,.,.:.Y :.,.T G -.:.:.:.:.v J.                    ",
"                                        *.L 5.<.<.5.,.v Y N Y -.V :.,.,.:.N 5 - 2 -.-.:.:.-.B G v j.                    ",
"                                        U 5.<.,.<.<.,.C w -.h :.T ,.,.,.T G Y C 2 G -.:.G d B d d h.                    ",
"                                      m <.<.5.<.5.<.,.G : T v :.,.<.,.,.,.,.,.,.T ,.,.:.B v > B q                       ",
"                        %.%.L L d.  O.U <.5.,.<.:.V ,.Y 5 ,.v Y ,.5.,.,.,.,.,.,.,.Q ,.,.:.,.v q b                       ",
"              j.P %.#.L L Q ,.Q E U M ,.,.<.5.<.G 0 :.G v Q V Y ,.<.<.Q 9.<.,.Q Q <.<.,.,.,.G G L                       ",
"                %.k M Y ,.:.:.:.:.,.:.:.,.,.<.,.s Y ,.V C <.T T ,.5.<.,.<.<.,.,.,.,.<.,.,.,.,.M                         ",
"                m g M L M C T c G :.-.:.:.Q :.C n ,.,.v Y ,.,.,.,.<.,.V 9 U ,.,.,.:.:.:.,.,.Y S                         ",
"                m L Q h.@.M R Q M U ,.,.,.,.Y s T ,.,.d Y ,.,.<.,.Q k O X = ,.,.,.-.V :.,.Y m                           ",
"                        I I *.    O.K H M c q G <.Q ,.s Y ,.,.,.<.M + . . # Y ,.c @ o 1 Y Y                             ",
"                        *.%.            g.K E <.,.,.Q 7 Y >.,.Q Q L l X O ; ,.c o . . % B R                             ",
"                                          P Q T Y V V 6 d V G Y T P (.T.O.L Y m $ o O v ,.U                             ",
"                                          P ,.<.:.:.:.v 7 B v v v g g.L.P L m #.Q.H c ,.<.U f.*.k #.p.                  ",
"                                        O.Q ,.,.,.<.,.T 6 B s G C 5 9 9.8 # 3 j 8 g M C c s U V M 9 k h.                ",
"                                      d.P <.7.<.,.:.Y Q ,.2 q 1 g J f.c.b.9 L c 5 c 7 q v M H V M H %.                  ",
"                                      m Q ,.,.,.T Y T k.c.z.v 6 u.x.Q u.c.u.U : 5 5 v :.,.T ,.M h.                      ",
"                                    P Y ,.,.,.,.,.,.<.c.b.b.k.Y Y 9.9.B n V B T ,.,.C b M +.Q H                         ",
"            /.                    %.L Q :.,.,.,.,.,.8.b.b.b.b.b.k.U 0.W U Q <.,.9.E H +.  ^.Q.K                         ",
"                  j.              m Q ,.:.,.,.:.,.,.k.b.b.b.b.b.c.e.b.q.  W W R W W                                     ",
"                    =.*.        t U :.,.:.,.,.:.:.<.z.b.b.b.b.b.k.c.x.#.    g.H.                                        ",
"                      =.l d.  P m :.:.,.:.,.,.,.:.u.b.b.b.b.b.c.u.b.Q                                                   ",
"                          P l 4 E :.:.,.:.:.:.,.<.c.b.b.b.b.b.0.b.v.#.                                                  ",
"                            g.g ,.,.,.,.,.,.:.Y u.b.b.b.b.b.c.l.b.f.                                                    ",
"                              m ,.,.,.,.,.Q :.v z.b.b.b.b.b.b.b.k.f.                                                    ",
"                            $.M ,.,.,.,.:.,.Y M b.b.b.b.b.b.b.b.Q U P P                                                 ",
"                            I H Q ,.,.,.,.,.n Q b.b.b.b.b.b.b.k.N :.Q U I                                               ",
"                            P H ,.:.,.,.,.,.q e.b.b.b.b.b.b.k.c G :.:.:.L                                               ",
"                            &.M Q :.-.:.,.,.7 k.b.b.b.b.b.c.n C Q :.-.:.U                                               ",
"                            l L :.:.-.:.:.:.7 c.b.b.c.k.7.9 v ,.:.,.<.:.$.                                              ",
"                            K L ,.-.:.:.,.Y n b.f.e.*.W k J Y :.:.:.,.M                                                 ",
"                            K L T :.:.:.,.c S v.      *.H Q :.-.Y Y Q K.                                                ",
"                            d.P T :.:.:.F A             *.H T -.V s R H.                                                ",
"                            p.R T T :.Y L j.              @.L ,.:.Y U z                                                 ",
"                            O.R T T Y H                     @.U T d Y g                                                 ",
"I.I.I.U.U.I.I.I.I.I.I.I.L.*.L R T c S E.W.I.I.I.I.I.I.I.W.W.W.L M n s r P.R.W.W.W.I.W.I.I.I.I.I.I.I.W.W.W.I.S.S.A.S.S.A.",
"o.N.m.N.n.X.m.N.m.m.M.B.D m F T n r V.Z.B.N.N.N.N.N.N.N.B.B.B.M.p t p ' N.M.N.N.B.N.N.N.N.N.N.N.N.N.m.o.X.n.} } X.m.X.X.",
"[  .} .. .` [ ..{  . .` 1 T :.F 2 N.N.N.n.N.n.n.m.m.M.{ } N.M.N.N.M.N.N.X.[ ....} } n.} ....n.N.m.X.} { { } } } X.} { ^ ",
"` [ ..{ [ ) ( x ( ( ~ r s G T n n | ..X.X.m.m.{ } m.M.} n.} n.M.N.M.} N.X./ { { } } } [ } [ X.} n. ./ ] [ } ] [ [ [ { n.",
" .[ } [ | ! )  .( ~ ` < D T T d < ` u | { } { n.m.} X.X.} } n.M.{ { } M.[ [ / [ } } { ] [ [ [ [ [ x ( [ { / / / } [ { ] ",
"[ [ { ^ ! x !  .| ! | * R Y T n * ` ! ( X.X.{ { X.{ [ { ....} { { { { ..{ { [ [ ] [ ] / ] [ / / / ` ~ ^ ^ / ~ ^ ] ] ] / ",
"! ! ^ ( ! ! ! ! ! ( z ; F s G b & ! x _ [ ` ^ [ ] [ ] / [ ] / / / ] / f f ^ / ] ] / ^ ^ i f a f f ~ a f f a ~ f / f ^ f ",
"f ( ( / ! ! ) ! ! ! i * b 2 F 1 & x ( ` / ^ ` / / ] ] ] ] ] ] ] / ] / ! ^ / ] / ^ / ^ f i f ^ f ~ f f ~ ! ! ~ f f f ^ f ",
"! ] / / ! ) ! ! ! ( ( x y < e e ~ ` ^ / / _ / / / ] / ] ] ] ] ] ] ] ^ ] / ] / / ^ ^ ^ f ^ f f f f f / / / / ^ f ^ ^ ^ ] ",
"` / ] / ` ` ^ ! ! _ _ | .._ / [ ` ` ^ ^ ] / / / ] ] ] ] ] ^ [ ] ] ^ ~ ] / / / / / ^ / / ] / ^ f f f ^ / ] / ^ f ] ] ^ ] ",
"^ / ^ ^ ! ^ ] ] _ ` _ | ) ! / ! ( _ ^ ~ / / [ / ] / / / ^ / ] ] ] / ^ ~ ^ a a ! / f ^ / ] / ] ] ] / ^ / ] ] ^ ^ ] ] ] ] "
};
