/* XPM */
static char *aef1878773214d9ddf31e98121ab1848JSDiohlxNZXcw1ZV[] = {
/* columns rows colors chars-per-pixel */
"60 70 173 2 ",
"   c None",
".  c #010101",
"X  c #0D0707",
"o  c #140C0C",
"O  c #1E1413",
"+  c #241313",
"@  c #281414",
"#  c #2F1F1C",
"$  c #302727",
"%  c #3C2322",
"&  c #3D2A25",
"*  c #3E3025",
"=  c #402826",
"-  c #482B27",
";  c #432D2B",
":  c #4E2E2B",
">  c #462624",
",  c #532F2C",
"<  c #4C322F",
"1  c #493B2E",
"2  c #54322F",
"3  c #473130",
"4  c #4E3534",
"5  c #553533",
"6  c #5B3532",
"7  c #5E3936",
"8  c #533D3B",
"9  c #5B3C3C",
"0  c #613936",
"q  c #643D3B",
"w  c #6B3F3E",
"e  c #4B412E",
"r  c #4C4132",
"t  c #574736",
"y  c #514834",
"u  c #534C3C",
"i  c #56523B",
"p  c #5B543E",
"a  c #5A5C3F",
"s  c #65413E",
"d  c #69423F",
"f  c #5C623F",
"g  c #5C3F41",
"h  c #613F42",
"j  c #574141",
"k  c #5C4344",
"l  c #5C4E47",
"z  c #5C4B4B",
"x  c #5D5D43",
"c  c #634444",
"v  c #6B4543",
"b  c #674846",
"n  c #6C4946",
"m  c #644B4C",
"M  c #6C4C4C",
"N  c #714544",
"B  c #724947",
"V  c #744D4B",
"C  c #7A4E4D",
"Z  c #605E47",
"A  c #63514F",
"S  c #6B514E",
"D  c #6A5D48",
"F  c #75514E",
"G  c #79524E",
"H  c #6A4E51",
"J  c #714F50",
"K  c #665152",
"L  c #6C5253",
"P  c #6C5658",
"I  c #6E5A5B",
"U  c #735353",
"Y  c #7C5553",
"T  c #7E5854",
"R  c #755759",
"E  c #7C5758",
"W  c #745A5C",
"Q  c #7C5A5A",
"!  c #5E6341",
"~  c #616544",
"^  c #656A43",
"/  c #696E44",
"(  c #64654A",
")  c #68664D",
"_  c #66694A",
"`  c #6A6C4B",
"'  c #716F4F",
"]  c #6B7045",
"[  c #6E724A",
"{  c #71764C",
"}  c #74794E",
"|  c #6E6E51",
" . c #727451",
".. c #777B51",
"X. c #7A7D53",
"o. c #7D7E58",
"O. c #735E61",
"+. c #7A5E60",
"@. c #766264",
"#. c #7B6466",
"$. c #776468",
"%. c #7B6669",
"&. c #776868",
"*. c #7D6B6D",
"=. c #7E6F71",
"-. c #815554",
";. c #895657",
":. c #835956",
">. c #8A5759",
",. c #835B5A",
"<. c #8B5C5C",
"1. c #915B5D",
"2. c #827F5F",
"3. c #805F60",
"4. c #915F60",
"5. c #846364",
"6. c #8B6363",
"7. c #8E6867",
"8. c #806769",
"9. c #836A6D",
"0. c #8E6C6B",
"q. c #916363",
"w. c #916D6D",
"e. c #94706F",
"r. c #826E72",
"t. c #8E6F70",
"y. c #837173",
"u. c #8B7476",
"i. c #877579",
"p. c #8D767A",
"a. c #8B7A7C",
"s. c #947373",
"d. c #997677",
"f. c #987877",
"g. c #937678",
"h. c #997778",
"j. c #927B7D",
"k. c #9C7B7C",
"l. c #7E8256",
"z. c #7F8258",
"x. c #808357",
"c. c #82865A",
"v. c #85885E",
"b. c #878066",
"n. c #888862",
"m. c #8C8A69",
"M. c #948E76",
"N. c #969077",
"B. c #929078",
"V. c #8E7D82",
"C. c #907F82",
"Z. c #928284",
"A. c #988486",
"S. c #988588",
"D. c #9A8C8C",
"F. c #9B8C84",
"G. c #979283",
"H. c #9C9588",
"J. c #999484",
"K. c #9B8E94",
"L. c #9C9096",
"P. c #A09685",
"I. c #A1958C",
"U. c #A3998B",
"Y. c #A29497",
"T. c #A49A90",
"R. c #A59599",
"E. c #A5989A",
"W. c #AB989B",
"Q. c #AE9FA5",
"!. c #B5A6AA",
"~. c #B7ABB1",
"^. c #B8ADB4",
/* pixels */
"                                                                                                                        ",
"                                                                                                                        ",
"                                                                                                                        ",
"                                                                                                                        ",
"                                      m 8 g c I                                                                         ",
"                                    P J Y B 6 c K                                                                       ",
"                                  9.<.4.1.1.-.6 b m                                                                     ",
"                                V.J 4.1.1.1.1.;.0 F m                                                                   ",
"                                m 4.1.1.1.1.1.1.v N M K                                                                 ",
"                                ,.4.1.1.1.1.1.1.1.5 Y b p.                                                              ",
"                              W <.1.1.1.1.1.1.1.1.v V U m                                                               ",
"                              U 1.1.1.1.1.1.1.1.1.-.q ,.J O.                                                            ",
"                              U q.1.1.1.1.1.1.1.1.1.0 -.,.m                                                             ",
"                              W 4.1.1.1.1.1.1.1.1.1.N Y ,.U %.          y.A m r.D.D.E.W.Q.        u.K U H k             ",
"                              Q q.1.1.1.1.1.1.1.1.1.B C ,.,.L   a.@.L < 4 @.Z.j.V.            @.H J J v B Y Q           ",
"                              W q.1.1.1.;.;.1.1.1.1.C V ,.,.Y 5 F M v M M q 9 W y.V.K.R.Z.z k Y G q C <.1.<.5.          ",
"                              S 6.q.1.1.>.;.6.1.1.1.Y C ,.,.,.G G :.:.,.-.Y V V M t W @.t F d , 6 -.1.1.1.1.E           ",
"                              U 6.1.1.1.1.C q.q.1.1.C C Q ;.,.,.,.:.:.-.-.:.:.:.-.:.v - 6 6 0 0 >.N C >.1.>.w.          ",
"                              P U q.1.1.q.:.Y q.4.4.V -.,.:.:.:.:.,.,.-.:.:.:.:.<.,.:.C 0 6 0 -.>.1.;.;.<.Y             ",
"                                c 6.1.1.1.1.-.V >.;.v <.:.:.,.,.,.,.,.,.,.:.,.:.,.-.:.-.-.d -.;.1.1.1.1.C               ",
"                                  U 6.4.1.1.4.-.0 q Y :.,.,.:.:.,.,.,.,.,.,.,.:.:.,.:.-.:.-.s -.;.>.<.-.g.              ",
"                                  r.Y 7.q.q.<.q , 6 6 v ,.,.,.Q ,.,.,.,.,.,.Q ,.,.:.:.:.:.:.-.0 C 1.;.3.                ",
"                                    %.Y 7.<.0 B ,.,.Y V q v :.<.,.,.,.Q ,.,.,.,.:.:.:.:.:.:.-.B N -.3.                  ",
"                                        R c Y :.,.,.:.,.,.V q Y ,.,.,.,.,.,.<.:.:.:.:.:.:.:.:.-.q d.                    ",
"                                            9 7 9 0 q Y :.:.Y 7 T ,.,.,.,.:.V s v v -.-.:.:.:.:.v                       ",
"                                          $.m ,.,.,.Y s ,.Y ,.G V ,.,.,.,.:.Y ,.:.:.Y :.:.:.:.:.v S.                    ",
"                                        *.K 5.<.,.<.,.v Y B Y :.V T ,.,.T N 6 - 2 -.:.:.:.:.B G v a.                    ",
"                                        U ,.<.,.3.6.,.V q Y d -.T :.,.,.,.Y Y V , G -.:.C d B d d p.                    ",
"                                      H ,.3.3.<.<.<.,.U : -.v ,.,.,.,.,.,.,.,.,.,.,.:.,.B v > B q                       ",
"                        %.%.L L y.  W U <.<.<.,.,.V ,.Y 5 :.v -.3.,.,.,.,.,.Q ,.,.,.,.:.:.:.v c b                       ",
"              a.P %.#.L L Q ,.Q Y U M ,.,.,.6.,.G 0 ,.G v ,.V Y ,.<.,.,.6.,.,.,.,.,.,.,.,.,.Y V L                       ",
"                %.k M Y ,.:.:.:.,.,.:.:.,.,.<.,.q Y ,.V C ,.Y -.<.3.4.,.<.<.,.,.,.,.,.<.,.,.:.M                         ",
"                m g M U M C Y c G -.-.:.,.:.:.C v ,.,.v Y ,.,.<.:.,.3.V 9 Y ,.,.,.:.:.:.,.:.Y L                         ",
"                m L Q i.@.M W Q M U ,.,.,.:.Y q T ,.,.v Y ,.,.,.,.,.c O X = E ,.:.-.V :.,.T b                           ",
"                        I W *.    @.K H H c q G ,.,.,.q -.,.,.:.,.M + . . @ Y ,.c # o 4 Y Y                             ",
"                        *.#.            i.L Q ,.,.,.,.9 Y -.,.,.,.K z X O ; -.c o . . % B W                             ",
"                                          I Q ,.Y V V 5 v V G Y Y P ^.L.O.H E m $ o + v ,.S                             ",
"                                          U ,.,.,.:.,.v 7 N v c v g i.D.I L m $.R.K c ,.<.U g.*.k @.r.                  ",
"                                        W Q ,.<.Q <.:.,.6 V s F J 6 9 7.8 + 3 g 8 g V V c c U J H g k p.                ",
"                                      y.I 3.<.,.,.,.Y :.:.2 q , h J e.d.C.9 L c 5 c 7 0 v M M V M M #.                  ",
"                                      m E :.,.,.,.Y T s.k.d.v 6 w.s.Q w.f.w.U : 5 5 v -.:.E ,.M p.                      ",
"                                    I U ,.,.,.,.,.:.,.f.k.k.s.Y Y 7.5.V v V V Y ,.,.J b H Q Q H                         ",
"            ^.                    $.L ,.:.,.,.,.,.,.6.k.k.k.k.k.s.U 7.R U ,.<.,.6.E U +.  !.R.K                         ",
"                  a.              m Q ,.,.,.:.,.,.,.s.k.k.k.k.k.h.w.k.%.  W W W W W                                     ",
"                    =.*.        r U :.,.,.,.,.,.:.<.f.k.k.k.k.k.e.k.g.#.    i.V.                                        ",
"                      =.z y.  P m :.:.,.:.:.:.,.:.6.k.k.k.k.k.d.w.k.Q                                                   ",
"                          P z 4 Q :.:.,.,.:.:.:.<.k.k.k.k.k.k.w.k.j.#.                                                  ",
"                            i.g ,.<.,.,.,.,.:.-.w.k.k.k.k.k.d.d.k.u.                                                    ",
"                              m ,.,.,.Q ,.,.,.d f.k.k.k.k.k.k.k.s.u.                                                    ",
"                            #.m ,.,.,.,.,.,.G M k.k.k.k.k.k.k.k.Q U P P                                                 ",
"                            I H ,.:.,.,.,.,.n Q k.k.k.k.k.k.k.s.N :.Q U I                                               ",
"                            I H Q :.,.,.,.,.q 0.k.k.k.k.k.k.s.v F :.:.:.L                                               ",
"                            &.M Q :.:.:.,.,.0 s.k.k.k.k.k.k.b F ,.:.-.:.U                                               ",
"                            z L :.:.:.:.:.:.7 f.k.k.f.s.5.9 n T ,.:.<.Q @.                                              ",
"                            K L :.-.:.:.,.Y n k.s.9.9.W g J Y :.:.:.:.M                                                 ",
"                            K L :.:.:.:.Q c L p.      *.K Q ;.-.-.U ,.S.                                                ",
"                            y.P :.-.:.T U S             =.M ,.Y V s U S.                                                ",
"                            r.R T -.-.T P a.              @.L ,.:.Y U l                                                 ",
"                            O.R Y T C H                     @.U T d Y g                                                 ",
"H.H.H.J.G.H.H.H.H.H.H.H.D.*.L R Y b H I.U.H.H.H.H.H.H.H.U.U.U.S M n s r F.P.U.U.U.U.H.H.H.H.H.H.H.H.U.U.U.H.B.M.M.N.N.M.",
"o.c.z.c.l.X.z.c.z.z.c.c.D c U Q n y 2.m.v.c.v.v.v.c.c.c.v.c.v.c.p t p ` c.c.c.c.v.c.v.c.c.c.c.c.c.c.l.o.X.l.....X.x.X.X.",
"[  .{ .. ._ [ ..{ {  .` < T :.F 5 x.v.c.l.c.l...l.l.l.} ..c.x.c.c.c.v.c.X.] ....} } l.} ....l.c.l.X.} } { } } } X.} { ^ ",
"[ [ ..{ [ ) ( x ( ( ~ e s T T n b ' X.X.X.x.l.} ..l.c.} X...X.x.c.x...c.X./ { { } } } ] { { X.} z.[ ^ [ [ } ] { [ ] { l.",
" .[ } [ | ! | | ( ~ ' 1 D G T d 1 ` u ) { ..} X.l.} X.} ....l.x.{ { } l.{ ] / [ } } } ] [ [ [ [ { x ( [ { / ^ / } { { ] ",
"[ [ [ / ! x !  .) (  .* Y U Y M * ` ! _ ..X. .{ X.{ [ { ..X.{ } } { { ..} { [ { [ ] ] ] ] { ^ ] ] ` ! ^ ^ / ~ ^ ] ] ] / ",
"! ! ^ _ x ! ! ( ! ! l * F s G v % ! x ( ] / ` ] ] ] / ] [ ] / / / ] ^ f f ~ ^ ] ] ^ ^ ~ p f a f f f a f a a ~ ! / f ~ f ",
"! ~ ~ / _ ! _ x ! ( u * n 2 F 1 & ! ) ` ] / _ / ] ] ] ] ] ] ] ] / ] ] ~ ^ ^ ] ] ^ ] ^ f a a f f ~ f f ^ f f ~ f f f f ^ ",
"! ` ` / ! _ ! ! ! ) _ a y 1 r e ~ ` ~ / / _ / / / ] / ] ] ] ] ] ] ] ^ ] ] ] ] ] ^ ~ / f f f f f f f / / ] / ^ f ^ / / / ",
"_ / / / ^ ^ ^ ^ ! _ _ | .._ ` ] ` _ ~ / ] ] ` ] ] ] ] ] / ^ { ] / ^ f ] / / ] / ^ ^ / / / / ^ ^ f f ^ ] ] ] ^ f ] ] ^ ] ",
"^ / / ^ ! ^ / / _ ` _ | _ ! / ~ ( ` ^ ~ / / ] / ] / ^ ] _ ^ ] ] ] ] / f ^ a a f / f / ] ] / ] ] ] / ^ ] ] ] ^ ~ / ] ] ] "
};
