/* XPM */
static char *result[] = {
/* columns rows colors chars-per-pixel */
"60 70 173 2 ",
"   c #010101",
".  c #0D0707",
"X  c #140C0C",
"o  c #1E1413",
"O  c #241313",
"+  c #281414",
"@  c #2F1F1C",
"#  c #302727",
"$  c #3C2322",
"%  c #3D2A25",
"&  c #3E3025",
"*  c #402826",
"=  c #482B27",
"-  c #432D2B",
";  c #4E2E2B",
":  c #462624",
">  c #532F2C",
",  c #4C322F",
"<  c #493B2E",
"1  c #54322F",
"2  c #473130",
"3  c #4E3534",
"4  c #553533",
"5  c #5B3532",
"6  c #5E3936",
"7  c #533D3B",
"8  c #5B3C3C",
"9  c #613936",
"0  c #643D3B",
"q  c #6B3F3E",
"w  c #4B412E",
"e  c #4C4132",
"r  c #574736",
"t  c #514834",
"y  c #534C3C",
"u  c #56523B",
"i  c #5B543E",
"p  c #5A5C3F",
"a  c #65413E",
"s  c #69423F",
"d  c #5C623F",
"f  c #5C3F41",
"g  c #613F42",
"h  c #574141",
"j  c #5C4344",
"k  c #5C4E47",
"l  c #5C4B4B",
"z  c #5D5D43",
"x  c #634444",
"c  c #6B4543",
"v  c #674846",
"b  c #6C4946",
"n  c #644B4C",
"m  c #6C4C4C",
"M  c #714544",
"N  c #724947",
"B  c #744D4B",
"V  c #7A4E4D",
"C  c #605E47",
"Z  c #63514F",
"A  c #6B514E",
"S  c #6A5D48",
"D  c #75514E",
"F  c #79524E",
"G  c #6A4E51",
"H  c #714F50",
"J  c #665152",
"K  c #6C5253",
"L  c #6C5658",
"P  c #6E5A5B",
"I  c #735353",
"U  c #7C5553",
"Y  c #7E5854",
"T  c #755759",
"R  c #7C5758",
"E  c #745A5C",
"W  c #7C5A5A",
"Q  c #5E6341",
"!  c #616544",
"~  c #656A43",
"^  c #696E44",
"/  c #64654A",
"(  c #68664D",
")  c #66694A",
"_  c #6A6C4B",
"`  c #716F4F",
"'  c #6B7045",
"]  c #6E724A",
"[  c #71764C",
"{  c #74794E",
"}  c #6E6E51",
"|  c #727451",
" . c #777B51",
".. c #7A7D53",
"X. c #7D7E58",
"o. c #735E61",
"O. c #7A5E60",
"+. c #766264",
"@. c #7B6466",
"#. c #776468",
"$. c #7B6669",
"%. c #776868",
"&. c #7D6B6D",
"*. c #7E6F71",
"=. c #815554",
"-. c #895657",
";. c #835956",
":. c #8A5759",
">. c #835B5A",
",. c #8B5C5C",
"<. c #915B5D",
"1. c #827F5F",
"2. c #805F60",
"3. c #915F60",
"4. c #846364",
"5. c #8B6363",
"6. c #8E6867",
"7. c #806769",
"8. c #836A6D",
"9. c #8E6C6B",
"0. c #916363",
"q. c #916D6D",
"w. c #94706F",
"e. c #826E72",
"r. c #8E6F70",
"t. c #837173",
"y. c #8B7476",
"u. c #877579",
"i. c #8D767A",
"p. c #8B7A7C",
"a. c #947373",
"s. c #997677",
"d. c #987877",
"f. c #937678",
"g. c #997778",
"h. c #927B7D",
"j. c #9C7B7C",
"k. c #7E8256",
"l. c #7F8258",
"z. c #808357",
"x. c #82865A",
"c. c #85885E",
"v. c #878066",
"b. c #888862",
"n. c #8C8A69",
"m. c #948E76",
"M. c #969077",
"N. c #929078",
"B. c #8E7D82",
"V. c #907F82",
"C. c #928284",
"Z. c #988486",
"A. c #988588",
"S. c #9A8C8C",
"D. c #9B8C84",
"F. c #979283",
"G. c #9C9588",
"H. c #999484",
"J. c #9B8E94",
"K. c #9C9096",
"L. c #A09685",
"P. c #A1958C",
"I. c #A3998B",
"U. c #A29497",
"Y. c #A49A90",
"T. c #A59599",
"R. c #A5989A",
"E. c #AB989B",
"W. c #AE9FA5",
"Q. c #B5A6AA",
"!. c #B7ABB1",
"~. c #B8ADB4",
"^. c None",
/* pixels */
"^.^.^.^.^.^.^.^.^.^.^.^.^.^.^.^.^.^.^.^.^.^.^.^.^.^.^.^.^.^.^.^.^.^.^.^.^.^.^.^.^.^.^.^.^.^.^.^.^.^.^.^.^.^.^.^.^.^.^.^.",
"^.^.^.^.^.^.^.^.^.^.^.^.^.^.^.^.^.^.^.^.^.^.^.^.^.^.^.^.^.^.^.^.^.^.^.^.^.^.^.^.^.^.^.^.^.^.^.^.^.^.^.^.^.^.^.^.^.^.^.^.",
"^.^.^.^.^.^.^.^.^.^.^.^.^.^.^.^.^.^.^.^.^.^.^.^.^.^.^.^.^.^.^.^.^.^.^.^.^.^.^.^.^.^.^.^.^.^.^.^.^.^.^.^.^.^.^.^.^.^.^.^.",
"^.^.^.^.^.^.^.^.^.^.^.^.^.^.^.^.^.^.^.^.^.^.^.^.^.^.^.^.^.^.^.^.^.^.^.^.^.^.^.^.^.^.^.^.^.^.^.^.^.^.^.^.^.^.^.^.^.^.^.^.",
"^.^.^.^.^.^.^.^.^.^.^.^.^.^.^.^.^.^.^.n 7 f x L ^.^.^.^.^.^.^.^.^.^.^.^.^.^.^.^.^.^.^.^.^.^.^.^.^.^.^.^.^.^.^.^.^.^.^.^.",
"^.^.^.^.^.^.^.^.^.^.^.^.^.^.^.^.^.^.L H U N 5 x J ^.^.^.^.^.^.^.^.^.^.^.^.^.^.^.^.^.^.^.^.^.^.^.^.^.^.^.^.^.^.^.^.^.^.^.",
"^.^.^.^.^.^.^.^.^.^.^.^.^.^.^.^.^.8.,.3.<.<.=.9 v n ^.^.^.^.^.^.^.^.^.^.^.^.^.^.^.^.^.^.^.^.^.^.^.^.^.^.^.^.^.^.^.^.^.^.",
"^.^.^.^.^.^.^.^.^.^.^.^.^.^.^.^.B.H 3.<.<.<.<.=.9 D n ^.^.^.^.^.^.^.^.^.^.^.^.^.^.^.^.^.^.^.^.^.^.^.^.^.^.^.^.^.^.^.^.^.",
"^.^.^.^.^.^.^.^.^.^.^.^.^.^.^.^.n 0.<.<.<.<.<.<.M c m n ^.^.^.^.^.^.^.^.^.^.^.^.^.^.^.^.^.^.^.^.^.^.^.^.^.^.^.^.^.^.^.^.",
"^.^.^.^.^.^.^.^.^.^.^.^.^.^.^.^.>.<.<.<.<.<.<.<.,.4 U n i.^.^.^.^.^.^.^.^.^.^.^.^.^.^.^.^.^.^.^.^.^.^.^.^.^.^.^.^.^.^.^.",
"^.^.^.^.^.^.^.^.^.^.^.^.^.^.^.E <.<.<.<.<.<.<.<.<.M B U n ^.^.^.^.^.^.^.^.^.^.^.^.^.^.^.^.^.^.^.^.^.^.^.^.^.^.^.^.^.^.^.",
"^.^.^.^.^.^.^.^.^.^.^.^.^.^.^.I <.<.<.<.<.<.<.<.<.=.a W B o.^.^.^.^.^.^.^.^.^.^.^.^.^.^.^.^.^.^.^.^.^.^.^.^.^.^.^.^.^.^.",
"^.^.^.^.^.^.^.^.^.^.^.^.^.^.^.I 0.<.<.<.<.<.<.<.<.<.9 =.>.n ^.^.^.^.^.^.^.^.^.^.^.^.^.^.^.^.^.^.^.^.^.^.^.^.^.^.^.^.^.^.",
"^.^.^.^.^.^.^.^.^.^.^.^.^.^.^.E 3.<.<.<.<.<.<.<.<.<.M U >.T $.^.^.^.^.^.t.J n &.S.S.R.E.W.^.^.^.^.y.J I G j ^.^.^.^.^.^.",
"^.^.^.^.^.^.^.^.^.^.^.^.^.^.^.W 0.<.<.<.:.<.<.<.<.<.V B >.>.K ^.p.#.J 2 3 +.C.h.B.^.^.^.^.^.^.+.G H H c N U W ^.^.^.^.^.",
"^.^.^.^.^.^.^.^.^.^.^.^.^.^.^.E 0.<.<.<.:.:.<.<.<.<.V B >.;.U 4 D b c B m 8 a E t.B.K.U.C.l j U F 0 V ,.<.,.4.^.^.^.^.^.",
"^.^.^.^.^.^.^.^.^.^.^.^.^.^.^.A 5.0.<.<.:.-.0.<.<.<.U V >.>.>.F F ;.;.>.U U B B m r O.o.r D s > 5 =.<.<.<.<.R ^.^.^.^.^.",
"^.^.^.^.^.^.^.^.^.^.^.^.^.^.^.I 5.<.<.<.<.V 5.0.<.<.V V W -.>.>.>.;.;.;.;.;.;.;.>.;.s = 4 5 5 s :.M V :.<.-.r.^.^.^.^.^.",
"^.^.^.^.^.^.^.^.^.^.^.^.^.^.^.L I 0.<.<.0.;.U 0.3.3.B =.>.;.;.;.>.>.>.;.;.=.;.;.>.=.;.V 0 5 s V :.<.-.-.<.U ^.^.^.^.^.^.",
"^.^.^.^.^.^.^.^.^.^.^.^.^.^.^.^.x 5.<.<.<.<.=.B :.-.c ,.;.;.>.>.>.>.>.>.;.;.>.;.;.>.;.;.=.s =.-.<.<.<.<.V ^.^.^.^.^.^.^.",
"^.^.^.^.^.^.^.^.^.^.^.^.^.^.^.^.^.I 5.3.<.<.3.=.9 0 U ;.>.>.;.;.>.>.>.>.>.>.>.>.;.;.;.;.;.=.a V -.:.<.U f.^.^.^.^.^.^.^.",
"^.^.^.^.^.^.^.^.^.^.^.^.^.^.^.^.^.e.U 6.0.0.,.0 > 5 5 c >.>.>.W >.>.>.>.>.>.>.>.;.;.;.;.;.;.=.9 V <.-.2.^.^.^.^.^.^.^.^.",
"^.^.^.^.^.^.^.^.^.^.^.^.^.^.^.^.^.^.$.U 6.,.9 N >.>.U B 0 c ;.,.>.>.>.>.>.>.>.;.;.>.;.;.;.;.-.s N =.2.^.^.^.^.^.^.^.^.^.",
"^.^.^.^.^.^.^.^.^.^.^.^.^.^.^.^.^.^.^.^.T x U ;.>.>.;.>.>.B 0 U >.>.>.W >.>.;.;.,.;.;.;.;.-.;.;.0 a.^.^.^.^.^.^.^.^.^.^.",
"^.^.^.^.^.^.^.^.^.^.^.^.^.^.^.^.^.^.^.^.^.^.8 6 8 9 0 U ;.;.U 6 U >.>.>.;.;.B s c M =.;.;.;.;.;.c ^.^.^.^.^.^.^.^.^.^.^.",
"^.^.^.^.^.^.^.^.^.^.^.^.^.^.^.^.^.^.^.^.^.#.n >.>.>.U a >.U >.F N >.W >.>.;.U ;.;.;.F ;.;.;.;.;.c Z.^.^.^.^.^.^.^.^.^.^.",
"^.^.^.^.^.^.^.^.^.^.^.^.^.^.^.^.^.^.^.^.&.J 4.,.>.,.>.c U N U ;.B ;.>.>.;.c 4 = > =.;.;.;.;.N F c p.^.^.^.^.^.^.^.^.^.^.",
"^.^.^.^.^.^.^.^.^.^.^.^.^.^.^.^.^.^.^.^.I >.,.>.2.5.>.B 0 U s =.;.>.>.>.W U U V > F ;.;.V s N s s i.^.^.^.^.^.^.^.^.^.^.",
"^.^.^.^.^.^.^.^.^.^.^.^.^.^.^.^.^.^.^.G >.2.2.,.,.,.>.I ; =.c >.,.>.>.>.;.;.>.,.W >.;.;.N x : b 0 ^.^.^.^.^.^.^.^.^.^.^.",
"^.^.^.^.^.^.^.^.^.^.^.^.$.$.K K t.^.E I ,.,.,.>.>.B >.U 4 ;.c =.>.>.>.>.>.>.>.W >.>.>.>.;.>.c a v ^.^.^.^.^.^.^.^.^.^.^.",
"^.^.^.^.^.^.^.p.L $.@.K K W >.W U I m >.>.>.5.>.F 9 >.F c >.B U >.4.>.>.3.,.>.>.>.>.,.>.>.>.U B K ^.^.^.^.^.^.^.^.^.^.^.",
"^.^.^.^.^.^.^.^.$.j m U >.;.;.;.>.>.;.;.>.>.,.>.0 U >.B V >.U =.>.,.,.,.2.2.>.>.>.>.>.,.>.>.,.b ^.^.^.^.^.^.^.^.^.^.^.^.",
"^.^.^.^.^.^.^.^.n f m I m F R a F =.;.;.;.;.;.F N >.;.c U ,.>.W >.>.>.H 8 I ;.,.;.;.;.;.>.>.U A ^.^.^.^.^.^.^.^.^.^.^.^.",
"^.^.^.^.^.^.^.^.Z J W y.+.m E W m I >.W >.;.U 0 U >.>.x U >.>.,.>.>.x o . * R >.>.U B =.>.U n ^.^.^.^.^.^.^.^.^.^.^.^.^.",
"^.^.^.^.^.^.^.^.^.^.^.^.P E &.^.^.+.G G G x 0 U >.>.>.a U >.>.>.>.m O     + U >.v @ X 1 U I ^.^.^.^.^.^.^.^.^.^.^.^.^.^.",
"^.^.^.^.^.^.^.^.^.^.^.^.&.#.^.^.^.^.^.^.p.J U >.>.>.;.8 U =.>.>.>.J l . o - R v X     $ N W ^.^.^.^.^.^.^.^.^.^.^.^.^.^.",
"^.^.^.^.^.^.^.^.^.^.^.^.^.^.^.^.^.^.^.^.^.K W >.U B B 5 c B B U =.L ~.K.o.K U n # X O x >.D ^.^.^.^.^.^.^.^.^.^.^.^.^.^.",
"^.^.^.^.^.^.^.^.^.^.^.^.^.^.^.^.^.^.^.^.^.I >.4.;.>.;.b 9 b c c c 8 y.J.L K m #.K.G v >.>.I i.&.j +.e.^.^.^.^.^.^.^.^.^.",
"^.^.^.^.^.^.^.^.^.^.^.^.^.^.^.^.^.^.^.^.+.W ,.2.>.>.>.U 5 B a F H 4 8 5.7 + 2 f f f b I c j U m G f j y.^.^.^.^.^.^.^.^.",
"^.^.^.^.^.^.^.^.^.^.^.^.^.^.^.^.^.^.^.t.I 2.,.>.>.;.U >.;.1 0 ; g I q.j.V.7 K j 4 x 9 6 c B G B b G 7.^.^.^.^.^.^.^.^.^.",
"^.^.^.^.^.^.^.^.^.^.^.^.^.^.^.^.^.^.^.n W >.>.>.;.U Y a.j.s.c 5 q.f.W q.g.r.I ; 4 4 N =.;.R >.m i.^.^.^.^.^.^.^.^.^.^.^.",
"^.^.^.^.^.^.^.^.^.^.^.^.^.^.^.^.^.^.L I ;.;.>.>.>.>.>.d.j.j.a.U U 5.4.B c B B U ;.=.H v m O.W G ^.^.^.^.^.^.^.^.^.^.^.^.",
"^.^.^.^.^.^.!.^.^.^.^.^.^.^.^.^.^.#.K >.;.W >.,.>.>.5.j.j.j.j.j.a.I 5.W I >.2.>.2.=.H O.^.Q.E.J ^.^.^.^.^.^.^.^.^.^.^.^.",
"^.^.^.^.^.^.^.^.^.p.^.^.^.^.^.^.^.n W >.>.>.>.>.>.>.a.j.j.j.j.j.s.w.j.$.^.o.R T o.o.^.^.^.^.^.^.^.^.^.^.^.^.^.^.^.^.^.^.",
"^.^.^.^.^.^.^.^.^.^.*.&.^.^.^.^.r I ;.>.;.>.>.;.>.,.d.j.j.j.j.j.w.d.f.#.^.^.p.B.^.^.^.^.^.^.^.^.^.^.^.^.^.^.^.^.^.^.^.^.",
"^.^.^.^.^.^.^.^.^.^.^.*.l t.^.P n ;.;.;.;.;.>.>.;.6.j.j.j.j.j.j.q.j.O.^.^.^.^.^.^.^.^.^.^.^.^.^.^.^.^.^.^.^.^.^.^.^.^.^.",
"^.^.^.^.^.^.^.^.^.^.^.^.^.L l 3 R =.>.>.;.;.;.;.,.d.j.j.j.j.j.0.j.g.O.^.^.^.^.^.^.^.^.^.^.^.^.^.^.^.^.^.^.^.^.^.^.^.^.^.",
"^.^.^.^.^.^.^.^.^.^.^.^.^.^.u.f >.>.>.>.>.>.>.=.q.j.j.j.j.j.g.s.m.y.^.^.^.^.^.^.^.^.^.^.^.^.^.^.^.^.^.^.^.^.^.^.^.^.^.^.",
"^.^.^.^.^.^.^.^.^.^.^.^.^.^.^.n >.>.>.>.>.>.;.c d.j.j.j.j.j.j.j.f.i.^.^.^.^.^.^.^.^.^.^.^.^.^.^.^.^.^.^.^.^.^.^.^.^.^.^.",
"^.^.^.^.^.^.^.^.^.^.^.^.^.^.+.m >.>.W >.>.>.F D j.j.j.j.j.j.j.j.W I K K ^.^.^.^.^.^.^.^.^.^.^.^.^.^.^.^.^.^.^.^.^.^.^.^.",
"^.^.^.^.^.^.^.^.^.^.^.^.^.^.P G >.;.>.>.>.W b W j.j.j.j.j.j.j.f.M ;.W I P ^.^.^.^.^.^.^.^.^.^.^.^.^.^.^.^.^.^.^.^.^.^.^.",
"^.^.^.^.^.^.^.^.^.^.^.^.^.^.L G W ;.>.>.>.>.a 6.j.j.j.j.j.j.a.c D ;.;.;.K ^.^.^.^.^.^.^.^.^.^.^.^.^.^.^.^.^.^.^.^.^.^.^.",
"^.^.^.^.^.^.^.^.^.^.^.^.^.^.%.G ;.=.;.>.>.>.6 w.j.j.j.j.j.g.v B ;.;.;.;.I ^.^.^.^.^.^.^.^.^.^.^.^.^.^.^.^.^.^.^.^.^.^.^.",
"^.^.^.^.^.^.^.^.^.^.^.^.^.^.l K ;.;.;.=.;.;.6 j.j.j.g.f.4.6 b ;.>.;.,.W #.^.^.^.^.^.^.^.^.^.^.^.^.^.^.^.^.^.^.^.^.^.^.^.",
"^.^.^.^.^.^.^.^.^.^.^.^.^.^.J K W ;.;.;.>.U b j.y.8.8.E j H U ;.;.;.;.m ^.^.^.^.^.^.^.^.^.^.^.^.^.^.^.^.^.^.^.^.^.^.^.^.",
"^.^.^.^.^.^.^.^.^.^.^.^.^.^.J K ;.=.;.;.>.x A p.^.^.^.&.J W -.=.=.I >.A.^.^.^.^.^.^.^.^.^.^.^.^.^.^.^.^.^.^.^.^.^.^.^.^.",
"^.^.^.^.^.^.^.^.^.^.^.^.^.^.t.L Y ;.;.=.F Z ^.^.^.^.^.^.&.G ;.U B 0 R C.^.^.^.^.^.^.^.^.^.^.^.^.^.^.^.^.^.^.^.^.^.^.^.^.",
"^.^.^.^.^.^.^.^.^.^.^.^.^.^.e.I Y =.=.Y K p.^.^.^.^.^.^.^.+.K >.;.Y D k ^.^.^.^.^.^.^.^.^.^.^.^.^.^.^.^.^.^.^.^.^.^.^.^.",
"^.^.^.^.^.^.^.^.^.^.^.^.^.^.#.I U W V G ^.^.^.^.^.^.^.^.^.^.+.I W c F 7 ^.^.^.^.^.^.^.^.^.^.^.^.^.^.^.^.^.^.^.^.^.^.^.^.",
"G.G.G.H.F.G.G.G.G.G.G.G.S.&.J T U v A P.Y.G.G.G.G.G.G.G.I.I.I.K b b x 7 D.L.I.I.I.I.G.G.G.G.G.G.G.G.I.I.I.G.N.m.m.M.M.m.",
"X.x.l.x...X.l.x.l.x.z.c.S j I W b t 1.n.c.c.c.c.c.x.c.z.c.x.c.x.i r i _ x.x.x.c.c.x.c.x.x.x.x.x.x.x.k.X...k. .....k.....",
"] | {  . .) ] ..[ [ | _ 4 Y =.F 1 z.c.x.k.x.z.{ k.k.z.[  .x.z.z.x.x.x.c...' { { { ..k.{  . .k.x.k...{ { [ { { { ..{ [ ~ ",
"_ ] { { ] ( / z / / ! e a Y Y b m `  .....k.k.{ k.k.z.{ .. ...z.x.z.{ x...^ [ { { { { ' { ] ..{ l.] ~ ] ] { ' [ ] ' [ k.",
"| ] { ] _ Q } } / ! _ < S F Y s < ) y } [ { { { k.{ .. . . .z.z.[ [ { k.[ ' ^ ] [ { [ ' ] ] ] ] [ z / ] [ ^ ~ ^ { [ [ ' ",
"] ] ] ^ Q z Q | } Q } & U U F A - _ d ) ....|  ...[ [ [ ....{ { [ ] {  .[ [ ] ] ] ' ' ' ' [ ^ ^ ^ ) Q ! ^ ^ ! ~ ' ' ' ^ ",
"Q Q ~ ~ z Q Q / Q Q k - D a F b % d z ) ' _ ~ ' ' ^ ^ ' ^ ' ^ ^ ^ ' ^ d d ~ ~ ' ' ~ ~ ~ u d p d Q ! p d p p ! d ^ d ! d ",
"d ! ) ) ! Q / Q Q / u % v 1 A , % C / ~ ' ^ ) ^ ^ ' ^ ' ' ' ^ ' ^ ' ^ ! ~ ~ ' ' ~ ' ~ d u d d d ! d d ~ d ! ! d d d d ~ ",
"Q _ ^ ^ Q ) Q Q Q / / z t < e w ! _ ~ _ ^ ~ _ ^ ' ' ^ ' ' ^ ' ' ' ' ~ ' ' ' ' ^ ~ ~ ~ d ~ d d d d d ^ ^ ' ^ ~ d ~ ~ ' ' ",
") ^ ^ ^ ) ^ ~ ~ ! ) ) }  .) ^ ^ ^ ) ~ ~ ^ ^ ^ ' ^ ^ ' ' ' ^ ' ] ^ ^ ! ' ^ ^ ' ^ ~ ~ ^ ^ ' ^ ~ ~ d d ~ ' ' ' ~ d ' ' ~ ' ",
"^ ^ ~ ~ Q ^ ' ) ^ ) ) } ) Q ) ~ / ) ~ ~ ^ ' ' _ ' ^ ^ ' ! ^ ' ' ' ^ ~ d ~ p p ! ^ d ~ ' ' ^ ^ ' ' ~ ~ ' ' ' ^ d ' ' ^ ' "
};
