/* XPM */
static char *result[] = {
/* columns rows colors chars-per-pixel */
"60 70 246 2 ",
"   c #1E1D1C",
".  c #231F1C",
"X  c #2D231E",
"o  c #25211E",
"O  c #32241E",
"+  c #3B261E",
"@  c #2C2623",
"#  c #352A24",
"$  c #3C2C24",
"%  c #3B2F28",
"&  c #332822",
"*  c #3D322B",
"=  c #37322D",
"-  c #3F3633",
";  c #46271E",
":  c #54281C",
">  c #642A1D",
",  c #732C1C",
"<  c #432C23",
"1  c #4B2E23",
"2  c #402720",
"3  c #542E22",
"4  c #5B2E22",
"5  c #443126",
"6  c #4C3126",
"7  c #44332B",
"8  c #4B352B",
"9  c #4C392E",
"0  c #543225",
"q  c #5C3426",
"w  c #53352A",
"e  c #5B362A",
"r  c #543A2D",
"t  c #5C3A2C",
"y  c #573827",
"u  c #4C3B32",
"i  c #443832",
"p  c #533C32",
"a  c #5C3D31",
"s  c #672F22",
"d  c #633425",
"f  c #6B3425",
"g  c #653629",
"h  c #643B2C",
"j  c #6B3C2B",
"k  c #693926",
"l  c #743525",
"z  c #793524",
"x  c #743926",
"c  c #743C2B",
"v  c #7C3C2A",
"b  c #793A26",
"n  c #633E31",
"m  c #6C3F31",
"M  c #723F31",
"N  c #5C4135",
"B  c #5D453A",
"V  c #554339",
"C  c #4A403A",
"Z  c #6C412E",
"A  c #66412F",
"S  c #75422E",
"D  c #7C422E",
"F  c #644233",
"G  c #6C4333",
"H  c #644639",
"J  c #6B4639",
"K  c #64493C",
"L  c #6C4A3B",
"P  c #6B4835",
"I  c #734533",
"U  c #7B4532",
"Y  c #744936",
"T  c #7C4A35",
"R  c #744C3B",
"E  c #7B4C3B",
"W  c #724739",
"Q  c #7C513E",
"!  c #76503E",
"~  c #6F503D",
"^  c #5C4B42",
"/  c #4D4540",
"(  c #654D42",
")  c #6C4E41",
"_  c #754F41",
"`  c #6D5244",
"'  c #695348",
"]  c #745343",
"[  c #7C5444",
"{  c #745649",
"}  c #7C5B4C",
"|  c #77584A",
" . c #785D51",
".. c #6E5C54",
"X. c #7E6457",
"o. c #843B26",
"O. c #823E2B",
"+. c #8A3E2A",
"@. c #893925",
"#. c #953E26",
"$. c #A23E22",
"%. c #9C3D1F",
"&. c #84432C",
"*. c #8B432D",
"=. c #8D482E",
"-. c #93442C",
";. c #9B442A",
":. c #9B492E",
">. c #97452B",
",. c #834531",
"<. c #8B4631",
"1. c #844A35",
"2. c #8B4B35",
"3. c #834D3A",
"4. c #8B4D39",
"5. c #924631",
"6. c #944C33",
"7. c #9B4D33",
"8. c #944F39",
"9. c #9C4F39",
"0. c #9A4731",
"q. c #83513D",
"w. c #8C523C",
"e. c #8D5338",
"r. c #9C5136",
"t. c #93533B",
"y. c #9B543B",
"u. c #9D593D",
"i. c #95573B",
"p. c #A34A2D",
"a. c #A44628",
"s. c #B74A24",
"d. c #A34D32",
"f. c #AA4F33",
"g. c #A45135",
"h. c #AB5334",
"j. c #A3553B",
"k. c #AB563A",
"l. c #A4593E",
"z. c #AB5A3D",
"x. c #B35C3D",
"c. c #B65938",
"v. c #B9522B",
"b. c #B8613C",
"n. c #C35529",
"m. c #C5663F",
"M. c #835543",
"N. c #8C5542",
"B. c #855945",
"V. c #8C5A45",
"C. c #835B4B",
"Z. c #8C5D4B",
"A. c #935542",
"S. c #9B5641",
"D. c #945B43",
"F. c #9C5B43",
"G. c #935C49",
"H. c #9B5E4A",
"J. c #845E50",
"K. c #8B594B",
"L. c #A35C43",
"P. c #AB5D42",
"I. c #A35E4A",
"U. c #A35740",
"Y. c #B25E43",
"T. c #8A624D",
"R. c #94624C",
"E. c #9C634C",
"W. c #9D6448",
"Q. c #846253",
"!. c #8C6553",
"~. c #89685B",
"^. c #926452",
"/. c #9B6552",
"(. c #9B6B54",
"). c #936C5B",
"_. c #9C6C59",
"`. c #956A57",
"'. c #9D725B",
"]. c #96705C",
"[. c #A36146",
"{. c #AB6245",
"}. c #A4634B",
"|. c #AB654B",
" X c #AC694E",
".X c #A46B4F",
"XX c #B36244",
"oX c #BB6444",
"OX c #B3654A",
"+X c #B3694C",
"@X c #BB6B4C",
"#X c #BB6649",
"$X c #A26651",
"%X c #A46B53",
"&X c #AB6B53",
"*X c #AB6E5A",
"=X c #A76A56",
"-X c #B46D54",
";X c #BA6E51",
":X c #B16F5A",
">X c #AC735C",
",X c #A4745C",
"<X c #B57254",
"1X c #BB7154",
"2X c #B4725B",
"3X c #BA755A",
"4X c #B87A5D",
"5X c #877167",
"6X c #997766",
"7X c #8E6E63",
"8X c #A37562",
"9X c #AB7564",
"0X c #AE7A63",
"qX c #AC7C6A",
"wX c #A47A68",
"eX c #B37B65",
"rX c #BB7B63",
"tX c #B67B66",
"yX c #A27F70",
"uX c #C37455",
"iX c #C37A5C",
"pX c #C5795B",
"aX c #C06B48",
"sX c #C27D63",
"dX c #C77E63",
"fX c #9D877E",
"gX c #AD826B",
"hX c #BB836C",
"jX c #B68268",
"kX c #AA8777",
"lX c #B98875",
"zX c #BB907C",
"xX c #C2836A",
"cX c #C98668",
"vX c #C48C74",
"bX c #C38E7A",
"nX c #CB8C72",
"mX c #C99379",
"MX c #CF8C6A",
"NX c #C5875F",
"BX c #B99485",
"VX c #AF968C",
"CX c #9F8A81",
"ZX c #C89884",
"AX c #D0A997",
"SX c #CDB3A8",
/* pixels */
"d 0 d d f U c v ) ,.v U T &.1.t j G j W I F 6 c c S D S d ~ T S D =.<.F Z j x x c c e h m G W E J 9 h m M W M m 3 w n a ",
"Z ].( < g h & J [ i 1 j S 7 Q.6Xu I B.w.t Q Z.5 ] { B u | } C 9 P F < w.I % N _ w 8 M n % J n 7 u { u # < 7 X * B C & * ",
"<. XL.U k.9.0 &.t.q.k k.l.G >X*XB.@XuXpXq.z.OXW rXjX>X} T.T.` u.@Xu.I @XY.W P.3X X1.Y.Y.G 2.<.U Z.lXT.u O.M.M p M.W n W ",
"O.6.<.v d.<.6 :.9.4.c d.j.G y.6.W <XMXcXq.r.u.E }.rXjXC.W.R.` r.b.F.Q pXY.U P.x.|.A.aXY.I v 5.U [ gXR.N O.A.O.e M W J A.",
"+.6.c g <.N.r *.*.S x -.:.S 6.t.! i.OX+XG 2.i.W 8.W.9X] R.R.` g.y.G.R I.&XF 8.i.S.3.#X@XI Y 4.4.R /.$XH 8.8.5.0 E M e N.",
"7 < T R _ C.6XB 9 [ _ | } X.i 6 } H G 7XC.u %X%X).J.!.`.N ~ wXkXkXBX6X( ` a a n K J $ u p B ( ' B @ 5 u a 9 < 7 @ i u / ",
"m 0 9.U.g.oXXX}.T [.u.i.F.$XI U -X|.S.rX4XY cXmXrXI.:X<Xq.y.I.-XsXsXrX} /.I.A.A. X9XB (.*X9X*XtXH.% 3.N.Z._.*XG.H /.=XH.",
"m g 8.g.d.h.h.S.1.-X|.|. XL.U w.-X+X+X-X4XE cXmXvXsXcXxXq.t.7.r.z.-XY.{ 2X-X&X-X|.&Xp =X*XrX3XrX=X8 4.4.G.A.A.1.n A.U.K.",
"n h &.&.&.o.&.U m e.i.i.i.l.E 1.|.{.{.{. XR D.W..X=X*X}.! 8.&.6.i.[.U.L /.I.*X*X&X_ 8 }.&X}.I.I.I.2 N.A.A.O.<.v g _ _ W ",
"L ] 5 8 G V 5 { | 7 S 3.q.r C.B.N ~ '.!.P `.T.N G R J a ` R J 6 m J r !.C.) a ] ) p [ G F L C.H 7 ( 1 2 1 u 8 2 1 2 $ < ",
",.6.G u.#X1XZ $XS.W t.|.3XR 1X2XB.<XmXjXN.1X;XA.y.OXj.1.tXxXR.q.+X@XE rX-XK.^.sX4X[ z.:.<.U.3X/._ I.A.a M.A.S.M 5.@.g W ",
"z v Z {.oX@Xa z.F.3.|.;XMXi.;X4XM.1XMXnXq.1XoXw.u.+X+XM.3XxX>Xw.iXxX[ |.sXN./.nXnXM.g.h.-.P.;XlXW I.S.W =X|.Y.M 9.U.,.A.",
"O.,.m P.@X+XG l.|.q..X{.#X=.{.l.W +X1X1XQ P.l.q.[.W.[.E {.2XeXZ.|. XL F.U.3.t.|.jXE p.:.<.i.{.F.W I.H.W S.H.U.v 9.2.,.4.",
". . 7 u 7 p ' % 8 ' V i % % O X * 7 8 B V & X 7 u % X . 2 6 9 7 + + # O o % % # + O O + % * $ < < e 8 & $ O X . $ 2 @ 7 ",
"N.a _.:XuXcXZXhXQ.hXmX4XhX4XM.| 9XhXnX2X&X[ G.&X2X&X X$XG !.tXlX(.0XlX .qXtXeX&X$X8X] /.lXZX0X'.yXH ~.9X9X=X$XM.5 a /.E ",
"H.a $XOXb.uX;X1X3.{.|.l.u.W.w.w.-X3XiX+X[.q.[.u.y.y.y.S.I /.-XrX*X<XrXZ.rX:X{.E. XrXB..X-XhX X1XdX^.K.S.$XG.U.S.e L lXH.",
"H.w I.|.L.P.Y.OXU c.r.r.z.{.e.Q XXoX+X@XXX3.F.y.5.6.y.S.E i.L.|.P. X+XM.3X3X-X:X-X-XG.t.OXjXrXz.uXA.G.8.F.G.F.S.a G 6XBX",
"J p $ 5 2 < 0 c 6 0 6 8 A Y Y P S Z y h Y Q ! 0 e 0 6 R G w 0 h G j I F 3.2.1.t.t.<.G d S I Y D 4.W n h G Z L F 5 5 G R ",
"U.=XK.A.2.I 9 !.].N '.jX} >XjX>Xt [.E.p T.zX4XF P.-X) /.hX[.9 S.W.R G./.B.p t.C.N G !.M.F w.R.R.).tX/.p ` [ G 9 K.E r W ",
"+.P.G.|.j.T /.iXb.q.gXAXgX[.3X4XZ b.oXQ '.NXMXw.uXiXM.2XpXpXJ OXOXt.l.l.j.T pXcX}.I.xXiXN.{.+Xi.^.MXsXE 8X0X0Xh 8.2.g G.",
"-.y.V.P.9.N.U.oXp.Y 4XjXT.z.OXnXZ b.b.T jXNXMXR.pX;XC.L.-X+XB.@XOXi.P.k.d.w.nXdXE.|.sXdXM.{.|.y./.dXiXq.6XzXhXm y.,.h 8.",
"2 g X.[ h r + : : + + ; 5 k =.i.6 x &.T.A y Y 6 W U a 8 e g H M.4.T S v v n W.=XN.V.I.|.R q.L.W.n S.y.F L Q G.t I e 2 j ",
"p bXAXZXbXvXkX- ' 5X~.X.].].p  .zX,XjXSXzX| '.zXbXvXbXlX .kXlXBXkXZXwXH H `.).X.5X6X[ < ~.kXgXkXyX] u } `  .5XCXCXu M _ ",
"a ;X4X1X;X1X2XK AXmXmXAXmXcX[ jXMXNXcXmX<X!  XNX:X;XrX:XC.9XtXxX:X|.i.E T -XdXrX2XmXnX9 %X2XqX2X&X-X[ >X%XW.6X9X9XJ -.6.",
"w -X1XXXoX@X4XR &XvXNXhX1XXXZ (.nXiXoX4X1X_ |.[.|.L.:X-XE S.L.P.U.Y.OXT T P.P.P.OXXX@XK L.u.&X:X&XL.R U.U.y.I.*X*Xn -.-.",
"7 G I Y 3.e.(.F U Y Y G k b 6 q.R.T D k S N N.T U &.G.w.n M ,.8.8.0.6.I q <.6.+.7.d.l.~ e.y.i.}.u.r.A 2.<.<.w.Z.B.w v v ",
"eX4.r I Y p ' ].Q.V ~ } ' B 5X~.i Z.R.! 7 6X5XN N q.A.h Z.M.p 7 M c 9 _ { K 5 J W a ^.kX8X(.>X0X].B | ' 9 9 w & p ] p @ ",
"OX|.v 7.l.W.'.mX4X].NXcX&X[.+X X} @XuXiXQ 4XmXW.1.P.{.1.z.#XY.v U.S.W d.9. XM g.x._.OXnXdXR.uXMXxX`.*X%XE H.-Xj 4.y.y.w ",
"|.;XU ;.d.A.W.jXNXT.cX4X|.W.{.}.B.XXpXcXV.i.1Xu.A.Y.@Xq.h.h.x.m U.2.E d.0.Y.,.d.d.4.P.Y.;XH.dXdXsX].rX*X3.:X-X<.<.j.U.8 ",
"3.4.h o.&.q.B.T.4XM. XP.}.i.i.W.} 3.w.T .X1.2.i.W.u.z.3.r.g.z.G N.R.m f.d.h.1.d.d.c 0.j.{.M.OX X%X[ -X XM.S.P.<.1.j.j.w ",
"u _ ).C.B.wX6Xr Q.6X'.'.BXCX` fXVX,XkXBXSX..V zXgX,X,XwX` B ~.CXCXVX5XB 9 J.X.' | ..B p J.X.( B 9 < % p u 5 5 u % < J ^ ",
"L d.|.U.g.+X>X{ hXMXMXjXZXrX} 4XvX[.<X2XhXT.[ ;XiXuXNXcX&X>XgXZXBXZXZXlX_ :XtX=XI.I.$XJ rXsXuXcX3X=XG F.I.I.H.=XG.J 3XqX",
"J ;.-.5.g.g.[.P iXiX4X1X+X@X] W.U.OXP.P.<X).e.XXb.b.@XuX}.=X*X:XU.U.U.F.W U.H.F.9.0.U.L P.OXz.Y.oX+XG 9.8.S.8.S.S.m j.8.",
"J 5.-.*.:.g.[.~ 1X+X+X+Xz.{.R D.l.t.y.<.u.(.I j =.7.c.z.F.8XeXI.U.d.0.8.m 9.g.y.9.5.1.F j.z.c.k.x.+Xn 9.8.9.A.U.A.m j.<.",
"Q.E h a h ~ Y '.hX,X^.Q } w.T.~ N R ] 9 7 6X).u C ].qXG ) !.) h e 3 1 e H 0 1 8 6 2 # 7 < 3 e f k m 8 j q w 0 e n a 0 X ",
";.;.D j.U.[.r.m.b. Xc.b.&Xe.z.|.D.}.S.G.C.rXcX0XzXZXZXG.#XY.U.E *X=Xa BXVX~.H A.y.H S.S.y.H S.z.W H.=XN.5 2.3.0 !.lXH.9 ",
"#.#.c d.P.|.>.v.n.l.m.m.XX6.p.z.R.{.t.i.e.z.P.G.l.U.>XT p.$.9.<.9.f.n >XtX8XM d.h.N.;.p.j.W +.p.I h.k.9.d >.f.j 4.P.S.w ",
"a.s.c ,.S T ;.v.c.l.oXb.|.6.h.k.D.<Xt.A.e.h.h.Y r.i.{.E a.$.0.<.7.h.m *XtX*XM d.0.T ;.:.j.M d.f.c d.d.9.e ;.p.j <.U.S.r ",
"U Y _ p r H R.i.W.R.I U E N w h H H {  .| h q } E E Z.J.M.f W R w.w.' ^.C._ t c c L M h J H 2.,.t g v &.w <.-.h m 1.1.$ ",
"h j.j.l.h.7.XXQ N.j.oXuXuX&X{ 3.-X3XxXbXbX^.* =XH.}.:XH.^.@ =XlXlXgXqXR.$ K.I.9.A.I.S.a H.I.G.K.^.J.* B ~./.V.Z.[ 8  .V.",
"8 *.d.g.-.k.g.t G.P.P.#XoXj.J U z.+XL.:X<X$XB &XU.9.L.&X/.$ L.I.-XP.;X{.% d.j.OXh.d.y.m S.A.4.A.H.I.a j O.+.+.5.<.m F.l.",
"% *.:.d.d.-.-.y i.r.d.h.h.h.J v 7.l.7.L.l.E.G 1X9.<.5.5.3.7 L.U.g.7.Y.{.7 P.g.U.f.d.5.n U.9.A.S.U.H.p M +.v v O.+.W 4.<.",
"8 e y h S h 6 ~ h w 0 g d d { _ I Z D 1.1.M.} j q 4 q d g ..h e d c S d p I c j c U U J U E U 3.2.K.u m v M v *.2.M.M M ",
"h.g.U 6.z. X! &X+XR.Q i.F.n P.OX|.Y y.y.G ^.tXF.8 2.y.I H qXA.8 y.#XOX<.|.j.Y }.*XR R ZX^.w _ M 8 u ).[ 7 a F J _ qX_.$ ",
";.d.D =.g.u.Z l.u.D.U o.z.m f.P.OXk 7.6.j e.k.z.h -.k.<.M y.P.h j.#X@X*.f.c.*.k.L.M.e.(.>XY +.d.v V.+Xk.I Y.h.<.,.Y.z.q ",
";.p.S =.:.r.G l.j.R.S +.:.n p.k.z.D d.:.c 1.l.h.h 5.h.<.j 6.j.S k.XXXX*.h.c.&.g.y.3.Q ` `.W @.:.O.I.XXz.c 7.g.8.M d.f.0 ",
"4 4 0 5 1 0 N h t G t g f 8 c v 1.h j g 8 S S *.g S <.E G D U t D ,.q.0 x x e h c h u Y P y &.*.j w.g.r.c 7.U.8.n O.1.1 ",
"e.5 S U U (.[.1.F /.}.H.H.(.3.p ~.9XV.'.8X(.L `.6X`.'.gXqXT.R.W.Y n Y L 7 !.8XwX6X7X) * B Q.Q.} } a 5 9 C ( (  .' u K { ",
"z.a +.*.-.-XP.{.E r.y. X Xl.l.1.S.S.t.y.U.F.[ {.&X-XF.&X-Xi.h.c.n.n.s.s.A 1XmXmXlXtX{.G 1.i.y.2X[.y.[ tX,XB N (..XT.[.=.",
"y.A >.:.r.+X{.[.R g.d.{.|.g.z.U y.6.j.*.g.y.W t.{.y.6.6.F.S f.s.s.n.n.s.k <X>X4X|.L.{.n }.F.S.|.F.S.W }.>XT T W.t.Y 6.7.",
"I H q q S U S q.Q T <.1.e.=.7.S 7.=.@.&.6.r.t <.6.r.=.6..Xj a.;.$.a.%.$.3 u.u.l.P.g.-Xa OXP.y.L.t.y.W [.u.i.i.u.W.F 2.v ",
"-.&X{.I 2.,.w 3.2XE.5 2.F.Z h Q k w { { V F E G w w r % t [ R t A P j k j 5 8 Q R w ) !.a r A P r w p n t t A < r 9 X o ",
";.p.j.1.<.<.h -.h.h.t 7.P.e.v h.2.h i.u.E 1.6.9.j -.=.S p.x.x.2.y. XA.z.h.r.S z.g.3.P.2X<X1.e.[.B.3.eX,XY 8.8.w E V.Y V ",
"#.-.5.U t.y.y +.-.:.q &.y.W.*.%.*.k i.e.Y D *.-.h y.6.D a.h.h.S +.&.U 7.:.7.D l.@Xt.=.oXz.e.y. Xw.i.x.{.2.:.+.e v t.t.h ",
"f v c 3 g c $ 4 > k w x &.q.j > 4 Z 2.e.A j +.&.6 &.&.c -.-.;.D &.&.S :.6.6.Z =.>.1.U h.l.j e.[.V.6.h.k.c *.&.d v &.D t ",
"G q j m 8 $ J G } ).T.H + ] R.3.R F 5 y Q ! W _ a w % 8 7 $ $ 5 y 8 8 8 r N N O O X ; 6 t 6 y t r < y c < k j y 0 d d $ ",
"+.#.5.@.z 1 8.i.i.W.[.e.K $X@X;Xh.*.@.f z.9.<.8.2.r.Y W.jXjXjXjXgXR.tXbXmXbXeXN D.D.~ ! (.,X* ~ C.'.).B.K & V `.T.C.} ( ",
"@.@.#.@.z e <.3.e.i.F.l.Y r.#.z.d.-.#.4 9.S.H.N.,.=.A R..XW.u..XL.h e.i.}.}.N.y =.:.-.&.7.a.h :.:.7.:.=.0.6 5.t.G.q.A.H.",
"s l o.*.z h *.*.D e.e.OXg #.@.o.-.z , 1 S.V.G.W.w.e.N .Xu.i.i.W.l.t *.r.z.l.L.A -.d.;.*.:.-.A :.r.6.r.r.>.0 *.t.S.I.D.L.",
"# w r 5 w 3.a < Z I t 8 L F 0 [ V.T h a t $ t t w 8 ~ N N A q.Q h N T D e.U Z J G h : 2 ; < r S D x b D b w x 1.1.U w.U ",
"3 c c I h j.F.j ;.7.*.R.*XXXq.<X{.[.e.r.y.y *.r.&.F >XW.P 1.[.{.~ '.[.w w.Q N D..X%XN } 7X .W 1.Q N Q ! w 8 3 : $ w 6 < ",
"w f l j f *.8.m -.-.&.R.L.g.1.l.k.6.<.r.r.d >.:.:.t <XA.I 6.:.r.B D.6.q &.2.D t.z.[.S 8XqX^.-.#.h.S |.[.h *.a.#.j ,.2.c ",
"< 4 s q 3 f c w *.-.D q.[.7.S e.r.r.S =.:.h *.=.r.q 7.r.d e.r.r.P w.2.0 @.o.S S y.j.j v +.M 7.f.h.S 6.r.S #.a.#.k v z d ",
"9 # $ $ * * X * # X X X O + O X X O X o X X + X + O < < + y A d % * y ; c S h 0 j S e d d 3 1.r.=.k D D q > > > ; ; : ; ",
"c M U O.c v n E H.L.A.K.[ N {  .!.qX_.^.% B ! } R.T.[ N ~ F N { K B * B ~ V ' B ^ * * = - / C = X # # O * & # # @ o   # ",
"4 s z O.l v 4 l 1.<.<.<.+.I 4.i.4.7.A.9.G W.[.l.&.6.u.P u.l.z.r.g.:.A r.6.u.|.<X0X| w.}.W.0X,X>X9 6.g.l.[.i.y.p 4.N./.tX",
"4 f l z f z 0 v 8.4.<.+.+.j 4.t.4.j.8.L.Y OX;X|.{.{.z.Y r.p.g.p.;.;.Z 6.*.&.*.y.}.F T e.e.e.1.6.5 *.;.p.@.@.-.< z z c c ",
"% $ 0 1 $ 1 9 w 0 6 r d j I 1.j I I R G G i.e.<.U 2.i.P D D &.&.b x 0 D &.&.*.&.e.r 1.e.e.i.&.S 5 x z @.@.o.z ; f , f s ",
"N.j <.8.M O.,.M 6 m I ` J C.F $ 2 1 < 9 | G 8 9 i 7 N P y y y 8 * # C 7 + V N 9 & 9 5 5 6 y 6 < # % $ ; ; ; X X $ + + + ",
"g c +.-.d f l v 0 D <.R.,.W.w.m 5.<.<.I e.i.I 4.i.W.Z k.k.1.{.W.q.3..XW.B wX,XB.G R.w.r h P N B zXwXW 2 < : < G h 8 < a "
};
