/* XPM */
static char *result[] = {
/* columns rows colors chars-per-pixel */
"60 70 256 2 ",
"   c #0B3708",
".  c #15390B",
"X  c #183913",
"o  c #0C2B0A",
"O  c #0A1B0B",
"+  c #0C4305",
"@  c #0E490A",
"#  c #174808",
"$  c #1C5405",
"%  c #1E540C",
"&  c #1C5B0B",
"*  c #165908",
"=  c #194813",
"-  c #1B5712",
";  c #0F5408",
":  c #234A09",
">  c #23530B",
",  c #265A09",
"<  c #355B08",
"1  c #285815",
"2  c #345B16",
"3  c #294914",
"4  c #1B670A",
"5  c #1D780B",
"6  c #1C6511",
"7  c #0F600C",
"8  c #24640B",
"9  c #2B640B",
"0  c #246D0C",
"q  c #2C6C0B",
"w  c #276806",
"e  c #346C0C",
"r  c #3C6C0C",
"t  c #356609",
"y  c #2C7C04",
"u  c #25740C",
"i  c #2C740B",
"p  c #2B7B0C",
"a  c #257708",
"s  c #337C05",
"d  c #33740B",
"f  c #3C750B",
"g  c #3C7C0B",
"h  c #357807",
"j  c #246414",
"k  c #2C6414",
"l  c #2C6C13",
"z  c #276A16",
"x  c #336B14",
"c  c #366817",
"v  c #237513",
"b  c #2B7413",
"n  c #2B7817",
"m  c #337314",
"M  c #3B7213",
"N  c #347B14",
"B  c #34741B",
"V  c #347C1B",
"C  c #3B7C1B",
"Z  c #3C7817",
"A  c #305523",
"S  c #3B7824",
"D  c #356C24",
"F  c #447C0B",
"G  c #47770A",
"H  c #436D18",
"J  c #447B13",
"K  c #487817",
"L  c #547C18",
"P  c #4B6D0B",
"I  c #436A27",
"U  c #487925",
"Y  c #557825",
"T  c #4C7833",
"R  c #4F7237",
"E  c #475F34",
"W  c #1D8A0A",
"Q  c #2B840C",
"!  c #288808",
"~  c #358404",
"^  c #3C8504",
"/  c #358B04",
"(  c #3B8C04",
")  c #33840C",
"_  c #3C840A",
"`  c #338C0C",
"'  c #3A8B0B",
"]  c #2D940B",
"[  c #2B9807",
"{  c #339404",
"}  c #3C9204",
"|  c #349C03",
" . c #3C9C04",
".. c #33920B",
"X. c #3B930C",
"o. c #3C9D0A",
"O. c #349B0A",
"+. c #2A8613",
"@. c #358313",
"#. c #3B8B12",
"$. c #3B831B",
"%. c #3B8C1C",
"&. c #368716",
"*. c #399715",
"=. c #2C9515",
"-. c #35A204",
";. c #3DA304",
":. c #3DAB04",
">. c #3BA50B",
",. c #3AA611",
"<. c #3C8524",
"1. c #3E9320",
"2. c #428406",
"3. c #448C04",
"4. c #4B8C04",
"5. c #438C0D",
"6. c #48860A",
"7. c #548C07",
"8. c #449404",
"9. c #4B9403",
"0. c #439C03",
"q. c #4C9C03",
"w. c #43940C",
"e. c #4B940C",
"r. c #439C0C",
"t. c #4C9C0B",
"y. c #529503",
"u. c #529C03",
"i. c #5B9D04",
"p. c #549B0B",
"a. c #5B9B0B",
"s. c #599308",
"d. c #438312",
"f. c #448B14",
"g. c #4B8D13",
"h. c #42831A",
"j. c #438B1D",
"k. c #4B8619",
"l. c #538C14",
"z. c #568818",
"x. c #4C941A",
"c. c #479817",
"v. c #549A13",
"b. c #5C9C1B",
"n. c #579717",
"m. c #659B09",
"M. c #638715",
"N. c #649C1C",
"B. c #669A19",
"V. c #769816",
"C. c #43A303",
"Z. c #4CA403",
"A. c #44AB04",
"S. c #4BAC03",
"D. c #4CA30A",
"F. c #44AB0B",
"G. c #4BAC0B",
"H. c #44A30B",
"J. c #53A403",
"K. c #5BA405",
"L. c #54AB03",
"P. c #5BAC03",
"I. c #54A40C",
"U. c #5BA30C",
"Y. c #55AC0B",
"T. c #5BAB0C",
"R. c #4CB304",
"E. c #4DB904",
"W. c #48B308",
"Q. c #53B403",
"!. c #5BB504",
"~. c #55BB04",
"^. c #5BBB04",
"/. c #54B30B",
"(. c #5BB40B",
"). c #5CBB0B",
"_. c #53BA09",
"`. c #47A515",
"'. c #54A314",
"]. c #5CA414",
"[. c #56AA14",
"{. c #5BAB13",
"}. c #54A41C",
"|. c #5DA31B",
" X c #59AB1B",
".X c #4BB713",
"XX c #5CB412",
"oX c #5AB716",
"OX c #62AC0B",
"+X c #66A508",
"@X c #72A80A",
"#X c #64B908",
"$X c #6BA414",
"%X c #64AB1C",
"&X c #66A718",
"*X c #72A81A",
"=X c #63BB14",
"-X c #63B31B",
";X c #66B818",
":X c #76B718",
">X c #73B60D",
",X c #488726",
"<X c #578926",
"1X c #499725",
"2X c #5B9423",
"3X c #579826",
"4X c #598834",
"5X c #579635",
"6X c #4E8B32",
"7X c #638726",
"8X c #669826",
"9X c #749927",
"0X c #638838",
"qX c #699836",
"wX c #759938",
"eX c #4DA522",
"rX c #58A625",
"tX c #5EB421",
"yX c #5EA231",
"uX c #63AB23",
"iX c #67A726",
"pX c #77A627",
"aX c #68B525",
"sX c #76B828",
"dX c #66A636",
"fX c #77A739",
"gX c #79B439",
"hX c #6DB834",
"jX c #5DC204",
"kX c #59C407",
"lX c #66C507",
"zX c #68C318",
"xX c #77C616",
"cX c #73CD0F",
"vX c #67C222",
"bX c #76C92B",
"nX c #5D8D45",
"mX c #70974C",
"MX c #6CA846",
"NX c #7BA547",
"BX c #76AB4F",
"VX c #85B815",
"CX c #86BA28",
"ZX c #85B938",
"AX c #86AA33",
"SX c #9BAB23",
"DX c #8ECD2D",
"FX c #A4CC35",
"GX c #93DC1E",
"HX c #8AB04E",
"JX c #93AD6B",
"KX c #899854",
"LX c #8ECA4C",
"PX c #AACD48",
"IX c #A6CC6F",
"UX c #D1D798",
/* pixels */
"8X8X8X8X8Xn.2XN.uXb.N.|.b.3X|.3XrXrXrXtXtXaX X X X X X[.'.[.`.`.I.D.D.Z.L.L.Y.L.L.J.J.J.J.J.u.u.q.u.q.9.3.9.9.3.3.^ 3.^ ",
"8XN.9XiXrX&XiXiXsX%X&X-X-XtXaX XuXoX;XaXzXaXvX;XoX;XoX/.(.)./.(.(.(.!.Q.Q.!.!.!.L.Q.!.OXP.P.P.P.P.P.P.J.u.J.q.u.u.u.y.9.",
"B.N.B.N.b.N.iX&X%X%X-X-X-X-X;XoXXX{.=XoXoX;X).).^.#X^.~.~.Q.R.E.^.~.Q.!.Q.!.Q.!.L.Q.#XP.L.L.P.P.P.P.J.u.q.J.q.u.q.u.u.9.",
"N.b.N.B.b.&XiX&X&X%XT.U.[. XXX[.{.T.=XXXXX#X).^.lX#X^.^.^.Q.L.Q.^.^.Q.!.^.Q.Q.L.Q.L.L.L.L.J.L.Z.J.J.J.u.u.u.u.y.y.y.u.y.",
"B.&XN.B.%Xb.&XaX&X{.I.I.[.{.XX[.Y.P.(.(.XX#X^.!.^.#X!.lX^.!.Q.L.^.Q.!.Q.^.~.!.Q.Q.L.L.J.L.S.J.Z.J.J.Z.0.u.9.u.u.y.y.y.9.",
"B.B.N.a.&X|.%XaX&X].T.U.T.-X(.=XXXS.G.S./.!.Q.Q.Q.S.S.!.Q.Q.Q.Q.^.R.Q.E.Q.Q.Q.Q.^.L.S.L.L.J.L.P.J.J.q.q.P.9.q.u.9.y.y.4.",
"B.m.B.B.].].].].I.J.T.Y.T.XX(.zX=X(.Q._.R.Z.S.S.R.C.C.S.C.Z.Q.S.L.Z.Z.A.R.!.S.S.L.Q.S.!.!.Z.J.L.0.q.q.8.K.8.u.q.9.9.3.g ",
"*X$X$X&Xa.].p.u.q.q.Z.Y.Z.L.(.=X=X(.(.(.R.S.R.R.Q.A.A.Z.0. .A.C.R.S.C.;.Z.^.S.C.C.Q.S.!.C. .C.Z.Z.0.q.8.q.8.q.q.8.3.^ s ",
"m.+X+Xm.a.OXp.u.9.9.J.U.q.Z.T.).^.^.Q.!.~.lXjX~.Q.Q.S.Z.A.S.A.~.S.S.C.Z.;.R.;.C.;.Q.C.C.{ | 0.C.L.q.Z.0.8.8.8.u.9.9.4.3.",
"$Xm.+Xi.9.a.J.u.9.i.K.OXT.Q.;X!.~.Q.S.^.^.).lX^.lX~.^.R.Q.Q.Q.jXQ.R.S.Q.S.;.;.C.;.:.| ;.[ { } } L.0.Z.8.} 8.8.8.8.u.y.4.",
"m.@Xm.$Xu.+Xi.q.K.+XP.P.P.L.#X!.Q.S.S.!.lX!.jX!.lXlX^.jXjXjX~.~.Q.^.E.Q.^.~.R.:.A.:.-.A.;.{  . .Z.S.S.0.0.( 8.q.( u.y.3.",
"m.@Xm.*Xi.+Xi.9.T.+XJ.P.J.P.Y.!.L.L.S.lX#X!.~.R.^.jX^.~.lX~.~.^.jX^.~.Q.jXkXjXR.S.:.-.S.Z.C.C.C.0.L.0.0.C.} ( 8.( q.i.3.",
"s.m.m.+X+X+Xi.J.K.@X+XP.#XL.J.!.Q.Q.Q.lX^.^.Q.E.Q.Q.!.^.kXQ.lXlXlX~.E.E.~.Q.kXR.R.A.S.~.R.S.Z.C.| C.0.Z.0.q.~ ( } 9.i.s.",
"V.@Xi.m.+Xm.i.+X+X>XOXOXP.J.L.P.Z.R.S.^.Q.Q.S.~.Q.E.jXjXQ.Q.^.lX^.R.R.R.E.R.R.A.-.^.^.lXQ.S.Z. .{  .!.J.0.u.~ / 8.8.p.y.",
"m.m.m.m.+Xu.y.J.+XJ.J.P.q.Z.!.Z.Z.Q.!.^.A.W.;.E.S.R.Q.^.L._.^.lX| ;.:.~.A._.;.;.;.lXjXS.!.S.C. .| 0.OXq.Z.u.^ } q./ 9.9.",
"B.m.s.s.m.i.9.q.u.q.8.P.D.Z.!.S.^.Q.^.^.E.:.A.E._.Q.kX^.zXS.#XlX| :.-.Q.A.S./.:.A.E.lXS.Y.^.[  . .0.OXu.J.u.9.q.q.( ^ 9.",
"m.7.i.m.m.+X4.8.i.I.J.!.q.L.L.=X#X;.;XQ.lXQ.lXE.W.^.)._.bX^.~.~.A.E.-.-.H.R.).R.;.| lXW.P.Y.] 0.( } Y.i.q.9.q.( 9.y ( 2.",
"s.G 7.@X@X+Xy.9.K.P.J.P.Z.Q.L.bX(.C.;XW.lX^.lXS.A._.W.| _.jXR.kX:.~.kX:.A.W.:.-.S.F.L.[ P.q.| { 8.T.8.( } ( q./ 8.y ( s ",
"s.G 7.*X$X+Xy.9.T.OX#XJ.D.J.;XaXY.=XXXR.cXkX^.~.-.A.A..XS.kXkXE.E.lXjXkXW.E.-.-.R.A.vXO.#X;.;.C.0.0.} ~ ^ / / / ^ y ~ s ",
"7.7.m.V.e.9.K.iXU.#XP.T.C.p.t.`.{.|.o.~.lXW.~.W.[ { A.oX/.R.kXE.W.~.E.cXR.^.H.Q.-.:.DX| L.Z.G.Z.Z.o./ / 3.~ / ~ 3.^ ^ ^ ",
"7.7.i.7.4.i.T.sXu.Z.J.I.8.I.0.| uXhX! W.R.;.G.A.o.{ C.tX_..XW.kX:.oX_.oXzXE.W._.-.:.zXS.Q.S.D.C.0.q.! / ^ y / ~ 4.n.3.^ ",
"4.4.4.s.7.9.p.a.u.( |.} %XH. .! { / | :.W./.;.H.} w.G.Z./.F.:.:.E.-.F.oXbXE.R.:.W.:.:.Q.P.S.q.>XJ.u.} y.~ y 3.~ 3.6.4.^ ",
"4.y.7.p.a.2.8.4.3.~ f.w.&X0.[ ! ] { } [ :.zXH./.H.-XzXlXkX .-.:.kX-.F.E.).:.:.F.E.| { S.>X>XJ.>XU.K.K.@X} iXn.^ 3.( y.2.",
"7.7.2XU.u.a.3.'.( Q f.e.@Xy / / W / { W [ G.F.kXW._.zXlX_.F.O.oXkXG.o._.O.! ,.`.W.[.OXY.P.GX0.#X9.Y.+X>X} sXiXF 9.8.2.3.",
"2.7.2X$Xs.$Xy.%Xe.a a 3.+X4 ( ..~ { { [ { G.)._.>.H.bXvXvXeXH.bX`.`. .~.0.[ F.! ).zXcX=XxXcXZ.;XY.I.J.K.OXiXsXe.9.8.y 4.",
"2.4.d s.g.5.p.n.5.v.a v._ } q.I.OXr.] O.).~.zXR.oXiXkXbXdX}.O.oX.XO.=XA./.E.aX! R.Y.Y.^.sXjXG.q.C.T.( I.LXOXv.9.y.2._ i.",
"7.g , n.s ) U.sXv.9.` &.x.D.t.D.:XY.! | .XkX=X/.[ LX.XtX] >.-.W.S.-.oX>.vX>.`.] F.zX>.kXDXkX..H. .[./ I.IX+X8.+X+X3.i.e.",
"m.2.w F a w v.OXOXU.o.i rXaXj.! .XvXX.>.,.O.`.oX[ zX[ aX`.F.O. .OX/.>./.`.rXo.o.o.xX:X_.vXzX) '.8.&Xw.K.NX' J.K.a./ q.~ ",
"e g h g y 8 g w.'.t.Z.}.=XX.a ! H.rXu ] ! ! 5X,.O.,.W c.vXF.W X.].H.O.oX XeX-.O.O.{.FX).bXOX..1X` t.w.U.sX8.q.q.^ ! 8.3.",
", h s _ _ r * N e.n.' _ D.Q u ! o.hX0 Q Q ! MX[ ] r.=..X_.,.O.] ~ ..*.W.tXO.,.] ` O.GX>.IXt. .5 a { w.U.HXn.9...s w.w.a.",
"t w 2.w.6.y.8 F m ,Xp d a ..u ! +.LX) p +.! eX,...aX*.rX.X`..XW #.r.W ,./..X_.] W ] oX` LXx.D...3X{ r.[.&Xt.4.w.a.e.8.+X",
"w e l.b.d.v.x 7Xi <Xg.3Xp p @.] ] -X#.& b Q ,.1X*.uXtXc.` ..kXW 8 *.5 ] >.lX.Xr.] X.,.w. Xd.:X{.hXQ 5.v.' ' 5.p.m.s.p.m.",
"9 w k.l.d C N.mXw.g.p.3X7 4 u ` *.XXv.- 4 &.F.%.a [.uXQ n [.`.`. X*.=.+.#.r.I.}.I.}.' &X,.8.:X#.Q $X#XVXu d p.v.b.@Xa.VX",
"r w g d.x x qX_ ) qX! 1Xj j Q ` g.XX}.u 6 6 =.1.<Xk.DXhXn 5 BX.XG.aXv `.X.W ` [.:X).h.>XiXU.f.) I.hX+X@Xp.e.fX2Xm.V.%X*X",
"n.e 9 h K 4 ,Xd.b.BXp f.BXB 3Xp b.x.x.%.Q ,X+.eXhXC =XZXb +.BXvX=.rXo.5 Q =.W :X-X(.#.CX`.+Xp.' '.e.p.' $Xv.e.*XB.8XPXDX",
"k.k l s 2Xx k <Xb.6Xk.m ,X@.v 6 |.qXrX<.+.4Xn [ sX=.*.*.C 6 dXf.*.@.`.! p p +.GXXXG.cXb.BXU.` Q ].6.r.Q :X5.p.*XOX_ k.$X",
"l.H f d.2Xj 3 U t.B S U p & 7 - b.uXc.3X#.p ; ! *.,.! 3X6 b.& tXeXm *.} c.}.,.;XF. Xc.sXn.CXc.Q w.n.b.@.ZX+.8.ZXf.q & l.",
"2X8XfXq U % <XwXg.z b MXr.0 n aX#.rX*.+.v.c.- 6 ) *.=.HXv I n uXZXN.p HXDXtX=.{.}.:Xc.V eX;X Xc.{ c.N.) w.&.H.g.N l 4 2X",
"n.7X0XZ K x <X4XqXB b c.& - & aXgXeX*.c.x.3Xv <Xu +.+.rX*.NX] rX X3X+.,XrX;X! tXdX2X}.@.u ;X#.%.`.x.3X*.` ) CXk.9 U 8 7X",
"l.I K b Z x N.9 5X#.h.H.u z B 1XuXc.%.rXj.dX*.iX* - v ;Xz 2X`.`.ZXsX+.5X5XV *.n yX$.*.x.z  X%.@.dX}.d.N x.5.FX8Xe 4Xj z.",
"<XJ d.e x 2Xl.l j }.v.#.N |.z.,XyX3X4 yX&.v *.1XB - n oX1.V eX,.4XDX*.gXj ; vX&.n =.5 3Xj.&.$.&.5X`.<XnXd.0XUXAXi <XN f.",
"<X&Xl.c B 7XJ u 4 N.*.&.6 rXfXx.dXS $.1X3X6 1X1.1Xx v ,.<.,Xc *.6X X} gXD ; eXV * *.v 6 V $.%.1XC Z c <X> Y UXPXk.b z.d.",
"x l.f.& 1 c l.n B 4XD @.6 n pX1Xc.S hXS eX6 1X=.1XrX6 * & iXB rX*.%.oXv +.= 6 @.1 =.*.= S <.%.z qXh.wX#.S = KXAX%XG N K ",
"7Xk.c.9 U c k.k wXT BX$.v 5 8X` rXz yXj =.n nXn %.1X6 o = B ,X`.=.1XsXj.S z =., z %.+.  = j &.- mXk &X#.C I 1 j.M x.C k ",
"HXc J J T , J c n.B JXL - 6 qXk 1.B V 0 @.<XBX1X+.&.v MXNX1X@.%.W 1X1X5X3X1.3X<Xv &.= O - V S ,XT JXJ 1X* R z g NX+.k m ",
"7X9XI K 6X1 x 7XpX,X2X,X  = $.8X6 v 5Xn 5X3X3X1X4 rXS <.`.S HXgX+.1Xn A 3Xb x.aX1X+.6XO 1 S 1 JXh.mX1 B V k V U JX6 U x ",
"z.n.Y k.k.k q N.b.3X%XK . 3 $.sX6Xn H 1X3X<.gX1X6 HXeXn %.%.NX,X`.=.,X3 z - n n 8Xz uXO A = D E 3X4Xx @ z j N C MX8 K J ",
"8XH pXY h.m 2 <X8X3XgX,XH 0X1Xv.iX<.D #.6XMXqXS 4XwXLX,X+.rXdX<..X,.aX= - T 4X* %.&.`.o O = S S ,X<X- = = - z M n.k.x c ",
"9Xk.h.,Xx iXe U K 2XqXMXuXc rXF.*.%.c j.yXdXU iX5XdX<X$.&.HXaX%.W =.}.z o = U 7 <.,X5X= A X = - b U x 1 1 X c d ,XpXS A ",
"9Xl.F m J H k.T x b 8Xb :X8X1X[.e.`.- 1X6Xv T }.LX<.&.[ 4 4X[.%.z 1X&.n I 2 4 z }.k.rXqXR 3 X A j @ j f.1 0XZ N 3 qXt 2 ",
"B.<XK K c q x %Xt z b.IXgXN u x.c..X& ,Xz a b &.5Xn 6 .Xj 6X2XJ z nXeX&.nXmX1Xb 1 1.S nX3 2 k = 3 % z ,Xk J n j 2 K <XH ",
"M.7Xt G H c k m d - M.B.8XV *.x.D.[.b 2XV b Z h x.,X- Q - 3XmXn v MX@.@.NXuX+.4 6 5XM nX= A qX    j c <Xg.@.j # nX<XM H ",
"<X9Xd K fXl.c > m J k.<X%X2X Xf.%X' v C * 6 <XN  Xc.-XV a 8 nXU mXhX*.k.eXa #.+.,X1X%.B 1 E z.= - - 1 x 1 u j.# @ 2.U 3 ",
"P n.F k.wX, G K iX%Xz.d.l.x.k.c.g.h.B c - M.PX,XS ..uX;X'.Z U 2 rXbXzX<Xn v <X,X,X&.1X8 - 2 nX  1 z # 3 7X5.' f @ 8 H I ",
"K F H z.9XH F VXb.5.wX_ 2 ].k.m sX,X5X1 c a.dXHX,Xk.x t.MXr.S B.X l 1 Y $.p ; 4 $.a ,Xk =   T # X 2 1 R L n.n.r K . f K ",
"H g t P V.K 2 7.l.6.d.w.J ' M L :Xm ZX< 8Xj.'.5XLXqXk 1 wXB $.NXB % 1 wX,XN & o @.r.b u $ * Y K U L T qXz.K 0XF <XK n.z.",
"<XF d r wX9 , q g.1 w.&., g J N _ :Xv.N g ' g.b hXHXI % wX,X5XqXr k . 2 1X@.u o 8 &XJ @.N 8 K = 3 J L R > <XwXt & r G V.",
"mX6.w , NXk r 9 n.2 2Xd d l.b.d a G.[.t.z w.v.c %X;XHX1 5Xd %.q M.T A # l Q ) X @ x Y X.k.d M c   1 9XA . L JXH & 2 < AX",
"KXl.t 9 fXP G e v., Y J _ z.a.8 i -.v.$X5.p H.d r.vX-X, wXt.j.u N J R 9 & a }.o   t L p w.<X8X& 3 o 1 c Y U JX7Xr H H VX",
"JXL t k.<Xz.J f g & e 9 h K e $ Z C.v.@Xe.Q ..#.! aXQ.N |.n.d.f.f e S N - _ *X1 # f k.K I.G b.J L 3 : . < I JXn.h $ nXKX",
"JXY L V.F P G h q * f d e G w e.G Y.~ ;Xl.D.y r.! bXdXD.N.0 # g.s e I K B.n.p.<XJ K z.AXy.z.a.d.G r d.e . H 0XHXg 0 < KX",
"P L f 7.F < 8Xw $ w r e 9 6.& a.z.o.! 8 n.:Xm / ! uXJXG.*Xk , f.Q g.K 8XGXv.q.iX8X3 9 G *Xm.l.G t G b.y.G t : BXY ( P L ",
"P r f h wX< < w q s > F OXa.> t _ !  .d ZX8 % ! p g.,XuXlX4Xt d 5 l.F & :X(.+XiXi : % F B.u.$ d c CX& < CXl.t 0X4Xd : F ",
"M.G F G mXH d F ^ s r _ $X+XB., ' 2.L.0 q d ; r.p d & w.P.'.r ) * w J   } (.L.d , k : L L y.7 w e H # # P 2Xt c 8XF 2 i ",
"P t h M.7XmXw P s a G d g u.:X9 4.l.&Xi & e.' / 4 q $ 5 Y.P.w 4 $ i :   a 2.!.} # $ # Y M.z.* # w :   t . 7XP 9 L V., ~ ",
", : g M.M.HX* < i s s y ! d 3.G G ^ 9.d , v.( ' a # 9 q / #X} 4 . d # @ a $ w./ # $   f 6.r @   w + # w $ K L r G AXt g ",
"P : P M.P k.+ > H 2.w g w w w G P 9.d w i I...~ ' . U d q J.} 5.. , : $ 4 w & w.: *   _ 7., * ; 8 , + , w H L & h AXz.: ",
"V.: , 2.K w # # H 2.$ , $ i w w 2.~ w 5X%Xr.&Xd O.c 2 ' w m.i ! <XqX8 w   ( + u.M.J 1 v.4., + * e 6.* > f t 0X9 & KXL Y ",
"P t w , t t > > w ^ #   , , P G < $ w #.iXw.|.N.8.4.2 4 ; SXh 4 u.HXk.s   i * g VXFXDXI._ , : # + , 4 $ w > L r ; L < JX",
"< P . # > h t G h ~ :   + $ G G # 9 # ( t &X{ q.D.g r $ w VXs w 0.8.w ! , s y s e.FXFXe.y 9 > : +   w , < > < z.$ P Y mX"
};
