/* XPM */
static char *result[] = {
/* columns rows colors chars-per-pixel */
"60 70 188 2 ",
"   c #3E2C1D",
".  c #3E301E",
"X  c #2C2B2E",
"o  c #272526",
"O  c #382D21",
"+  c #36262C",
"@  c #332C2D",
"#  c #3D3124",
"$  c #373322",
"%  c #2A2733",
"&  c #2E2C35",
"*  c #2D2C39",
"=  c #312E36",
"-  c #322E39",
";  c #2E3037",
":  c #2E313C",
">  c #333236",
",  c #3E3D35",
"<  c #35333D",
"1  c #39343D",
"2  c #35383E",
"3  c #3C3B3C",
"4  c #3A3736",
"5  c #4E080A",
"6  c #560102",
"7  c #570A08",
"8  c #5B1E1E",
"9  c #620F11",
"0  c #44351C",
"q  c #433423",
"w  c #41362B",
"e  c #423A2E",
"r  c #453E35",
"t  c #483F3B",
"y  c #463633",
"u  c #6B2727",
"i  c #7A3B3C",
"p  c #49412D",
"a  c #474035",
"s  c #4E4237",
"d  c #47443A",
"f  c #4B443A",
"g  c #4F4D3F",
"h  c #504832",
"j  c #544F3F",
"k  c #564938",
"l  c #5D583B",
"z  c #675D39",
"x  c #363441",
"c  c #3A3542",
"v  c #373A41",
"b  c #3B3942",
"n  c #413F42",
"m  c #463D4D",
"M  c #4B4641",
"N  c #4E4941",
"B  c #474648",
"V  c #49464A",
"C  c #4D4B4C",
"Z  c #454342",
"A  c #534942",
"S  c #5A4F4D",
"D  c #544D48",
"F  c #59534D",
"G  c #5B5744",
"H  c #554C53",
"J  c #555353",
"K  c #5B5252",
"L  c #5B5954",
"P  c #565358",
"I  c #59555C",
"U  c #685D47",
"Y  c #665A46",
"T  c #665D55",
"R  c #605A5E",
"E  c #685D58",
"W  c #70585B",
"Q  c #6C6E46",
"!  c #746B4A",
"~  c #7F7947",
"^  c #7E774F",
"/  c #7E7447",
"(  c #6D675C",
")  c #686454",
"_  c #776954",
"`  c #7A7858",
"'  c #5E5765",
"]  c #6F5E69",
"[  c #705F65",
"{  c #656265",
"}  c #676568",
"|  c #6A6869",
" . c #756C63",
".. c #796669",
"X. c #716869",
"o. c #7F696B",
"O. c #746360",
"+. c #7F7761",
"@. c #7E7962",
"#. c #6F6E72",
"$. c #716A70",
"%. c #767072",
"&. c #7B7974",
"*. c #767379",
"=. c #7D7879",
"-. c #802127",
";. c #817141",
":. c #82774A",
">. c #857C52",
",. c #8A7A57",
"<. c #806D6B",
"1. c #877E6B",
"2. c #8B7B6C",
"3. c #836C70",
"4. c #837E7D",
"5. c #8B7679",
"6. c #898442",
"7. c #8B8364",
"8. c #868561",
"9. c #9D8660",
"0. c #928966",
"q. c #89847A",
"w. c #958C7D",
"e. c #919277",
"r. c #9B9577",
"t. c #A39B66",
"y. c #A09C7F",
"u. c #A4A165",
"i. c #A7A674",
"p. c #B4AA75",
"a. c #BDB172",
"s. c #D8C27F",
"d. c #DBD27C",
"f. c #847F81",
"g. c gray51",
"h. c #8A8384",
"j. c #8D8B85",
"k. c #8C8A8B",
"l. c #978286",
"z. c #958786",
"x. c #959780",
"c. c #94938B",
"v. c #908F91",
"b. c #9D8E92",
"n. c #949294",
"m. c #9B9393",
"M. c #9D9897",
"N. c #9C9798",
"B. c #9C999A",
"V. c #A38E82",
"C. c #A19683",
"Z. c #A29B84",
"A. c #B9928A",
"S. c #A39E96",
"D. c #A49F9D",
"F. c #AB9699",
"G. c #AFAA88",
"H. c #A6A09E",
"J. c #ACA499",
"K. c #B3A59C",
"L. c #B7B691",
"P. c #A19FA2",
"I. c #A5A3A3",
"U. c #ABA5A6",
"Y. c #AAA9AB",
"T. c #ABA8A5",
"R. c #B2A6A7",
"E. c #B3ADAC",
"W. c #BAA3AD",
"Q. c #B3B0AF",
"!. c #B8B0AE",
"~. c #ADACB1",
"^. c #B8AEB2",
"/. c #B6B4B4",
"(. c #BBB4B5",
"). c #BCB8B7",
"_. c #BCB6B9",
"`. c #BEBABA",
"'. c #C3BCBC",
"]. c #C1B9B5",
"[. c #C0C38C",
"{. c #C8BCC4",
"}. c #C5C2C4",
"|. c #CAC4C6",
" X c #C7C5C9",
".X c #CDC7C8",
"XX c #CDC9CA",
"oX c None",
/* pixels */
"oXoXoXoXoXoXoXoXoXoXoXoXoXoXoXoXoXoXoXoXoXoXoXoXoXoXoXoXoXoXoXoXoXoXoXoXoXoXoXoXoXoXoXoXoXoXoXoXoXoXoXoXoXoXoXoXoXoXoXoX",
"oXoXoXoXoXoXoXoXoXoXoXoXoXoXoXoXoXoXoXoXoXoXoXoXoXoXoXoXoXoXoXoXoXoXoXoXoXoXoXoXoXoXoXoXoXoXoXoXoXoXoXoXoXoXoXoXoXoXoXoX",
"oXoXoXoXoXoXoXoXoXoXoXoXoXoXoXoXoXoXoXoXoXoXoXoXoXoXoXoXoXoXoXoXoXoXoXoXoXoXoXoXoXoXoXoXoXoXoXoXoXoXoXoXoXoXoXoXoXoXoXoX",
"oXoXoXoXoXoXoXoXoXoXoXoXoXoXoXoXoXoXoXoXoXoXoXoXoXoXoXoXoXoXoXoXoXoXoXoXoXoXoXoXoXoXoXoXoXoXoXoXoXoXoXoXoXoXoXoXoXoXoXoX",
"oXoXoXoXoXoXoXoXoXoXoXoXoXoXoXoXoXoXoXoXoXoXoXoXoXoXoXoXoXoXoXoXoXoXoXoXoXoXoXoXoXoXoXoXoXoXoXoXoXoXoXoXoXoXoXoXoXoXoXoX",
"oXoXoXoXoXoXoXoXoXoXoXoXoXoXoXoXoXoXoXoXoXoXoXoXoXoXoXoXoXoXoXoXoXoXoXoXoXoXoXoXoXoXoXoXoXoXoXoXoXoXoXoXoXoXoXoXoXoXoXoX",
"oXoXoXoXoXoXoXoXoXoXoXoXoXoXoXoXoXoXoXoXoXoXoXoXoXoXoXoXoXoXoXoXoXoXoXoXoXoXoXoXoXoXoXoXoXoXoXoXoXoXoXoXoXoXoXoXoXoXoXoX",
"oXoXoXoXoXoXoXoXoXoXoXoXoXoXoXoXoXoXoXoXoXoXoXoXoXoXoXoXoXoXoXoXoXoXoXoXoXoXoXoXoXoXoXoXoXoXoXoXoXoXoXoXoXoXoXoXoXoXoXoX",
"oXoXoXoXoXoXoXoXoXoXoXoXoXoXoXoXoXoXoXoXoXoXoXoXoXoXoXoXoXoXoXoXoXoXoXoXoXoXoXoXoXoXoXoXoXoXoXoXoXoXoXoXoXoXoXoXoXoXoXoX",
"oXoXoXoXoXoXoXoXoXoXoXoXoXoXoXoXoXoXoXoXoXoXoXoXoXoXoXoXoXoXoXoXoXoXoXoXoXoXoXoXoXoXoXoXoXoXoXoXoXoXoXoXoXoXoXoXoXoXoXoX",
"oXoXoXoXoXoXoXoXoXoXoXoXoXoXoXoXoXoXoXoXoXoXoXoXoXoXoXoXoXoXoXoXoXoXoXoXoXoXoXoXoXoXoXoXoXoXoXoXoXoXoXoXoXoXoXoXoXoXoXoX",
"oXoXoXoXoXoXoXoXoXoXoXoXoXoXoXoXoXoXoXoXoXoXoXoXoXoXoXoXoXoXoXoXoXoXoXoXoXoXoXoXoXoXoXoXoXoXoXoXoXoXoXoXoXoXoXoXoXoXoXoX",
"oXoXoXoXoXoXoXoXoXoXoXoXoXoXoXoXoXoXoXoXoXoXoXoXoXoXoXoXoXoXoXoXoXoXoXoXoXoXoXoXoXoXoXoXoXoXoXoXoXoXoXoXoXoXoXoXoXoXoXoX",
"oXoXoXoXoXoXoXoXoXoXoXoXoXoXoXoXoXoXoXoXoXoXoXoXoXoXoXoXoXoXoXoXoXoXoXoXoXoXoXoXoXoXoXoXoXoXoXoXoXoXoXoXoXoXoXoXoXoXoXoX",
"oXoXoXoXoXoXoXoXoXoXoXoXoXoXoXoXoXoXoXoXoXoXoXoXoXoXoXoXoXoXoXoXoXoXoXoXoXoXoXoXoXoXoXoXoXoXoXoXoXoXoXoXoXoXoXoXoXoXoXoX",
"oXoXoXoXoXoXoXoXoXoXoXoXoXoXoXoXoXoXoXoXoXoXoXoXoXoXoXoXoXoXoXoXoXoXoXoXoXoXoXoXoXoXoXoXoXoXoXoXoXoXoXoXoXoXoXoXoXoXoXoX",
"oXoXoXoXoXoXoXoXoXoXoXoXoXoXoXoXoXoXoXoXoXoXoXoXoXoXoXoXoXoXoXoXoXoXoXoXoXoXoXoXoXoXoXoXoXoXoXoXoXoXoXoXoXoXoXoXoXoXoXoX",
"oXoXoXoXoXoXoXoXoXoXoXoXoXoXoXoXoXoXoXoXoXoXoXoXoXoXoXoXoXoXoXoXoXoXoXoXoXoXoXoXoXoXoXoXoXoXoXoXoXoXoXoXoXoXoXoXoXoXoXoX",
"oXoXoXoXoXoXoXoXoXoXoXoXoXoXoXoXoXoXoXoXoXoXoXoXoXoXoXoXoXoXoXoXoXoXoXoXoXoXoXoXoXoXoXoXoXoXoXoXoXoXoXoXoXoXoXoXoXoXoXoX",
"oXoXoXoXoXoXoXoXoXoXoXoXoXoXoXoXoXoXoXoXoXoXoXoXoXoXoXoXoXoXoXoXoXoXoXoXoXoXoXoXoXoXoXoXoXoXoXoXoXoXoXoXoXoXoXoXoXoXoXoX",
"oXoXoXoXoXoXoXoXoXoXoXoXoXoXoXoXoXoXoXoXoXoXoXoXoXoXoXoXoXoXoXoXoXoXoXoXoXoXoXoXoXoXoXoXoXoXoXoXoXoXoXoXoXoXoXoXoXoXoXoX",
"oXoXoXoXoXoXoX7.oXoXoXoXoXoXoXoXoXoXoXoXoXoXoXoXoXoXoXoXoXoXoXoXoXoXoXoXoXoXoXoXoXoXoXoXoXoXoXoXoXoXoXoXoXoXoXoXoXoXoXoX",
"oXoXoXoXoXoXt.w.oXoXoXoXoXoXoXoXoXoXoXoXoXoXoXoXoXoXoXoXoXoXoXoXoXoXM , Y oXoXoXoXoXoXoXoXoXoXoXoXoXoXoXoXoXoXoXoXoXoXoX",
"oXoXoXoXoXoXy.C.oXoXoXoXoXoXoXoXoXoXoXoXoXoXoXoXoXoXoXoXoX9._ s n c 1 - 1 Y oXoXoXoXoXoXoXoXoXoXoXoXoXoXoXoXoXoXoXoXoXoX",
"oXoXoXoXoXoXH.oXoXoXoXoXoXoXoXoXoXoXoXoXoXoXoXoXoXoXoXp._ ( [ S 1 x x c E u.k oXoXoXoXoXoXoXoXoXoXoXoXoXoXoXoXoXoXoXoXoX",
"oXoXoXoXoXoXT.oXoXoXoXoXoXoXoXoXoXoXoXoXoXoXoXoXoXoXoX>.X.o.3.[ 1 < x x S s.$ j oXoXoXoXoXoXoXoXoXoXoXoXoXoXoXoXoXoXoXoX",
"oXoXoXoXoX,.E.C.oXoXoXoXoXoXoXoXoXoXoXoXoXoXoXoXoXoXoXa.` <...n 1 1 c ] =.Z.L X 0.oXoXoXoXoXoXoXoXoXoXoXoXoXoXoXoXoXoXoX",
"oXoXoXoXoX` /.z.oXoXoXoXoXoXoXoXoXoXoXoXoXoXoXoXoXoXoXs.L.1.W c 1 J Y.'.m.b.U.B.r.oXoXoXoXoXoXoXoXoXoXoXoXoXoXoXoXoXoXoX",
"oXoXoXoXoXC./.c.oXoXoXoXoXoXoXoXoXoXoXoXoXoXoXoXoXoXoX[.G.F H c ' }.D.8 6 7 z.N.f oXoXoXoXoXoXoXoXoXoXoXoXoXoXoXoXoXoXoX",
"oXoXoXoXoXe.!.Q.2.oXoXoXoXoXoXoXoXoXoXoXoXoXoXoXoXoXx.&.J c c m _.R.i 7 6 u 5.Y.j.oXoXoXoXoXoXoXoXoXoXoXoXoXoXoXoXoXoXoX",
"oXoXoXoXoX7.H.n.Z oXoXoXoXoXoXoXoXoXoXoXoXoXi.( 3 c 1 1 1 x < *.{.l.9 -.u A.oXS.q.oXoXoXoXoXoXoXoXoXoXoXoXoXoXoXoXoXoXoX",
"oXoXoXoXoXoXj.b & 3 oXoXoXoXoXoXoXoXoXoXoX8.3 1 x x v v c c c ~.{.^.F.W.b.oXoXoXoXoXoXoXoXoXoXoXoXoXoXoXoXoXoXoXoXoXoXoX",
"oXoXoXoXoXoXd X * * 1 oXoXoXoXoXoXoXoXoXG > x x x c c c b c x Y.}.}..X X XS.oXoXoXoXoXoXoXoXoXoXoXoXoXoXoXoXoXoXoXoXoXoX",
"oXoXoXoXoXoXl X & - = = j oXoXQ g J Z 1 < x 2 x c c c c b c c Y.|..X.X}.).U.oXoXoXoXoXoXoXoXoXoXoXoXoXoXoXoXoXoXoXoXoXoX",
"oXoXoXoXoXoX! h X * - * & o % & > : : x < 1 - x v x v v b 3 ` >.!..X.X].w.J.~ oXoXoXoXoXoXoXoXoXoXoXoXoXoXoXoXoXoXoXoXoX",
"oXoXoXoXoXoXoXoXo * & * % * * ; * < - > * 2 x < v x c c c d oXoXoXoXoXoXoXoXoXoXoXoXoXoXoXoXoXoXoXoXoXoXoXoXoXoXoXoXoXoX",
"oXoXoXoXoXoXoXoXp @ X % @ = * - ; < * * < < < x x x c B f 6.oXoXoXoXoXoXoXoXoXoXoXoXoXoXoXoXoXoXoXoXoXoXoXoXoXoXoXoXoXoX",
"oXoXoXoXoXoXoXoXz X % & * = * = - > - * 1 x 1 < x c P } S oXoXoXoXoXoXoXoXoXoXoXoXoXoXoXoXoXoXoXoXoXoXoXoXoXoXoXoXoXoXoX",
"oXoXoXoXoXoXoXoXoX> = & * * = - - > * 2 x < < 2 c } g.M oXoXoXoXoXoXoXoXoXoXoXoXoXoXoXoXoXoXoXoXoXoXoXoXoXoXoXoXoXoXoXoX",
"oXoXoXoXoXoX>.oXoX- - = > * ; > - * = 1 1 x < c B g.B T oXoXoXoXoXoXoXoXoXoXoXoXoXoXoXoXoXoXoXoXoXoXoXoXoXoXoXoXoXoXoXoX",
"oXoXoX;.U , f @ = * - > - - * - - & x - c c 1 1 $.C c 0.oXoXoXoXoXoXoXoXoXoXoXoXoXoXoXoXoXoXoXoXoXoXoXoXoXoXoXoXoXoXoXoX",
"oXoX/ 1.X.= * & & * - * = X > 3 - - < 1 x > < x c 1 B oXoXoXoXoXoXoXoXoXoXoXoXoXoXoXoXoXoXoXoXoXoXoXoXoXoXoXoXoXoXoXoXoX",
"8.:.J.].] & * * = = : : > ' q.=.n < 1 < < : * 1 c 1  .oXoXoXoXoXoXoXoXoXoXoXoXoXoXoXoXoXoXoXoXoXoXoXoXoXoXoXoXoXoXoXoXoX",
"K.!.].(.J & * & * 1 *.*.| 4.4.B = 1 x < - & 2 < 1 3 oXoXoXoXoXoXoXoXoXoXoXoXoXoXoXoXoXoXoXoXoXoXoXoXoXoXoXoXoXoXoXoXoXoX",
"]./.(./.I & * ; b { ).`.v.q.*.y > < 1 1 * < 2 < b ( oXoXoXoXoXoXoXoXoXoXoXoXoXoXoXoXoXoXoXoXoXoXoXoXoXoXoXoXoXoXoXoXoXoX",
"_.(.(.(.I.L J j./.U.`.}.{.`.{.f.- < 3 v.L > 1 < } c.oXoXoXoXoXoXoXoXoXoXoXoXoXoXoXoXoXoXoXoXoXoXoXoXoXoXoXoXoXoXoXoXoXoX",
"(.^./.h.) c.`.'.'.R.(.'.'.'.'.U.1 c n.}.$.> > k oXoXoXoXoXoXoXoXoXoXoXoXoXoXoXoXoXoXoXoXoXoXoXoXoXoXoXoXoXoXoXoXoXoXoXoX",
"R.^.h.q t /.).].).M.).`.'.'.'.P.- f.{.'.P @ + oXoXoXoXoXoXoXoXoXoXoXoXoXoXoXoXoXoXoXoXoXoXoXoXoXoXoXoXoXoXoXoXoXoXoXoXoX",
"A t O O E E./.(.).B./.].].'.`.$.+ y A s q 0 oXoXoXoXoXoXoXoXoXoXoXoXoXoXoXoXoXoXoXoXoXoXoXoXoXoXoXoXoXoXoXoXoXoXoXoXoXoX",
"oXoXoXoXw D.(.U.R.D K E._.(.&.q q oXoXoXoXoXoXoXoXoXoXoXoXoXoXoXoXoXoXoXoXoXoXoXoXoXoXoXoXoXoXoXoXoXoXoXoXoXoXoXoXoXoXoX",
"oXoXoXoXe a r T e 0 0 # F r O 0 0 oXoXoXoXoXoXoXoXoXoXoXoXoXoXoXoXoXoXoXoXoXoXoXoXoXoXoXoXoXoXoXoXoXoXoXoXoXoXoXoXoXoXoX",
"oXoXoXoXoXoXoXoXoXoXoXoXoXoXoXoXoXoXoXoXoXoXoXoXoXoXoXoXoXoXoXoXoXoXoXoXoXoXoXoXoXoXoXoXoXoXoXoXoXoXoXoXoXoXoXoXoXoXoXoX",
"oXoXoXoXoXoXoXoXoXoXoXoXoXoXoXoXoXoXoXoXoXoXoXoXoXoXoXoXoXoXoXoXoXoXoXoXoXoXoXoXoXoXoXoXoXoXoXoXoXoXoXoXoXoXoXoXoXoXoXoX",
"oXoXoXoXoXoXoXoXoXoXoXoXoXoXoXoXoXoXoXoXoXoXoXoXoXoXoXoXoXoXoXoXoXoXoXoXoXoXoXoXoXoXoXoXoXoXoXoXoXoXoXoXoXoXoXoXoXoXoXoX",
"oXoXoXoXoXoXoXoXoXoXoXoXoXoXoXoXoXoXoXoXoXoXoXoXoXoXoXoXoXoXoXoXoXoXoXoXoXoXoXoXoXoXoXoXoXoXoXoXoXoXoXoXoXoXoXoXoXoXoXoX",
"oXoXoXoXoXoXoXoXoXoXoXoXoXoXoXoXoXoXoXoXoXoXoXoXoXoXoXoXoXoXoXoXoXoXoXoXoXoXoXoXoXoXoXoXoXoXoXoXoXoXoXoXoXoXoXoXoXoXoXoX",
"oXoXoXoXoXoXoXoXoXoXoXoXoXoXoXoXoXoXoXoXoXoXoXoXoXoXoXoXoXoXoXoXoXoXoXoXoXoXoXoXoXoXoXoXoXoXoXoXoXoXoXoXoXoXoXoXoXoXoXoX",
"oXoXoXoXoXoXoXoXoXoXoXoXoXoXoXoXoXoXoXoXoXoXoXoXoXoXoXoXoXoXoXoXoXoXoXoXoXoXoXoXoXoXoXoXoXoXoXoXoXoXoXoXoXoXoXoXoXoXoXoX",
"oXoXoXoXoXoXoXoXoXoXoXoXoXoXoXoXoXoXoXoXoXoXoXoXoXoXoXoXoXoXoXoXoXoXoXoXoXoXoXoXoXoXoXoXoXoXoXoXoXoXoXoXoXoXoXoXoXoXoXoX",
"oXoXoXoXoXoXoXoXoXoXoXoXoXoXoXoXoXoXoXoXoXoXoXoXoXoXoXoXoXoXoXoXoXoXoXoXoXoXoXoXoXoXoXoXoXoXoXoXoXoXoXoXoXoXoXoXoXoXoXoX",
"oXoXoXoXoXoXoXoXoXoXoXoXoXoXoXoXoXoXoXoXoXoXoXoXoXoXoXoXoXoXoXoXoXoXoXoXoXoXoXoXoXoXoXoXoXoXoXoXoXoXoXoXoXoXoXoXoXoXoXoX",
"oXoXoXoXoXoXoXoXoXoXoXoXoXoXoXoXoXoXoXoXoXoXoXoXoXoXoXoXoXoXoXoXoXoXoXoXoXoXoXoXoXoXoXoXoXoXoXoXoXoXoXoXoXoXoXoXoXoXoXoX",
"oXoXoXoXoXoXoXoXoXoXoXoXoXoXoXoXoXoXoXoXoXoXoXoXoXoXoXoXoXoXoXoXoXoXoXoXoXoXoXoXoXoXoXoXoXoXoXoXoXoXoXoXoXoXoXoXoXoXoXoX",
"oXoXoXoXoXoXoXoXoXoXoXoXoXoXoXoXoXoXoXoXoXoXoXoXoXoXoXoXoXoXoXoXoXoXoXoXoXoXoXoXoXoXoXoXoXoXoXoXoXoXoXoXoXoXoXoXoXoXoXoX",
"oXoXoXoXoXoXoXoXoXoXoXoXoXoXoXoXoXoXoXoXoXoXoXoXoXoXoXoXoXoXoXoXoXoXoXoXoXoXoXoXoXoXoXoXoXoXoXoXoXoXoXoXoXoXoXoXoXoXoXoX",
"oXoXoXoXoXoXoXoXoXoXoXoXoXoXoXoXoXoXoXoXoXoXoXoXoXoXoXoXoXoXoXoXoXoXoXoXoXoXoXoXoXoXoXoXoXoXoXoXoXoXoXoXoXoXoXoXoXoXoXoX",
"oXoXoXoXoXoXoXoXoXoXoXoXoXoXoXoXoXoXoXoXoXoXoXoXoXoXoXoXoXoXoXoXoXoXoXoXoXoXoXoXoXoXoXoXoXoXoXoXoXoXoXoXoXoXoXoXoXoXoXoX",
"oXoXoXoXoXoXoXoXoXoXoXoXoXoXoXoXoXoXoXoXoXoXoXoXoXoXoXoXoXoXoXoXoXoXoXoXoXoXoXoXoXoXoXoXoXoXoXoXoXoXoXoXoXoXoXoXoXoXoXoX",
"oXoXoXoXoXoXoXoXoXoXoXoXoXoXoXoXoXoXoXoXoXoXoXoXoXoXoXoXoXoXoXoXoXoXoXoXoXoXoXoXoXoXoXoXoXoXoXoXoXoXoXoXoXoXoXoXoXoXoXoX",
"oXoXoXoXoXoXoXoXoXoXoXoXoXoXoXoXoXoXoXoXoXoXoXoXoXoXoXoXoXoXoXoXoXoXoXoXoXoXoXoXoXoXoXoXoXoXoXoXoXoXoXoXoXoXoXoXoXoXoXoX"
};
