/* XPM */
static char *result[] = {
/* columns rows colors chars-per-pixel */
"60 70 121 2 ",
"   c #020203",
".  c #0A0A0A",
"X  c #0F0F10",
"o  c #131415",
"O  c #1B1817",
"+  c #171819",
"@  c #1B1C1C",
"#  c #221C1A",
"$  c #1D1F20",
"%  c #1F2021",
"&  c #232425",
"*  c #252729",
"=  c #2A2C2C",
"-  c #2F3132",
";  c #323334",
":  c #343739",
">  c #36393A",
",  c #3A3B3C",
"<  c #4F3E39",
"1  c #55483D",
"2  c #3F4142",
"3  c #414445",
"4  c #434748",
"5  c #46494B",
"6  c #4A4C4D",
"7  c #5C4844",
"8  c #4B4F51",
"9  c #4E5154",
"0  c #535353",
"q  c #525659",
"w  c #56595B",
"e  c #5A5D5E",
"r  c #625D58",
"t  c #705853",
"y  c #5A5E61",
"u  c #5D6264",
"i  c #636465",
"p  c #626668",
"a  c #656A6C",
"s  c #6A6C6C",
"d  c #72706E",
"f  c #676D70",
"g  c #696E71",
"h  c #6D7174",
"j  c #6F7579",
"k  c #737374",
"l  c #72777A",
"z  c #747A7D",
"x  c #7B7B7C",
"c  c #99756E",
"v  c #847A75",
"b  c #84817E",
"n  c #97807B",
"m  c #AB8177",
"M  c #A08A77",
"N  c #A28078",
"B  c #767C80",
"V  c #787F82",
"C  c #7A8185",
"Z  c #7E8589",
"A  c #828384",
"S  c #888787",
"D  c #838688",
"F  c #838A8D",
"G  c #8B8C8D",
"H  c #978987",
"J  c #9D908E",
"K  c #868D92",
"L  c #888F93",
"P  c #8A9195",
"I  c #8E969B",
"U  c #8F989D",
"Y  c #929394",
"T  c #959798",
"R  c #919A9E",
"E  c #9C9C9D",
"W  c #A28B86",
"Q  c #AC8B84",
"!  c #A88E8A",
"~  c #B48B83",
"^  c #AA938E",
"/  c #B5948C",
"(  c #BF958B",
")  c #BEA995",
"_  c #929BA0",
"`  c #9C9FA0",
"'  c #9FA4A8",
"]  c #A3A4A4",
"[  c #A6A7A8",
"{  c #AAABAB",
"}  c #AFB0AF",
"|  c #B5B5B5",
" . c #B7B7B8",
".. c #B7B8B9",
"X. c #BCBCBD",
"o. c #CB988C",
"O. c #C69C93",
"+. c #D19C90",
"@. c #CAA094",
"#. c #C9AC93",
"$. c #E8BF9B",
"%. c #E3ADA1",
"&. c #F0B4A7",
"*. c #F8B8AA",
"=. c #F3C7A1",
"-. c #BCBEC0",
";. c #BFC1C1",
":. c #C3C3C4",
">. c #C6C7C9",
",. c #CCCDCE",
"<. c #D4D4D4",
"1. c #D7D8D8",
"2. c #DBDBDB",
"3. c #E3E3E3",
"4. c #E8E7E8",
"5. c #EBEBEB",
"6. c #EFF0F1",
"7. c #F3F3F3",
"8. c #F7F7F8",
"9. c #FEFEFE",
"0. c None",
/* pixels */
"0.0.0.0.0.0.0.0.0.0.0.0.0.0.0.& 0.0.0.0.0.0.0.0.0.0.0.0.0.0.0.0.0.0.0.0.0.0.0.0.0.0.0.0.0.0.0.0.0.0.0.0.0.0.0.0.0.0.0.0.",
"0.0.0.0.0.0.0.0.0.0.0.0.0.0.0.8 0.0.0.0.0.0.0.0.0.0.0.0.0.0.0.0.0.0.0.0.0.0.0.0.0.0.0.0.0.0.0.0.0.0.0.0.0.0.0.0.0.0.0.0.",
"0.0.0.0.0.0.0.0.0.0.0.0.0.0.q W 0.0.0.0.0.0.0.0.0.0.0.0.0.0.0.0.0.0.0.0.0.0.0.0.0.0.0.0.0.0.0.0.0.0.0.0.0.0.0.0.0.0.0.0.",
"0.0.0.0.0.0.0.0.0.0.0.0.0.  A O.0.0.0.0.0.0.0.0.0.0.0.0.0.0.0.0.0.0.0.0.0.0.0.0.0.0.0.0.0.0.0.0.0.0.0.0.0.0.0.0.0.0.0.0.",
"0.0.0.0.0.0.0.0.0.0.0.0.0.8 J &.t 0.0.0.0.0.0.0.0.0.0.0.0.0.0.0.0.0.0.0.0.0.0.0.0.0.0.0.0.0.0.0.0.0.0.0.0.0.0.0.0.0.0.0.",
"0.0.0.0.u 6 0.0.0.0.0.0.0.B ! *.~ 0.0.0.0.0.0.0.0.0.0.0.0.0.0.0.0.0.0.0.0.0.0.0.0.0.0.0.0.0.0.0.0.0.0.0.0.0.0.0.0.0.0.0.",
"0.0.0.0.0.l , 0.0.0.0.0.0.U / *.&.0.0.0.0.0.- 0.0.0.0.0.0.0.0.0.0.0.0.0.0.0.0.0.0.0.0.0.0.0.0.0.0.0.0.0.0.0.0.0.0.0.0.0.",
"0.0.0.0.0.C y 0.0.0.0.0.- R ~ *.*.< 0.0.0.y C e & 0.0.0.0.0.0.0.0.0.0.0.0.0.0.0.0.0.0.0.0.0.0.0.0.0.0.0.0.0.0.0.0.0.0.0.",
"0.0.0.0.0.Z V o 0.+ 0.0.9 I o.*.*.c 0.0.5 _ _ _ F $ 0.0.0.0.0.0.0.0.0.0.0.0.0.0.0.0.0.0.0.0.0.0.0.0.0.0.0.0.0.0.0.0.0.0.",
"0.0.0.0.0.u a 9 a u u - Z K o.*.*.( 0.0.L _ _ _ _ a 0.0.0.0.0.0.0.0.0.0.0.0.0.0.0.0.0.0.0.0.0.0.0.0.0.0.0.0.0.0.0.0.0.0.",
"0.0.0.0., f 9 > a R _ P R L Q %.*.O.0.9 _ _ _ _ _ _ & 0.0.0.0.0.0.0.0.0.0.0.0.0.0.0.0.0.0.0.0.0.0.0.0.0.0.0.0.0.0.0.0.0.",
"0.0.0.0.3 z y y F _ R R _ R k ^ *.m @ z _ _ _ _ _ _ h 0.0.0.0.0.0.0.0.0.0.0.0.0.0.0.0.0.0.0.0.0.0.0.0.0.0.0.0.0.0.0.0.0.",
"0.0.0.0.@ B g _ _ _ _ _ _ _ T H @.7 9 _ _ _ _ _ _ _ L 0.0.0.0.0.0.0.0.0.0.0.0.0.0.0.0.0.0.0.0.0.0.0.0.0.0.0.0.0.0.0.0.0.",
"0.0.0.0.0.9 L _ _ _ _ _ _ _ K n *.# C _ _ _ _ _ _ F a k 0.0.0.0.0.0.0.0.0.0.0.0.0.0.0.0.0.0.0.0.0.0.0.0.0.0.0.0.0.0.0.0.",
"0.0.0.0.0.V _ _ _ _ _ _ _ _ Z / c 2 _ _ _ I p g a g 3.3.` 0.0.0.0.0.0.0.0.0.0.0.0.0.0.0.0.0.0.0.0.0.0.0.0.0.0.0.0.0.0.0.",
"0.0.0.0.9 _ _ _ P Z _ _ _ _ U v O 8 _ _ _ C . 0.: 4.9.9.5., 0.9 0 @ 0.0.0.0.0.0.0.0.0.0.0.0.0.0.0.0.0.0.0.0.0.0.0.0.0.0.",
"0.0.0.0.C _ _ P o % K _ _ _ _ I w f _ _ _ - 0.0.x 9.9.9.9.-.0.a U P : 0.0.0.0.0.0.0.0.0.0.0.0.0.0.0.0.0.0.0.0.0.0.0.0.0.",
"0.0.0.0.F _ _ u + Z R _ _ _ _ U F j _ _ _ 0.0.0 <.9.9.9.9.7.0.h _ _ P , 0.0.0.0.0.0.0.0.0.0.0.0.0.0.0.0.0.0.0.0.0.0.0.0.",
"0.0.0.0.I ` U @ v R _ _ _ _ _ _ Z C _ _ U : @ } 9.9.9.9.9.2.@ F _ _ _ P 2 0.0.0.0.0.0.0.0.0.0.0.0.0.0.0.0.0.0.0.0.0.0.0.",
"0.0.0.0.B ' C 1 #._ _ _ _ _ _ _ 8 Z _ _ U I u 1.9.9.9.9.9.[ & I _ _ _ _ C . 0.0.0.0.0.0.0.0.0.0.0.0.0.0.0.0.0.0.0.0.0.0.",
"0.0.0.0.$ F y $.) _ _ U _ _ _ P w R _ _ _ _ F | <.,.9.5.4.0 * _ _ _ _ R R y 0.0.0.0.0.0.0.0.0.0.0.0.0.0.0.0.0.0.0.0.0.0.",
"0.0.0.0.* h r =.b _ B K _ _ _ Z g _ _ _ _ _ R h A Y 9.2. .8 , _ _ _ _ I K P + 0.0.0.0.0.0.0.0.0.0.0.0.0.0.0.0.0.0.0.0.0.",
"0.0.0.3 , T d M C a I _ _ _ I u _ _ _ _ _ _ _ _ Z Y 9.<.i R 3 R _ _ _ I z R u 0.0.0.0.0.0.0.0.0.0.0.0.0.0.0.0.0.0.0.0.0.",
"0.0.0.i s G ,.0 C _ I U _ _ Z u P _ _ _ _ _ _ _ I i 9.<.k R 4 U _ _ _ U C _ K . 0.0.0.0.0.0.0.0.0.0.0.0.0.0.0.0.0.0.0.0.",
"0.0.= s * x 8.{ e y S C K _ R _ C C C C L _ _ _ _ j | Y g _ y L U P _ _ Z V _ * = 0.0.0.0.0.0.0.0.0.0.0.0.0.0.x A k 0.0.",
"0.0.0.k ,.4.9.6. .,. .R _ _ _ K y P A a p 3 p K _ R l g P R k u 8 , p R R w _ 6 4 0.0.0.0.0.0.0.0.0.0.0.0.e ;.8.9.9.2.0.",
"0.0.0.0. .6.9.9.9.9.T F U _ _ C ,.,.,.,.,.,.[ A k i i i y 3 A s 2.4.i e I x p F 2 u 0.0.0.0.0.0.0.0.0.0.i 7.9.9.1.Y l A ",
"0.0.0.0.S 9.4.8.1.E 5 C _ U _ P D ,.,.>.T :.,.,.,.,.,.>.d :.,.,.9.9.7.u h U 4 _ , Z 5 0.0.0.0.0.0.0.  u S 7.9.,.6 0.0.0.",
"0.0.0.0.0.0.0.0.0.0.0.j _ j C Z z ,.[ k { k X.X.,.,.,.E G 9.G 7.9.9.9.1.p U a K 2 h _ 9 X 0.0.0.0.% l _ T 8.| . 0.0.0.0.",
"0.0.0.0.0.0.0.0.0.0.0.u _ P 4 x X.,.Y 3.4.E ] l Y ,.,.D { 9.x 8.9.9.9.9.' C K a 9 u _ _ f ;   . 5 V _ R x A : 0.0.0.0.0.",
"0.0.0.0.0.0.0.0.0.0.0.9 _ _ K > 6 x 1.9.9.9.9.3.E ,.,.A :.9.s 1.9.9.9.9.6.9 R 2 a q _ _ _ _ _ _ _ _ _ _ u   0.0.0.0.0.0.",
"0.0.0.0.0.0.0.0.0.0.0.5 _ _ U z - x 9.9.9.9.9.] T ,.,.g -.9.<.x S :.9.9.9.E P > f q _ _ _ _ _ _ _ _ _ f + 0.0.0.0.0.0.0.",
"0.0.0.0.0.0.0.0.0.0.0., _ _ _ _ R T 3.9.9.9.,.L ,.,.,.k Y 2.1.5.8.9.9.9.9.4.j w u u _ _ _ _ _ _ _ I u   0.0.0.0.0.0.0.0.",
"0.0.0.0.0.0.0.0.0.0.0.0._ _ _ _ R s ,.9.9.3.>.k :.,.,.[ | x :.8.9.9.9.9.9.9.G a u 3 K U _ _ _ _ K 5 . 0.0.0.0.0.0.0.0.0.",
"0.0.0.0.0.0.0.0.0.0.0.0.Z _ _ _ _ z 8.9.9.5.E 0.; G ,.E 9.9.8.6.9.9.9.9.9.9.<.i u 5 . q z C B q + 0.0.0.0.0.0.0.0.0.0.0.",
"0.0.0.0.0.0.0.0.0.0.0.0.4 Z _ _ R h 7.9.9.3.* 0.0.+ 0 e ;.:.G [ X.9.9.9.9.9.7.S p w 0.0.o + o   0.0.0.0.0.0.0.0.0.0.0.0.",
"0.0.0.0.0.0.0.0.0.0.0.0.0.o u a w w 4.9.9.,.A 0.0.0.0.  . * T [ S S 8.9.9.9.9.7.g u 0.0.0.0.0.0.0.0.0.0.0.0.0.0.0.0.0.0.",
"0.0.0.0.0.0.0.0.0.0.0.0.0.0.0.0.0.0.s <.9.1.0.0.0.0.0.0.0.  @ & : 6 >.9.9.9.9.5.a 2 6 [ 6 0.0.0.0.0.0.0.0.0.0.0.0.0.0.0.",
"0.0.0.0.0.0.0.0.0.0.0.0.0.0.0.0.0.0.0.0.6 0.0.0.0.0.0.0.0.0.0.0.* F q 4.9.9.9.:.h 4 G <.4.0 0.0.0.0.0.0.0.0.0.0.0.0.0.0.",
"0.0.0.0.0.0.0.0.0.0.0.0.0.0.0.0.0.0.0.0.0.0.0.0.0.0.0.0.0.0.0.0.0.: C E 9.9.9.Y C h A 6.9.` 0.0.0.0.0.0.0.0.0.0.0.0.0.0.",
"0.0.0.0.0.0.0.0.0.0.0.0.0.0.0.0.0.0.0.0.0.0.0.0.0.0.0.0.0.0.0.0.0.  z y ,.9.9.x F l Z ] 9.7., 0.0.0.0.0.0.0.0.0.0.0.0.0.",
"0.0.0.0.0.0.0.0.0.0.0.0.0.0.0.0.0.0.0.0.0.0.0.0.0.0.0.0.0.0.0.0.0.0.- h S 9.X.K L z P R 9.9.,.0.0.0.0.0.0.0.0.0.0.0.0.0.",
"0.0.0.0.0.0.0.0.0.0.0.0.0.0.0.0.0.0.0.0.0.0.0.0.0.0.0.0.0.0.0.0.0.0.  Z j w l _ U Z R Y 9.9.9.1.x s 0.0.0.0.0.0.0.0.0.0.",
"0.0.0.0.0.0.0.0.0.0.0.0.0.0.0.0.0.0.0.0.0.0.0.0.0.0.0.0.0.0.0.0.0.0.0.a R I _ _ R F R E 9.9.9.9.8.2.Y 0.0.0.0.0.0.0.0.0.",
"0.0.0.0.0.0.0.0.0.0.0.0.0.0.0.0.0.0.0.0.0.0.0.0.0.0.0.0.0.0.0.0.0.0.0.9 I _ _ _ _ I I :.9.9.9.9.9.9.9., 0.0.0.0.0.0.0.0.",
"0.0.0.0.0.0.0.0.0.0.0.0.0.0.0.0.0.0.0.0.0.0.0.0.0.0.0.0.0.0.0.0.0.0.0.0.z _ _ _ _ _ z X.9.9.9.9.9.9.9.w 0.0.0.0.0.0.0.0.",
"0.0.0.0.0.0.0.0.0.0.0.0.0.0.0.0.0.0.0.0.0.0.0.0.0.0.0.0.0.0.0.0.0.0.0.0.w P _ _ _ U - h 9.9.9.9.5.9.8.: 0.0.0.0.0.0.0.0.",
"0.0.0.0.0.0.0.0.0.0.0.0.0.0.0.0.0.0.0.0.0.0.0.0.0.0.0.0.0.0.0.0.0.0.0.0.0.y _ _ _ h   0.4.9.9.9.>.G r 0.0.0.0.0.0.0.0.0.",
"0.0.0.0.0.0.0.0.0.0.0.0.0.0.0.0.0.0.0.0.0.0.0.0.0.0.0.0.0.0.0.0.0.0.0.0.0.% : u 4 o 0.0.[ 9.:.9.9.9.E 0.0.0.0.0.0.0.0.0.",
"0.0.0.0.0.0.0.0.0.0.0.0.0.0.0.0.0.0.0.0.0.0.0.0.0.0.0.0.0.0.0.0.0.0.0.0.0.0.0.0.  0.0.0.k 7.{ 4.9.9.s 0.0.0.0.0.0.0.0.0.",
"0.0.0.0.0.0.0.0.0.0.0.0.0.0.0.0.0.0.0.0.0.0.0.0.0.0.0.0.0.0.0.0.0.0.0.0.0.0.0.0.0.0.0.0.0.] 9.k [ G 0.0.0.0.0.0.0.0.0.0.",
"0.0.0.0.0.0.0.0.0.0.0.0.0.0.0.0.0.0.0.0.0.0.0.0.0.0.0.0.0.0.0.0.0.0.0.0.0.0.0.0.0.0.0.0.0.> :.{ 0.0.0.0.0.0.0.0.0.0.0.0.",
"0.0.0.0.0.0.0.0.0.0.0.0.0.0.0.0.0.0.0.0.0.0.0.0.0.0.0.0.0.0.0.0.0.0.0.0.0.0.0.0.0.0.0.0.0.0.0.0.0.0.0.0.0.0.0.0.0.0.0.0.",
"0.0.0.0.0.0.0.0.0.0.0.0.0.0.0.0.0.0.0.0.0.0.0.0.0.0.0.0.0.0.0.0.0.0.0.0.0.0.0.0.0.0.0.0.0.0.0.0.0.0.0.0.0.0.0.0.0.0.0.0.",
"0.0.0.0.0.0.0.0.0.0.0.0.0.0.0.0.0.0.0.0.0.0.0.0.0.0.0.0.0.0.0.0.0.0.0.0.0.0.0.0.0.0.0.0.0.0.0.0.0.0.0.0.0.0.0.0.0.0.0.0.",
"0.0.0.0.0.0.0.0.0.0.0.0.0.0.0.0.0.0.0.0.0.0.0.0.0.0.0.0.0.0.0.0.0.0.0.0.0.0.0.0.0.0.0.0.0.0.0.0.0.0.0.0.0.0.0.0.0.0.0.0.",
"0.0.0.0.0.0.0.0.0.0.0.0.0.0.0.0.0.0.0.0.0.0.0.0.0.0.0.0.0.0.0.0.0.0.0.0.0.0.0.0.0.0.0.0.0.0.0.0.0.0.0.0.0.0.0.0.0.0.0.0.",
"0.0.0.0.0.0.0.0.0.0.0.0.0.0.0.0.0.0.0.0.0.0.0.0.0.0.0.0.0.0.0.0.0.0.0.0.0.0.0.0.0.0.0.0.0.0.0.0.0.0.0.0.0.0.0.0.0.0.0.0.",
"0.0.0.0.0.0.0.0.0.0.0.0.0.0.0.0.0.0.0.0.0.0.0.0.0.0.0.0.0.0.0.0.0.0.0.0.0.0.0.0.0.0.0.0.0.0.0.0.0.0.0.0.0.0.0.0.0.0.0.0.",
"0.0.0.0.0.0.0.0.0.0.0.0.0.0.0.0.0.0.0.0.0.0.0.0.0.0.0.0.0.0.0.0.0.0.0.0.0.0.0.0.0.0.0.0.0.0.0.0.0.0.0.0.0.0.0.0.0.0.0.0.",
"0.0.0.0.0.0.0.0.0.0.0.0.0.0.0.0.0.0.0.0.0.0.0.0.0.0.0.0.0.0.0.0.0.0.0.0.0.0.0.0.0.0.0.0.0.0.0.0.0.0.0.0.0.0.0.0.0.0.0.0.",
"0.0.0.0.0.0.0.0.0.0.0.0.0.0.0.0.0.0.0.0.0.0.0.0.0.0.0.0.0.0.0.0.0.0.0.0.0.0.0.0.0.0.0.0.0.0.0.0.0.0.0.0.0.0.0.0.0.0.0.0.",
"0.0.0.0.0.0.0.0.0.0.0.0.0.0.0.0.0.0.0.0.0.0.0.0.0.0.0.0.0.0.0.0.0.0.0.0.0.0.0.0.0.0.0.0.0.0.0.0.0.0.0.0.0.0.0.0.0.0.0.0.",
"0.0.0.0.0.0.0.0.0.0.0.0.0.0.0.0.0.0.0.0.0.0.0.0.0.0.0.0.0.0.0.0.0.0.0.0.0.0.0.0.0.0.0.0.0.0.0.0.0.0.0.0.0.0.0.0.0.0.0.0.",
"0.0.0.0.0.0.0.0.0.0.0.0.0.0.0.0.0.0.0.0.0.0.0.0.0.0.0.0.0.0.0.0.0.0.0.0.0.0.0.0.0.0.0.0.0.0.0.0.0.0.0.0.0.0.0.0.0.0.0.0.",
"0.0.0.0.0.0.0.0.0.0.0.0.0.0.0.0.0.0.0.0.0.0.0.0.0.0.0.0.0.0.0.0.0.0.0.0.0.0.0.0.0.0.0.0.0.0.0.0.0.0.0.0.0.0.0.0.0.0.0.0.",
"0.0.0.0.0.0.0.0.0.0.0.0.0.0.0.0.0.0.0.0.0.0.0.0.0.0.0.0.0.0.0.0.0.0.0.0.0.0.0.0.0.0.0.0.0.0.0.0.0.0.0.0.0.0.0.0.0.0.0.0.",
"0.0.0.0.0.0.0.0.0.0.0.0.0.0.0.0.0.0.0.0.0.0.0.0.0.0.0.0.0.0.0.0.0.0.0.0.0.0.0.0.0.0.0.0.0.0.0.0.0.0.0.0.0.0.0.0.0.0.0.0.",
"0.0.0.0.0.0.0.0.0.0.0.0.0.0.0.0.0.0.0.0.0.0.0.0.0.0.0.0.0.0.0.0.0.0.0.0.0.0.0.0.0.0.0.0.0.0.0.0.0.0.0.0.0.0.0.0.0.0.0.0.",
"0.0.0.0.0.0.0.0.0.0.0.0.0.0.0.0.0.0.0.0.0.0.0.0.0.0.0.0.0.0.0.0.0.0.0.0.0.0.0.0.0.0.0.0.0.0.0.0.0.0.0.0.0.0.0.0.0.0.0.0."
};
