/* XPM */
static char *result[] = {
/* columns rows colors chars-per-pixel */
"60 70 128 2 ",
"   c #030303",
".  c #070808",
"X  c #0A0A0A",
"o  c #110F0F",
"O  c #141415",
"+  c #1B1B1C",
"@  c #241C1B",
"#  c #1D1F20",
"$  c #1F2122",
"%  c #232425",
"&  c #262728",
"*  c #272829",
"=  c #2A2B2C",
"-  c #2F3132",
";  c #313334",
":  c #383837",
">  c #373A3B",
",  c #393C3D",
"<  c #4F3E3A",
"1  c #3E4041",
"2  c #424344",
"3  c #484747",
"4  c #434749",
"5  c #46494B",
"6  c #494C4D",
"7  c #534F42",
"8  c #5B4844",
"9  c #4C4E50",
"0  c #4E5254",
"q  c #535455",
"w  c #585857",
"e  c #555759",
"r  c #565A5C",
"t  c #5B5D5E",
"y  c #6E5753",
"u  c #626059",
"i  c #5A5E60",
"p  c #5D6265",
"a  c #636464",
"s  c #686767",
"d  c #616669",
"f  c #65696C",
"g  c #6B6D6D",
"h  c #706C6A",
"j  c #676D70",
"k  c #696E71",
"l  c #6D7275",
"z  c #6F7578",
"x  c #727273",
"c  c #71777A",
"v  c #747A7D",
"b  c #7A7C7C",
"n  c #97746D",
"m  c #837776",
"M  c #848077",
"N  c #96807C",
"B  c #9C927D",
"V  c #A38079",
"C  c #AA8078",
"Z  c #B4887F",
"A  c #777E81",
"S  c #797F82",
"D  c #7B8285",
"F  c #7E868A",
"G  c #838484",
"H  c #888785",
"J  c #8A8887",
"K  c #80878B",
"L  c #838A8D",
"P  c #8C8D8D",
"I  c #948887",
"U  c #9C8F8E",
"Y  c #8F908E",
"T  c #868D92",
"R  c #888F94",
"E  c #8A9196",
"W  c #8D969A",
"Q  c #8F989D",
"!  c #939393",
"~  c #969798",
"^  c #919A9E",
"/  c #9C9C9B",
"(  c #A08986",
")  c #AD8B85",
"_  c #A78E8A",
"`  c #B38D85",
"'  c #AC948F",
"]  c #B9958E",
"[  c #A0A09F",
"{  c #B9B19B",
"}  c #929BA0",
"|  c #9EA3A6",
" . c #A3A4A4",
".. c #ADADAD",
"X. c #B5B5B5",
"o. c #B8B7B6",
"O. c #B5B6B8",
"+. c #B6B8B8",
"@. c #BCBDBD",
"#. c #C0958C",
"$. c #CA978D",
"%. c #C79C94",
"&. c #D19B91",
"*. c #D3A498",
"=. c #C3BA9C",
"-. c #E4ADA2",
";. c #F0B3A7",
":. c #F5B7AA",
">. c #F8B8AB",
",. c #BFC0BF",
"<. c #C1C1BF",
"1. c #E1D6A9",
"2. c #EADFB0",
"3. c #BFC0C1",
"4. c #C5C5C6",
"5. c #CCCDCE",
"6. c #D3D3D3",
"7. c #DBDADA",
"8. c #E0DFDF",
"9. c #E1E0DF",
"0. c #DFDFE0",
"q. c #E3E3E2",
"w. c #EBEBEB",
"e. c #F4F4F4",
"r. c #F8F7F7",
"t. c #F8F8F7",
"y. c #FEFEFE",
"u. c None",
/* pixels */
"u.u.u.u.u.u.u.u.u.u.u.u.u.u.u.% u.u.u.u.u.u.u.u.u.u.u.u.u.u.u.u.u.u.u.u.u.u.u.u.u.u.u.u.u.u.u.u.u.u.u.u.u.u.u.u.u.u.u.u.",
"u.u.u.u.u.u.u.u.u.u.u.u.u.u.u.9 u.u.u.u.u.u.u.u.u.u.u.u.u.u.u.u.u.u.u.u.u.u.u.u.u.u.u.u.u.u.u.u.u.u.u.u.u.u.u.u.u.u.u.u.",
"u.u.u.u.u.u.u.u.u.u.u.u.u.u.q U u.u.u.u.u.u.u.u.u.u.u.u.u.u.u.u.u.u.u.u.u.u.u.u.u.u.u.u.u.u.u.u.u.u.u.u.u.u.u.u.u.u.u.u.",
"u.u.u.u.u.u.u.u.u.u.u.u.u.  G %.u.u.u.u.u.u.u.u.u.u.u.u.u.u.u.u.u.u.u.u.u.u.u.u.u.u.u.u.u.u.u.u.u.u.u.u.u.u.u.u.u.u.u.u.",
"u.u.u.u.u.u.u.u.u.u.u.u.u.0 U ;.y u.u.u.u.u.u.u.u.u.u.u.u.u.u.u.u.u.u.u.u.u.u.u.u.u.u.u.u.u.u.u.u.u.u.u.u.u.u.u.u.u.u.u.",
"u.u.u.u.p 6 u.u.u.u.u.u.u.v _ >.Z u.u.u.u.u.u.u.u.u.u.u.u.u.u.u.u.u.u.u.u.u.u.u.u.u.u.u.u.u.u.u.u.u.u.u.u.u.u.u.u.u.u.u.",
"u.u.u.u.u.z , u.u.u.u.u.u.Q ` >.;.u.u.u.u.u.- u.u.u.u.u.u.u.u.u.u.u.u.u.u.u.u.u.u.u.u.u.u.u.u.u.u.u.u.u.u.u.u.u.u.u.u.u.",
"u.u.u.u.u.D i u.u.u.u.u.- } ` >.>.< u.u.u.i D i % u.u.u.u.u.u.u.u.u.u.u.u.u.u.u.u.u.u.u.u.u.u.u.u.u.u.u.u.u.u.u.u.u.u.u.",
"u.u.u.u.u.D S O u.O u.u.0 W $.>.>.n u.u.5 } } } L # u.u.u.u.u.u.u.u.u.u.u.u.u.u.u.u.u.u.u.u.u.u.u.u.u.u.u.u.u.u.u.u.u.u.",
"u.u.u.u.u.d d 0 f d p - F L &.>.>.] u.u.R } } } } g u.u.u.u.u.u.u.u.u.u.u.u.u.u.u.u.u.u.u.u.u.u.u.u.u.u.u.u.u.u.u.u.u.u.",
"u.u.u.u., j 0 , f ^ } E ^ R ) -.>.%.u.0 } } } } } } % u.u.u.u.u.u.u.u.u.u.u.u.u.u.u.u.u.u.u.u.u.u.u.u.u.u.u.u.u.u.u.u.u.",
"u.u.u.u.1 v i i L } } ^ } ^ x ' >.C + v } } } } } } k u.u.u.u.u.u.u.u.u.u.u.u.u.u.u.u.u.u.u.u.u.u.u.u.u.u.u.u.u.u.u.u.u.",
"u.u.u.u.+ v k } } } } } } } W I *.8 9 } } } } ^ } } E u.u.u.u.u.u.u.u.u.u.u.u.u.u.u.u.u.u.u.u.u.u.u.u.u.u.u.u.u.u.u.u.u.",
"u.u.u.u.u.0 R } } } } } } } L N >.@ D } } } } ^ } F f c u.u.u.u.u.u.u.u.u.u.u.u.u.u.u.u.u.u.u.u.u.u.u.u.u.u.u.u.u.u.u.u.",
"u.u.u.u.u.D } } } } } } } } L ] n 2 } } } E d c f g 9.q.[ u.u.u.u.u.u.u.u.u.u.u.u.u.u.u.u.u.u.u.u.u.u.u.u.u.u.u.u.u.u.u.",
"u.u.u.u.0 ^ } } R K } } } } ^ m + 9 } } } D t ..a w.y.y.w., u.u.u.u.u.u.u.u.u.u.u.u.u.u.u.u.u.u.u.u.u.u.u.u.u.u.u.u.u.u.",
"u.u.u.u.D } } E O $ T } } } } E t j } } } 4 e.q. .y.y.y.y.@.u.u.u.u.u.u.u.u.u.u.u.u.u.u.u.u.u.u.u.u.u.u.u.u.u.u.u.u.u.u.",
"u.u.u.u.L } } p O F } } } } } Q T z } } } ~ y.! 6.y.y.y.y.r.u.u.u.u.u.u.u.u.u.u.u.u.u.u.u.u.u.u.u.u.u.u.u.u.u.u.u.u.u.u.",
"u.u.u.u.Q } ^ # M } } } } } } } F D } } Q t $ ..y.y.y.y.y.6.% u.u.u.u.u.u.u.u.u.u.u.u.u.u.u.u.u.u.u.u.u.u.u.u.u.u.u.u.u.",
"u.u.u.u.v | D 7 =.} } } } } } } 6 F } } ^ E p 6.y.y.y.y.y...O X   u.u.u.u.u.u.u.u.u.u.u.u.u.u.u.u.u.u.u.u.u.u.u.u.u.u.u.",
"u.u.u.u.+ L p 1.{ ^ } Q } } } E r ^ } } } } F +.5.5.y.e.w.9 A } F d , = u.u.u.u.u.u.u.u.u.u.u.u.u.u.u.u.u.u.u.u.u.u.u.u.",
"u.u.u.u.* z u 2.G } S L } } } F j } } } } } } l G ! y.7.X.9 W } } } T 0 - u.u.u.u.u.u.u.u.u.u.u.u.u.u.u.u.u.u.u.u.u.u.u.",
"u.u.u.2 : ! h B D f W } } } W p } } } } } } } } D ! y.6.a } } } } } q j 6 O u.u.u.u.u.u.u.u.u.u.u.u.u.u.G 0.y.w.! u.u.u.",
"u.u.u.f s P 5.q D } W Q } } K p R } } } } } } } ^ a y.6.k } } } } } p Q E p X u.u.u.u.u.u.u.u.u.u.u.- 4.y.y.y.6./ u.u.u.",
"u.u.= g % b e...t a G S T } ^ } D D D D R } } } } z O.! l } } } } R z } } } z . u.u.u.u.u.u.u.u.u.% 5.y.y.7.b u.u.u.u.u.",
"u.u.u.x 5.w.y.w.X.5.X.^ } } } T p E D d a 4 d T } Q z l E } } } } l L } } } ^ 4   u.u.u.u.u.u.u.- s ~ y.w.t u.u.u.u.u.u.",
"u.u.u.u.o.e.y.y.y.y.^ L Q ^ ^ D 5.5.5.5.5.5. .G x a i s A k A A T 0 ^ } } } } Q = &   u.u.u.. , E W @.6.; u.u.u.u.u.u.u.",
"u.u.u.u.G y.w.r.7./ 6 D ^ ^ } W H 5.5.4.~ 4.5.5.5.5.5.5.5.3. .T 0 = ^ } } } ^ } 0 0 r + . + e E ^ F w : u.u.u.u.u.u.u.u.",
"u.u.u.u.u.u.u.u.u.u.u.z } z S D v 5. .x ..x @.@.5.5.5.5.5.5.5.5.5.3 } } } } W v F 6 } } } } } } ^ T % u.u.u.u.u.u.u.u.u.",
"u.u.u.u.u.u.u.u.u.u.u.p } E 5 b @.5.! q.q./  .c ~ 5.5.5.5.5.5.5.5.a } } } } ^ r } 0 T } } } } } T 1 u.u.u.u.u.u.u.u.u.u.",
"u.u.u.u.u.u.u.u.u.u.u.0 } } T 6 c G 6.y.y.y.y.q./ 5.5.5.5.5.5.5.5.G } } } } } f Q z 6 } } } } F * u.u.u.u.u.u.u.u.u.u.u.",
"u.u.u.u.u.u.u.u.u.u.u.5 } } ^ D t G y.y.y.y.y. .~ 5.5.5.5.5.5.5.5.! Q E W } } F S E * } } ^ v + u.u.u.u.u.u.u.u.u.u.u.u.",
"u.u.u.u.u.u.u.u.u.u.u., } } } } } ~ q.y.y.y.5.! 5.5.5.5.5.5.5.X.G x 9 q 3 6 W ^ p W ; z p ,   u.u.u.u.u.u.u.u.u.u.u.u.u.",
"u.u.u.u.u.u.u.u.u.u.u.u.} } } } ^ g 5.y.y.q.4.x 3.5.5.5.5.5.5.i ! X.X.r.q.a 6 } i z r O .   u.u.u.u.u.u.u.u.u.u.u.u.u.u.",
"u.u.u.u.u.u.u.u.u.u.u.u.F } } } } c t.y.y.w./ u.; ! 5.5.5.5./ / y.[ y.y.y.t.t D c 0 D u.u.u.u.u.u.u.u.u.u.u.u.u.u.u.u.u.",
"u.u.u.u.u.u.u.u.u.u.u.u.4 F } } ^ l r.y.y.q.% u.u.O e +.5.5.w 8.t.G y.y.y.y.7.5 E 9 Q . u.u.u.u.u.u.u.u.u.u.u.u.u.u.u.u.",
"u.u.u.u.u.u.u.u.u.u.u.u.u.O p f r e w.y.y.5.G u.u.u.u.X 1 G 3 y.t.y y.y.y.y.y.s F i T O u.u.u.u.u.u.u.u.u.u.u.u.u.u.u.u.",
"u.u.u.u.u.u.u.u.u.u.u.u.u.u.u.u.u.u.g 5.y.6.u.u.u.u.u.u.u.  = y.y.q e.y.y.y.y.7.j z j & u.u.u.u.u.u.u.u.u.u.u.u.u.u.u.u.",
"u.u.u.u.u.u.u.u.u.u.u.u.u.u.u.u.u.u.u.u.6 u.u.u.u.u.u.u.u.u.3 7.y.0.b P 5.y.y.y.H T , , u.u.u.u.u.u.u.u.u.u.u.u.u.u.u.u.",
"u.u.u.u.u.u.u.u.u.u.u.u.u.u.u.u.u.u.u.u.u.u.u.u.u.u.u.u.u.u.6.a l X.t.y.y.y.y.y. .F - q u.u.u.u.u.u.u.u.u.u.u.u.u.u.u.u.",
"u.u.u.u.u.u.u.u.u.u.u.u.u.u.u.u.u.u.u.u.u.u.u.u.u.u.u.u.u.u.t.r.e.y.y.y.y.y.y.y.4.v : d H s u.u.u.u.u.u.u.u.u.u.u.u.u.u.",
"u.u.u.u.u.u.u.u.u.u.u.u.u.u.u.u.u.u.u.u.u.u.u.u.u.u.u.u.u.u.@.y.e.X.e.y.y.y.y.y.q.! , l 6.q.@.! u.u.u.u.u.u.u.u.u.u.u.u.",
"u.u.u.u.u.u.u.u.u.u.u.u.u.u.u.u.u.u.u.u.u.u.u.u.u.u.u.u.u.u.X ; $ R k 4.t.y.y.y.y.6.2 c 7.y.y.y./ u.u.u.u.u.u.u.u.u.u.u.",
"u.u.u.u.u.u.u.u.u.u.u.u.u.u.u.u.u.u.u.u.u.u.u.u.u.u.u.u.u.u.u.u.u.v Q S 5.y.y.y.y.r.D H w.y.y.y.7.6 u.u.u.u.u.u.u.u.u.u.",
"u.u.u.u.u.u.u.u.u.u.u.u.u.u.u.u.u.u.u.u.u.u.u.u.u.u.u.u.u.u.u.u.u.; } W b t.y.y.y.y.x q.y.y.y.y.5.u.u.u.u.u.u.u.u.u.u.u.",
"u.u.u.u.u.u.u.u.u.u.u.u.u.u.u.u.u.u.u.u.u.u.u.u.u.u.u.u.u.u.u.u.u.u.L } v ..y.y.y.t.g y.y.w.<.w.x u.u.u.u.u.u.u.u.u.u.u.",
"u.u.u.u.u.u.u.u.u.u.u.u.u.u.u.u.u.u.u.u.u.u.u.u.u.u.u.u.u.u.u.u.u.u.1 z E 6 e.y.y.7.<.e.t.y.q./ 2 u.u.u.u.u.u.u.u.u.u.u.",
"u.u.u.u.u.u.u.u.u.u.u.u.u.u.u.u.u.u.u.u.u.u.u.u.u.u.u.u.u.u.u.u.u.u.u.* 6 > ^ y.y. .8.r.5.y.y.y.u.u.u.u.u.u.u.u.u.u.u.u.",
"u.u.u.u.u.u.u.u.u.u.u.u.u.u.u.u.u.u.u.u.u.u.u.u.u.u.u.u.u.u.u.u.u.u.u.u.u.u.* w.5.t q y.[ ..e. .u.u.u.u.u.u.u.u.u.u.u.u.",
"u.u.u.u.u.u.u.u.u.u.u.u.u.u.u.u.u.u.u.u.u.u.u.u.u.u.u.u.u.u.u.u.u.u.u.u.u.u.u.s u.u.u.5.w.P 2 u.u.u.u.u.u.u.u.u.u.u.u.u.",
"u.u.u.u.u.u.u.u.u.u.u.u.u.u.u.u.u.u.u.u.u.u.u.u.u.u.u.u.u.u.u.u.u.u.u.u.u.u.u.u.u.u.u.o b u.u.u.u.u.u.u.u.u.u.u.u.u.u.u.",
"u.u.u.u.u.u.u.u.u.u.u.u.u.u.u.u.u.u.u.u.u.u.u.u.u.u.u.u.u.u.u.u.u.u.u.u.u.u.u.u.u.u.u.u.u.u.u.u.u.u.u.u.u.u.u.u.u.u.u.u.",
"u.u.u.u.u.u.u.u.u.u.u.u.u.u.u.u.u.u.u.u.u.u.u.u.u.u.u.u.u.u.u.u.u.u.u.u.u.u.u.u.u.u.u.u.u.u.u.u.u.u.u.u.u.u.u.u.u.u.u.u.",
"u.u.u.u.u.u.u.u.u.u.u.u.u.u.u.u.u.u.u.u.u.u.u.u.u.u.u.u.u.u.u.u.u.u.u.u.u.u.u.u.u.u.u.u.u.u.u.u.u.u.u.u.u.u.u.u.u.u.u.u.",
"u.u.u.u.u.u.u.u.u.u.u.u.u.u.u.u.u.u.u.u.u.u.u.u.u.u.u.u.u.u.u.u.u.u.u.u.u.u.u.u.u.u.u.u.u.u.u.u.u.u.u.u.u.u.u.u.u.u.u.u.",
"u.u.u.u.u.u.u.u.u.u.u.u.u.u.u.u.u.u.u.u.u.u.u.u.u.u.u.u.u.u.u.u.u.u.u.u.u.u.u.u.u.u.u.u.u.u.u.u.u.u.u.u.u.u.u.u.u.u.u.u.",
"u.u.u.u.u.u.u.u.u.u.u.u.u.u.u.u.u.u.u.u.u.u.u.u.u.u.u.u.u.u.u.u.u.u.u.u.u.u.u.u.u.u.u.u.u.u.u.u.u.u.u.u.u.u.u.u.u.u.u.u.",
"u.u.u.u.u.u.u.u.u.u.u.u.u.u.u.u.u.u.u.u.u.u.u.u.u.u.u.u.u.u.u.u.u.u.u.u.u.u.u.u.u.u.u.u.u.u.u.u.u.u.u.u.u.u.u.u.u.u.u.u.",
"u.u.u.u.u.u.u.u.u.u.u.u.u.u.u.u.u.u.u.u.u.u.u.u.u.u.u.u.u.u.u.u.u.u.u.u.u.u.u.u.u.u.u.u.u.u.u.u.u.u.u.u.u.u.u.u.u.u.u.u.",
"u.u.u.u.u.u.u.u.u.u.u.u.u.u.u.u.u.u.u.u.u.u.u.u.u.u.u.u.u.u.u.u.u.u.u.u.u.u.u.u.u.u.u.u.u.u.u.u.u.u.u.u.u.u.u.u.u.u.u.u.",
"u.u.u.u.u.u.u.u.u.u.u.u.u.u.u.u.u.u.u.u.u.u.u.u.u.u.u.u.u.u.u.u.u.u.u.u.u.u.u.u.u.u.u.u.u.u.u.u.u.u.u.u.u.u.u.u.u.u.u.u.",
"u.u.u.u.u.u.u.u.u.u.u.u.u.u.u.u.u.u.u.u.u.u.u.u.u.u.u.u.u.u.u.u.u.u.u.u.u.u.u.u.u.u.u.u.u.u.u.u.u.u.u.u.u.u.u.u.u.u.u.u.",
"u.u.u.u.u.u.u.u.u.u.u.u.u.u.u.u.u.u.u.u.u.u.u.u.u.u.u.u.u.u.u.u.u.u.u.u.u.u.u.u.u.u.u.u.u.u.u.u.u.u.u.u.u.u.u.u.u.u.u.u.",
"u.u.u.u.u.u.u.u.u.u.u.u.u.u.u.u.u.u.u.u.u.u.u.u.u.u.u.u.u.u.u.u.u.u.u.u.u.u.u.u.u.u.u.u.u.u.u.u.u.u.u.u.u.u.u.u.u.u.u.u.",
"u.u.u.u.u.u.u.u.u.u.u.u.u.u.u.u.u.u.u.u.u.u.u.u.u.u.u.u.u.u.u.u.u.u.u.u.u.u.u.u.u.u.u.u.u.u.u.u.u.u.u.u.u.u.u.u.u.u.u.u.",
"u.u.u.u.u.u.u.u.u.u.u.u.u.u.u.u.u.u.u.u.u.u.u.u.u.u.u.u.u.u.u.u.u.u.u.u.u.u.u.u.u.u.u.u.u.u.u.u.u.u.u.u.u.u.u.u.u.u.u.u.",
"u.u.u.u.u.u.u.u.u.u.u.u.u.u.u.u.u.u.u.u.u.u.u.u.u.u.u.u.u.u.u.u.u.u.u.u.u.u.u.u.u.u.u.u.u.u.u.u.u.u.u.u.u.u.u.u.u.u.u.u.",
"u.u.u.u.u.u.u.u.u.u.u.u.u.u.u.u.u.u.u.u.u.u.u.u.u.u.u.u.u.u.u.u.u.u.u.u.u.u.u.u.u.u.u.u.u.u.u.u.u.u.u.u.u.u.u.u.u.u.u.u.",
"u.u.u.u.u.u.u.u.u.u.u.u.u.u.u.u.u.u.u.u.u.u.u.u.u.u.u.u.u.u.u.u.u.u.u.u.u.u.u.u.u.u.u.u.u.u.u.u.u.u.u.u.u.u.u.u.u.u.u.u.",
"u.u.u.u.u.u.u.u.u.u.u.u.u.u.u.u.u.u.u.u.u.u.u.u.u.u.u.u.u.u.u.u.u.u.u.u.u.u.u.u.u.u.u.u.u.u.u.u.u.u.u.u.u.u.u.u.u.u.u.u."
};
