/* XPM */
static char *result[] = {
/* columns rows colors chars-per-pixel */
"60 70 120 2 ",
"   c #030303",
".  c #0A0A0A",
"X  c #141515",
"o  c #1A1716",
"O  c #161718",
"+  c #171819",
"@  c #1C1D1D",
"#  c #241C1B",
"$  c #1D1F20",
"%  c #1F2122",
"&  c #242525",
"*  c #272728",
"=  c #272829",
"-  c #2A2C2D",
";  c #2D2F30",
":  c #2E3032",
">  c #333334",
",  c #353738",
"<  c #36393A",
"1  c #3A3C3D",
"2  c #4D3E39",
"3  c #544D3C",
"4  c #3B3F40",
"5  c #3E4041",
"6  c #414344",
"7  c #46494A",
"8  c #4A4C4D",
"9  c #5B4844",
"0  c #4B4E50",
"q  c #4D5254",
"w  c #525455",
"e  c #515658",
"r  c #575A5C",
"t  c #5A5D5E",
"y  c #6E5752",
"u  c #636158",
"i  c #5A5E61",
"p  c #5D6163",
"a  c #636566",
"s  c #616669",
"d  c #656A6D",
"f  c #6A6C6C",
"g  c #74726C",
"h  c #696E71",
"j  c #6D7275",
"k  c #6F7578",
"l  c #727373",
"z  c #70767A",
"x  c #747A7C",
"c  c #7C7C7D",
"v  c #98746D",
"b  c #837776",
"n  c #A27F77",
"m  c #848073",
"M  c #83847E",
"N  c #97807C",
"B  c #9F9375",
"V  c #A98077",
"C  c #B5897F",
"Z  c #767D81",
"A  c #787F82",
"S  c #7B8185",
"D  c #7E8589",
"F  c #838384",
"G  c #80868A",
"H  c #838A8D",
"J  c #898A8A",
"K  c #948887",
"L  c #9C908F",
"P  c #868E92",
"I  c #8A8F92",
"U  c #8A9195",
"Y  c #8D969B",
"T  c #8F989D",
"R  c #939494",
"E  c #969799",
"W  c #919A9E",
"Q  c #9B9C9C",
"!  c #A18A87",
"~  c #AB8A83",
"^  c #A78E8A",
"/  c #B38D84",
"(  c #AC948F",
")  c #BC968D",
"_  c #BEB292",
"`  c #929BA0",
"'  c #9EA4A8",
"]  c #A2A3A3",
"[  c #A6A7A8",
"{  c #ACACAC",
"}  c #AFAFB0",
"|  c #B4B4B5",
" . c #B6B7B8",
".. c #B7B8B9",
"X. c #BCBCBD",
"o. c #C7968C",
"O. c #C49B92",
"+. c #D19B90",
"@. c #C8B88E",
"#. c #D2A59B",
"$. c #E3ACA1",
"%. c #F0B4A7",
"&. c #F6B7AA",
"*. c #F8B8AA",
"=. c #E8CF94",
"-. c #F3D89A",
";. c #BCBEC0",
":. c #BFC0C2",
">. c #C3C4C4",
",. c #CCCDCE",
"<. c #CFCFD0",
"1. c #D4D4D4",
"2. c #D7D8D7",
"3. c #DADADA",
"4. c #E3E3E3",
"5. c #E7E7E8",
"6. c #ECEDED",
"7. c #F3F3F3",
"8. c #FEFEFE",
"9. c None",
/* pixels */
"9.9.9.9.9.9.9.9.9.9.9.9.9.9.9.& 9.9.9.9.9.9.9.9.9.9.9.9.9.9.9.9.9.9.9.9.9.9.9.9.9.9.9.9.9.9.9.9.9.9.9.9.9.9.9.9.9.9.9.9.",
"9.9.9.9.9.9.9.9.9.9.9.9.9.9.9.0 9.9.9.9.9.9.9.9.9.9.9.9.9.9.9.9.9.9.9.9.9.9.9.9.9.9.9.9.9.9.9.9.9.9.9.9.9.9.9.9.9.9.9.9.",
"9.9.9.9.9.9.9.9.9.9.9.9.9.9.e ! 9.9.9.9.9.9.9.9.9.9.9.9.9.9.9.9.9.9.9.9.9.9.9.9.9.9.9.9.9.9.9.9.9.9.9.9.9.9.9.9.9.9.9.9.",
"9.9.9.9.9.9.9.9.9.9.9.9.9.  F O.9.9.9.9.9.9.9.9.9.9.9.9.9.9.9.9.9.9.9.9.9.9.9.9.9.9.9.9.9.9.9.9.9.9.9.9.9.9.9.9.9.9.9.9.",
"9.9.9.9.9.9.9.9.9.9.9.9.9.q L %.y 9.9.9.9.9.9.9.9.9.9.9.9.9.9.9.9.9.9.9.9.9.9.9.9.9.9.9.9.9.9.9.9.9.9.9.9.9.9.9.9.9.9.9.",
"9.9.9.9.p 8 9.9.9.9.9.9.9.x ^ &.C 9.9.9.9.9.9.9.9.9.9.9.9.9.9.9.9.9.9.9.9.9.9.9.9.9.9.9.9.9.9.9.9.9.9.9.9.9.9.9.9.9.9.9.",
"9.9.9.9.9.k 4 9.9.9.9.9.9.W / *.%.9.9.9.9.9.: 9.9.9.9.9.9.9.9.9.9.9.9.9.9.9.9.9.9.9.9.9.9.9.9.9.9.9.9.9.9.9.9.9.9.9.9.9.",
"9.9.9.9.9.S i 9.9.9.9.9.: ` / *.*.2 9.9.9.i S i & 9.9.9.9.9.9.9.9.9.9.9.9.9.9.9.9.9.9.9.9.9.9.9.9.9.9.9.9.9.9.9.9.9.9.9.",
"9.9.9.9.9.D Z X 9.O 9.9.q Y o.&.&.v 9.9.7 ` ` ` H $ 9.9.9.9.9.9.9.9.9.9.9.9.9.9.9.9.9.9.9.9.9.9.9.9.9.9.9.9.9.9.9.9.9.9.",
"9.9.9.9.9.s s 0 d p p ; D P +.*.&.) 9.9.U ` ` ` ` d 9.9.9.9.9.9.9.9.9.9.9.9.9.9.9.9.9.9.9.9.9.9.9.9.9.9.9.9.9.9.9.9.9.9.",
"9.9.9.9.1 h 0 4 d W ` U ` I ~ $.*.O.9.q ` ` ` ` ` ` & 9.9.9.9.9.9.9.9.9.9.9.9.9.9.9.9.9.9.9.9.9.9.9.9.9.9.9.9.9.9.9.9.9.",
"9.9.9.9.5 x i i H ` ` W ` W g ( &.V @ z ` ` ` ` ` ` h 9.9.9.9.9.9.9.9.9.9.9.9.9.9.9.9.9.9.9.9.9.9.9.9.9.9.9.9.9.9.9.9.9.",
"9.9.9.9.@ Z h ` ` ` ` ` ` ` Y K #.9 0 ` ` ` ` ` ` ` U 9.9.9.9.9.9.9.9.9.9.9.9.9.9.9.9.9.9.9.9.9.9.9.9.9.9.9.9.9.9.9.9.9.",
"9.9.9.9.9.e P ` ` ` ` ` ` ` D n *.# S ` ` ` ` ` ` D d l 9.9.9.9.9.9.9.9.9.9.9.9.9.9.9.9.9.9.9.9.9.9.9.9.9.9.9.9.9.9.9.9.",
"9.9.9.9.9.A ` ` ` ` ` ` ` ` D ) V < ` ` ` Y a k d f 4.4.] 9.9.9.9.9.9.9.9.9.9.9.9.9.9.9.9.9.9.9.9.9.9.9.9.9.9.9.9.9.9.9.",
"9.9.9.9.q ` ` ` U D ` ` ` ` ` c o 0 ` ` T S t } a 5.8.8.6.1 9.9.9.9.9.9.9.9.9.9.9.9.9.9.9.9.9.9.9.9.9.9.9.9.9.9.9.9.9.9.",
"9.9.9.9.S ` ` U X % H ` ` ` ` Y r h ` ` ` 7 7.4.[ 8.8.8.8.X.9.9.9.9.9.9.9.9.9.9.9.9.9.9.9.9.9.9.9.9.9.9.9.9.9.9.9.9.9.9.",
"9.9.9.9.P ` ` p + D ` ` ` ` ` T H k ` ` ` E 8.U 1.8.8.8.8.7.9.9.9.9.9.9.9.9.9.9.9.9.9.9.9.9.9.9.9.9.9.9.9.9.9.9.9.9.9.9.",
"9.9.9.9.` ` T $ m ` ` ` ` ` ` ` D S ` ` T r $ } 8.8.8.8.8.3.& 9.9.9.9.9.9.9.9.9.9.9.9.9.9.9.9.9.9.9.9.9.9.9.9.9.9.9.9.9.",
"9.9.9.9.Z ' Z 3 @.` ` T ` ` ` ` 8 D ` ` W Y p 1.8.8.8.8.8.[ O .   9.9.9.9.9.9.9.9.9.9.9.9.9.9.9.9.9.9.9.9.9.9.9.9.9.9.9.",
"9.9.9.9.@ H t =._ T ` T ` ` ` U r W ` ` W ` H  .<.,.8.7.5.0 Z ` D s 4 - 9.9.9.9.9.9.9.9.9.9.9.9.9.9.9.9.9.9.9.9.9.9.9.9.",
"9.9.9.9.= j u -.F ` Z P ` ` ` D j ` ` ` W W W j F R 8.3...0 Y ` ` ` ` x 4 9.9.9.9.9.9.9.9.9.9.9.9.9.9.9.9.9.9.9.9.9.9.9.",
"9.9.9.6 1 E g B S d Y ` ` ` Y p W ` ` ` ` ` W W D R 8.2.a ` ` ` ` ` ` ` W 0 9.9.9.9.9.9.9.9.9.9.9.9.9.9.9.9.9.9.9.9.9.9.",
"9.9.9.a f J ,.w S ` Y Y ` ` H p P ` ` ` ` ` ` ` Y a 8.<.j ` ` ` ` ` ` ` ` Y e 9.9.9.9.9.9.9.9.9.9.9.9.9.9.9.9.9.9.9.9.9.",
"9.9.- f * c 7.{ r p J c P ` W ` S S S S P ` ` ` ` k | R h ` ` ` ` ` ` ` ` ` ` - 9.9.9.9.9.9.9.9.9.9.9.9.9.9.9.9.9.9.9.9.",
"9.9.9.l ,.5.8.7.| ,...T ` ` ` P p U S d a 7 s P ` W k j U ` ` ` ` ` ` ` ` ` ` d 9.9.9.9.9.9.9.9.9.9.9.9.9.9.9.9.9.9.9.9.",
"9.9.9.9. .7.8.8.8.8.W H W W ` S ,.,.,.,.<.,.[ b l a p a x l A x P ` ` ` ` ` ` ` O 9.9.9.9.9.9.9.9.9.9.9.c >.7.8.] 9.9.9.",
"9.9.9.9.J 8.5.7.3.Q 7 S W T ` U J ,.,.>.W :.<.,.,.,.,.,.<.;.[ A s ` ` ` ` ` ` ` < 9.9.9.9.9.9.9.9.9.9.E 6.8.8.7.[ E 9.9.",
"9.9.9.9.9.9.9.9.9.9.9.z ` k S S x ,.[ l { l X.X.,.,.,.,.,.,.,.G S ` ` ` ` ` ` ` e 9.9.9.9.9.9.9.9.+ l 8.8.6.] 9.9.9.9.9.",
"9.9.9.9.9.9.9.9.9.9.9.p ` U 7 c ..,.R 4.5.Q ] x R ,.<.,.,.,.<.h T ` ` ` ` ` ` ` 5   9.9.9.9.9.9.+ i t 8.8.M 9.9.9.9.9.9.",
"9.9.9.9.9.9.9.9.9.9.9.q ` ` P 8 l F 2.8.8.8.8.4.Q ,.<.,.,.,.} d ` ` ` ` ` ` ` ` ; $ . 9.9.9.9.& A W Q 6.l 9.9.9.9.9.9.9.",
"9.9.9.9.9.9.9.9.9.9.9.7 ` ` W S p F 8.8.8.8.8.] E ,.,.<.<.,.j D ` ` ` ` ` ` ` ` = e h -   . 1 D W Y r 8 9.9.9.9.9.9.9.9.",
"9.9.9.9.9.9.9.9.9.9.9.1 ` ` ` ` ` E 4.8.8.8.,.R ,.,.<.,.,.,.w W ` ` ` ` ` ` ` x 4 s ` ` ` ` ` ` ` Y e 9.9.9.9.9.9.9.9.9.",
"9.9.9.9.9.9.9.9.9.9.9.9.` ` ` ` W f ,.8.8.4.>.l ;.<.,.,.<.,.p ` ` ` ` ` ` ` ` 5 8 a ` ` ` ` ` ` T p . 9.9.9.9.9.9.9.9.9.",
"9.9.9.9.9.9.9.9.9.9.9.9.D ` ` ` ` x 7.8.8.6.Q 9.; I ,.<.,...x ` ` ` ` ` ` ` U = 7 x ` W ` ` ` Y 6 . 9.9.9.9.9.9.9.9.9.9.",
"9.9.9.9.9.9.9.9.9.9.9.9.7 D ` ` W h 7.8.8.4.& 9.9.X e | <.R P ` ` ` ` ` ` ` p k d W ` W ` ` I ,   9.9.9.9.9.9.9.9.9.9.9.",
"9.9.9.9.9.9.9.9.9.9.9.9.9.X p d t r 5.8.8.,.F 9.9.9.9.. 6 8 W ` ` ` ` ` ` U 1 x - t 8 x j q . 9.9.9.9.9.9.9.9.9.9.9.9.9.",
"9.9.9.9.9.9.9.9.9.9.9.9.9.9.9.9.9.9.f <.8.2.9.9.9.9.9.9.9.@ ` ` ` ` ` ` ` p z r Z R X.+ .   9.9.9.9.9.9.9.9.9.9.9.9.9.9.",
"9.9.9.9.9.9.9.9.9.9.9.9.9.9.9.9.9.9.9.9.8 9.9.9.9.9.9.9.9.< ` ` ` ` ` ` D 5 T x P ;.8.> 9.9.9.9.9.9.9.9.9.9.9.9.9.9.9.9.",
"9.9.9.9.9.9.9.9.9.9.9.9.9.9.9.9.9.9.9.9.9.9.9.9.9.9.9.9.9.e ` ` ` ` ` ` p S S Y J >.8.r 9.9.9.9.9.9.9.9.9.9.9.9.9.9.9.9.",
"9.9.9.9.9.9.9.9.9.9.9.9.9.9.9.9.9.9.9.9.9.9.9.9.9.9.9.9.9.z ` ` ` ` ` S q W S W S 1.8.l 9.9.9.9.9.9.9.9.9.9.9.9.9.9.9.9.",
"9.9.9.9.9.9.9.9.9.9.9.9.9.9.9.9.9.9.9.9.9.9.9.9.9.9.9.9.9.G ` ` ` ` ` i p W H W U 7.8.F 9.9.9.9.9.9.9.9.9.9.9.9.9.9.9.9.",
"9.9.9.9.9.9.9.9.9.9.9.9.9.9.9.9.9.9.9.9.9.9.9.9.9.9.9.9.9.Y ` ` ` ` ` 0 H W W x ,.8.8.| 9.9.9.9.9.9.9.9.9.9.9.9.9.9.9.9.",
"9.9.9.9.9.9.9.9.9.9.9.9.9.9.9.9.9.9.9.9.9.9.9.9.9.9.9.9.9.W ` ` ` ` Y 0 W W z d 8.8.8.7.9.9.9.9.9.9.9.9.9.9.9.9.9.9.9.9.",
"9.9.9.9.9.9.9.9.9.9.9.9.9.9.9.9.9.9.9.9.9.9.9.9.9.9.9.9.9.Y ` ` ` ` D X , -   | 8.8.8.8.c 9.9.9.9.9.9.9.9.9.9.9.9.9.9.9.",
"9.9.9.9.9.9.9.9.9.9.9.9.9.9.9.9.9.9.9.9.9.9.9.9.9.9.9.9.9.H ` ` ` ` S   9.9.9.X.8.8.8.8.>.9.9.9.9.9.9.9.9.9.9.9.9.9.9.9.",
"9.9.9.9.9.9.9.9.9.9.9.9.9.9.9.9.9.9.9.9.9.9.9.9.9.9.9.9.9.e ` ` ` ` P 9.9.9.9.:.8.8.8.8.8.{ 9.9.9.9.9.9.9.9.9.9.9.9.9.9.",
"9.9.9.9.9.9.9.9.9.9.9.9.9.9.9.9.9.9.9.9.9.9.9.9.9.9.9.9.9.- ` ` ` ` T & 9.9.9.>.8.8.8.8.8.7.1 9.9.9.9.9.9.9.9.9.9.9.9.9.",
"9.9.9.9.9.9.9.9.9.9.9.9.9.9.9.9.9.9.9.9.9.9.9.9.9.9.9.9.9.9.D ` ` ` ` q 9.9.9.>.6.7.8.7.8.8.Q 9.9.9.9.9.9.9.9.9.9.9.9.9.",
"9.9.9.9.9.9.9.9.9.9.9.9.9.9.9.9.9.9.9.9.9.9.9.9.9.9.9.9.9.9.5 W ` ` H c 6 9.9.X.,.,.8.,.8.8.{ 9.9.9.9.9.9.9.9.9.9.9.9.9.",
"9.9.9.9.9.9.9.9.9.9.9.9.9.9.9.9.9.9.9.9.9.9.9.9.9.9.9.9.9.9.9.r Y ` t a Q @ 9.A >.| 8.X.>.2.5 9.9.9.9.9.9.9.9.9.9.9.9.9.",
"9.9.9.9.9.9.9.9.9.9.9.9.9.9.9.9.9.9.9.9.9.9.9.9.9.9.9.9.9.9.9.9.p ` d ] 8.8 9.& 2.] 8.8.F 1 9.9.9.9.9.9.9.9.9.9.9.9.9.9.",
"9.9.9.9.9.9.9.9.9.9.9.9.9.9.9.9.9.9.9.9.9.9.9.9.9.9.9.9.9.9.9.9.= x >.>.4.9.9.9.a t | 2.f 9.9.9.9.9.9.9.9.9.9.9.9.9.9.9.",
"9.9.9.9.9.9.9.9.9.9.9.9.9.9.9.9.9.9.9.9.9.9.9.9.9.9.9.9.9.9.9.4 { 1.5.8.<.9.9.9.9.9.# 6 9.9.9.9.9.9.9.9.9.9.9.9.9.9.9.9.",
"9.9.9.9.9.9.9.9.9.9.9.9.9.9.9.9.9.9.9.9.9.9.9.9.9.9.9.9.9.> c 7.8.8.8.7.[ 9.9.9.9.9.9.9.9.9.9.9.9.9.9.9.9.9.9.9.9.9.9.9.",
"9.9.9.9.9.9.9.9.9.9.9.9.9.9.9.9.9.9.9.9.9.9.9.9.9.9.9.g J >.8.7.5.8.8.1.9.9.9.9.9.9.9.9.9.9.9.9.9.9.9.9.9.9.9.9.9.9.9.9.",
"9.9.9.9.9.9.9.9.9.9.9.9.9.9.9.9.9.9.9.9.9.9.9.9.9.9.>.:.1.5.] ..7.8.8.l 9.9.9.9.9.9.9.9.9.9.9.9.9.9.9.9.9.9.9.9.9.9.9.9.",
"9.9.9.9.9.9.9.9.9.9.9.9.9.9.9.9.9.9.9.9.9.9.9.9.9.9.3.] 5.c 1.8.8.8.>.@ 9.9.9.9.9.9.9.9.9.9.9.9.9.9.9.9.9.9.9.9.9.9.9.9.",
"9.9.9.9.9.9.9.9.9.9.9.9.9.9.9.9.9.9.9.9.9.9.9.9.9.9.1 ] } 6.8.8.8.1.$ 9.9.9.9.9.9.9.9.9.9.9.9.9.9.9.9.9.9.9.9.9.9.9.9.9.",
"9.9.9.9.9.9.9.9.9.9.9.9.9.9.9.9.9.9.9.9.9.9.9.9.9.9.9.t c 8.8.8.,.6 9.9.9.9.9.9.9.9.9.9.9.9.9.9.9.9.9.9.9.9.9.9.9.9.9.9.",
"9.9.9.9.9.9.9.9.9.9.9.9.9.9.9.9.9.9.9.9.9.9.9.9.9.9.9.9.9.| 2.F 9.9.9.9.9.9.9.9.9.9.9.9.9.9.9.9.9.9.9.9.9.9.9.9.9.9.9.9.",
"9.9.9.9.9.9.9.9.9.9.9.9.9.9.9.9.9.9.9.9.9.9.9.9.9.9.9.9.9.9.9.9.9.9.9.9.9.9.9.9.9.9.9.9.9.9.9.9.9.9.9.9.9.9.9.9.9.9.9.9.",
"9.9.9.9.9.9.9.9.9.9.9.9.9.9.9.9.9.9.9.9.9.9.9.9.9.9.9.9.9.9.9.9.9.9.9.9.9.9.9.9.9.9.9.9.9.9.9.9.9.9.9.9.9.9.9.9.9.9.9.9.",
"9.9.9.9.9.9.9.9.9.9.9.9.9.9.9.9.9.9.9.9.9.9.9.9.9.9.9.9.9.9.9.9.9.9.9.9.9.9.9.9.9.9.9.9.9.9.9.9.9.9.9.9.9.9.9.9.9.9.9.9.",
"9.9.9.9.9.9.9.9.9.9.9.9.9.9.9.9.9.9.9.9.9.9.9.9.9.9.9.9.9.9.9.9.9.9.9.9.9.9.9.9.9.9.9.9.9.9.9.9.9.9.9.9.9.9.9.9.9.9.9.9.",
"9.9.9.9.9.9.9.9.9.9.9.9.9.9.9.9.9.9.9.9.9.9.9.9.9.9.9.9.9.9.9.9.9.9.9.9.9.9.9.9.9.9.9.9.9.9.9.9.9.9.9.9.9.9.9.9.9.9.9.9.",
"9.9.9.9.9.9.9.9.9.9.9.9.9.9.9.9.9.9.9.9.9.9.9.9.9.9.9.9.9.9.9.9.9.9.9.9.9.9.9.9.9.9.9.9.9.9.9.9.9.9.9.9.9.9.9.9.9.9.9.9.",
"9.9.9.9.9.9.9.9.9.9.9.9.9.9.9.9.9.9.9.9.9.9.9.9.9.9.9.9.9.9.9.9.9.9.9.9.9.9.9.9.9.9.9.9.9.9.9.9.9.9.9.9.9.9.9.9.9.9.9.9.",
"9.9.9.9.9.9.9.9.9.9.9.9.9.9.9.9.9.9.9.9.9.9.9.9.9.9.9.9.9.9.9.9.9.9.9.9.9.9.9.9.9.9.9.9.9.9.9.9.9.9.9.9.9.9.9.9.9.9.9.9.",
"9.9.9.9.9.9.9.9.9.9.9.9.9.9.9.9.9.9.9.9.9.9.9.9.9.9.9.9.9.9.9.9.9.9.9.9.9.9.9.9.9.9.9.9.9.9.9.9.9.9.9.9.9.9.9.9.9.9.9.9."
};
