/* XPM */
static char *result[] = {
/* columns rows colors chars-per-pixel */
"60 70 113 2 ",
"   c #020203",
".  c #0A0A0B",
"X  c #141515",
"o  c #171919",
"O  c #1C1C1D",
"+  c #241C1A",
"@  c #1D1F20",
"#  c #1F2122",
"$  c #232424",
"%  c #27292A",
"&  c #2A2B2C",
"*  c #2E3032",
"=  c #333638",
"-  c #373A3B",
";  c #393B3C",
":  c #4D3E39",
">  c #534A3D",
",  c #3B3E40",
"<  c #3E4042",
"1  c #424445",
"2  c #434749",
"3  c #46494A",
"4  c #494B4C",
"5  c #5B4743",
"6  c #4B4F51",
"7  c #4D5153",
"8  c #525455",
"9  c #545759",
"0  c #56595B",
"q  c #5A5D5E",
"w  c #625E57",
"e  c #6C5851",
"r  c #5A5E60",
"t  c #5D6265",
"y  c #636465",
"u  c #636769",
"i  c #65696C",
"p  c #6B6C6D",
"a  c #74706B",
"s  c #696E71",
"d  c #6D7274",
"f  c #6F7579",
"g  c #727374",
"h  c #737779",
"j  c #747A7C",
"k  c #7A7B7B",
"l  c #98756D",
"z  c #847B75",
"x  c #83827E",
"c  c #9E8E77",
"v  c #96807C",
"b  c #A98077",
"n  c #A28079",
"m  c #B5897F",
"M  c #777E81",
"N  c #797E81",
"B  c #7B8285",
"V  c #7E8689",
"C  c #838384",
"Z  c #888787",
"A  c #83878A",
"S  c #838A8D",
"D  c #8B8C8C",
"F  c #938886",
"G  c #9C8F8E",
"H  c #868E91",
"J  c #8A9195",
"K  c #8E969A",
"L  c #8F989C",
"P  c #929394",
"I  c #979798",
"U  c #929B9F",
"Y  c #9C9C9C",
"T  c #A08A86",
"R  c #AB8B84",
"E  c #A78E89",
"W  c #B38D84",
"Q  c #AC948F",
"!  c #BC958D",
"~  c #BCAC94",
"^  c #989FA3",
"/  c #9FA2A4",
"(  c #A3A4A4",
")  c #A6A7A8",
"_  c #A7A8A8",
"`  c #ABACAC",
"'  c #AFB0AF",
"]  c #B3B3B4",
"[  c #B7B7B9",
"{  c #B7B8B9",
"}  c #BBBCBD",
"|  c #C9988C",
" . c #C69C93",
".. c #D19C90",
"X. c #D2A49A",
"o. c #C6B192",
"O. c #E3ADA1",
"+. c #F0B4A6",
"@. c #F6B7A9",
"#. c #F8B8AA",
"$. c #E6C59B",
"%. c #EFCDA1",
"&. c #BFC0C2",
"*. c #C2C2C3",
"=. c #C5C6C8",
"-. c #CCCDCF",
";. c #D4D4D4",
":. c #DBDBDC",
">. c #E2E2E2",
",. c #EBEBEC",
"<. c #F3F3F3",
"1. c #FEFEFE",
"2. c None",
/* pixels */
"2.2.2.2.2.2.2.2.2.2.2.2.2.2.2.$ 2.2.2.2.2.2.2.2.2.2.2.2.2.2.2.2.2.2.2.2.2.2.2.2.2.2.2.2.2.2.2.2.2.2.2.2.2.2.2.2.2.2.2.2.",
"2.2.2.2.2.2.2.2.2.2.2.2.2.2.2.6 2.2.2.2.2.2.2.2.2.2.2.2.2.2.2.2.2.2.2.2.2.2.2.2.2.2.2.2.2.2.2.2.2.2.2.2.2.2.2.2.2.2.2.2.",
"2.2.2.2.2.2.2.2.2.2.2.2.2.2.8 G 2.2.2.2.2.2.2.2.2.2.2.2.2.2.2.2.2.2.2.2.2.2.2.2.2.2.2.2.2.2.2.2.2.2.2.2.2.2.2.2.2.2.2.2.",
"2.2.2.2.2.2.2.2.2.2.2.2.2.  z  .2.2.2.2.2.2.2.2.2.2.2.2.2.2.2.2.2.2.2.2.2.2.2.2.2.2.2.2.2.2.2.2.2.2.2.2.2.2.2.2.2.2.2.2.",
"2.2.2.2.2.2.2.2.2.2.2.2.2.7 G +.e 2.2.2.2.2.2.2.2.2.2.2.2.2.2.2.2.2.2.2.2.2.2.2.2.2.2.2.2.2.2.2.2.2.2.2.2.2.2.2.2.2.2.2.",
"2.2.2.2.t 4 2.2.2.2.2.2.2.M E #.W 2.2.2.2.2.2.2.2.2.2.2.2.2.2.2.2.2.2.2.2.2.2.2.2.2.2.2.2.2.2.2.2.2.2.2.2.2.2.2.2.2.2.2.",
"2.2.2.2.2.f ; 2.2.2.2.2.2.L W #.+.2.2.2.2.2.* 2.2.2.2.2.2.2.2.2.2.2.2.2.2.2.2.2.2.2.2.2.2.2.2.2.2.2.2.2.2.2.2.2.2.2.2.2.",
"2.2.2.2.2.B r 2.2.2.2.2.* ^ W #.#.: 2.2.2.r B r $ 2.2.2.2.2.2.2.2.2.2.2.2.2.2.2.2.2.2.2.2.2.2.2.2.2.2.2.2.2.2.2.2.2.2.2.",
"2.2.2.2.2.V M X 2.o 2.2.7 K | @.#.l 2.2.3 ^ U U S @ 2.2.2.2.2.2.2.2.2.2.2.2.2.2.2.2.2.2.2.2.2.2.2.2.2.2.2.2.2.2.2.2.2.2.",
"2.2.2.2.2.t i 6 i t t & V H ..@.#.! 2.2.J L U U ^ i 2.2.2.2.2.2.2.2.2.2.2.2.2.2.2.2.2.2.2.2.2.2.2.2.2.2.2.2.2.2.2.2.2.2.",
"2.2.2.2.- s 7 - i L L J U H R O.#. .2.7 L U U U U U $ 2.2.2.2.2.2.2.2.2.2.2.2.2.2.2.2.2.2.2.2.2.2.2.2.2.2.2.2.2.2.2.2.2.",
"2.2.2.2.< M r r S ^ ^ L U U g Q @.b o f ^ L U U U U d 2.2.2.2.2.2.2.2.2.2.2.2.2.2.2.2.2.2.2.2.2.2.2.2.2.2.2.2.2.2.2.2.2.",
"2.2.2.2.O M s U U U U U U U K F X.5 6 ^ L ^ ^ L U U J 2.2.2.2.2.2.2.2.2.2.2.2.2.2.2.2.2.2.2.2.2.2.2.2.2.2.2.2.2.2.2.2.2.",
"2.2.2.2.2.7 H U U U U U U U J l @.+ B L U L L ^ U V i g 2.2.2.2.2.2.2.2.2.2.2.2.2.2.2.2.2.2.2.2.2.2.2.2.2.2.2.2.2.2.2.2.",
"2.2.2.2.2.B U U U U U U U U V ! n ; U U U J y f i p >.>.Y 2.2.2.2.2.2.2.2.2.2.2.2.2.2.2.2.2.2.2.2.2.2.2.2.2.2.2.2.2.2.2.",
"2.2.2.2.7 U U U J V U U U U U z o 6 U U U V r ` y ,.1.1.,.- 2.2.2.2.2.2.2.2.2.2.2.2.2.2.2.2.2.2.2.2.2.2.2.2.2.2.2.2.2.2.",
"2.2.2.2.N L U H X @ S U U U U K q i U U ^ 2 <.>.) 1.1.1.1.&.2.2.2.2.2.2.2.2.2.2.2.2.2.2.2.2.2.2.2.2.2.2.2.2.2.2.2.2.2.2.",
"2.2.2.2.H ^ ^ t o V U U U U U L H f U U L U 1.P ;.1.1.1.1.<.2.2.2.2.2.2.2.2.2.2.2.2.2.2.2.2.2.2.2.2.2.2.2.2.2.2.2.2.2.2.",
"2.2.2.2.K ^ K @ x L U U U U U U V B L U U 0 @ ' 1.1.1.1.1.:.$ 2.2.2.2.2.2.2.2.2.2.2.2.2.2.2.2.2.2.2.2.2.2.2.2.2.2.2.2.2.",
"2.2.2.2.M / M > o.U U U U U U U 4 V U U L K t ;.1.1.1.1.1.` X .   2.2.2.2.2.2.2.2.2.2.2.2.2.2.2.2.2.2.2.2.2.2.2.2.2.2.2.",
"2.2.2.2.@ S q $.~ U U L U U L J 0 U U U U U S ] ;.-.1.,.,.6 f U V u ; & 2.2.2.2.2.2.2.2.2.2.2.2.2.2.2.2.2.2.2.2.2.2.2.2.",
"2.2.2.2.$ d w %.x U M S U L ^ V d U U U U U U s C P 1.:.[ 4 U U U U L j , 2.2.2.2.2.2.2.2.2.2.2.2.2.2.2.2.2.2.2.2.2.2.2.",
"2.2.2.1 - I a c B i K U U U K t U U U U U U U U V P 1.;.y ^ U U U U i U K 6 2.2.2.2.2.2.2.2.2.2.2.2.2.2.2.2.2.2.2.2.2.2.",
"2.2.2.i u D -.8 V L K L U U V t H U U U U U U U L y 1.-.d L U U U L t U ^ L 8 2.2.2.2.2.2.2.2.2.2.2.2.2.2.2.2.2.2.2.2.2.",
"2.2.& p $ k <.` q q Z N H U L L B B B B H U U U U f [ P s ^ U U U A d U U U U & 2.2.2.2.2.2.2.2.2.2.2.2.2.2.2.2.2.2.2.2.",
"2.2.2.g -.,.1.<.[ -.{ L U U ^ H r J C i u 1 u H U L f s H ^ U U ^ d B U U U ^ t 2.2.2.2.2.2.2.2.2.2.2.2.2.2.2.2.2.2.2.2.",
"2.2.2.2.[ <.1.1.1.1.I S L U U B -.-.-.-.-.-.) C g y t y j g N j H r H U U U U U o 2.2.2.2.2.2.2.2.2.2.2.i &.<.1.[ 2.2.2.",
"2.2.2.2.Z 1.,.<.:.Y 3 B U L U J C -.-.=.I *.-.-.-.-.-.-.-.&.) S 7 & J U U U U U * 2.2.2.2.2.2.2.2.2.2.I ,.1.1.<.) P 2.2.",
"2.2.2.2.2.2.2.2.2.2.2.f ^ d B B j -.) g ` g } } -.-.-.-.-.-.-.-.-.3 L U U U U U 2 2.2.2.2.2.2.2.2.o s 1.1.,.( 2.2.2.2.2.",
"2.2.2.2.2.2.2.2.2.2.2.t L J 3 k { -.P >.>.Y ( g P -.-.-.-.-.-.-.-.7 U U U U U U 7   2.2.2.2.2.2.o q y 1.1.D 2.2.2.2.2.2.",
"2.2.2.2.2.2.2.2.2.2.2.7 ^ U H 4 h C ;.1.1.1.1.>.Y -.-.-.-.-.-.-.-.2 U U U U U U t # . 2.2.2.2.# j U I ,.k 2.2.2.2.2.2.2.",
"2.2.2.2.2.2.2.2.2.2.2.3 L U L V q Z 1.1.1.1.1.) I -.-.-.-.-.-.-.-.< U U U U U U d 0 s &   . ; V ^ I q 4 2.2.2.2.2.2.2.2.",
"2.2.2.2.2.2.2.2.2.2.2.; U U U U U I >.1.1.1.-.P -.-.-.-.-.-.-.-.-.< U U U U U U S d ^ U U U U U U K 9 2.2.2.2.2.2.2.2.2.",
"2.2.2.2.2.2.2.2.2.2.2.2.U U U U U p -.1.1.>.*.d &.-.-.-.-.-.-.-.-.< U U U U U U K s L U U U U U U t . 2.2.2.2.2.2.2.2.2.",
"2.2.2.2.2.2.2.2.2.2.2.2.V U U U U g 1.1.1.,.Y C 2 P =.-.-.-.-.-.-.8 ^ U U U U U J r U U U U U J 1 . 2.2.2.2.2.2.2.2.2.2.",
"2.2.2.2.2.2.2.2.2.2.2.2.2 V U ^ U d <.1.1.>.0 g B 8 q [ -.-.-.-.-.u U U U U U U V i U U U U J =   2.2.2.2.2.2.2.2.2.2.2.",
"2.2.2.2.2.2.2.2.2.2.2.2.2.X t i 0 0 >.1.1.-.p h ^ U f & 1 A ( ` _ r L U U U U U s , d B d 6 . 2.2.2.2.2.2.2.2.2.2.2.2.2.",
"2.2.2.2.2.2.2.2.2.2.2.2.2.2.2.2.2.2.i ;.1.;.2.s L U ^ V r % O % - % K U U U U U C i O o .   2.2.2.2.2.2.2.2.2.2.2.2.2.2.",
"2.2.2.2.2.2.2.2.2.2.2.2.2.2.2.2.2.2.2.2.4 2.2.r L U L U ^ L K 4 3 t J U U U ^ U 0 i } D 2.2.2.2.2.2.2.2.2.2.2.2.2.2.2.2.",
"2.2.2.2.2.2.2.2.2.2.2.2.2.2.2.2.2.2.2.2.2.2.2.& M U U L h r B K d $ H U U U U U d D [ <.- 2.2.2.2.2.2.2.2.2.2.2.2.2.2.2.",
"2.2.2.2.2.2.2.2.2.2.2.2.2.2.2.2.2.2.2.2.2.2.2.2.3 ^ K 8 d Y k y M d B ^ U U U K M A :.1.g 2.2.2.2.2.2.2.2.2.2.2.2.2.2.2.",
"2.2.2.2.2.2.2.2.2.2.2.2.2.2.2.2.2.2.2.2.2.2.2.2.2.i d ' 1.1.1.>.[ t j L U U U S S A [ 1.Z 2.2.2.2.2.2.2.2.2.2.2.2.2.2.2.",
"2.2.2.2.2.2.2.2.2.2.2.2.2.2.2.2.2.2.2.2.2.2.2.2.2.2.: 1.1.1.1.1.1.<.j U U U U M K B ,.1.` 2.2.2.2.2.2.2.2.2.2.2.2.2.2.2.",
"2.2.2.2.2.2.2.2.2.2.2.2.2.2.2.2.2.2.2.2.2.2.2.2.2.2.h 1.1.1.1.1.1.1.h L U U U S U S 1.1.>.y 2.2.2.2.2.2.2.2.2.2.2.2.2.2.",
"2.2.2.2.2.2.2.2.2.2.2.2.2.2.2.2.2.2.2.2.2.2.2.2.2.q ' ,.<.&.1.1.1.1.P C ^ L U U B ( 1.1.1.] 2.2.2.2.2.2.2.2.2.2.2.2.2.2.",
"2.2.2.2.2.2.2.2.2.2.2.2.2.2.2.2.2.2.2.2.2.2.2.2.2.k <.P ) ,.1.1.1.1.;.d K ^ U U 7 [ 1.1.1.,.q 2.2.2.2.2.2.2.2.2.2.2.2.2.",
"2.2.2.2.2.2.2.2.2.2.2.2.2.2.2.2.2.2.2.2.2.2.2.2.2.h 1.;.;.1.1.1.1.1.1.[ 7 B V 3 $ ;.1.1.1.1.,.q 2.2.2.2.2.2.2.2.2.2.2.2.",
"2.2.2.2.2.2.2.2.2.2.2.2.2.2.2.2.2.2.2.2.2.2.2.2.2.4 1.,.;.1.` Z g Y ,.] # o # 2.2.{ 1.1.1.1.1.:.2.2.2.2.2.2.2.2.2.2.2.2.",
"2.2.2.2.2.2.2.2.2.2.2.2.2.2.2.2.2.2.2.2.2.2.2.2.2.2.` ( ;.y 2.2.2.2.  2.2.2.2.2.2.( 1.1.1.1.1.1.D 2.2.2.2.2.2.2.2.2.2.2.",
"2.2.2.2.2.2.2.2.2.2.2.2.2.2.2.2.2.2.2.2.2.2.2.2.2.2.Y ;.-.2.2.2.2.2.2.2.2.2.2.2.2.I 1.1.1.<.1.1.P 2.2.2.2.2.2.2.2.2.2.2.",
"2.2.2.2.2.2.2.2.2.2.2.2.2.2.2.2.2.2.2.2.2.2.2.2.2.2.B ;.g 2.2.2.2.2.2.2.2.2.2.2.2.D 1.;.1.;.:.1.g 2.2.2.2.2.2.2.2.2.2.2.",
"2.2.2.2.2.2.2.2.2.2.2.2.2.2.2.2.2.2.2.2.2.2.2.2.2.2.2.> 2.2.2.2.2.2.2.2.2.2.2.2.2.i 1.Y 1.,.P p 2.2.2.2.2.2.2.2.2.2.2.2.",
"2.2.2.2.2.2.2.2.2.2.2.2.2.2.2.2.2.2.2.2.2.2.2.2.2.2.2.2.2.2.2.2.2.2.2.2.2.2.2.2.2.$ ,.C >.1.<.2.2.2.2.2.2.2.2.2.2.2.2.2.",
"2.2.2.2.2.2.2.2.2.2.2.2.2.2.2.2.2.2.2.2.2.2.2.2.2.2.2.2.2.2.2.2.2.2.2.2.2.2.2.2.2.2.y *.k ;.S 2.2.2.2.2.2.2.2.2.2.2.2.2.",
"2.2.2.2.2.2.2.2.2.2.2.2.2.2.2.2.2.2.2.2.2.2.2.2.2.2.2.2.2.2.2.2.2.2.2.2.2.2.2.2.2.2.2.2.2.. 2.2.2.2.2.2.2.2.2.2.2.2.2.2.",
"2.2.2.2.2.2.2.2.2.2.2.2.2.2.2.2.2.2.2.2.2.2.2.2.2.2.2.2.2.2.2.2.2.2.2.2.2.2.2.2.2.2.2.2.2.2.2.2.2.2.2.2.2.2.2.2.2.2.2.2.",
"2.2.2.2.2.2.2.2.2.2.2.2.2.2.2.2.2.2.2.2.2.2.2.2.2.2.2.2.2.2.2.2.2.2.2.2.2.2.2.2.2.2.2.2.2.2.2.2.2.2.2.2.2.2.2.2.2.2.2.2.",
"2.2.2.2.2.2.2.2.2.2.2.2.2.2.2.2.2.2.2.2.2.2.2.2.2.2.2.2.2.2.2.2.2.2.2.2.2.2.2.2.2.2.2.2.2.2.2.2.2.2.2.2.2.2.2.2.2.2.2.2.",
"2.2.2.2.2.2.2.2.2.2.2.2.2.2.2.2.2.2.2.2.2.2.2.2.2.2.2.2.2.2.2.2.2.2.2.2.2.2.2.2.2.2.2.2.2.2.2.2.2.2.2.2.2.2.2.2.2.2.2.2.",
"2.2.2.2.2.2.2.2.2.2.2.2.2.2.2.2.2.2.2.2.2.2.2.2.2.2.2.2.2.2.2.2.2.2.2.2.2.2.2.2.2.2.2.2.2.2.2.2.2.2.2.2.2.2.2.2.2.2.2.2.",
"2.2.2.2.2.2.2.2.2.2.2.2.2.2.2.2.2.2.2.2.2.2.2.2.2.2.2.2.2.2.2.2.2.2.2.2.2.2.2.2.2.2.2.2.2.2.2.2.2.2.2.2.2.2.2.2.2.2.2.2.",
"2.2.2.2.2.2.2.2.2.2.2.2.2.2.2.2.2.2.2.2.2.2.2.2.2.2.2.2.2.2.2.2.2.2.2.2.2.2.2.2.2.2.2.2.2.2.2.2.2.2.2.2.2.2.2.2.2.2.2.2.",
"2.2.2.2.2.2.2.2.2.2.2.2.2.2.2.2.2.2.2.2.2.2.2.2.2.2.2.2.2.2.2.2.2.2.2.2.2.2.2.2.2.2.2.2.2.2.2.2.2.2.2.2.2.2.2.2.2.2.2.2.",
"2.2.2.2.2.2.2.2.2.2.2.2.2.2.2.2.2.2.2.2.2.2.2.2.2.2.2.2.2.2.2.2.2.2.2.2.2.2.2.2.2.2.2.2.2.2.2.2.2.2.2.2.2.2.2.2.2.2.2.2.",
"2.2.2.2.2.2.2.2.2.2.2.2.2.2.2.2.2.2.2.2.2.2.2.2.2.2.2.2.2.2.2.2.2.2.2.2.2.2.2.2.2.2.2.2.2.2.2.2.2.2.2.2.2.2.2.2.2.2.2.2.",
"2.2.2.2.2.2.2.2.2.2.2.2.2.2.2.2.2.2.2.2.2.2.2.2.2.2.2.2.2.2.2.2.2.2.2.2.2.2.2.2.2.2.2.2.2.2.2.2.2.2.2.2.2.2.2.2.2.2.2.2.",
"2.2.2.2.2.2.2.2.2.2.2.2.2.2.2.2.2.2.2.2.2.2.2.2.2.2.2.2.2.2.2.2.2.2.2.2.2.2.2.2.2.2.2.2.2.2.2.2.2.2.2.2.2.2.2.2.2.2.2.2.",
"2.2.2.2.2.2.2.2.2.2.2.2.2.2.2.2.2.2.2.2.2.2.2.2.2.2.2.2.2.2.2.2.2.2.2.2.2.2.2.2.2.2.2.2.2.2.2.2.2.2.2.2.2.2.2.2.2.2.2.2.",
"2.2.2.2.2.2.2.2.2.2.2.2.2.2.2.2.2.2.2.2.2.2.2.2.2.2.2.2.2.2.2.2.2.2.2.2.2.2.2.2.2.2.2.2.2.2.2.2.2.2.2.2.2.2.2.2.2.2.2.2.",
"2.2.2.2.2.2.2.2.2.2.2.2.2.2.2.2.2.2.2.2.2.2.2.2.2.2.2.2.2.2.2.2.2.2.2.2.2.2.2.2.2.2.2.2.2.2.2.2.2.2.2.2.2.2.2.2.2.2.2.2."
};
