/* XPM */
static char *result[] = {
/* columns rows colors chars-per-pixel */
"60 70 120 2 ",
"   c #020202",
".  c #0B0B0C",
"X  c #131414",
"o  c #1B1B1C",
"O  c #231C1A",
"+  c #1D1F20",
"@  c #1F2122",
"#  c #232425",
"$  c #2B2C2C",
"%  c #2F3131",
"&  c #313334",
"*  c #363738",
"=  c #36393A",
"-  c #3A3C3D",
";  c #4F3E39",
":  c #554B3B",
">  c #3C3F41",
",  c #3F4143",
"<  c #424444",
"1  c #444749",
"2  c #46494B",
"3  c #4A4C4D",
"4  c #5B4843",
"5  c #4B4E51",
"6  c #4E5254",
"7  c #525455",
"8  c #525658",
"9  c #565A5C",
"0  c #5A5D5E",
"q  c #645F56",
"w  c #6C5853",
"e  c #5B5E61",
"r  c #5D6264",
"t  c #5F6468",
"y  c #626465",
"u  c #626669",
"i  c #656A6C",
"p  c #6B6C6D",
"a  c #716C69",
"s  c #696E71",
"d  c #6C7274",
"f  c #6F7679",
"g  c #737374",
"h  c #737679",
"j  c #747A7D",
"k  c #7B7C7D",
"l  c #96746C",
"z  c #847B74",
"x  c #7F807F",
"c  c #84837E",
"v  c #96807B",
"b  c #A88076",
"n  c #A18F73",
"m  c #A38078",
"M  c #B4887F",
"N  c #777D81",
"B  c #797F83",
"V  c #7B8185",
"C  c #7E8589",
"Z  c #838384",
"A  c #80878B",
"S  c #838A8D",
"D  c #8B8C8D",
"F  c #938986",
"G  c #9F8A85",
"H  c #9C8F8E",
"J  c #868E92",
"K  c #888F93",
"L  c #8A9195",
"P  c #8E969B",
"I  c #8F989C",
"U  c #939394",
"Y  c #989797",
"T  c #979798",
"R  c #92999E",
"E  c #9C9C9C",
"W  c #AB8B83",
"Q  c #A88E8A",
"!  c #B48D84",
"~  c #AB938D",
"^  c #B9958D",
"/  c #BFAE90",
"(  c #929BA0",
")  c #9D9FA0",
"_  c #9FA3A5",
"`  c #A3A3A4",
"'  c #A5A6A8",
"]  c #A7A8A8",
"[  c #ACACAD",
"{  c #B4B4B4",
"}  c #B6B7B8",
"|  c #BBBCBD",
" . c #C0958B",
".. c #CA988C",
"X. c #C79C92",
"o. c #D29C90",
"O. c #CAB48F",
"+. c #D3A496",
"@. c #E3ADA0",
"#. c #F1B4A6",
"$. c #F5B7A8",
"%. c #F9B8AA",
"&. c #E8CA95",
"*. c #F3D29B",
"=. c #BEC0C1",
"-. c #C3C3C4",
";. c #C5C6C8",
":. c #C7C8CA",
">. c #CCCDCE",
",. c #CFCFD0",
"<. c #D4D4D4",
"1. c #D7D8D7",
"2. c #DBDBDB",
"3. c #E0DFE0",
"4. c #E2E2E2",
"5. c #E7E7E8",
"6. c #ECECEC",
"7. c #F4F3F4",
"8. c #FEFEFE",
"9. c None",
/* pixels */
"9.9.9.9.9.9.9.9.9.9.9.9.9.9.9.# 9.9.9.9.9.9.9.9.9.9.9.9.9.9.9.9.9.9.9.9.9.9.9.9.9.9.9.9.9.9.9.9.9.9.9.9.9.9.9.9.9.9.9.9.",
"9.9.9.9.9.9.9.9.9.9.9.9.9.9.9.3 9.9.9.9.9.9.9.9.9.9.9.9.9.9.9.9.9.9.9.9.9.9.9.9.9.9.9.9.9.9.9.9.9.9.9.9.9.9.9.9.9.9.9.9.",
"9.9.9.9.9.9.9.9.9.9.9.9.9.9.8 G 9.9.9.9.9.9.9.9.9.9.9.9.9.9.9.9.9.9.9.9.9.9.9.9.9.9.9.9.9.9.9.9.9.9.9.9.9.9.9.9.9.9.9.9.",
"9.9.9.9.9.9.9.9.9.9.9.9.9.  Z X.9.9.9.9.9.9.9.9.9.9.9.9.9.9.9.9.9.9.9.9.9.9.9.9.9.9.9.9.9.9.9.9.9.9.9.9.9.9.9.9.9.9.9.9.",
"9.9.9.9.9.9.9.9.9.9.9.9.9.6 H #.w 9.9.9.9.9.9.9.9.9.9.9.9.9.9.9.9.9.9.9.9.9.9.9.9.9.9.9.9.9.9.9.9.9.9.9.9.9.9.9.9.9.9.9.",
"9.9.9.9.r 3 9.9.9.9.9.9.9.j Q %.! 9.9.9.9.9.9.9.9.9.9.9.9.9.9.9.9.9.9.9.9.9.9.9.9.9.9.9.9.9.9.9.9.9.9.9.9.9.9.9.9.9.9.9.",
"9.9.9.9.9.f > 9.9.9.9.9.9.I ! %.#.9.9.9.9.9.% 9.9.9.9.9.9.9.9.9.9.9.9.9.9.9.9.9.9.9.9.9.9.9.9.9.9.9.9.9.9.9.9.9.9.9.9.9.",
"9.9.9.9.9.V e 9.9.9.9.9.% ( ! %.%.; 9.9.9.e V e # 9.9.9.9.9.9.9.9.9.9.9.9.9.9.9.9.9.9.9.9.9.9.9.9.9.9.9.9.9.9.9.9.9.9.9.",
"9.9.9.9.9.C V X 9.X 9.9.6 P ..$.%.l 9.9.3 ( ( ( S + 9.9.9.9.9.9.9.9.9.9.9.9.9.9.9.9.9.9.9.9.9.9.9.9.9.9.9.9.9.9.9.9.9.9.",
"9.9.9.9.9.t u 5 i t r $ C J o.%.%.^ 9.9.K ( ( ( ( i 9.9.9.9.9.9.9.9.9.9.9.9.9.9.9.9.9.9.9.9.9.9.9.9.9.9.9.9.9.9.9.9.9.9.",
"9.9.9.9.= s 6 = i R ( L R J W @.%.+.9.6 ( ( ( ( ( ( # 9.9.9.9.9.9.9.9.9.9.9.9.9.9.9.9.9.9.9.9.9.9.9.9.9.9.9.9.9.9.9.9.9.",
"9.9.9.9.< j e e J R ( R ( R g ~ %.l o j ( ( ( ( ( ( d 9.9.9.9.9.9.9.9.9.9.9.9.9.9.9.9.9.9.9.9.9.9.9.9.9.9.9.9.9.9.9.9.9.",
"9.9.9.9.o j s ( ( ( ( ( ( ( P F +.4 5 ( ( ( ( ( ( ( L 9.9.9.9.9.9.9.9.9.9.9.9.9.9.9.9.9.9.9.9.9.9.9.9.9.9.9.9.9.9.9.9.9.",
"9.9.9.9.9.6 J ( ( ( ( ( ( ( K l %.O V ( ( ( ( ( ( C i g 9.9.9.9.9.9.9.9.9.9.9.9.9.9.9.9.9.9.9.9.9.9.9.9.9.9.9.9.9.9.9.9.",
"9.9.9.9.9.V ( ( ( ( ( ( ( ( J ^ l , ( ( ( L u s i p 4.4.E 9.9.9.9.9.9.9.9.9.9.9.9.9.9.9.9.9.9.9.9.9.9.9.9.9.9.9.9.9.9.9.",
"9.9.9.9.6 R ( ( L A ( ( ( ( P k o 3 ( ( ( C . 9.= 5.8.8.6.- 9.9.9.9.9.9.9.9.9.9.9.9.9.9.9.9.9.9.9.9.9.9.9.9.9.9.9.9.9.9.",
"9.9.9.9.B ( ( L X @ J ( ( ( ( L e s ( ( ( % 9.9.k 8.8.8.8.| 9.9.9.9.9.9.9.9.9.9.9.9.9.9.9.9.9.9.9.9.9.9.9.9.9.9.9.9.9.9.",
"9.9.9.9.S ( ( t X C ( ( ( ( ( I S f ( ( ( 9.9.6 <.8.8.8.8.7.9.9.9.9.9.9.9.9.9.9.9.9.9.9.9.9.9.9.9.9.9.9.9.9.9.9.9.9.9.9.",
"9.9.9.9.P _ P + z ( ( ( ( ( ( ( C V ( ( P = + [ 8.8.8.8.8.2.# 9.9.9.9.9.9.9.9.9.9.9.9.9.9.9.9.9.9.9.9.9.9.9.9.9.9.9.9.9.",
"9.9.9.9.N _ B : O.( ( ( ( ( ( ( 2 C ( ( R P r 1.8.8.8.8.8.] X .   9.9.9.9.9.9.9.9.9.9.9.9.9.9.9.9.9.9.9.9.9.9.9.9.9.9.9.",
"9.9.9.9.o J 0 &./ ( ( P ( ( ( K 9 ( ( ( ( ( S { ,.,.8.6.5.5 N I C u , % 9.9.9.9.9.9.9.9.9.9.9.9.9.9.9.9.9.9.9.9.9.9.9.9.",
"9.9.9.9.# f q *.c ( N J ( ( ( C s ( ( ( ( ( ( d Z U 8.2.} 3 P ( ( ( ( B > 9.9.9.9.9.9.9.9.9.9.9.9.9.9.[ :.<.:.c 9.9.9.9.",
"9.9.9.< - T p n V i P ( ( ( L u ( ( ( ( ( ( ( ( V U 8.1.u ( ( ( ( ( ( ( I 5 9.9.9.9.9.9.9.9.9.9.9.7 4.8.8.6.,.>.9.9.9.9.",
"9.9.9.u i F :.7 C ( P P ( ( S e J ( ( ( ( ( ( ( P y 8.,.d ( ( ( ( ( ( ( ( P 6 9.9.9.9.9.9.9.9.9.3 >.8.8.4.h 9.9.9.9.9.9.",
"9.9.$ p # k 7.[ 0 e D k J ( ( ( V V V V J ( ( ( ( f } U d ( ( J ( ( ( ( ( ( R @ 9.9.9.9.9.9.9., B | 8.{ # 9.9.9.9.9.9.9.",
"9.9.9.d >.5.8.7.{ >.} I ( ( ( J e L Z i u , i J ( P f d K ( ( N ( ( ( ( ( ( ( i     9.9.9.  1 P R <.1.9.9.9.9.9.9.9.9.9.",
"9.9.9.9.{ 7.8.8.8.8.R S P ( ( V ,.>.,.>.,.>.' Z g y e y j h B r ( ( ( ( ( ( ( ( , 6 # o = s ( ( S 0 # 9.9.9.9.9.9.9.9.9.",
"9.9.9.9.D 8.5.7.2.E 2 V R R ( P V ,.>.;.T -.>.>.,.>.,.,.,.=.' e I ( ( ( ( ( ( ( 5 C J V P ( ( ( V # 9.9.9.9.9.9.9.9.9.9.",
"9.9.9.9.9.9.9.9.9.9.9.f ( f B V j >.' g [ g | | >.>.>.>.>.>.>.s V ( ( ( ( ( ( ( 6 d ( ( ( ( ( A $ 9.9.9.9.9.9.9.9.9.9.9.",
"9.9.9.9.9.9.9.9.9.9.9.r ( L 2 k } >.U 4.4.E ` h U >.,.>.>.>.,.B i ( ( ( ( ( ( ( t 9 ( ( ( ( J # 9.9.9.9.9.9.9.9.9.9.9.9.",
"9.9.9.9.9.9.9.9.9.9.9.6 ( ( J 3 h Z 1.8.8.8.8.4.T ,.,.>.>.>.>.[ e ( ( ( ( ( ( ( V 0 ( S i r X 9.9.9.9.9.9.9.9.9.9.9.9.9.",
"9.9.9.9.9.9.9.9.9.9.9.2 ( ( R V 0 Z 8.8.8.8.8.` T ,.>.>.>.>.>.:.i I ( ( ( ( ( ( P i P 7 3 X 9.9.9.9.9.9.9.9.9.9.9.9.9.9.",
"9.9.9.9.9.9.9.9.9.9.9.- ( ( ( ( R Y 4.8.8.8.>.U >.>.>.>.,.:.,.>.D r ( ( ( ( ( ( ( 0 # ] 8.{ . 9.9.9.9.9.9.9.9.9.9.9.9.9.",
"9.9.9.9.9.9.9.9.9.9.9.9.( ( ( ( R p >.8.8.3.;.g | >.>.,.,.,.>.>.| & ( ( ( ( ( ( ( j y B 8.8.k 9.9.9.9.9.9.9.9.9.9.9.9.9.",
"9.9.9.9.9.9.9.9.9.9.9.9.C ( ( ( ( h 8.8.8.6.E 9.$ P :.,.>.>.>.,.>.i A ( ( ( ( ( ( j J k 2.8.8.g 9.9.9.9.9.9.9.9.9.9.9.9.",
"9.9.9.9.9.9.9.9.9.9.9.9.1 C ( ( R d 7.8.8.4.# 9.9.2 9 } >.>.,.,.>.{ 9 R ( ( ( ( ( C B V [ 8.8.7.-.E D 0 . 9.9.9.9.9.9.9.",
"9.9.9.9.9.9.9.9.9.9.9.9.9.X r i 9 9 5.8.8.:.Z 9.9.1 f $ < x ) ] [ T # C ( ( ( ( ( R y R ) 8.8.8.8.8.8.8.T 9.9.9.9.9.9.9.",
"9.9.9.9.9.9.9.9.9.9.9.9.9.9.9.9.9.9.p <.8.1.9.9.9.9.J i p , $ % & 2 , r ( ( ( ( ( ( s ( D 7.8.8.8.8.8.8.7.9.9.9.9.9.9.9.",
"9.9.9.9.9.9.9.9.9.9.9.9.9.9.9.9.9.9.9.9.3 9.9.9.9.9.$ T 8.8.8.8.2.D 7 6 B ( ( ( ( ( J ( R 7.8.8.8.8.8.8.5.9.9.9.9.9.9.9.",
"9.9.9.9.9.9.9.9.9.9.9.9.9.9.9.9.9.9.9.9.9.9.9.9.9.9.3 -.8.8.8.8.8.6.1.7 7 ( ( ( ( ( R R k 6.8.8.8.6.6.5.0 9.9.9.9.9.9.9.",
"9.9.9.9.9.9.9.9.9.9.9.9.9.9.9.9.9.9.9.9.9.9.9.9.9.9.{ :.7.<.8.8.8.8.8.[ 9.A ( ( ( ( ( ( = [ 8.8.8.8.| Y 1 9.9.9.9.9.9.9.",
"9.9.9.9.9.9.9.9.9.9.9.9.9.9.9.9.9.9.9.9.9.9.9.9.9.9.;.| k -.8.8.8.8.8.>.9.- ( ( ( ( ( S 9.p 8.8.7.8.8.8.h 9.9.9.9.9.9.9.",
"9.9.9.9.9.9.9.9.9.9.9.9.9.9.9.9.9.9.9.9.9.9.9.9.9.9.{ 8.6.8.8.8.8.8.8.;.9.9.r L ( ( R = 9.9.E 8.[ :.8.3.9.9.9.9.9.9.9.9.",
"9.9.9.9.9.9.9.9.9.9.9.9.9.9.9.9.9.9.9.9.9.9.9.9.9.9.y 7.,.7.Y z D >.8.] 9.9.9.6 j J 7 . 9.9.$ 6.3.D a < 9.9.9.9.9.9.9.9.",
"9.9.9.9.9.9.9.9.9.9.9.9.9.9.9.9.9.9.9.9.9.9.9.9.9.9.9.Z 1.Z 9.9.9.9.% 9.9.9.9.9.9.    9.9.9.9.1 >.>.9.9.9.9.9.9.9.9.9.9.",
"9.9.9.9.9.9.9.9.9.9.9.9.9.9.9.9.9.9.9.9.9.9.9.9.9.9.9.1.=.9.9.9.9.9.9.9.9.9.9.9.9.9.9.9.9.9.9.9.= 9.9.9.9.9.9.9.9.9.9.9.",
"9.9.9.9.9.9.9.9.9.9.9.9.9.9.9.9.9.9.9.9.9.9.9.9.9.9.9.# 9.9.9.9.9.9.9.9.9.9.9.9.9.9.9.9.9.9.9.9.9.9.9.9.9.9.9.9.9.9.9.9.",
"9.9.9.9.9.9.9.9.9.9.9.9.9.9.9.9.9.9.9.9.9.9.9.9.9.9.9.9.9.9.9.9.9.9.9.9.9.9.9.9.9.9.9.9.9.9.9.9.9.9.9.9.9.9.9.9.9.9.9.9.",
"9.9.9.9.9.9.9.9.9.9.9.9.9.9.9.9.9.9.9.9.9.9.9.9.9.9.9.9.9.9.9.9.9.9.9.9.9.9.9.9.9.9.9.9.9.9.9.9.9.9.9.9.9.9.9.9.9.9.9.9.",
"9.9.9.9.9.9.9.9.9.9.9.9.9.9.9.9.9.9.9.9.9.9.9.9.9.9.9.9.9.9.9.9.9.9.9.9.9.9.9.9.9.9.9.9.9.9.9.9.9.9.9.9.9.9.9.9.9.9.9.9.",
"9.9.9.9.9.9.9.9.9.9.9.9.9.9.9.9.9.9.9.9.9.9.9.9.9.9.9.9.9.9.9.9.9.9.9.9.9.9.9.9.9.9.9.9.9.9.9.9.9.9.9.9.9.9.9.9.9.9.9.9.",
"9.9.9.9.9.9.9.9.9.9.9.9.9.9.9.9.9.9.9.9.9.9.9.9.9.9.9.9.9.9.9.9.9.9.9.9.9.9.9.9.9.9.9.9.9.9.9.9.9.9.9.9.9.9.9.9.9.9.9.9.",
"9.9.9.9.9.9.9.9.9.9.9.9.9.9.9.9.9.9.9.9.9.9.9.9.9.9.9.9.9.9.9.9.9.9.9.9.9.9.9.9.9.9.9.9.9.9.9.9.9.9.9.9.9.9.9.9.9.9.9.9.",
"9.9.9.9.9.9.9.9.9.9.9.9.9.9.9.9.9.9.9.9.9.9.9.9.9.9.9.9.9.9.9.9.9.9.9.9.9.9.9.9.9.9.9.9.9.9.9.9.9.9.9.9.9.9.9.9.9.9.9.9.",
"9.9.9.9.9.9.9.9.9.9.9.9.9.9.9.9.9.9.9.9.9.9.9.9.9.9.9.9.9.9.9.9.9.9.9.9.9.9.9.9.9.9.9.9.9.9.9.9.9.9.9.9.9.9.9.9.9.9.9.9.",
"9.9.9.9.9.9.9.9.9.9.9.9.9.9.9.9.9.9.9.9.9.9.9.9.9.9.9.9.9.9.9.9.9.9.9.9.9.9.9.9.9.9.9.9.9.9.9.9.9.9.9.9.9.9.9.9.9.9.9.9.",
"9.9.9.9.9.9.9.9.9.9.9.9.9.9.9.9.9.9.9.9.9.9.9.9.9.9.9.9.9.9.9.9.9.9.9.9.9.9.9.9.9.9.9.9.9.9.9.9.9.9.9.9.9.9.9.9.9.9.9.9.",
"9.9.9.9.9.9.9.9.9.9.9.9.9.9.9.9.9.9.9.9.9.9.9.9.9.9.9.9.9.9.9.9.9.9.9.9.9.9.9.9.9.9.9.9.9.9.9.9.9.9.9.9.9.9.9.9.9.9.9.9.",
"9.9.9.9.9.9.9.9.9.9.9.9.9.9.9.9.9.9.9.9.9.9.9.9.9.9.9.9.9.9.9.9.9.9.9.9.9.9.9.9.9.9.9.9.9.9.9.9.9.9.9.9.9.9.9.9.9.9.9.9.",
"9.9.9.9.9.9.9.9.9.9.9.9.9.9.9.9.9.9.9.9.9.9.9.9.9.9.9.9.9.9.9.9.9.9.9.9.9.9.9.9.9.9.9.9.9.9.9.9.9.9.9.9.9.9.9.9.9.9.9.9.",
"9.9.9.9.9.9.9.9.9.9.9.9.9.9.9.9.9.9.9.9.9.9.9.9.9.9.9.9.9.9.9.9.9.9.9.9.9.9.9.9.9.9.9.9.9.9.9.9.9.9.9.9.9.9.9.9.9.9.9.9.",
"9.9.9.9.9.9.9.9.9.9.9.9.9.9.9.9.9.9.9.9.9.9.9.9.9.9.9.9.9.9.9.9.9.9.9.9.9.9.9.9.9.9.9.9.9.9.9.9.9.9.9.9.9.9.9.9.9.9.9.9.",
"9.9.9.9.9.9.9.9.9.9.9.9.9.9.9.9.9.9.9.9.9.9.9.9.9.9.9.9.9.9.9.9.9.9.9.9.9.9.9.9.9.9.9.9.9.9.9.9.9.9.9.9.9.9.9.9.9.9.9.9.",
"9.9.9.9.9.9.9.9.9.9.9.9.9.9.9.9.9.9.9.9.9.9.9.9.9.9.9.9.9.9.9.9.9.9.9.9.9.9.9.9.9.9.9.9.9.9.9.9.9.9.9.9.9.9.9.9.9.9.9.9.",
"9.9.9.9.9.9.9.9.9.9.9.9.9.9.9.9.9.9.9.9.9.9.9.9.9.9.9.9.9.9.9.9.9.9.9.9.9.9.9.9.9.9.9.9.9.9.9.9.9.9.9.9.9.9.9.9.9.9.9.9.",
"9.9.9.9.9.9.9.9.9.9.9.9.9.9.9.9.9.9.9.9.9.9.9.9.9.9.9.9.9.9.9.9.9.9.9.9.9.9.9.9.9.9.9.9.9.9.9.9.9.9.9.9.9.9.9.9.9.9.9.9.",
"9.9.9.9.9.9.9.9.9.9.9.9.9.9.9.9.9.9.9.9.9.9.9.9.9.9.9.9.9.9.9.9.9.9.9.9.9.9.9.9.9.9.9.9.9.9.9.9.9.9.9.9.9.9.9.9.9.9.9.9.",
"9.9.9.9.9.9.9.9.9.9.9.9.9.9.9.9.9.9.9.9.9.9.9.9.9.9.9.9.9.9.9.9.9.9.9.9.9.9.9.9.9.9.9.9.9.9.9.9.9.9.9.9.9.9.9.9.9.9.9.9.",
"9.9.9.9.9.9.9.9.9.9.9.9.9.9.9.9.9.9.9.9.9.9.9.9.9.9.9.9.9.9.9.9.9.9.9.9.9.9.9.9.9.9.9.9.9.9.9.9.9.9.9.9.9.9.9.9.9.9.9.9.",
"9.9.9.9.9.9.9.9.9.9.9.9.9.9.9.9.9.9.9.9.9.9.9.9.9.9.9.9.9.9.9.9.9.9.9.9.9.9.9.9.9.9.9.9.9.9.9.9.9.9.9.9.9.9.9.9.9.9.9.9."
};
