/* XPM */
static char *result[] = {
/* columns rows colors chars-per-pixel */
"60 70 126 2 ",
"   c #020303",
".  c #0C0D0D",
"X  c #131314",
"o  c #1B1817",
"O  c #171718",
"+  c #171818",
"@  c #1B1C1D",
"#  c #241D1A",
"$  c #1D1F20",
"%  c #1F2122",
"&  c #222324",
"*  c #262829",
"=  c #2A2B2C",
"-  c #2D2F30",
";  c #2E3132",
":  c #323233",
">  c #363738",
",  c #36393A",
"<  c #3A3C3E",
"1  c #4F3E39",
"2  c #55473D",
"3  c #3C3F41",
"4  c #3F4143",
"5  c #414445",
"6  c #434749",
"7  c #46494B",
"8  c #4A4C4D",
"9  c #5B4843",
"0  c #4B4E51",
"q  c #4E5153",
"w  c #525455",
"e  c #515659",
"r  c #555A5C",
"t  c #5A5C5E",
"y  c #625C57",
"u  c #6D5A51",
"i  c #5A5E60",
"p  c #5D6265",
"a  c #636464",
"s  c #626669",
"d  c #656A6C",
"f  c #6B6C6C",
"g  c #706C6A",
"h  c #676D70",
"j  c #696E71",
"k  c #6D7275",
"l  c #6F7679",
"z  c #727373",
"x  c #72777A",
"c  c #74797C",
"v  c #7C7C7D",
"b  c #97766C",
"n  c #847A75",
"m  c #85827F",
"M  c #9F8776",
"N  c #95817B",
"B  c #A88176",
"V  c #A28078",
"C  c #B48A7E",
"Z  c #767D81",
"A  c #797E82",
"S  c #7B8185",
"D  c #7E868A",
"F  c #838384",
"G  c #838789",
"H  c #828A8D",
"J  c #8A8B8C",
"K  c #948986",
"L  c #9C908D",
"P  c #868D92",
"I  c #8A8F91",
"U  c #899195",
"Y  c #8D969A",
"T  c #8F989D",
"R  c #939394",
"E  c #979798",
"W  c #91999E",
"Q  c #9B9B9C",
"!  c #A08B85",
"~  c #AC8C84",
"^  c #A78F89",
"/  c #B38E84",
"(  c #AB958D",
")  c #BC968C",
"_  c #BDA593",
"`  c #929BA0",
"'  c #989FA4",
"]  c #9FA1A2",
"[  c #9FA4A8",
"{  c #A5A5A5",
"}  c #A6A7A8",
"|  c #A7AAAB",
" . c #ABABAC",
".. c #AFAFB0",
"X. c #B4B5B6",
"o. c #B8B7B7",
"O. c #B6B7B8",
"+. c #B6B8BA",
"@. c #BBBCBD",
"#. c #CA998C",
"$. c #C69D93",
"%. c #D19C90",
"&. c #C6A892",
"*. c #D1A596",
"=. c #E5BA9A",
"-. c #E3ADA1",
";. c #F0B5A6",
":. c #F5B9A9",
">. c #F8B9AA",
",. c #F0C2A0",
"<. c #BFBFC0",
"1. c #BFC0C2",
"2. c #C4C5C5",
"3. c #C5C6C8",
"4. c #CCCDCE",
"5. c #D4D4D4",
"6. c #DADBDB",
"7. c #E3E3E3",
"8. c #E7E7E8",
"9. c #E7E8E8",
"0. c #EBEBEB",
"q. c #F3F3F4",
"w. c #F8F7F7",
"e. c #F7F8F8",
"r. c #FEFEFE",
"t. c None",
/* pixels */
"t.t.t.t.t.t.t.t.t.t.t.t.t.t.t.& t.t.t.t.t.t.t.t.t.t.t.t.t.t.t.t.t.t.t.t.t.t.t.t.t.t.t.t.t.t.t.t.t.t.t.t.t.t.t.t.t.t.t.t.",
"t.t.t.t.t.t.t.t.t.t.t.t.t.t.t.8 t.t.t.t.t.t.t.t.t.t.t.t.t.t.t.t.t.t.t.t.t.t.t.t.t.t.t.t.t.t.t.t.t.t.t.t.t.t.t.t.t.t.t.t.",
"t.t.t.t.t.t.t.t.t.t.t.t.t.t.e ! t.t.t.t.t.t.t.t.t.t.t.t.t.t.t.t.t.t.t.t.t.t.t.t.t.t.t.t.t.t.t.t.t.t.t.t.t.t.t.t.t.t.t.t.",
"t.t.t.t.t.t.t.t.t.t.t.t.t.  F $.t.t.t.t.t.t.t.t.t.t.t.t.t.t.t.t.t.t.t.t.t.t.t.t.t.t.t.t.t.t.t.t.t.t.t.t.t.t.t.t.t.t.t.t.",
"t.t.t.t.t.t.t.t.t.t.t.t.t.q L ;.u t.t.t.t.t.t.t.t.t.t.t.t.t.t.t.t.t.t.t.t.t.t.t.t.t.t.t.t.t.t.t.t.t.t.t.t.t.t.t.t.t.t.t.",
"t.t.t.t.p 8 t.t.t.t.t.t.t.c ^ >./ t.t.t.t.t.t.t.t.t.t.t.t.t.t.t.t.t.t.t.t.t.t.t.t.t.t.t.t.t.t.t.t.t.t.t.t.t.t.t.t.t.t.t.",
"t.t.t.t.t.l 3 t.t.t.t.t.t.W / >.;.t.t.t.t.t.; t.t.t.t.t.t.t.t.t.t.t.t.t.t.t.t.t.t.t.t.t.t.t.t.t.t.t.t.t.t.t.t.t.t.t.t.t.",
"t.t.t.t.t.S i t.t.t.t.t.; ` / >.>.1 t.t.t.i S i & t.t.t.t.t.t.t.t.t.t.t.t.t.t.t.t.t.t.t.t.t.t.t.t.t.t.t.t.t.t.t.t.t.t.t.",
"t.t.t.t.t.D S X t.O t.t.q Y #.:.>.b t.t.7 ` ` ` H $ t.t.t.t.t.t.t.t.t.t.t.t.t.t.t.t.t.t.t.t.t.t.t.t.t.t.t.t.t.t.t.t.t.t.",
"t.t.t.t.t.p s 0 d p p = D P %.>.>.) t.t.I ` ` ` ` d t.t.t.t.t.t.t.t.t.t.t.t.t.t.t.t.t.t.t.t.t.t.t.t.t.t.t.t.t.t.t.t.t.t.",
"t.t.t.t.< h q < d W ` U W I ~ -.:.$.t.q ` ` ` ` ` ` & t.t.t.t.t.t.t.t.t.t.t.t.t.t.t.t.t.t.t.t.t.t.t.t.t.t.t.t.t.t.t.t.t.",
"t.t.t.t.4 Z i i H ` ` ` ` W z ( :.B @ c ` ` ` ` ` ` k t.t.t.t.t.t.t.t.t.t.t.t.t.t.t.t.t.t.t.t.t.t.t.t.t.t.t.t.t.t.t.t.t.",
"t.t.t.t.@ Z h ` ` ` ` ` ` ` Y K *.9 0 ` ` ` ` ` ` ` U t.t.t.t.t.t.t.t.t.t.t.t.t.t.t.t.t.t.t.t.t.t.t.t.t.t.t.t.t.t.t.t.t.",
"t.t.t.t.t.q P ` ` ` ` ` ` ` H N >.# S T ` ` ` ` ` G d z t.t.t.t.t.t.t.t.t.t.t.t.t.t.t.t.t.t.t.t.t.t.t.t.t.t.t.t.t.t.t.t.",
"t.t.t.t.t.A ` ` ` ` ` ` ` ` H ) V < ` ` ` Y p j d j 7.7.Q t.t.t.t.t.t.t.t.t.t.t.t.t.t.t.t.t.t.t.t.t.t.t.t.t.t.t.t.t.t.t.",
"t.t.t.t.q ` ` ` U D ` ` ` ` T n o 0 ` ` ` S . t.> 8.r.r.0.< t.t.t.t.t.t.t.t.t.t.t.t.t.t.t.t.t.t.t.t.t.t.t.t.t.t.t.t.t.t.",
"t.t.t.t.A ` ` U X % P ` ` ` ` U t h ` ` ` ; t.t.v r.r.r.r.<.t.t.t.t.t.t.t.t.t.t.t.t.t.t.t.t.t.t.t.t.t.t.t.t.t.t.t.t.t.t.",
"t.t.t.t.P ` ` p + D ` ` ` ` ` T P l ` ` ` t.t.q 5.r.r.r.r.q.t.t.t.t.t.t.t.t.t.t.t.t.t.t.t.t.t.t.t.t.t.t.t.t.t.t.t.t.t.t.",
"t.t.t.t.T ' T $ n W ` ` ` ` ` ` D S ` ` Y > @ X.r.r.r.r.r.6.& t.t.t.t.t.t.t.t.t.t.t.t.t.t.t.t.t.t.t.t.t.t.t.t.t.t.t.t.t.",
"t.t.t.t.c [ A 2 &.` ` W ` ` ` ` 8 D ` ` W Y p 5.r.r.r.r.r.| O .   t.t.t.t.t.t.t.t.t.t.t.t.t.t.t.t.t.t.t.t.t.t.t.t.t.t.t.",
"t.t.t.t.$ H t =._ ` ` T ` ` ` P r W ` ` ` ` H X.4.4.r.q.8.0 Z ` D s 3 * t.t.t.t.t.t.t.t.t.t.t.t.t.t.t.t.t.t.t.t.t.t.t.t.",
"t.t.t.t.* k y ,.m ` Z P ` ` ` D j ` ` ` ` ` W k F R r.6.+.8 Y ` ` ` ` c 3 t.t.t.t.t.t.t.t.t.t.t.t.t.t.t.t.t.t.t.t.t.t.t.",
"t.t.t.5 , E g V S s Y ` ` ` Y s ` ` ` ` ` ` W ` D R r.5.a ` ` ` ` ` ` ` W 0 t.t.t.t.t.t.t.t.t.t.t.t.t.t.t.t.t.t.t.t.t.t.",
"t.t.t.s f J 4.w D W Y T ` ` H i U ` ` ` ` ` ` ` Y a r.5.z ` ` ` ` ` ` ` ` Y e t.t.t.t.t.t.t.t.t.t.t.t.t.t.t.t.t.* t.t.t.",
"t.t.= f * v w. .t a G v P ` W ` S S S S U ` ` ` ` l X.R k ` ` ` ` ` ` ` ` ` ` - t.t.t.t.t.t.t.t.t.t.t.t.t.z X.r.r.3.t.t.",
"t.t.t.z 4.9.r.0.o.4.+.T ` ` ` P i U F d s 4 s P ` T l k I ` ` ` ` ` ` ` ` ` ` h t.t.t.t.t.t.t.t.t.t.t.t.J 9.r.r.7.Q J t.",
"t.t.t.t.o.q.r.r.r.r.Q P W ` ` S 4.4.4.4.4.4.{ F z a i s c l Z Z U ` ` ` ` ` ` ` & @ t.t.t.t.t.t.t.t.O v q.r.q.Q t.t.t.t.",
"t.t.t.t.G r.9.e.6.Q 7 Z W W ` U G 4.4.3.E 2.4.4.4.4.4.4.4.<.{ z S ` ` ` ` ` ` ` , q   t.t.t.t.t.t.O d A 0.e.R t.t.t.t.t.",
"t.t.t.t.t.t.t.t.t.t.t.l ` k S S c 4.} z  .z @.@.4.4.4.4.4.4.4.Z T ` ` ` ` ` ` ` @ l k +   t.t.t.= x ` Q 7.v t.t.t.t.t.t.",
"t.t.t.t.t.t.t.t.t.t.t.p ` U 6 v @.4.R 7.7.Q { z E 4.4.4.4.4.<.d ` ` ` ` ` ` ` Y X p ` Z 7 @ @ 0 H ` ` Z 5 t.t.t.t.t.t.t.",
"t.t.t.t.t.t.t.t.t.t.t.q ` ` P 7 z F 6.r.r.r.r.7.Q 4.4.4.4.4.G A ` ` ` ` ` ` ` l - r ` ` ` ` ` ` ` ` ` r   t.t.t.t.t.t.t.",
"t.t.t.t.t.t.t.t.t.t.t.7 ` ` ` D t F r.r.r.r.r.} E 4.4.4.4.4.e I ` ` ` ` ` ` ` 8 8 r ` ` ` ` ` ` ` ` h . t.t.t.t.t.t.t.t.",
"t.t.t.t.t.t.t.t.t.t.t.< ` ` ` ` W E 7.r.r.r.4.R 4.4.4.4.4.4.q ` ` ` ` ` ` ` ` ; k p W ` ` ` ` ` U r   t.t.t.t.t.t.t.t.t.",
"t.t.t.t.t.t.t.t.t.t.t.t.` ` ` ` ` f 4.r.r.7.3.z @.4.4.4.4.4.i ` ` ` ` ` ` ` U 8 r t W W ` ` W U 4 . t.t.t.t.t.t.t.t.t.t.",
"t.t.t.t.t.t.t.t.t.t.t.t.D ` ` ` ` c w.r.r.0.Q t.: R 4.4.4.3.j ` ` ` ` ` ` ` p - a t 7 d c k q X t.t.t.t.t.t.t.t.t.t.t.t.",
"t.t.t.t.t.t.t.t.t.t.t.t.6 D ` ` W j q.r.r.7.* t.t.X r X.4.X.c ` ` ` ` ` ` Y - 6 c R } . X X   t.t.t.t.t.t.t.t.t.t.t.t.t.",
"t.t.t.t.t.t.t.t.t.t.t.t.t.X p d t r 7.r.r.4.F t.t.t.t.. 5 a P ` ` ` ` ` ` l q c P X.r.* t.t.t.t.t.t.t.t.t.t.t.t.t.t.t.t.",
"t.t.t.t.t.t.t.t.t.t.t.t.t.t.t.t.t.t.f 5.r.5.t.t.t.t.t.t.t.  U ` ` ` ` ` ` < c U J 4.r.8 t.t.t.t.t.t.t.t.t.t.t.t.t.t.t.t.",
"t.t.t.t.t.t.t.t.t.t.t.t.t.t.t.t.t.t.t.t.8 t.t.t.t.t.t.t.t.t.T ` ` ` ` ` S 4 Z ` D 4.r.f t.t.t.t.t.t.t.t.t.t.t.t.t.t.t.t.",
"t.t.t.t.t.t.t.t.t.t.t.t.t.t.t.t.t.t.t.t.t.t.t.t.t.t.t.t.t.+ W ` ` ` ` ` i c H W J q.r.v t.t.t.t.t.t.t.t.t.t.t.t.t.t.t.t.",
"t.t.t.t.t.t.t.t.t.t.t.t.t.t.t.t.t.t.t.t.t.t.t.t.t.t.t.t.t.& ` ` ` ` ` U 0 ` ` S 3.r.r.} t.t.t.t.t.t.t.t.t.t.t.t.t.t.t.t.",
"t.t.t.t.t.t.t.t.t.t.t.t.t.t.t.t.t.t.t.t.t.t.t.t.t.t.t.t.t.* ` ` ` ` ` l 8 ` S k w.r.r.7.t.t.t.t.t.t.t.t.t.t.t.t.t.t.t.t.",
"t.t.t.t.t.t.t.t.t.t.t.t.t.t.t.t.t.t.t.t.t.t.t.t.t.t.t.t.t.& W ` ` ` ` e : 3 . | r.r.r.r.v t.t.t.t.t.t.t.t.t.t.t.t.t.t.t.",
"t.t.t.t.t.t.t.t.t.t.t.t.t.t.t.t.t.t.t.t.t.t.t.t.t.t.t.t.t.* ` ` ` ` ` 6   t.t.@.r.r.r.r.o.t.t.t.t.t.t.t.t.t.t.t.t.t.t.t.",
"t.t.t.t.t.t.t.t.t.t.t.t.t.t.t.t.t.t.t.t.t.t.t.t.t.t.t.t.t.$ ` ` ` ` ` 4 t.t.t.2.r.r.r.r.r.| t.t.t.t.t.t.t.t.t.t.t.t.t.t.",
"t.t.t.t.t.t.t.t.t.t.t.t.t.t.t.t.t.t.t.t.t.t.t.t.t.t.t.t.t.. W ` ` ` ` 0 t.t.t.3.r.r.r.r.r.0.= t.t.t.t.t.t.t.t.t.t.t.t.t.",
"t.t.t.t.t.t.t.t.t.t.t.t.t.t.t.t.t.t.t.t.t.t.t.t.t.t.t.t.t.t.Z ` ` ` ` k X t.t.4.q.q.r.e.r.r.J t.t.t.t.t.t.t.t.t.t.t.t.t.",
"t.t.t.t.t.t.t.t.t.t.t.t.t.t.t.t.t.t.t.t.t.t.t.t.t.t.t.t.t.t.6 ` ` ` ` U < t.t.<.4.5.r.5.r.r.} t.t.t.t.t.t.t.t.t.t.t.t.t.",
"t.t.t.t.t.t.t.t.t.t.t.t.t.t.t.t.t.t.t.t.t.t.t.t.t.t.t.t.t.t.  S ` ` ` W Z , t.I 2.X.r.X.5.7.8 t.t.t.t.t.t.t.t.t.t.t.t.t.",
"t.t.t.t.t.t.t.t.t.t.t.t.t.t.t.t.t.t.t.t.t.t.t.t.t.t.t.t.t.t.t.6 P ` ` h e J y 5 6.} r.w.v 5 t.t.t.t.t.t.t.t.t.t.t.t.t.t.",
"t.t.t.t.t.t.t.t.t.t.t.t.t.t.t.t.t.t.t.t.t.t.t.t.t.t.t.t.t.t.t.t.< H W j J r...  z a 3.8.f t.t.t.t.t.t.t.t.t.t.t.t.t.t.t.",
"t.t.t.t.t.t.t.t.t.t.t.t.t.t.t.t.t.t.t.t.t.t.t.t.t.t.t.t.t.t.t.t.t.= P I F e.X.t.t.t.< 8 t.t.t.t.t.t.t.t.t.t.t.t.t.t.t.t.",
"t.t.t.t.t.t.t.t.t.t.t.t.t.t.t.t.t.t.t.t.t.t.t.t.t.t.t.t.t.t.t.t.t.X f { r.r.s t.t.t.t.t.t.t.t.t.t.t.t.t.t.t.t.t.t.t.t.t.",
"t.t.t.t.t.t.t.t.t.t.t.t.t.t.t.t.t.t.t.t.t.t.t.t.t.t.t.t.t.t.t.t.+ Q r.0.r.7.t.t.t.t.t.t.t.t.t.t.t.t.t.t.t.t.t.t.t.t.t.t.",
"t.t.t.t.t.t.t.t.t.t.t.t.t.t.t.t.t.t.t.t.t.t.t.t.t.t.t.t.t.t.t.8 X.r.r.r.r.E t.t.t.t.t.t.t.t.t.t.t.t.t.t.t.t.t.t.t.t.t.t.",
"t.t.t.t.t.t.t.t.t.t.t.t.t.t.t.t.t.t.t.t.t.t.t.t.t.t.t.t.t.t.a 5.r.5.r.r.w.: t.t.t.t.t.t.t.t.t.t.t.t.t.t.t.t.t.t.t.t.t.t.",
"t.t.t.t.t.t.t.t.t.t.t.t.t.t.t.t.t.t.t.t.t.t.t.t.t.t.t.t.F 2.r.5.Q 8.r.r.{ t.t.t.t.t.t.t.t.t.t.t.t.t.t.t.t.t.t.t.t.t.t.t.",
"t.t.t.t.t.t.t.t.t.t.t.t.t.t.t.t.t.t.t.t.t.t.t.t.t.t.t.z 3.| 0.R 7.r.r.6.w t.t.t.t.t.t.t.t.t.t.t.t.t.t.t.t.t.t.t.t.t.t.t.",
"t.t.t.t.t.t.t.t.t.t.t.t.t.t.t.t.t.t.t.t.t.t.t.t.t.t.t.y v q.z 0.r.r.q.a t.t.t.t.t.t.t.t.t.t.t.t.t.t.t.t.t.t.t.t.t.t.t.t.",
"t.t.t.t.t.t.t.t.t.t.t.t.t.t.t.t.t.t.t.t.t.t.t.t.t.t.t.t.t.} F r.r.r.m t.t.t.t.t.t.t.t.t.t.t.t.t.t.t.t.t.t.t.t.t.t.t.t.t.",
"t.t.t.t.t.t.t.t.t.t.t.t.t.t.t.t.t.t.t.t.t.t.t.t.t.t.t.t.t.t.& 6.6.a t.t.t.t.t.t.t.t.t.t.t.t.t.t.t.t.t.t.t.t.t.t.t.t.t.t.",
"t.t.t.t.t.t.t.t.t.t.t.t.t.t.t.t.t.t.t.t.t.t.t.t.t.t.t.t.t.t.t.a t.t.t.t.t.t.t.t.t.t.t.t.t.t.t.t.t.t.t.t.t.t.t.t.t.t.t.t.",
"t.t.t.t.t.t.t.t.t.t.t.t.t.t.t.t.t.t.t.t.t.t.t.t.t.t.t.t.t.t.t.t.t.t.t.t.t.t.t.t.t.t.t.t.t.t.t.t.t.t.t.t.t.t.t.t.t.t.t.t.",
"t.t.t.t.t.t.t.t.t.t.t.t.t.t.t.t.t.t.t.t.t.t.t.t.t.t.t.t.t.t.t.t.t.t.t.t.t.t.t.t.t.t.t.t.t.t.t.t.t.t.t.t.t.t.t.t.t.t.t.t.",
"t.t.t.t.t.t.t.t.t.t.t.t.t.t.t.t.t.t.t.t.t.t.t.t.t.t.t.t.t.t.t.t.t.t.t.t.t.t.t.t.t.t.t.t.t.t.t.t.t.t.t.t.t.t.t.t.t.t.t.t.",
"t.t.t.t.t.t.t.t.t.t.t.t.t.t.t.t.t.t.t.t.t.t.t.t.t.t.t.t.t.t.t.t.t.t.t.t.t.t.t.t.t.t.t.t.t.t.t.t.t.t.t.t.t.t.t.t.t.t.t.t.",
"t.t.t.t.t.t.t.t.t.t.t.t.t.t.t.t.t.t.t.t.t.t.t.t.t.t.t.t.t.t.t.t.t.t.t.t.t.t.t.t.t.t.t.t.t.t.t.t.t.t.t.t.t.t.t.t.t.t.t.t.",
"t.t.t.t.t.t.t.t.t.t.t.t.t.t.t.t.t.t.t.t.t.t.t.t.t.t.t.t.t.t.t.t.t.t.t.t.t.t.t.t.t.t.t.t.t.t.t.t.t.t.t.t.t.t.t.t.t.t.t.t.",
"t.t.t.t.t.t.t.t.t.t.t.t.t.t.t.t.t.t.t.t.t.t.t.t.t.t.t.t.t.t.t.t.t.t.t.t.t.t.t.t.t.t.t.t.t.t.t.t.t.t.t.t.t.t.t.t.t.t.t.t.",
"t.t.t.t.t.t.t.t.t.t.t.t.t.t.t.t.t.t.t.t.t.t.t.t.t.t.t.t.t.t.t.t.t.t.t.t.t.t.t.t.t.t.t.t.t.t.t.t.t.t.t.t.t.t.t.t.t.t.t.t."
};
