/* XPM */
static char *result[] = {
/* columns rows colors chars-per-pixel */
"60 70 196 2 ",
"   c #030303",
".  c gray3",
"X  c #19180E",
"o  c gray9",
"O  c #312E0D",
"+  c #1D2326",
"@  c #202021",
"#  c #34393C",
"$  c #323535",
"%  c #282F33",
"&  c #661618",
"*  c #731212",
"=  c #523535",
"-  c #6C2A2C",
";  c #574C00",
":  c #7E7218",
">  c #726D31",
",  c #39306D",
"<  c #5A0058",
"1  c #503F4F",
"2  c #463846",
"3  c #643F46",
"4  c #3C464C",
"5  c #3A4146",
"6  c #4D4C4E",
"7  c #424749",
"8  c #484C56",
"9  c #45535B",
"0  c #4C555B",
"q  c #4A5358",
"w  c #545C5D",
"e  c #535556",
"r  c #4D4E54",
"t  c #794B52",
"y  c #706D4E",
"u  c #6F7658",
"i  c #485760",
"p  c #4D5B63",
"a  c #525D63",
"s  c #675969",
"d  c #725E75",
"f  c #4F6069",
"g  c #53636C",
"h  c #5B666C",
"j  c #5E6467",
"k  c #566973",
"l  c #5B6A74",
"z  c #5C6E79",
"x  c #556670",
"c  c #5E717C",
"v  c #6C6D6D",
"b  c #636568",
"n  c #666A79",
"m  c #7B687A",
"M  c #62727D",
"N  c #6B787C",
"B  c #7A7A7B",
"V  c #727272",
"C  c #6C7868",
"Z  c #980404",
"A  c #891516",
"S  c #90060F",
"D  c #A70808",
"F  c #B30304",
"G  c #B31416",
"H  c #8B0020",
"J  c #931E21",
"K  c #B20029",
"L  c #842D31",
"P  c #A22123",
"I  c #A8393F",
"U  c #C50404",
"Y  c #D90003",
"T  c #DE0B0B",
"R  c #C50013",
"E  c #ED0103",
"W  c #E40202",
"Q  c #F30000",
"!  c #FE0000",
"~  c #897807",
"^  c #81004A",
"/  c #845D5D",
"(  c #815D66",
")  c #886168",
"_  c #7B8B7D",
"`  c #988609",
"'  c #A39113",
"]  c #BFA91B",
"[  c #8D8328",
"{  c #C2A701",
"}  c #D5B602",
"|  c #FED600",
" . c #ECC700",
".. c #9F9840",
"X. c #3E0195",
"o. c #1800B6",
"O. c #2200AE",
"+. c #444487",
"@. c #627682",
"#. c #657985",
"$. c #6A7C87",
"%. c #667C89",
"&. c #6A7E8B",
"*. c #6F7782",
"=. c #727E85",
"-. c #787786",
";. c #777C90",
":. c #0900D3",
">. c #846A84",
",. c #836783",
"<. c #86728A",
"1. c #977998",
"2. c #6C818D",
"3. c #6B8086",
"4. c #7D8284",
"5. c #7C8489",
"6. c #78848C",
"7. c #6E8592",
"8. c #718693",
"9. c #738995",
"0. c #7A8B94",
"q. c #748D9B",
"w. c #788F9B",
"e. c #77909E",
"r. c #7B919E",
"t. c #7C96A5",
"y. c #7D98A7",
"u. c #848485",
"i. c #83898C",
"p. c #8C8C8C",
"a. c #848C97",
"s. c #9E899E",
"d. c #89939A",
"f. c #949494",
"g. c #999C9E",
"h. c #888CA3",
"j. c #9989A7",
"k. c #8196A2",
"l. c #8399A6",
"z. c #8A9FAB",
"x. c #959EA2",
"c. c #AD89AD",
"v. c #A988A9",
"b. c #BC92BC",
"n. c #B094BA",
"m. c #B38BB4",
"M. c #9AA3A8",
"N. c #97ADB9",
"B. c #97AAB6",
"V. c #9DB2BE",
"C. c #8FA5B1",
"Z. c #A4A4A4",
"A. c #A7A8A9",
"S. c #ACACAC",
"D. c #A0A7AA",
"F. c #ACB9B6",
"G. c #BBBCBC",
"H. c #B1B1B1",
"J. c #A0AEB6",
"K. c #BE98C0",
"L. c #9EB5C2",
"P. c #A1B6C2",
"I. c #A6BBC7",
"U. c #BABFC2",
"Y. c #C89AC9",
"T. c #D19FD0",
"R. c #CEA0D1",
"E. c #D6A6D7",
"W. c #CCA1CC",
"Q. c #E4AEE4",
"!. c #E8B2E8",
"~. c #F3B9F4",
"^. c #F9BDF9",
"/. c #ACC2CE",
"(. c #ABC3D0",
"). c #B4CCDA",
"_. c #B1C9D6",
"`. c #B9D1DE",
"'. c #BDD6E3",
"]. c #BFD8E5",
"[. c #C4C4C5",
"{. c #CBCBCB",
"}. c #D3D4D4",
"|. c #DADADA",
" X c #D7DBDD",
".X c #C9CFD2",
"XX c #C5DEEC",
"oX c #C0D8E6",
"OX c #FEC0FE",
"+X c #C7E0EE",
"@X c #DFE1E2",
"#X c #E3E3E3",
"$X c #ECECEC",
"%X c #F3F3F3",
"&X c #FDFDFD",
"*X c None",
/* pixels */
"*X*X*X*X*X*X*X*X*X*X*X*X*X*X*X*X*X*X*X*X*X*X*X*X*X*X*X*X*X*X*X*X*X*X*X*X*X*X*X*X*X*X*X*X*X*X*X*X*X*X*X*X*X*X*X*X*X*X*X*X",
"*X*X*X*X*X*X*X*X*X*X*X*X*X*X*X*X*X*X*X*X*X*X*X*X*X*X*X*X*X*X*X*X*X*X*X*X*X*X*X*X*X*X*X*X*X*X*X*X*X*X*X*X*X*X*X*X*X*X*X*X",
"*X*X*X*X*X*X*X*X*X*X*X*X*X*X*X*X*X*X*X*X*X*X*X*X*X*X*X*X*X*X*X*X*X*X*X*X*X*X*X0.*.r *X*X*X*X*X*X*X*X*X*X*X*X*X*X*X*X*X*X",
"*X*X*X*X*X*X*X*X*X*X*X*X*X*X*X*X*X*X*X*X*X*X*X*X*X*X*X) , +.e / *X*X*X*X*Xb q.r.j.s.*X*X*X*X*X*X*X*X*X*X*X*X*X*X*X*X*X*X",
"*X*X*X*X*X*X*X*X*X*X*X*X*X*X*X*X*X*X*X*X*X*X*X*X*XP T T K O.:.H G = *X*Xa q.y.z E.s.*X*X*X*X*X*X*X*X*X*X*X*X*X*X*X*X*X*X",
"*X*X*X*X*X*X*X*X*X*X*X*X*X*X*X*X*X*X*X*X*X*X*X*XU ! ! ! Q E X.:.< Z - J t y.%.,.OX>.*X*X*X*X*X*X*X*X*X*X*X*X*X*X*X*X*X*X",
"*X*X*X*X*X*X*X*X*X*X*X*X*X*X*X*X*X*X*X*X*X*X*XD ! ! ! ! ! ! R o.< Y Y D Z t.i Q.OXs *X*X*X*X*X*X*X*X*X*X*X*X*X*X*X*X*X*X",
"*X*X*X*X*X*X*X*X*X*X*X*X*X*X*X*X*X*X*X*X*X*X= Q ! ! ! ! ! ! Q S Q ! E - F e.d ^.OX>.*X*X*X*X*X*X*X*X*X*X*X*X*X*X*X*X*X*X",
"*X*X*X*X*X*X*X*X*X*X*X*X*X*X*X*X*X*X*X*X*X*X* ! ! ! ! ! ! ! D ! ! ! I 3 & %.>.^.^.c.*X*X*X*X*X*X*X*X*X*X*X*X*X*X*X*X*X*X",
"*X*X*X*X*X*X*X*X*X*X*X*X*X*X*X*Xp c 9.e.9.M & Q ! ! ! ! ! Q Z ! Q A *.%.7.%.-.K.^.m.*X*X*X*X*X*X*X*X*X*X*X*X*X*X*X*X*X*X",
"*X*X*X*X*X*X*X*X*X*X*X*X*X*XB K.E.Y.n.h.t.t.t.s J W ! ! ! F E W L %.t.t.p #.1 ,.~.1.*X*X*X*X*X*X*X*X*X*X*X*X*X*X*X*X*X*X",
"*X*X*X*X*X*X*X*X*X*X*X*X*X*X*Xv.~.OXOXE.h.t.t.t.8.t P G D S A d 6.2.7.q.k p + 8 T.d *X*X*X*X*X*X*X*X*X*X*X*X*X*X*X*X*X*X",
"*X*X*X*X*X*X*X*X*X*X*X*X*X*X*X*Xb.^.OXOX~.j.t.t.y.y.q.@.z 4 + #.t.t.#.g k % z 7.d m *X*X*X*X*X*X*X*X*X*X*X*X*X*X*X*X*X*X",
"*X*X*X*X*X*X*X*X*X*X*X*X*X*X*X*X<.^.OXOXOXOXj.t.y.y.y.y.t.+ 4 i x t.z x &.p q.t.g *X*X*X*X*X*X*X*X*X*X*X*X*X*X*X*X*X*X*X",
"*X*X*X*X*X*X*X*X*X*X*X*X*X*X*X*X>.!.OXOXOXOX~.a.t.y.t.t.2.4 t.t.q.t.#.&.7.7.y.t.8.*X*X*X*X*X*X*X*X*X*X*X*X*X*X*X*X*X*X*X",
"*X*X*X*X*X*X*X*X*X*X*X*X*X*X*X*Xm E.OXOXOXOXOXQ.k t.t.t.e.M t.t.t.z.N.z.l.N.t.t.t.p *X*X*X*X*X*X*X*X*X*X*X*X*X*X*X*X*X*X",
"*X*X*X*X*X*X*X*X*X*X*X*X*X*X*X*X2 R.OXOXOX~.^.T.c y.t.y.t.e.t.y.t.e._.'.+X`.2.e.t.M *X*X*X*X*X*X*X*X*X*X*X*X*X*X*X*X*X*X",
"*X*X*X*X*X*X*X*X*X*X*X*X*X*X*X*X6 R.OXOXOXv.1.;.t.t.t.t.t.t.t.t.r.#.y.XX+X+Xw > N %.*X*X*X*X*X*X*X*X*X*X*X*X*X*X*X*X*X*X",
"*X*X*X*X*X*X*X*X*X*X*X*X*X*X*X*X*XW.OXOX^.!.a y.t.t.t.t.t.t.t.3.> ~ y '.XX+X[ | ' @.7 *X*X*X*X*X*X*X*X*X*X*X*X*X*X*X*X*X",
"*X*X*X*X*X*X*X*X*X*X*X*X*X*X*X*X*Xb.OXOX^.<.&.y.t.t.y.t.t.t.r.:  .| ] /.XXXX..{ } C 0 *X*X*X*X*X*X*X*X*X*X*X*X*X*X*X*X*X",
"*X*X*X*X*X*X*X*X*X*X*X*X*X*X*X*X*X1.OX^.^.1.;.t.t.t.y.t.t.y.M ] ` } } F.XXXXq @ : u 2.a *X*X*X*X*X*X*X*X*X*X*X*X*X*X*X*X",
"*X*X*X*X*X*X*X*X*X*X*X*X*X*X*X*X*X<.!.^.^.Q.n t.t.t.t.t.t.r.z ; X > ] F.'.P.%   O _ t.q.w *X*X*X*X*X*X*X*X*X*X*X*X*X*X*X",
"*X*X*X*X*X*X*X*X*X*X*X*X*X*X*X*X*X*Xc.^.^.m.q.t.t.t.t.t.t.t.7.    X ` J.d.C . $ 5 9.t.t.l *X*X*X*X*X*X*X*X*X*X*X*X*X*X*X",
"*X*X*X*X*X*X*X*X*X*X*X*X*X*X*X*X*X*X*XY.T.@.t.t.y.t.t.t.t.y.2.q.3.6 y $Xf.$ o |.a.r.t.t.z *X*X*X*X*X*X*X*X*X*X*X*X*X*X*X",
"*X*X*X*X*X*X*X*X*X*X*X*X*X*X*X*X*X*X*Xs n t.t.t.t.t.t.t.t.t.t.t.t.q.n $X&X#XS.&X=.t.t.t.k g.*X*X*X*X*X*X*X*X*X*X*X*X*X*X",
"*X*X*X*X*X*X*X*X*X*X*X*X*X*X*X*X*X*X*X7 9 q.t.t.t.t.t.t.t.t.y.t.e.7._ $X&X$X{.}.0.t.t.t.M *X*X*X*X*X*X*X*X*X*X*X*X*X*X*X",
"*X*X*X*X*X*X*X*X*X*X*X*X*X*X*X*X*X*X*X*X7.t.t.t.t.t.t.t.t.t.t.t.e.r./.}.@X#X$XG.k.t.t.t.h *X*X*X*X*X*X*X*X*X*X*X*X*X*X*X",
"*X*X*X*X*X*X*X*X*X*X*X*X*X*X*X*X*X*X*X3.c q.t.t.t.t.t.t.t.t.t.y.y.0.&X&X&X&X}.}.r.t.t.e.a *X*X*X*X*X*X*X*X*X*X*X*X*X*X*X",
"*X*X*X*X*X*X*X*X*X*X*X*X*X*X*X*X*X*X*Xq 5 9.8.t.t.t.t.t.t.t.t.t.t.e..X&X&X&X&XM.t.t.9.a *X*X*X*X*X*X*X*X*X*X*X*X*X*X*X*X",
"*X*X*X*X*X*X*X*X*X*X*X*X*X*X*X*X*X*X*X*Xe 9 %.t.t.t.t.t.t.t.t.t.t.t.t.[.&X&XM.w.t.q.g *X*X*X*X*X*X*X*X*X*X*X*X*X*X*X*X*X",
"*X*X*X*X*X*X*X*X*X*X*X*X*X*X*X*X*X*X*X*X*Xv a t.t.t.t.t.t.t.t.t.t.t.t.t.r.d.r.t.7.h *X*X*X*X*X*X*X*X*X*X*X*X*X*X*X*X*X*X",
"*X*X*X*X*X*X*X*X*X*X*X*X*X*X*X*X*X*X*X*X*X*X*Xz 8.t.t.t.t.t.y.t.t.t.t.t.y.y.t.@.a *X*X*X*X*X*X*X*X*X*X*X*X*X*X*X*X*X*X*X",
"*X*X*X*X*X*X*X*X*X*X*X*X*X*X*X*X*X*X*X*X*X*X*X*Xa M z 8.y.8.#.@.q.t.t.t.t.t.y.4 z k *X*X*X*X*X*X*X*X*X*X*X*X*X*X*X*X*X*X",
"*X*X*X*X*X*X*X*X*X*X*X*X*X*X*X*X*X*X*X*X*X*X*X*X*X*X*X*Xe 9 y.t.q.t.t.t.y.t.y.%.t.q.0 *X*X*X*X*X*X*X*X*X*X*X*X*X*X*X*X*X",
"*X*X*X*X*X*X*X*X*X*X*X*X*X*X*X*X*X*X*X*X*X*X*X*X*X*X*X*X4 q.t.t.t.t.t.t.t.t.t.t.t.t.h *X*X*X*X*X*X*X*X*X*X*X*X*X*X*X*X*X",
"*X*X*X*X*X*X*X*X*X*X*X*X*X*X*X*X*X*X*X*X*X*X*X*X*X*X*X*Xz y.t.t.t.t.t.t.8.z.q.y.t.8.#.*X*X*X*X*X*X*X*X*X*X*X*X*X*X*X*X*X",
"*X*X*X*X*X*X*X*X*X*X*X*X*X*X*X*X*X*X*X*X*X*X*X*X*X*X*Xa q.t.t.t.t.t.t.t.k.].l.e.L.V.%.j *X*X*X*X*X*X*X*X*X*X*X*X*X*X*X*X",
"*X*X*X*X*X*X*X*X*X*X*X*X*X*X*X*X*X*X*X*X*X*X*X*X*X*X*XM y.t.t.t.t.t.t.t.N.XX).L.]./.7.h *X*X*X*X*X*X*X*X*X*X*X*X*X*X*X*X",
"*X*X*X*X*X*X*X*X*X*X*X*X*X*X*X*X*X*X*X*X*X*X*X*X*X*X*X2.t.t.t.t.t.t.t.t.(.XXXXXXXXoX8.M *X*X*X*X*X*X*X*X*X*X*X*X*X*X*X*X",
"*X*X*X*X*X*X*X*X*X*X*X*X*X*X*X*X*X*X*X*X*X*X*X*X*X*X0 t.t.t.t.y.t.t.t.@.oXXXXXXXXX+X2.t.# *X*X*X*X*X*X*X*X*X*X*X*X*X*X*X",
"*X*X*X*X*X*X*X*X*X*X*X*X*X*X*X*X*X*X*X*X*X*X*X*X*X*Xa t.t.y.t.t.8.9.t.@.+XXXXXXXXX+X9.t.a *X*X*X*X*X*X*X*X*X*X*X*X*X*X*X",
"*X*X*X*X*X*X*X*X*X*X*X*X*X*X*X*X*X*X*X*X*X*X*X*X*X*X@.t.t.t.y.%.#.t.t.w.XXXXXXXXXXXX9.t.a *X*X*X*X*X*X*X*X*X*X*X*X*X*X*X",
"*X*X*X*X*X*X*X*X*X*X*X*X*X*X*X*X*X*X*X*X*X*X*X*X*X*X2.t.t.t.t.9 7.t.q.P.XXXXXXXXXXXX0.t.@.*X*X*X*X*X*X*X*X*X*X*X*X*X*X*X",
"*X*X*X*X*X*X*X*X*X*X*X*X*X*X*X*X*X*X*X*X*X*X*X*X*Xq 7.e.t.t.p e.t.t.t.).XXXXXXXXXXXX0.a.M.6 *X*X*X*X*X*X*X*X*X*X*X*X*X*X",
"*X*X*X*X*X*X*X*X*X*X*X*X*X*X*X*X*X*X*X*X*X*X*X*XV e a.5.%.e.0 t.t.t.t.).XXXXXXXXXXXXx.#X&Xg.*X*X*X*X*X*X*X*X*X*X*X*X*X*X",
"*X*X*X*X*X*X*X*X*X*X*X*X*X*X*X*X*X*X*Xi.u.*X*XS.&X&X&X$X%Xi.q.t.t.t.l.oXXXXXXXXXXXXX5.}.&X}.*X*X*X*X*X*X*X*X*X*X*X*X*X*X",
"*X*X*X*X*X*X*X*X*X*X*X*X*X*X*X*X*Xp.{.#X@X4.*X{.G.#X$X&X&X#X9.t.y.t.C.XXXXXXXXXXXX`.i.&X%X{.B *X*X*X*X*X*X*X*X*X*X*X*X*X",
"*X*X*X*X*X*X*X*X*X*X*X*X*X*X*X*X) {.&X&X&Xf.n u.#X}.@X&X@X&X$.t.t.e.(.XXXXXXXXXXXX/.B $X[.$XB *X*X*X*X*X*X*X*X*X*X*X*X*X",
"*X*X*X*X*X*X*X*X*X*X*X*X*X*X*X*X[.$X%X&X&XB.e.# $X}.%X%X[.#X%.t.t.l.`.XXXXXXXXXXXXB.G.f.$X%X*X*X*X*X*X*X*X*X*X*X*X*X*X*X",
"*X*X*X*X*X*X*X*X*X*X*X*X*X*X*Xw Z.*X) @X.X5.y.M e g.}.}.4.7.t.t.y.N.XXXXXXXXXXXXXXN }.|.S.S.*X*X*X*X*X*X*X*X*X*X*X*X*X*X",
"*X*X*X*X*X*X*X*X*X*X*X*X*X*X*X*X*X*X*XZ.B.2.y.e.9 t.r.9.t.t.t.t.r._.XXXXXXXXXXXX`.u.B u.*X*X*X*X*X*X*X*X*X*X*X*X*X*X*X*X",
"*X*X*X*X*X*X*X*X*X*X*X*X*X*X*X*X*X*X*Xb r.t.y.l q.t.y.y.t.t.%.t.l.].XXXXXXXXXXXXI.*X*X*X*X*X*X*X*X*X*X*X*X*X*X*X*X*X*X*X",
"*X*X*X*X*X*X*X*X*X*X*X*X*X*X*X*X*X*X*Xw 2.t.t.f y.t.t.t.t.t.c t.B.XXXXXXXXXXXXXXa.*X*X*X*X*X*X*X*X*X*X*X*X*X*X*X*X*X*X*X",
"*X*X*X*X*X*X*X*X*X*X*X*X*X*X*X*X*X*X*X*X7.t.y.f t.t.t.t.t.y.t.4 I.+XXXXXXXXXXXC.*X*X*X*X*X*X*X*X*X*X*X*X*X*X*X*X*X*X*X*X",
"*X*X*X*X*X*X*X*X*X*X*X*X*X*X*X*X*X*X*X*X@.t.y.k t.t.t.t.t.t.t.h /.XXXXXXXXXX).0 *X*X*X*X*X*X*X*X*X*X*X*X*X*X*X*X*X*X*X*X",
"*X*X*X*X*X*X*X*X*X*X*X*X*X*X*X*X*X*X*X*Xa 8.y.k t.t.y.t.t.t.t.x L.XXXXXXXX).%.0 *X*X*X*X*X*X*X*X*X*X*X*X*X*X*X*X*X*X*X*X",
"*X*X*X*X*X*X*X*X*X*X*X*X*X*X*X*X*X*X*X*X*Xl 9.0 t.t.t.t.y.t.t.k V.XXXXXXI.3.7.7 *X*X*X*X*X*X*X*X*X*X*X*X*X*X*X*X*X*X*X*X",
"*X*X*X*X*X*X*X*X*X*X*X*X*X*X*X*X*X*X*X*X*X*Xb q c t.t.y.t.t.t.c 0.].V.9.c t.z *X*X*X*X*X*X*X*X*X*X*X*X*X*X*X*X*X*X*X*X*X",
"*X*X*X*X*X*X*X*X*X*X*X*X*X*X*X*X*X*X*X*X*X*X*X*X$ t.t.t.t.t.t.k g 9 9 e.t.t.h *X*X*X*X*X*X*X*X*X*X*X*X*X*X*X*X*X*X*X*X*X",
"*X*X*X*X*X*X*X*X*X*X*X*X*X*X*X*X*X*X*X*X*X*X*X*Xj 2.t.t.t.t.t.p # 7.t.t.t.t.h *X*X*X*X*X*X*X*X*X*X*X*X*X*X*X*X*X*X*X*X*X",
"*X*X*X*X*X*X*X*X*X*X*X*X*X*X*X*X*X*X*X*X*X*X*X*X*Xz t.t.y.t.t.5.-.7.t.t.t.t.b *X*X*X*X*X*X*X*X*X*X*X*X*X*X*X*X*X*X*X*X*X",
"*X*X*X*X*X*X*X*X*X*X*X*X*X*X*X*X*X*X*X*X*X*X*X*X*Xg t.t.t.t.y.g.[.$.t.t.8.w.4.*X*X*X*X*X*X*X*X*X*X*X*X*X*X*X*X*X*X*X*X*X",
"*X*X*X*X*X*X*X*X*X*X*X*X*X*X*X*X*X*X*X*X*X*X*X*X*X0 e.t.y.t.r.A.[.x.2.U.x.H.u.*X*X*X*X*X*X*X*X*X*X*X*X*X*X*X*X*X*X*X*X*X",
"*X*X*X*X*X*X*X*X*X*X*X*X*X*X*X*X*X*X*X*X*X*X*X*X*X*X2.t.y.q.3.}.$X}.}.}.%X&X$XG.*X*X*X*X*X*X*X*X*X*X*X*X*X*X*X*X*X*X*X*X",
"*X*X*X*X*X*X*X*X*X*X*X*X*X*X*X*X*X*X*X*X*X*X*X*X*X*X#.y.w.5.@X&X&X#XG.p.%X#X#X$X}.*X*X*X*X*X*X*X*X*X*X*X*X*X*X*X*X*X*X*X",
"*X*X*X*X*X*X*X*X*X*X*X*X*X*X*X*X*X*X*X*X*X*X*X*X*X*XB J. X$X&X&X&X&X&XV &X{.&XS.|.*X*X*X*X*X*X*X*X*X*X*X*X*X*X*X*X*X*X*X",
"*X*X*X*X*X*X*X*X*X*X*X*X*X*X*X*X*X*X*X*X*X*X*X*X*X*X/.%X&X&X&X&X&X&X&Xp.}.{.G.H.A.*X*X*X*X*X*X*X*X*X*X*X*X*X*X*X*X*X*X*X",
"*X*X*X*X*X*X*X*X*X*X*X*X*X*X*X*X*X*X*X*X*X*X*X*X*X*X{.&X&X&X%XG.{.%X|.b f.H.b 6 *X*X*X*X*X*X*X*X*X*X*X*X*X*X*X*X*X*X*X*X",
"*X*X*X*X*X*X*X*X*X*X*X*X*X*X*X*X*X*X*X*X*X*X*X*X*X*XV G.Z.B *X*X*X*X*X*X*X*X*X*X*X*X*X*X*X*X*X*X*X*X*X*X*X*X*X*X*X*X*X*X",
"*X*X*X*X*X*X*X*X*X*X*X*X*X*X*X*X*X*X*X*X*X*X*X*X*X*X*X*X*X*X*X*X*X*X*X*X*X*X*X*X*X*X*X*X*X*X*X*X*X*X*X*X*X*X*X*X*X*X*X*X"
};
